<svg width="127" height="25" viewBox="0 0 127 25" fill="none" xmlns="http://www.w3.org/2000/svg">
<path d="M57.3636 11.4857C56.7763 10.0736 55.8628 8.9173 54.6073 8.04029C53.2422 7.08758 51.7126 6.59426 50.063 6.4768C48.9354 6.39589 47.8235 6.51073 46.7403 6.83961C44.7174 7.45561 43.0886 8.61191 41.9297 10.3946C41.0579 11.7337 40.6247 13.2214 40.5203 14.8032C40.4472 15.9073 40.5098 17.0062 40.776 18.0894C41.1258 19.5119 41.7601 20.7883 42.7572 21.8663C44.4016 23.6438 46.4766 24.526 48.8597 24.727C49.7759 24.8053 50.692 24.7557 51.6004 24.5887C53.0203 24.3251 54.3202 23.7952 55.4765 22.926C55.9646 22.558 56.4057 22.1404 56.7946 21.6392C56.1055 20.9058 55.4216 20.1775 54.7613 19.4728C54.3254 19.7521 53.9312 20.0392 53.5084 20.2715C52.7253 20.6996 51.8718 20.9058 50.9844 20.9919C49.9795 21.0885 48.9902 21.0232 48.0297 20.71C46.3853 20.1723 45.2942 19.0891 44.8061 17.4081C44.8401 17.3899 44.8453 17.3847 44.8557 17.382C44.8636 17.3794 44.874 17.3794 44.8818 17.3794C44.9001 17.3768 44.9184 17.3768 44.934 17.3768C49.2251 17.3768 53.5162 17.3768 57.8047 17.3768C57.823 17.3768 57.8413 17.3768 57.8569 17.3768C57.8648 17.3768 57.8752 17.3768 57.883 17.3768C57.9013 17.3742 57.917 17.3742 57.9352 17.369C57.9431 17.3664 57.9509 17.3612 57.9561 17.3559C57.9639 17.3507 57.9692 17.3429 57.977 17.3377C58.1153 16.2988 58.1336 15.4401 58.0527 14.4065C57.9718 13.3963 57.7525 12.4201 57.3636 11.4857ZM44.7409 14.028C44.8427 13.5321 45.0123 13.0831 45.2499 12.6603C45.9677 11.3917 47.0587 10.6426 48.4838 10.3764C49.7158 10.1467 50.8878 10.3294 51.9788 10.9532C53.0856 11.5849 53.8294 12.7412 53.926 14.028H44.7409Z" fill="#00317A"/>
<path d="M69.4329 6.78579C64.6824 6.78579 60.8168 10.61 60.8168 15.3154V24.5349H65.3454V15.3154C65.3454 13.0854 67.1777 11.2715 69.4303 11.2715C71.6829 11.2715 73.5152 13.0854 73.5152 15.3154V24.5349H78.0438V15.3154C78.0464 10.6126 74.1834 6.78579 69.4329 6.78579Z" fill="#00317A"/>
<path d="M33.5377 16.0804C33.5377 18.333 31.7054 20.1653 29.4528 20.1653C27.2002 20.1653 25.3679 18.333 25.3679 16.0804V6.76997H20.8367V16.083C20.8367 20.8335 24.7023 24.6992 29.4528 24.6992C34.2033 24.6992 38.0663 20.8335 38.0663 16.083V6.76997H33.5377V16.0804Z" fill="#00317A"/>
<path d="M101.013 11.0527H104.806V24.5349H109.329V6.78579H101.013V11.0527Z" fill="#00317A"/>
<path d="M121.213 20.4636C119.352 20.4636 117.838 18.9497 117.838 17.0887V11.0279H123.743V6.79424H117.838V0H113.605V17.0887C113.605 21.2832 117.019 24.6947 121.211 24.6947C123.529 24.6947 125.604 23.648 127 22.0089L123.988 18.9967C123.382 19.8842 122.364 20.4636 121.213 20.4636Z" fill="#00317A"/>
<path d="M9.34703 6.1336H9.3131C7.60084 6.1336 5.96427 6.60343 4.53129 7.46478V0.036274H5.99107e-05V15.4153C-0.0182112 20.5521 4.14499 24.744 9.28178 24.7597H9.3131C14.4342 24.7597 18.6105 20.6017 18.6261 15.478C18.634 12.9905 17.6734 10.6492 15.922 8.8821C14.168 7.12024 11.8345 6.14143 9.34703 6.1336ZM14.0975 15.4649C14.0897 18.096 11.9441 20.2337 9.3131 20.2311H9.29744C8.02107 20.2258 6.8204 19.7247 5.9199 18.819C5.01939 17.9132 4.52607 16.71 4.53129 15.431C4.5339 14.152 5.03766 12.9539 5.94339 12.0508C6.8465 11.1555 8.04196 10.6622 9.3131 10.6622H9.33137C10.6104 10.6674 11.8084 11.1686 12.7089 12.0743C13.6094 12.9827 14.1027 14.1859 14.0975 15.4649Z" fill="#00317A"/>
<path d="M90.2618 6.1336H90.2279C88.5156 6.1336 86.8791 6.60343 85.4461 7.46478V0.036274H80.9149V15.4153C80.8966 20.5521 85.0598 24.744 90.1966 24.7597H90.2279C95.349 24.7597 99.5253 20.6017 99.5409 15.478C99.5488 12.9905 98.5882 10.6492 96.8368 8.8821C95.0828 7.12024 92.7493 6.14143 90.2618 6.1336ZM95.0123 15.4649C95.0045 18.096 92.8589 20.2337 90.2279 20.2311H90.2122C88.9359 20.2258 87.7352 19.7247 86.8347 18.819C85.9342 17.9132 85.4409 16.71 85.4461 15.431C85.4487 14.152 85.9525 12.9539 86.8582 12.0508C87.7613 11.1555 88.9568 10.6622 90.2279 10.6622H90.2462C91.5251 10.6674 92.7232 11.1686 93.6237 12.0743C94.5242 12.9827 95.0175 14.1859 95.0123 15.4649Z" fill="#00317A"/>
</svg>
