<svg width="136" height="18" viewBox="0 0 136 18" fill="none" xmlns="http://www.w3.org/2000/svg">
<g clip-path="url(#clip0_1913_26613)">
<path d="M0 9.33836V9.28986C0 4.50166 3.73309 0.578613 9.08424 0.578613C11.6974 0.578613 13.4648 1.25539 14.9079 2.28748C15.1401 2.46033 15.3282 2.68243 15.4576 2.93666C15.5871 3.19088 15.6544 3.47046 15.6545 3.75382C15.6545 3.99283 15.6054 4.22946 15.5101 4.44998C15.4148 4.6705 15.2751 4.87051 15.0992 5.03841C14.9232 5.20631 14.7146 5.33875 14.4853 5.42804C14.256 5.51733 14.0106 5.5617 13.7634 5.55856C13.3524 5.55434 12.9526 5.42836 12.6178 5.19761C11.5481 4.42834 10.4282 3.99521 9.05975 3.99521C6.12227 3.99521 4.00724 6.35265 4.00724 9.24023V9.28873C4.00724 12.1763 6.07327 14.5822 9.05975 14.5822C10.6766 14.5822 11.7429 14.1017 12.8418 13.2592C13.0184 13.1042 13.2255 12.9853 13.4507 12.9095C13.6759 12.8336 13.9146 12.8024 14.1525 12.8177C14.3904 12.833 14.6227 12.8944 14.8356 12.9984C15.0484 13.1024 15.2374 13.2467 15.3912 13.4229C15.5451 13.599 15.6607 13.8033 15.7311 14.0236C15.8016 14.2438 15.8254 14.4756 15.8012 14.705C15.777 14.9343 15.7052 15.1566 15.5902 15.3586C15.4752 15.5606 15.3193 15.7381 15.1318 15.8805C13.564 17.2048 11.7219 17.9988 8.93492 17.9988C3.80775 18 0 14.1739 0 9.33836Z" fill="#6362FB"/>
<path d="M17.9424 14.0048V13.963C17.9424 11.1431 20.1589 9.84824 23.318 9.84824C24.4285 9.83871 25.5322 10.0178 26.5787 10.3773V10.1607C26.5787 8.64471 25.6081 7.80212 23.717 7.80212C22.832 7.79279 21.9507 7.91451 21.1038 8.16307C20.9287 8.22599 20.7435 8.25881 20.5567 8.26007C20.3518 8.26367 20.1482 8.22772 19.9578 8.15431C19.7675 8.0809 19.5941 7.97151 19.448 7.83255C19.3019 7.69358 19.1859 7.52784 19.1069 7.34501C19.0278 7.16218 18.9873 6.96594 18.9876 6.76778C18.9879 6.45872 19.0858 6.15711 19.2683 5.90333C19.4507 5.64954 19.7089 5.45567 20.0084 5.34768C21.203 4.91454 22.4968 4.6709 24.2641 4.6709C26.3302 4.6709 27.8234 5.19991 28.7695 6.11469C29.7646 7.07684 30.2126 8.49694 30.2126 10.2295V16.1005C30.2126 16.3333 30.1648 16.5638 30.0719 16.7786C29.9791 16.9933 29.843 17.1881 29.6716 17.3516C29.5002 17.5151 29.297 17.6441 29.0736 17.731C28.8503 17.8179 28.6113 17.861 28.3705 17.8579C27.2763 17.8579 26.5542 17.1112 26.5542 16.3419V16.3171C25.6325 17.3041 24.3633 17.9538 22.5224 17.9538C20.0084 17.9515 17.9424 16.5574 17.9424 14.0048ZM26.6288 13.1633V12.5136C25.8686 12.1896 25.0459 12.0255 24.2151 12.032C22.5971 12.032 21.6008 12.658 21.6008 13.813V13.8604C21.6008 14.8474 22.4478 15.4249 23.6668 15.4249C25.4342 15.4294 26.6288 14.4864 26.6288 13.1633Z" fill="#6362FB"/>
<path d="M33.4721 6.49705C33.4721 6.01213 33.6713 5.54706 34.0259 5.20416C34.3806 4.86127 34.8616 4.66863 35.3631 4.66863C35.8646 4.66863 36.3456 4.86127 36.7003 5.20416C37.0549 5.54706 37.2541 6.01213 37.2541 6.49705V6.64143C38.1256 5.55859 39.27 4.57275 41.1867 4.57275C42.9284 4.57275 44.2479 5.31834 44.9443 6.61775C46.1109 5.29465 47.5108 4.57275 49.3249 4.57275C52.1375 4.57275 53.8302 6.2083 53.8302 9.31019V16.0238C53.8365 16.2678 53.7922 16.5106 53.7 16.7378C53.6077 16.965 53.4694 17.172 53.2931 17.3468C53.1168 17.5215 52.9062 17.6603 52.6736 17.7551C52.4409 17.8499 52.1911 17.8988 51.9386 17.8988C51.6862 17.8988 51.4363 17.8499 51.2036 17.7551C50.971 17.6603 50.7604 17.5215 50.5841 17.3468C50.4078 17.172 50.2695 16.965 50.1773 16.7378C50.085 16.5106 50.0407 16.2678 50.047 16.0238V10.516C50.047 8.78343 49.2502 7.89347 47.8305 7.89347C46.4107 7.89347 45.5404 8.78343 45.5404 10.516V16.0261C45.5404 16.511 45.3412 16.9761 44.9866 17.319C44.6319 17.6619 44.1509 17.8545 43.6494 17.8545C43.1479 17.8545 42.6669 17.6619 42.3122 17.319C41.9576 16.9761 41.7584 16.511 41.7584 16.0261V10.516C41.7584 8.78343 40.9616 7.89347 39.5418 7.89347C38.1221 7.89347 37.2518 8.78343 37.2518 10.516V16.0261C37.2518 16.511 37.0526 16.9761 36.6979 17.319C36.3433 17.6619 35.8623 17.8545 35.3608 17.8545C34.8592 17.8545 34.3782 17.6619 34.0236 17.319C33.669 16.9761 33.4697 16.511 33.4697 16.0261L33.4721 6.49705Z" fill="#6362FB"/>
<path d="M57.1129 1.82956C57.1066 1.58556 57.1509 1.3428 57.2432 1.1156C57.3354 0.888396 57.4737 0.681336 57.65 0.506613C57.8263 0.331891 58.0369 0.193038 58.2696 0.0982337C58.5022 0.0034291 58.7521 -0.0454102 59.0045 -0.0454102C59.257 -0.0454102 59.5068 0.0034291 59.7395 0.0982337C59.9721 0.193038 60.1827 0.331891 60.359 0.506613C60.5353 0.681336 60.6736 0.888396 60.7659 1.1156C60.8581 1.3428 60.9024 1.58556 60.8961 1.82956V6.66626C61.8166 5.46273 63.0858 4.57277 65.0515 4.57277C68.1628 4.57277 71.1248 6.9302 71.1248 11.2379V11.2864C71.1248 15.5929 68.2083 17.9515 65.0515 17.9515C63.0357 17.9515 61.7921 17.0615 60.8961 16.0261V16.0509C60.881 16.5283 60.6733 16.9811 60.3175 17.3125C59.9617 17.6439 59.486 17.8275 58.992 17.8243C58.498 17.8211 58.0249 17.6311 57.6737 17.2951C57.3226 16.9591 57.1213 16.5037 57.1129 16.0261V1.82956ZM67.3416 11.2864V11.2379C67.3416 9.09476 65.8483 7.67691 64.0809 7.67691C62.3135 7.67691 60.846 9.09589 60.846 11.2379V11.2864C60.846 13.4295 62.3147 14.8474 64.0809 14.8474C65.8471 14.8474 67.3416 13.4521 67.3416 11.2864Z" fill="#6362FB"/>
<path d="M73.8604 1.73254C73.8604 0.674516 74.7808 0.0236816 75.9754 0.0236816C77.17 0.0236816 78.0974 0.674516 78.0974 1.73254V1.78104C78.0974 2.8402 77.1758 3.51359 75.9812 3.51359C74.7866 3.51359 73.8662 2.83682 73.8662 1.78104L73.8604 1.73254ZM74.0843 6.49705C74.0966 6.01983 74.3013 5.56615 74.6547 5.23282C75.0081 4.89949 75.4823 4.71292 75.976 4.71292C76.4697 4.71292 76.9438 4.89949 77.2972 5.23282C77.6507 5.56615 77.8553 6.01983 77.8676 6.49705V16.0261C77.8739 16.2701 77.8296 16.5128 77.7373 16.74C77.6451 16.9672 77.5067 17.1743 77.3305 17.349C77.1542 17.5237 76.9435 17.6626 76.7109 17.7574C76.4783 17.8522 76.2284 17.901 75.976 17.901C75.7235 17.901 75.4736 17.8522 75.241 17.7574C75.0084 17.6626 74.7977 17.5237 74.6215 17.349C74.4452 17.1743 74.3069 16.9672 74.2146 16.74C74.1224 16.5128 74.0781 16.2701 74.0843 16.0261V6.49705Z" fill="#6362FB"/>
<path d="M80.6289 14.0048V13.963C80.6289 11.1431 82.8454 9.84824 86.0046 9.84824C87.117 9.83814 88.2227 10.0172 89.271 10.3773V10.1607C89.271 8.64471 88.3004 7.80212 86.4082 7.80212C85.5232 7.79288 84.642 7.9146 83.795 8.16307C83.6199 8.22599 83.4347 8.25881 83.2479 8.26007C83.043 8.26367 82.8395 8.22771 82.6492 8.15429C82.4589 8.08087 82.2857 7.97146 82.1396 7.83248C81.9936 7.69351 81.8777 7.52775 81.7988 7.34493C81.7199 7.1621 81.6795 6.96589 81.68 6.76778C81.6802 6.45885 81.7779 6.15735 81.9601 5.90357C82.1423 5.6498 82.4003 5.45586 82.6996 5.34768C83.8954 4.91454 85.1891 4.6709 86.9565 4.6709C89.0214 4.6709 90.5146 5.19991 91.4607 6.11469C92.4558 7.07684 92.9038 8.49694 92.9038 10.2295V16.1005C92.904 16.3333 92.8563 16.5637 92.7636 16.7785C92.6708 16.9932 92.5349 17.188 92.3636 17.3516C92.1923 17.5151 91.9891 17.644 91.7658 17.731C91.5425 17.8179 91.3036 17.861 91.0629 17.8579C89.9675 17.8579 89.2454 17.1112 89.2454 16.3419V16.3171C88.3249 17.3041 87.0557 17.9538 85.2136 17.9538C82.6938 17.9515 80.6289 16.5574 80.6289 14.0048ZM89.3142 13.1633V12.5136C88.554 12.1895 87.7313 12.0253 86.9005 12.032C85.2824 12.032 84.2873 12.658 84.2873 13.813V13.8604C84.2873 14.8474 85.1331 15.4249 86.3522 15.4249C88.1196 15.4294 89.3142 14.4864 89.3142 13.1633Z" fill="#6362FB"/>
<path d="M103.473 0.866211H117.411V4.95733H108.301V7.82122H116.538V11.6946H108.301V17.7112H103.473V0.866211Z" fill="#7BD5C1"/>
<path d="M124.302 9.14432L118.578 0.866211H124.127L127.213 5.60365L130.324 0.866211H135.75L130.026 9.10033L135.999 17.7157H130.449L127.114 12.6399L123.754 17.7157H118.328L124.302 9.14432Z" fill="#7BD5C1"/>
</g>
<defs>
<clipPath id="clip0_1913_26613">
<rect width="136" height="18" fill="white"/>
</clipPath>
</defs>
</svg>
