<svg width="133" height="39" viewBox="0 0 133 39" fill="none" xmlns="http://www.w3.org/2000/svg">
<path d="M55.6862 11.5223C55.2276 11.5223 54.8572 11.7874 54.6808 12.1585C54.6632 12.1762 54.6632 12.1939 54.6632 12.2116C54.6632 12.2116 54.6632 12.2292 54.6455 12.2292C53.94 13.7315 52.4936 14.4561 51.0119 14.4561C48.8776 14.4561 46.7609 13.0069 46.7609 10.0201C46.7609 7.05092 48.8952 5.60169 50.9766 5.60169C52.4406 5.60169 53.9047 6.3263 54.6102 7.81087C54.6102 7.82855 54.6279 7.82855 54.6279 7.84622C54.6279 7.86389 54.6279 7.86389 54.6455 7.86389C54.6632 7.89924 54.6632 7.91691 54.6808 7.93459C54.6984 7.96993 54.7161 8.02295 54.7513 8.0583C54.9277 8.30573 55.21 8.48247 55.5275 8.53549C55.5804 8.53549 55.6157 8.53549 55.6686 8.53549H57.2032C57.0973 8.00528 56.9386 7.51042 56.7269 7.05091C56.674 6.94487 56.6387 6.83883 56.5682 6.73279C55.4393 4.62965 53.1815 3.58691 50.9237 3.58691C47.6958 3.58691 44.4855 5.70773 44.4855 10.0024C44.4855 14.3324 47.7487 16.4532 50.9766 16.4179C53.1991 16.4002 55.4216 15.3751 56.5505 13.325C56.6211 13.2013 56.674 13.0776 56.7445 12.9539C56.9386 12.5297 57.0973 12.0348 57.1855 11.5223H55.6862Z" fill="#6E46E6"/>
<path d="M71.6847 3.8167C71.085 3.8167 70.5911 4.27621 70.5734 4.8771V5.05384V5.478C69.4798 3.97576 67.6101 3.60461 66.0755 3.60461C61.8774 3.60461 59.4432 6.60911 59.4432 9.96707C59.4432 13.3957 61.7716 16.4532 66.1108 16.4532C67.6454 16.4179 69.6386 15.923 70.5381 14.5622V16.2412H72.7783V3.8167H71.6847ZM66.2166 14.4561C63.3767 14.5268 61.701 12.3707 61.701 9.96707C61.701 7.52813 63.3238 5.63706 66.0402 5.58404C68.1569 5.56637 70.5558 7.03327 70.5558 10.0201C70.5558 12.9362 68.2627 14.4031 66.2166 14.4561Z" fill="#6E46E6"/>
<path d="M90.0646 3.60461C88.2478 3.63996 86.8543 4.38225 86.0958 5.76078C85.1786 4.0111 83.6264 3.60461 81.8801 3.60461C80.4337 3.60461 79.2519 4.11715 78.3876 5.35429V4.73572C78.3876 4.11715 77.8761 3.60461 77.2764 3.60461H76.1475V16.2412H78.3876V9.48988C78.3876 7.05094 79.8869 5.69009 81.8625 5.69009C83.9262 5.69009 84.5965 7.51045 84.5965 9.24245V16.2235H86.8543V9.20711C86.8543 7.19233 87.9479 5.67241 90.1528 5.67241C92.3047 5.67241 92.7457 7.42209 92.7457 9.15409V16.2058H94.9859V9.13641C94.9682 6.02588 93.4689 3.60461 90.0646 3.60461Z" fill="#6E46E6"/>
<path d="M104.723 3.60465C103.188 3.60465 101.618 3.95812 100.542 5.42502V1.28943C100.542 0.670856 100.031 0.158325 99.4309 0.158325H98.302V16.2412H100.542V14.5622C101.442 15.9231 103.135 16.4179 104.67 16.4533C108.991 16.4533 111.09 13.3958 111.09 9.96711C111.108 6.60915 108.921 3.60465 104.723 3.60465ZM104.581 14.4562C102.535 14.4031 100.542 12.9363 100.542 10.0201C100.542 7.03331 102.659 5.56641 104.758 5.58408C107.457 5.6371 108.815 7.79327 108.832 9.96711C108.868 12.247 107.439 14.5269 104.581 14.4562Z" fill="#6E46E6"/>
<path d="M116.382 4.55896C116.347 4.52361 116.294 4.48826 116.258 4.45292C116.205 4.41757 116.17 4.38222 116.135 4.36455C115.976 4.27618 115.8 4.22316 115.623 4.22316H114.477V16.2411H116.735V5.35426C116.717 5.07149 116.593 4.77104 116.382 4.55896ZM114.195 1.44843C114.195 3.1981 116.982 3.1981 116.982 1.44843C116.982 -0.30125 114.195 -0.248229 114.195 1.44843Z" fill="#6E46E6"/>
<path d="M125.589 16.4709C122.273 16.4709 118.939 14.3147 118.939 10.0378C118.939 5.74311 122.291 3.60461 125.66 3.60461C129.011 3.60461 132.31 5.76078 132.31 10.0378C132.31 14.3324 128.958 16.4709 125.589 16.4709ZM125.589 14.4561C127.829 14.4738 130.087 12.9892 130.087 10.0378C130.087 7.08629 127.865 5.60172 125.66 5.60172C123.42 5.60172 121.18 7.06862 121.18 10.0378C121.18 12.9539 123.384 14.4208 125.589 14.4561Z" fill="#6E46E6"/>
<path d="M49.7948 25.8555C48.7012 25.7848 46.902 25.8378 46.902 24.2649C46.902 22.9747 48.1897 22.4445 49.5655 22.4445C50.6415 22.4445 51.6116 22.7803 52.0173 23.4873C52.0173 23.5049 52.0349 23.5226 52.0526 23.5403C52.2466 23.8761 52.5994 24.0882 53.0051 24.0882H54.4338C54.3986 23.5403 54.2751 23.0631 54.0811 22.6566C53.9929 22.4975 53.9047 22.3385 53.8165 22.1971L53.7988 22.1794C52.9522 20.9599 51.3647 20.4474 49.6361 20.4474C47.2372 20.4474 44.6795 21.4548 44.6795 24.3356C44.6795 27.128 47.3077 27.8173 49.5302 27.9056C50.6062 27.9586 52.5641 28.1707 52.5288 29.5846C52.5288 31.0162 50.8355 31.3696 49.7066 31.3873C48.4366 31.405 47.3253 30.9455 46.902 30.0264C46.902 30.0264 46.902 30.0264 46.902 30.0088C46.7256 29.6023 46.3376 29.3195 45.8613 29.3195H44.4855C44.5208 29.8497 44.6089 30.3269 44.7853 30.751C44.7853 30.7687 44.7853 30.7864 44.803 30.7864C44.8383 30.8748 44.8912 30.9631 44.9264 31.0515C44.9264 31.0515 44.9264 31.0692 44.9441 31.0692C45.7731 32.6951 47.6428 33.3314 49.6008 33.3314C51.9468 33.3314 54.7866 32.483 54.7866 29.5846C54.7866 26.7568 52.1231 26.0322 49.7948 25.8555Z" fill="#6E46E6"/>
<path d="M69.7621 26.3681C69.5152 22.4623 66.4813 20.5005 63.4121 20.5005C60.1313 20.5005 56.9739 22.639 56.9739 26.916C56.9739 31.193 60.1842 33.3491 63.3768 33.3491C65.2818 33.3491 67.1692 32.5892 68.3863 31.0869C68.3863 31.0869 68.4039 31.0869 68.4039 31.0693C68.4392 31.0339 68.4745 30.9986 68.4921 30.9632C68.5274 30.9279 68.545 30.8925 68.5627 30.8572C68.9155 30.3977 69.1977 29.8675 69.4094 29.2666H67.6631C67.3985 29.2666 67.1339 29.3726 66.9223 29.567C66.887 29.6024 66.8517 29.6377 66.8341 29.6731C66.0579 30.7865 64.7703 31.3167 63.3945 31.3167C61.5424 31.3167 59.2317 29.8498 59.2317 27.4109H69.7269C69.7798 27.1281 69.7974 26.7393 69.7621 26.3681ZM59.3022 25.5905C59.7608 23.3813 61.5953 22.4799 63.4121 22.4799C65.1936 22.4799 66.9752 23.3636 67.3985 25.5905H59.3022Z" fill="#6E46E6"/>
<path d="M83.8908 20.6948C83.2735 20.6948 82.7796 21.1896 82.7796 21.8082V22.3561C81.8624 21.0306 80.169 20.5004 78.6344 20.5004C74.3129 20.4827 72.0022 23.5402 72.0022 26.9688C72.0022 30.3445 74.4187 33.1192 78.5815 33.1192C80.1161 33.1192 81.686 32.8011 82.762 31.3695V32.6774C82.762 35.0633 80.5747 36 78.6168 36.0353C77.241 36.053 75.4771 35.6995 74.9832 34.6215C74.9832 34.6038 74.9655 34.5861 74.9479 34.5508C74.7715 34.1973 74.4011 33.9499 73.9778 33.9499C73.3604 33.9499 72.8665 34.4447 72.8665 35.0456C72.8665 35.187 72.9018 35.3107 72.9371 35.4521C72.9547 35.5051 72.9723 35.5405 73.0076 35.5758C73.0253 35.6112 73.0429 35.6642 73.0782 35.6819C74.013 37.2902 76.2708 37.9971 78.6521 37.9971C81.7213 37.9971 85.0197 36.5125 85.0197 32.642V20.6771L83.8908 20.6948ZM78.5639 31.1221C75.8298 31.1221 74.2776 29.125 74.26 26.9512C74.26 24.689 75.8828 22.3914 78.7403 22.4621C81.4214 22.5328 82.7796 24.3885 82.7796 26.5977C82.762 28.8953 81.3685 31.1221 78.5639 31.1221Z" fill="#6E46E6"/>
<path d="M98.6724 20.5713C98.0551 20.5713 97.5435 21.0662 97.5435 21.6847V27.4286C97.5435 29.6378 96.2383 31.3344 93.8041 31.2814C91.1759 31.2284 90.5938 29.6555 90.5938 27.3579V21.6847C90.5938 21.0662 90.0999 20.5536 89.4825 20.5536H88.3536V27.3579C88.3536 30.9279 89.9764 33.2785 93.7512 33.2785C95.3563 33.2785 96.7498 32.819 97.667 31.4758V33.1018H99.8013V20.5536L98.6724 20.5713Z" fill="#6E46E6"/>
<path d="M110.332 21.3488C110.314 21.2428 110.296 21.1367 110.243 21.0483C110.243 21.0307 110.226 21.013 110.208 20.9953C110.067 20.7302 109.82 20.5358 109.503 20.4828C109.45 20.4651 109.397 20.4651 109.344 20.4651C107.756 20.3237 106.345 20.8363 105.357 22.2325V21.7199C105.305 21.1544 104.828 20.7125 104.264 20.7125H103.153V33.1193H105.357V26.3857C105.357 24.0882 107.139 22.3915 109.238 22.4269C109.273 22.4269 109.326 22.4269 109.362 22.4269C109.873 22.4269 110.279 22.0381 110.332 21.5432C110.332 21.5079 110.332 21.4725 110.332 21.4372C110.332 21.4195 110.332 21.3841 110.332 21.3488Z" fill="#6E46E6"/>
<path d="M118.657 33.3845C115.323 33.3845 112.007 31.2284 112.007 26.9514C112.007 22.6567 115.359 20.5182 118.728 20.5182C122.079 20.5182 125.378 22.6744 125.378 26.9514C125.378 31.246 122.026 33.3845 118.657 33.3845ZM118.657 31.3521C120.897 31.3697 123.155 29.8852 123.155 26.9337C123.155 23.9822 120.933 22.5153 118.728 22.5153C116.488 22.5153 114.247 23.9822 114.247 26.9514C114.247 29.8675 116.452 31.3344 118.657 31.3521Z" fill="#6E46E6"/>
<path d="M32.6496 3.4279V27.7113C32.6496 30.3446 29.8098 31.9882 27.5167 30.6804L22.419 27.7289L25.647 25.8555C27.9224 24.53 27.9224 21.2428 25.647 19.9173L9.75427 10.727L27.5167 0.458753C29.7921 -0.849084 32.6496 0.79455 32.6496 3.4279Z" fill="url(#paint0_linear_223_982)"/>
<path d="M26.1233 19.935L10.2306 10.7448L5.13294 7.79329C2.85751 6.48545 0 8.12908 0 10.7624V35.0458C0 37.6791 2.83987 39.3228 5.13294 38.0149L22.8954 27.7466L25.6647 25.3077C26.8641 24.6008 26.7054 24.0352 27.4639 22.8511C27.5344 22.7274 27.799 22.4446 27.7814 22.2855C27.605 21.3312 27.0582 20.4652 26.1233 19.935Z" fill="#6E46E6"/>
<path d="M23.1951 23.4165C23.1775 23.4519 23.1598 23.4695 23.1598 23.5049C23.1598 23.5225 23.1598 23.5225 23.1422 23.5402C21.8722 26.1912 19.2793 27.4991 16.6334 27.4991C12.8058 27.4991 9.01338 24.9364 9.01338 19.6344C9.01338 14.3854 12.841 11.805 16.5981 11.805C19.244 11.805 21.8545 13.0952 23.1422 15.7285C23.1598 15.7462 23.1598 15.7639 23.1775 15.7992C23.1775 15.8169 23.1951 15.8346 23.1951 15.8346C23.2127 15.8876 23.2304 15.9229 23.2657 15.9583C23.3009 16.029 23.3362 16.1174 23.3891 16.1704C23.7066 16.6299 24.2182 16.9303 24.8003 17.001C24.8884 17.001 24.959 17.001 25.0472 17.001H27.7989C27.6225 16.0467 27.3226 15.163 26.9522 14.3677C26.864 14.1733 26.7758 13.9965 26.67 13.8198C26.1937 12.9538 25.6116 12.1762 24.959 11.5223C23.0011 9.5605 20.32 8.48241 17.5683 8.27033C17.2331 8.23499 16.898 8.23499 16.5629 8.23499C10.7596 8.23499 4.9917 11.9994 4.9917 19.6167C4.9917 27.287 10.8302 31.0691 16.6334 30.9808C16.9333 30.9808 17.2331 30.9631 17.533 30.9454C20.3023 30.7333 23.0187 29.6729 24.9766 27.7112C25.6293 27.0749 26.1761 26.3326 26.6523 25.502C26.6523 25.4843 26.6523 25.4843 26.6523 25.4843C26.7582 25.2722 26.8816 25.0425 26.9875 24.8127C27.3403 24.0527 27.6225 23.2044 27.7989 22.2677H25.0296C24.2005 22.2854 23.5126 22.7272 23.1951 23.4165Z" fill="white"/>
<defs>
<linearGradient id="paint0_linear_223_982" x1="17.3036" y1="21.1896" x2="31.9082" y2="14.3306" gradientUnits="userSpaceOnUse">
<stop stop-color="#301F63"/>
<stop offset="1" stop-color="#6E46E6"/>
</linearGradient>
</defs>
</svg>
