<svg width="120" height="42" viewBox="0 0 120 42" fill="none" xmlns="http://www.w3.org/2000/svg">
<path fill-rule="evenodd" clip-rule="evenodd" d="M21.0002 5.01214C9.39658 4.4697 -2.64159 12.6931 0.509195 26.7314C1.22627 25.3428 2.13891 21.0466 6.91941 17.4448C11.048 14.3421 16.1979 13.4525 21.0002 13.4525V18.4429L32.5386 9.22147L21.0002 0V5.01214Z" fill="#F26922"/>
<path fill-rule="evenodd" clip-rule="evenodd" d="M55.6808 5.66301C55.7895 5.66301 55.8764 5.38094 55.9416 4.8602C56.0285 4.33946 56.0502 3.84041 56.0502 3.40646L55.6374 3.16779C55.3766 2.99421 54.9203 2.84233 54.2902 2.66874C53.6817 2.49516 53.0081 2.43007 52.291 2.43007C50.5961 2.43007 49.2706 2.86402 48.2928 3.75362C47.315 4.64322 46.8152 5.79319 46.8152 7.24693C46.8152 8.72237 47.2932 9.89404 48.2711 10.8053C49.2706 11.6949 50.5309 12.1506 52.0737 12.1506C53.1385 12.1506 54.1598 11.8468 54.7465 11.5647C55.0507 11.4129 55.3114 11.261 55.5722 11.0657C56.072 10.6751 56.1372 10.5667 56.2024 10.4799L55.8764 10.0893L55.507 10.2195C55.0072 10.3931 53.9859 10.6318 53.2037 10.6318C51.2046 10.6318 50.1833 9.3516 50.1833 6.76959C50.1833 4.51304 50.9655 3.25458 52.5301 3.25458C52.856 3.25458 53.1602 3.31967 53.4644 3.40646C53.6383 3.88381 53.899 4.33946 54.1815 4.77341C54.5074 5.18566 54.8117 5.48943 55.1376 5.66301H55.6808ZM60.6135 6.09696C61.1567 6.09696 61.4175 6.42242 61.4175 7.07335V8.65727L59.288 8.89595C57.919 9.06953 57.115 9.65536 57.115 10.6535C57.115 11.5647 57.7669 12.1506 58.9403 12.1506C59.766 12.1506 60.6352 11.9336 61.5261 11.4997C61.7434 11.9336 62.3518 12.1506 63.3079 12.1506C64.264 12.1506 65.0897 11.8251 65.2853 11.6949C65.3722 11.6298 65.4374 11.5647 65.4809 11.5214C65.4809 11.4563 65.2201 11.2176 65.1115 11.2176L65.068 11.2393C65.0028 11.2827 64.8724 11.3044 64.8073 11.3044C64.5465 11.3044 64.4161 11.1091 64.4161 10.6751V7.13844C64.4161 5.81489 63.3514 5.14227 61.2436 5.14227C60.2658 5.14227 59.3749 5.27245 58.5274 5.48943C57.7017 5.7281 57.2888 5.98847 57.2888 6.29224C57.2888 6.48752 57.4409 6.79128 57.7234 7.18184C58.0276 7.5724 58.2667 7.74598 58.4405 7.74598C58.6361 7.74598 58.9185 7.5724 59.2662 7.22523C59.6139 6.85638 59.8529 6.50921 59.9616 6.14036C60.1571 6.11866 60.3962 6.09696 60.6135 6.09696ZM60.0485 10.3063C60.0485 9.78555 60.3092 9.48178 60.8307 9.41669L61.3957 9.3516V10.6101C61.0698 10.7619 60.7873 10.8487 60.5265 10.8487C60.2223 10.8487 60.0485 10.6751 60.0485 10.3063ZM70.1962 12.0638V11.9336C70.0875 11.76 69.653 11.6298 69.5443 11.4563V6.50921C69.7616 6.37903 70.0441 6.33563 70.3918 6.33563C70.7177 6.33563 70.8698 6.46582 70.8698 6.72619V11.4563C70.7612 11.6298 70.4352 11.76 70.3266 11.9336V12.0638H74.4986V11.9336C74.39 11.76 73.9554 11.6298 73.8468 11.4563V6.46582C74.0858 6.37903 74.3465 6.31394 74.6725 6.31394C74.9984 6.31394 75.1505 6.44412 75.1505 6.70449V11.4346C75.0419 11.6081 74.7159 11.7383 74.6073 11.9119V12.0421H79.0836V11.9119C79.0184 11.8251 78.8663 11.7166 78.6055 11.6081C78.3448 11.4997 78.1927 11.4129 78.1492 11.3261V6.50921C78.1492 5.7281 77.4756 5.16397 76.3239 5.16397C75.8893 5.16397 75.3896 5.22906 74.868 5.38094C74.3248 5.53282 73.9119 5.68471 73.6295 5.83659C73.347 5.38094 72.8255 5.16397 72.0867 5.16397C71.6955 5.16397 71.2392 5.22906 70.7177 5.35924C70.2179 5.48943 69.8268 5.61961 69.5443 5.7715V5.48943L69.1749 5.16397L68.6317 5.18566C68.2623 5.20736 67.8059 5.25076 67.2192 5.29415C66.6325 5.35924 66.111 5.42434 65.633 5.48943V5.64131C65.6764 5.7281 65.8286 5.83659 66.0893 5.94508C66.3501 6.07526 66.5022 6.18375 66.5456 6.27054V11.3478C66.5022 11.4346 66.3283 11.5214 66.0458 11.6298C65.7851 11.7383 65.6112 11.8251 65.5678 11.9336V12.0638H70.1962ZM82.4951 1.75745L82.8645 2.08291V5.7281C83.3208 5.33755 83.9293 5.16397 84.6681 5.16397C86.2978 5.16397 87.3625 6.35733 87.3625 8.50539C87.3625 10.9572 85.9719 12.1506 82.9297 12.1506C81.778 12.1506 80.6698 11.9336 80.2135 11.76L79.8876 11.6298V2.84232C79.8441 2.75553 79.692 2.64705 79.4095 2.51686C79.1488 2.38668 78.9967 2.27819 78.9532 2.2131V2.06121C79.4095 1.99612 79.9528 1.93103 80.5395 1.86593C81.1262 1.80084 81.6042 1.77914 81.9519 1.75745H82.4951ZM84.2987 8.87425C84.2987 7.18184 84.0379 6.33563 83.5164 6.33563C83.2557 6.33563 83.0601 6.40073 82.8862 6.53091V11.1959C82.9514 11.261 83.1035 11.2827 83.3426 11.2827C83.6685 11.2827 83.9293 11.1091 84.0596 10.7836C84.2118 10.4799 84.2987 9.82894 84.2987 8.87425ZM92.6863 12.0638V11.9336C92.6428 11.8468 92.4907 11.7383 92.2082 11.6298C91.9475 11.4997 91.7736 11.4129 91.7302 11.3261V5.48943L91.3608 5.16397L90.8175 5.18566C90.4481 5.20736 89.9918 5.25076 89.4051 5.29415C88.8184 5.35924 88.2969 5.42434 87.8189 5.48943V5.64131C87.8623 5.7281 88.0144 5.83659 88.2752 5.94508C88.5359 6.07526 88.688 6.18375 88.7315 6.27054V11.3261C88.688 11.4129 88.5142 11.4997 88.2317 11.6298C87.971 11.7383 87.7971 11.8251 87.7537 11.9336V12.0638H92.6863ZM90.1005 1.75745C89.0792 1.75745 88.449 2.27819 88.449 3.16779C88.449 4.05739 89.0792 4.59983 90.1005 4.59983C91.1 4.59983 91.7302 4.05739 91.7302 3.16779C91.7519 2.27819 91.1218 1.75745 90.1005 1.75745ZM93.0774 11.3695C93.2947 11.5647 94.077 12.1506 96.2065 12.1506C98.5315 12.1506 99.7049 11.4997 99.7049 10.1761C99.7049 9.59027 99.4876 9.13462 99.053 8.76576C98.6185 8.3969 97.9448 8.00635 97.0105 7.61579L96.402 7.35542C96.2934 7.29033 96.163 7.22523 96.0109 7.13844C95.7067 6.96486 95.6632 6.83468 95.6632 6.6177C95.6632 6.22715 95.9892 5.92338 96.5759 5.92338C96.8149 5.92338 97.0105 5.96678 97.1626 6.05357C97.2712 6.76959 97.7058 7.35542 98.4012 7.83277H98.7706C98.9227 7.83277 99.1834 7.07335 99.1834 6.05357L99.1182 5.96677C98.9444 5.7281 98.336 5.18566 96.3586 5.16397C94.2074 5.16397 93.1426 5.85829 93.1426 7.26863C93.1426 7.76767 93.2947 8.17993 93.6207 8.48369C93.9466 8.78746 94.5768 9.13462 95.4894 9.52518L95.7284 9.61197C96.3586 9.87234 96.6628 10.0025 96.967 10.2629C97.1191 10.3931 97.206 10.545 97.206 10.6968C97.206 11.0874 96.7714 11.3695 96.0978 11.3695C95.7284 11.3695 95.4677 11.3044 95.359 11.2176C94.9896 10.3497 94.4464 9.69876 93.7293 9.3082H93.4034C93.3164 9.3082 93.2295 9.50348 93.1426 9.93743C93.0557 10.3497 93.0122 10.8053 93.0122 11.261L93.0774 11.3695ZM103.66 3.62344L99.9657 5.79319V5.98847H101.074V10.2846C101.074 11.4346 102.139 12.1506 103.703 12.1506C105.615 12.1289 106.289 11.1091 106.289 11.0874C106.289 11.0223 106.028 10.7402 105.963 10.7402L105.898 10.7619C105.746 10.827 105.311 10.9572 104.833 10.9572C104.29 10.9572 104.029 10.7619 104.029 10.1761V5.98847H105.985V5.22906H104.029V3.60174H103.66V3.62344ZM110.222 6.09696C110.765 6.09696 111.026 6.42242 111.026 7.07335V8.65727L108.897 8.89595C107.528 9.06953 106.724 9.65536 106.724 10.6535C106.724 11.5647 107.375 12.1506 108.549 12.1506C109.375 12.1506 110.244 11.9336 111.135 11.4997C111.352 11.9336 111.96 12.1506 112.917 12.1506C113.873 12.1506 114.698 11.8251 114.894 11.6949C114.981 11.6298 115.046 11.5647 115.089 11.5214C115.089 11.4563 114.829 11.2176 114.72 11.2176L114.677 11.2393C114.611 11.2827 114.481 11.3044 114.416 11.3044C114.155 11.3044 114.025 11.1091 114.025 10.6751V7.13844C114.025 5.81489 112.96 5.14227 110.852 5.14227C109.874 5.14227 108.983 5.27245 108.136 5.48943C107.31 5.7281 106.897 5.98847 106.897 6.29224C106.897 6.48752 107.05 6.79128 107.332 7.18184C107.636 7.5724 107.875 7.74598 108.049 7.74598C108.245 7.74598 108.527 7.5724 108.875 7.22523C109.222 6.85638 109.461 6.50921 109.57 6.14036C109.787 6.11866 110.005 6.09696 110.222 6.09696ZM109.679 10.3063C109.679 9.78555 109.94 9.48178 110.461 9.41669L111.026 9.3516V10.6101C110.7 10.7619 110.418 10.8487 110.157 10.8487C109.831 10.8487 109.679 10.6751 109.679 10.3063Z" fill="#002838"/>
<path fill-rule="evenodd" clip-rule="evenodd" d="M46.2498 16.8807V17.293C46.4236 17.4232 46.9668 17.575 47.7926 17.7486C48.6183 17.9005 49.1398 18.0741 49.3354 18.1609V38.1877C49.1615 38.2745 48.6183 38.4481 47.7926 38.6C46.9668 38.7519 46.4453 38.9255 46.2498 39.0556V39.4679H56.0063V39.0556C55.8325 38.9255 55.2893 38.7736 54.4635 38.6C53.6378 38.4481 53.1163 38.2745 52.9207 38.1877V18.1609C53.0946 18.0741 53.6378 17.9005 54.4635 17.7486C55.2893 17.5967 55.8108 17.4232 56.0063 17.293V16.8807H46.2498ZM89.6002 39.4896V39.0773C89.4264 38.9905 88.9266 38.8604 88.1661 38.6868C87.4273 38.5349 86.9275 38.4047 86.7319 38.2745V32.4813C86.6885 31.7436 86.7319 30.0728 86.7319 29.6172V15.5789L86.1669 13.1053L80.4303 15.4921V15.8392C80.6042 15.9694 81.104 16.143 81.8645 16.2949C82.6468 16.4685 83.1465 16.577 83.3204 16.7071V38.2745C83.1465 38.4047 82.6468 38.5349 81.8645 38.6868C81.1257 38.8387 80.6259 38.9689 80.4303 39.0773V39.4896H89.6002ZM89.4264 32.4596C89.3177 32.2643 88.9266 31.5049 88.6224 31.0492C88.7962 30.8757 89.0352 30.637 89.2525 30.3983C89.3829 30.2464 89.535 30.0945 89.6437 29.9427L93.9679 24.822C93.794 24.7352 93.316 24.5617 92.5772 24.3447C91.8384 24.1277 91.3603 23.173 91.1865 23.0428V22.1966H98.3138V23.0428L96.9883 24.3447L95.6628 24.822L91.4472 29.8559L97.2273 38.2745C97.4011 38.4047 97.8792 38.5349 98.618 38.6868C99.3568 38.8387 99.8566 38.9689 100.052 39.0773V39.4896H94.4024L93.9461 39.0773L89.4264 32.4596ZM109.613 24.4966C112.112 24.4966 113.351 25.6682 113.351 27.9899V31.1794L107.723 31.7219C104.05 32.069 102.203 33.5011 102.203 35.9312C102.203 38.2528 103.833 39.6849 106.81 39.6849C108.831 39.6849 111.047 39.0122 113.372 37.6887C113.546 39.0122 114.611 39.6849 116.588 39.6849C118.131 39.6849 119.261 39.3377 120 38.6434C120 38.4915 119.609 38.0359 119.435 38.0359L119.261 38.1226C119.065 38.2311 118.587 38.4047 118.153 38.4047C117.262 38.4047 116.806 37.884 116.806 36.8859V28.0333C116.806 24.7786 114.676 23.1296 110.395 23.1296C108.57 23.1296 106.875 23.39 105.267 23.9107C103.703 24.4315 102.92 24.9088 102.92 25.3862C102.92 25.6682 103.159 26.1239 103.703 26.7531C104.246 27.3607 104.637 27.6644 104.92 27.6644C105.658 27.2739 106.919 25.9286 107.484 24.8437C108.049 24.6268 108.787 24.4966 109.613 24.4966ZM105.637 35.584C105.637 33.8482 106.853 32.8935 109.309 32.6766L113.372 32.3294V36.3C111.591 37.4066 109.961 37.9491 108.461 37.9491C106.549 37.9491 105.637 37.168 105.637 35.584ZM67.0667 39.4896V39.0773C66.8928 38.9905 66.4582 38.8604 65.7846 38.7519C65.1327 38.6651 64.7199 38.5349 64.546 38.4047V26.1239C66.719 25.2126 68.4574 24.7569 69.8263 24.7569C71.6516 24.7569 72.6077 25.6031 72.6077 26.8833V36.6038L72.6946 39.4679H78.8224V39.0556C78.6485 38.9689 78.1705 38.8387 77.4317 38.6651C76.6929 38.5132 76.1931 38.383 75.9975 38.2528V26.6446C75.9975 24.54 74.3895 23.1296 71.5864 23.1296C69.6959 23.1296 67.3709 23.7372 64.5678 24.9739L64.0028 20.8514L58.3314 23.9107C58.5052 24.0409 58.9833 24.1928 59.7221 24.3664C60.4609 24.5183 60.9607 24.6485 61.1562 24.7786V38.2745C60.9824 38.4047 60.4826 38.5349 59.7003 38.6868C58.9615 38.8387 58.4618 38.9689 58.2662 39.0773V39.4896H67.0667Z" fill="#002838"/>
<path fill-rule="evenodd" clip-rule="evenodd" d="M16.4589 36.9076C28.0408 37.4718 40.079 29.2267 36.9499 15.1884C36.2328 16.577 35.3202 20.8731 30.5397 24.4749C26.4111 27.5777 21.2612 28.4673 16.4589 28.4673V23.4768L4.92053 32.6983L16.4589 41.9198V36.9076Z" fill="#F26922"/>
</svg>
