<svg width="135" height="32" viewBox="0 0 135 32" fill="none" xmlns="http://www.w3.org/2000/svg">
<path d="M26.3672 22.2601C24.2325 25.9104 20.3175 28.3667 15.8288 28.3667C9.07875 28.3667 3.58594 22.8145 3.58594 16C3.58594 9.1855 9.07875 3.63326 15.8288 3.63326C20.4525 3.63326 24.4856 6.24307 26.5697 10.081C26.5528 8.38379 27.9197 7.58209 29.3203 7.65032C26.5359 3.06183 21.5325 0 15.8288 0C7.10437 0 0 7.18124 0 16C0 24.8188 7.10437 32 15.8288 32C21.6253 32 26.7047 28.8358 29.4637 24.1194C28.1475 24.2303 26.7722 23.5139 26.3672 22.2601Z" fill="#065582"/>
<path d="M59.1384 17.2878C59.1384 16.5202 59.265 15.7612 59.5266 14.9936C59.7881 14.2345 60.1594 13.5522 60.6572 12.9552C61.155 12.3582 61.7625 11.872 62.4881 11.4883C63.2137 11.113 64.0406 10.9254 64.9603 10.9254C66.0572 10.9254 66.9937 11.1812 67.77 11.7015C68.5462 12.2132 69.12 12.887 69.4912 13.7143L68.5378 14.3283C68.3437 13.9104 68.1075 13.5522 67.8206 13.2708C67.5337 12.9808 67.2384 12.7505 66.9094 12.5714C66.5887 12.3923 66.2512 12.2644 65.9053 12.1876C65.5594 12.1109 65.2219 12.0682 64.8844 12.0682C64.1503 12.0682 63.4922 12.2217 62.9269 12.5373C62.3616 12.8443 61.8891 13.2537 61.5009 13.7569C61.1128 14.2601 60.8259 14.823 60.6319 15.4541C60.4378 16.0853 60.3366 16.7164 60.3366 17.3646C60.3366 18.0725 60.4547 18.7462 60.6909 19.3944C60.9272 20.0426 61.2478 20.6141 61.6612 21.1087C62.0747 21.6034 62.5556 22.0042 63.1125 22.2942C63.6694 22.5842 64.2769 22.7377 64.935 22.7377C65.2809 22.7377 65.6353 22.6951 65.9981 22.6013C66.3609 22.5074 66.7153 22.371 67.0528 22.1663C67.3903 21.9701 67.7025 21.7228 67.9978 21.4328C68.2847 21.1428 68.5294 20.7846 68.7234 20.3667L69.7275 20.904C69.5334 21.3816 69.255 21.8081 68.9006 22.1748C68.5462 22.5416 68.1497 22.8486 67.7109 23.0959C67.2722 23.3518 66.8081 23.5394 66.3187 23.6674C65.8294 23.7953 65.3484 23.8635 64.8759 23.8635C64.0322 23.8635 63.2644 23.6759 62.5641 23.2921C61.8637 22.9083 61.2562 22.4051 60.75 21.791C60.2437 21.177 59.8472 20.4691 59.5687 19.6929C59.2819 18.8998 59.1384 18.1066 59.1384 17.2878Z" fill="#0096A6"/>
<path d="M64.8758 24.3241C63.9646 24.3241 63.1124 24.1109 62.3446 23.693C61.5937 23.2836 60.9355 22.7377 60.3955 22.081C59.8555 21.4328 59.4337 20.6738 59.1383 19.8465C58.843 19.0192 58.6912 18.1578 58.6912 17.2964C58.6912 16.4861 58.8346 15.6588 59.1046 14.8571C59.383 14.0469 59.788 13.3134 60.3196 12.6738C60.8512 12.0341 61.5177 11.4968 62.294 11.0959C63.0787 10.6866 63.9815 10.4819 64.9687 10.4819C66.1499 10.4819 67.1793 10.7633 68.023 11.3262C68.8668 11.8891 69.4996 12.6311 69.9046 13.5352L70.0649 13.8934L68.3521 14.9936L68.1327 14.5245C67.9555 14.1578 67.7446 13.8422 67.4999 13.5864C67.2468 13.3305 66.9768 13.1173 66.6899 12.9637C66.403 12.8102 66.1077 12.6908 65.804 12.6226C64.8083 12.4008 63.8633 12.5288 63.1462 12.9296C62.6399 13.2111 62.2096 13.5778 61.8637 14.0298C61.5093 14.4904 61.2393 15.0107 61.0621 15.5906C60.8849 16.1706 60.7921 16.7676 60.7921 17.3646C60.7921 18.0128 60.9018 18.6439 61.1212 19.2409C61.3405 19.8379 61.6359 20.3667 62.0155 20.8188C62.3868 21.2708 62.8255 21.629 63.3318 21.8934C64.0827 22.2857 64.9602 22.3966 65.9052 22.1578C66.2259 22.081 66.538 21.9531 66.8418 21.774C67.1455 21.5949 67.4324 21.3731 67.6855 21.1087C67.9387 20.8529 68.1496 20.5373 68.3268 20.1706L68.5293 19.7356L70.3096 20.6908L70.1493 21.0746C69.9299 21.6034 69.6177 22.081 69.2212 22.4904C68.8415 22.8827 68.4027 23.2239 67.9302 23.4883C67.4577 23.7612 66.9599 23.9659 66.4284 24.1109C65.9137 24.2473 65.3821 24.3241 64.8758 24.3241ZM64.9602 11.3859C64.1165 11.3859 63.3571 11.5565 62.699 11.8977C62.0324 12.2473 61.4587 12.6994 61.003 13.2452C60.5474 13.7996 60.193 14.4392 59.9484 15.1386C59.7037 15.8465 59.5855 16.5714 59.5855 17.2793C59.5855 18.0384 59.7205 18.7889 59.9821 19.5224C60.2437 20.2559 60.6149 20.9126 61.0874 21.4925C61.5515 22.064 62.1168 22.533 62.7665 22.8827C63.7537 23.42 64.9518 23.5565 66.1921 23.2239C66.6393 23.1045 67.0696 22.9254 67.4746 22.6951C67.8712 22.4648 68.2424 22.1834 68.5715 21.8422C68.7908 21.6205 68.9765 21.3646 69.1283 21.0917L68.9005 20.9723C68.7318 21.2623 68.5293 21.5181 68.3099 21.7484C67.9977 22.064 67.6434 22.3454 67.2721 22.5586C66.8924 22.7804 66.5043 22.9339 66.0993 23.0362C64.9433 23.3177 63.838 23.1898 62.9015 22.6951C62.294 22.3795 61.754 21.936 61.3068 21.3987C60.868 20.8614 60.5137 20.2388 60.2605 19.548C60.0074 18.8571 59.8809 18.1151 59.8809 17.3561C59.8809 16.6652 59.9905 15.9744 60.193 15.3092C60.404 14.6354 60.7246 14.0128 61.138 13.4669C61.5599 12.9211 62.083 12.4691 62.7074 12.1279C63.6187 11.6247 64.783 11.4627 65.9896 11.7356C66.3777 11.8209 66.7574 11.9659 67.1118 12.1706C67.4662 12.3667 67.8121 12.6311 68.1243 12.9467C68.3352 13.1599 68.5209 13.4072 68.6896 13.6802L68.8837 13.5522C68.5546 12.9637 68.0905 12.4691 67.4999 12.0853C66.8249 11.6162 65.9643 11.3859 64.9602 11.3859Z" fill="#0096A6"/>
<path d="M74.0139 23.9403C73.5836 23.9403 73.1954 23.8635 72.8326 23.7185C72.4698 23.5735 72.1492 23.3603 71.8792 23.0959C71.6092 22.8315 71.3982 22.5245 71.2464 22.1748C71.0945 21.8251 71.0186 21.4414 71.0186 21.032C71.0186 20.6226 71.1114 20.2473 71.297 19.8976C71.4826 19.548 71.7442 19.2495 72.0732 19.0021C72.4107 18.7463 72.8073 18.5586 73.2629 18.4222C73.727 18.2857 74.2332 18.2175 74.7817 18.2175C75.2457 18.2175 75.7098 18.2601 76.1823 18.3454C76.6548 18.4307 77.0767 18.5501 77.4395 18.7036V17.8593C77.4395 17.032 77.2117 16.3753 76.7645 15.8891C76.3173 15.403 75.6929 15.1642 74.8998 15.1642C74.4357 15.1642 73.9632 15.258 73.4823 15.4541C73.0014 15.6418 72.512 15.9232 72.0142 16.2814L71.6007 15.4712C72.7651 14.661 73.8957 14.2516 74.9926 14.2516C76.1232 14.2516 77.0092 14.5842 77.6504 15.2409C78.3001 15.8976 78.6207 16.8102 78.6207 17.9701V22.1919C78.6207 22.5245 78.7642 22.6951 79.0511 22.6951V23.7697C78.857 23.8038 78.7051 23.8209 78.6039 23.8209C78.3001 23.8209 78.0723 23.7441 77.9036 23.5906C77.7348 23.4371 77.6504 23.2153 77.6336 22.9424L77.5998 22.2089C77.1864 22.7718 76.6632 23.2068 76.0389 23.5053C75.4229 23.7868 74.7479 23.9403 74.0139 23.9403ZM74.2923 23.0021C74.8998 23.0021 75.4651 22.8827 75.9798 22.6439C76.4945 22.4051 76.8826 22.0895 77.1442 21.6887C77.2454 21.5778 77.3214 21.4669 77.3804 21.339C77.4311 21.2111 77.4564 21.1002 77.4564 20.9893V19.4627C77.0598 19.3092 76.6548 19.1898 76.2329 19.1045C75.8111 19.0192 75.3807 18.9765 74.942 18.9765C74.1151 18.9765 73.4401 19.1556 72.917 19.5138C72.3939 19.8721 72.1407 20.3497 72.1407 20.9296C72.1407 21.2196 72.1914 21.484 72.3011 21.7399C72.4107 21.9957 72.5626 22.2089 72.7482 22.3966C72.9423 22.5842 73.1617 22.7292 73.4317 22.8401C73.7101 22.9509 73.997 23.0021 74.2923 23.0021Z" fill="#0096A6"/>
<path d="M74.0138 24.3923C73.5329 24.3923 73.0772 24.3071 72.6638 24.1365C72.2504 23.9659 71.8791 23.7271 71.5669 23.4201C71.2547 23.113 71.01 22.7548 70.8328 22.3454C70.6557 21.9361 70.5713 21.4926 70.5713 21.0235C70.5713 20.5459 70.681 20.0938 70.9004 19.6759C71.1197 19.2751 71.4235 18.9169 71.8032 18.6269C72.1829 18.3454 72.63 18.1237 73.1363 17.9702C74.0391 17.6972 75.1529 17.6802 76.2582 17.8763C76.5113 17.919 76.7644 17.9787 76.9922 18.0469V17.8422C76.9922 17.1258 76.815 16.5885 76.4354 16.1876C76.0725 15.7953 75.5663 15.6077 74.8997 15.6077C74.4947 15.6077 74.0729 15.693 73.6425 15.8636C73.1954 16.0427 72.7313 16.2985 72.2757 16.6397L71.8538 16.9467L71.0185 15.3177L71.3475 15.0874C72.5794 14.226 73.8113 13.7825 74.9925 13.7825C76.2413 13.7825 77.2454 14.1578 77.971 14.9083C78.6966 15.6503 79.0679 16.6823 79.0679 17.9616V22.1834C79.0679 22.2004 79.0679 22.2175 79.0679 22.226H79.4644L79.4982 22.6866V24.145L79.1269 24.2132C78.9075 24.2559 78.7304 24.2729 78.5954 24.2729C78.1819 24.2729 77.8444 24.1535 77.5913 23.9147C77.4057 23.7442 77.2791 23.5224 77.22 23.258C76.9163 23.5139 76.5872 23.7271 76.2244 23.8977C75.5579 24.2303 74.8069 24.3923 74.0138 24.3923ZM72.6132 19.1898C72.5204 19.241 72.436 19.3007 72.36 19.3604C72.0816 19.5736 71.8622 19.8209 71.7104 20.1109C71.5585 20.3923 71.491 20.6908 71.491 21.032C71.491 21.3731 71.5585 21.6972 71.6766 21.9958C71.8032 22.2943 71.9804 22.5501 72.2082 22.7719C72.436 22.9936 72.706 23.1727 73.0182 23.3007C73.4738 23.4883 74.0307 23.5224 74.5622 23.4627C74.1319 23.4798 73.6932 23.4371 73.2966 23.2751C72.976 23.1471 72.6975 22.968 72.4697 22.7378C72.2419 22.516 72.0563 22.2431 71.9213 21.936C71.7863 21.629 71.7188 21.2964 71.7188 20.9467C71.7019 20.2303 72.0141 19.6247 72.6132 19.1898ZM78.0047 20.9041L78.0975 22.9083C78.106 23.113 78.1735 23.1983 78.2241 23.241C78.3085 23.3177 78.435 23.3518 78.6207 23.3518V23.0192C78.3507 22.8657 78.1904 22.5672 78.1904 22.1663V17.9446C78.1904 16.8955 77.9204 16.1109 77.355 15.5309C76.7897 14.9595 76.0304 14.6781 75.0179 14.6781C74.9082 14.6781 74.8069 14.6781 74.6972 14.6951C75.7013 14.6354 76.545 14.9339 77.1272 15.5565C77.6588 16.1279 77.9204 16.8955 77.9204 17.8337V20.9808C77.9204 20.9979 77.9204 21.0064 77.9204 21.0235L78.0047 20.9041ZM74.9504 19.4371C74.2163 19.4371 73.6257 19.5906 73.1869 19.8977C72.7904 20.1706 72.6047 20.5032 72.6047 20.9382C72.6047 21.1685 72.6469 21.3732 72.7313 21.5608C72.8157 21.7569 72.9338 21.9275 73.0772 22.0725C73.2291 22.2175 73.3979 22.3284 73.6172 22.4137C73.8282 22.499 74.056 22.5416 74.2922 22.5416C74.8322 22.5416 75.3385 22.4307 75.7857 22.226C76.216 22.0213 76.5535 21.7569 76.7729 21.4329L76.8235 21.3731C76.891 21.3049 76.9332 21.2367 76.9669 21.1685C76.9922 21.1002 77.0091 21.0405 77.0091 20.9894V19.7783C76.7307 19.6845 76.4438 19.6077 76.1569 19.548C75.7604 19.4712 75.3554 19.4371 74.9504 19.4371Z" fill="#0096A6"/>
<path d="M94.5674 23.7612H93.3946V18.5331C93.3946 17.4414 93.2258 16.6397 92.8883 16.1279C92.5508 15.6162 92.0615 15.3518 91.4034 15.3518C91.0574 15.3518 90.7284 15.4201 90.4246 15.548C90.1209 15.6759 89.834 15.8636 89.5809 16.1024C89.3193 16.3412 89.0915 16.6311 88.8974 16.9552C88.7034 17.2879 88.5515 17.6461 88.4502 18.0384V23.7527H87.2774V18.5245C87.2774 17.4073 87.1171 16.6056 86.7965 16.1024C86.4759 15.5992 85.978 15.3433 85.3115 15.3433C84.628 15.3433 84.029 15.5906 83.4974 16.0768C82.9659 16.5714 82.5862 17.2196 82.3584 18.0128V23.7442H81.1855V14.3966H82.2571V16.5117C82.6284 15.7953 83.1093 15.2324 83.7084 14.8316C84.3074 14.4307 84.9655 14.2346 85.6996 14.2346C86.459 14.2346 87.0665 14.4563 87.5221 14.8998C87.9777 15.3433 88.2562 15.9233 88.3574 16.6397C89.2012 15.0363 90.3571 14.2346 91.8337 14.2346C92.3399 14.2346 92.7702 14.3284 93.1246 14.5245C93.479 14.7122 93.7574 14.9851 93.9768 15.3433C94.1877 15.693 94.348 16.1194 94.4409 16.6226C94.5421 17.1173 94.5927 17.6717 94.5927 18.2857V23.7612H94.5674Z" fill="#0096A6"/>
<path d="M95.0147 24.2132H92.9391V18.5331C92.9391 17.5352 92.7956 16.8103 92.5088 16.3753C92.2556 15.9915 91.9013 15.8124 91.395 15.8124C91.1081 15.8124 90.8466 15.8636 90.5934 15.9744C90.3319 16.0853 90.0956 16.2474 89.8763 16.4435C89.6484 16.6567 89.4459 16.9041 89.2772 17.194C89.1169 17.467 88.9819 17.774 88.8891 18.1066V24.2132H86.8134V18.5331C86.8134 17.5181 86.6784 16.7761 86.4 16.3582C86.1638 15.983 85.8094 15.8124 85.2947 15.8124C84.7294 15.8124 84.2316 16.0171 83.7844 16.4265C83.3288 16.8444 82.9997 17.4073 82.7888 18.0981V24.2132H80.7131V13.9446H82.6875V15.096C82.9153 14.8572 83.1684 14.6439 83.4384 14.4563C84.105 14.0043 84.8644 13.7825 85.6744 13.7825C86.5519 13.7825 87.2691 14.0469 87.8091 14.5757C88.0959 14.8486 88.3238 15.1813 88.4841 15.548C89.3531 14.3795 90.4669 13.7825 91.8084 13.7825C92.3906 13.7825 92.8969 13.8934 93.3103 14.1237C93.7322 14.354 94.0781 14.6866 94.3313 15.1045C94.5675 15.5053 94.7447 15.983 94.8544 16.5288C94.9556 17.0491 95.0147 17.6461 95.0147 18.2772V24.2132ZM93.8419 23.3007H94.1203V18.2772C94.1203 17.6972 94.0697 17.1685 93.9853 16.6994C93.9009 16.2559 93.7575 15.8806 93.5719 15.5736C93.4031 15.2836 93.1753 15.0704 92.8969 14.9169C92.61 14.7633 92.2556 14.6866 91.8253 14.6866C91.2094 14.6866 90.6609 14.8401 90.1716 15.1642C90.1969 15.1471 90.2306 15.1386 90.2559 15.1301C90.6188 14.9766 91.0069 14.8913 91.4119 14.8913C92.2134 14.8913 92.8631 15.2324 93.2766 15.8721C93.6647 16.4691 93.8503 17.339 93.8503 18.5331L93.8419 23.3007ZM87.7247 23.3007H88.0031L88.02 17.9275C88.0284 17.8763 88.0453 17.8337 88.0622 17.7825L87.9103 16.7079C87.8175 16.0853 87.5897 15.5992 87.2016 15.2239C86.8303 14.8657 86.3325 14.6866 85.6913 14.6866C85.05 14.6866 84.4847 14.8572 83.9616 15.2068C84.375 14.9936 84.8306 14.8913 85.3116 14.8913C86.13 14.8913 86.7713 15.2239 87.1763 15.855C87.5475 16.4435 87.7331 17.3134 87.7331 18.5245L87.7247 23.3007ZM81.6244 23.3007H81.9028V18.1749L81.8016 18.3795V14.8486H81.6328V23.3007H81.6244Z" fill="#0096A6"/>
<path d="M101.461 23.9403C100.744 23.9403 100.094 23.7527 99.5034 23.3859C98.9128 23.0107 98.4487 22.533 98.1112 21.9531V23.7697H97.0565V10.6439H98.2293V16.3582C98.6343 15.7271 99.1153 15.2153 99.6806 14.823C100.246 14.4307 100.904 14.2431 101.655 14.2431C102.288 14.2431 102.853 14.3795 103.359 14.661C103.857 14.9339 104.287 15.3006 104.633 15.7612C104.988 16.2217 105.258 16.742 105.443 17.322C105.637 17.9019 105.73 18.4989 105.73 19.113C105.73 19.7697 105.621 20.3923 105.401 20.9808C105.182 21.5693 104.878 22.081 104.507 22.516C104.127 22.951 103.672 23.3006 103.148 23.5565C102.625 23.8038 102.06 23.9403 101.461 23.9403ZM101.191 22.8571C101.689 22.8571 102.136 22.7548 102.549 22.5416C102.963 22.3284 103.309 22.0554 103.604 21.6972C103.899 21.3475 104.127 20.9382 104.296 20.4947C104.465 20.0426 104.549 19.5821 104.549 19.1045C104.549 18.6183 104.473 18.1407 104.313 17.6887C104.161 17.2367 103.942 16.8273 103.655 16.4776C103.368 16.1279 103.03 15.8465 102.634 15.6333C102.237 15.42 101.798 15.3177 101.326 15.3177C100.972 15.3177 100.634 15.3774 100.322 15.5053C100.01 15.6333 99.7228 15.8038 99.4528 16.0171C99.1912 16.2303 98.955 16.4776 98.744 16.7591C98.5331 17.0405 98.3643 17.339 98.2293 17.6461V20.5544C98.2715 20.8785 98.3981 21.177 98.6006 21.4584C98.8031 21.7399 99.0478 21.9787 99.3262 22.1834C99.6131 22.3881 99.9168 22.5501 100.246 22.6695C100.575 22.7974 100.887 22.8571 101.191 22.8571Z" fill="#0096A6"/>
<path d="M101.461 24.3923C100.668 24.3923 99.9253 24.1791 99.2588 23.7697C99.0056 23.6077 98.7694 23.4286 98.5585 23.2324V24.2132H96.601V10.1833H98.6766V15.0618C98.9128 14.8315 99.1575 14.6183 99.4275 14.4392C100.069 13.9957 100.811 13.774 101.655 13.774C102.364 13.774 103.005 13.936 103.57 14.2431C104.127 14.5501 104.6 14.9595 104.988 15.4712C105.368 15.9744 105.663 16.5373 105.874 17.1684C106.076 17.791 106.178 18.4477 106.178 19.0959C106.178 19.8038 106.059 20.4861 105.823 21.1258C105.587 21.7654 105.258 22.3283 104.844 22.8059C104.431 23.2836 103.925 23.6759 103.343 23.9573C102.76 24.2473 102.128 24.3923 101.461 24.3923ZM99.5372 22.8571C99.6047 22.8998 99.6638 22.9509 99.7397 22.9851C100.263 23.3177 100.828 23.4712 101.461 23.4712C101.984 23.4712 102.49 23.3603 102.946 23.13C103.418 22.8998 103.823 22.5842 104.161 22.2004C104.498 21.8081 104.777 21.339 104.979 20.8017C105.173 20.2644 105.283 19.6929 105.283 19.0959C105.283 18.533 105.19 17.9872 105.022 17.4499C104.844 16.9211 104.6 16.4435 104.279 16.0256C103.967 15.6162 103.587 15.2836 103.14 15.0448C102.71 14.806 102.212 14.6865 101.655 14.6865C101.039 14.6865 100.508 14.8315 100.035 15.13C100.077 15.113 100.119 15.0959 100.162 15.0789C100.997 14.7377 102.035 14.7974 102.845 15.2239C103.292 15.4627 103.688 15.7868 104.009 16.1876C104.321 16.5799 104.566 17.0405 104.743 17.5352C104.912 18.0384 105.005 18.5671 105.005 19.1045C105.005 19.6332 104.912 20.1535 104.726 20.6567C104.541 21.1514 104.279 21.6034 103.958 21.9957C103.629 22.3966 103.224 22.7207 102.76 22.9509C102.001 23.3433 101.09 23.4627 100.103 23.1045C99.9 23.0362 99.7144 22.9595 99.5372 22.8571ZM97.5122 23.3006H97.6641V20.2388L97.7822 20.452V11.0959H97.5038V23.3006H97.5122ZM98.685 20.5202C98.7272 20.759 98.82 20.9808 98.9719 21.194C99.1406 21.4328 99.3516 21.646 99.5963 21.8166C99.841 21.9957 100.111 22.1407 100.398 22.243C101.157 22.516 101.798 22.4051 102.338 22.1322C102.693 21.9531 102.997 21.7057 103.25 21.3987C103.511 21.0831 103.714 20.7249 103.866 20.3326C104.009 19.9317 104.085 19.5224 104.085 19.1045C104.085 18.6695 104.018 18.2345 103.874 17.8337C103.739 17.4328 103.545 17.0661 103.292 16.759C103.047 16.452 102.752 16.2132 102.414 16.0341C101.832 15.7271 101.081 15.6844 100.482 15.9232C100.212 16.0341 99.9591 16.1791 99.7313 16.3667C99.495 16.5544 99.2841 16.7846 99.0985 17.032C98.9297 17.2622 98.7863 17.501 98.6681 17.7484V20.5202H98.685Z" fill="#0096A6"/>
<path d="M107.722 12.4349V10.6354H108.894V12.4349H107.722ZM107.722 23.7612V14.3966H108.894V23.7526H107.722V23.7612Z" fill="#0096A6"/>
<path d="M109.35 24.2132H107.274V13.9446H109.35V24.2132ZM108.169 23.3006H108.447V14.8486H108.169V23.3006ZM109.35 12.8955H107.274V10.1919H109.35V12.8955ZM108.169 11.9829H108.447V11.0959H108.169V11.9829Z" fill="#0096A6"/>
<path d="M112.118 23.7612V22.0043H113.138V23.7612H112.118Z" fill="#065582"/>
<path d="M113.586 24.2132H111.67V21.5437H113.586V24.2132ZM112.565 23.3006H112.683V22.4478H112.565V23.3006Z" fill="#065582"/>
<path d="M120.15 23.9403C119.391 23.9403 118.716 23.7442 118.133 23.3433C117.551 22.9424 117.079 22.4392 116.724 21.8252V27.5906H115.552V14.3966H116.606V16.2132C116.977 15.6247 117.458 15.1471 118.041 14.7804C118.631 14.4137 119.264 14.2346 119.956 14.2346C120.58 14.2346 121.146 14.371 121.669 14.6354C122.192 14.9083 122.639 15.2665 123.019 15.71C123.398 16.1621 123.694 16.6738 123.905 17.2623C124.116 17.8508 124.225 18.4563 124.225 19.0789C124.225 19.7356 124.124 20.3582 123.93 20.9467C123.736 21.5352 123.457 22.0469 123.095 22.4904C122.732 22.9339 122.302 23.2836 121.795 23.5395C121.306 23.8039 120.757 23.9403 120.15 23.9403ZM119.829 22.8572C120.31 22.8572 120.757 22.7463 121.154 22.5331C121.551 22.3198 121.897 22.0299 122.175 21.6802C122.462 21.3305 122.673 20.9211 122.825 20.4776C122.977 20.0256 123.052 19.565 123.052 19.0874C123.052 18.5842 122.968 18.1066 122.791 17.6546C122.622 17.2026 122.377 16.8017 122.082 16.452C121.778 16.1024 121.432 15.8294 121.019 15.6247C120.606 15.4201 120.167 15.3177 119.694 15.3177C119.391 15.3177 119.078 15.3774 118.749 15.5053C118.42 15.6333 118.117 15.7953 117.83 16.0085C117.543 16.2218 117.307 16.4606 117.104 16.742C116.902 17.0235 116.775 17.322 116.733 17.629V20.5032C116.868 20.8358 117.045 21.1514 117.256 21.4414C117.467 21.7314 117.712 21.9787 117.982 22.1834C118.252 22.3966 118.538 22.5587 118.851 22.6781C119.171 22.7975 119.492 22.8572 119.829 22.8572Z" fill="#065582"/>
<path d="M117.18 28.0427H115.104V13.9446H117.062V14.968C117.29 14.7548 117.543 14.5672 117.813 14.3966C118.471 13.9872 119.197 13.7825 119.964 13.7825C120.656 13.7825 121.297 13.9361 121.88 14.2346C122.453 14.5331 122.951 14.9339 123.365 15.4201C123.778 15.9062 124.107 16.4776 124.335 17.1088C124.563 17.7399 124.681 18.4051 124.681 19.0789C124.681 19.7868 124.571 20.4606 124.36 21.0917C124.149 21.7314 123.837 22.2943 123.441 22.7804C123.044 23.2665 122.555 23.6589 122.006 23.9488C121.441 24.2388 120.817 24.3838 120.15 24.3838C119.298 24.3838 118.538 24.1535 117.88 23.7015C117.627 23.5224 117.391 23.3348 117.18 23.1216V28.0427ZM116.007 27.1301H116.286V17.5778L116.159 17.774V14.8486H116.007V27.1301ZM118.462 23.0021C118.952 23.3262 119.509 23.4798 120.15 23.4798C120.673 23.4798 121.162 23.3689 121.593 23.1386C122.04 22.9083 122.428 22.5928 122.749 22.2004C123.078 21.7996 123.331 21.3305 123.508 20.8017C123.685 20.2644 123.778 19.6845 123.778 19.0789C123.778 18.516 123.677 17.9531 123.483 17.4243C123.289 16.8955 123.019 16.4179 122.673 16.0085C122.335 15.6077 121.922 15.2836 121.458 15.0363C121.011 14.7975 120.504 14.6866 119.956 14.6866C119.348 14.6866 118.792 14.8401 118.277 15.1642C118.201 15.2154 118.125 15.2665 118.049 15.3177C118.218 15.2239 118.395 15.1386 118.581 15.0704C119.542 14.7036 120.428 14.8145 121.205 15.2068C121.669 15.4371 122.074 15.7527 122.411 16.145C122.749 16.5288 123.01 16.9808 123.204 17.484C123.398 17.9872 123.491 18.5245 123.491 19.0874C123.491 19.6162 123.407 20.1365 123.247 20.6226C123.078 21.1173 122.833 21.5778 122.521 21.9702C122.2 22.371 121.812 22.6951 121.365 22.9424C120.58 23.3689 119.585 23.4542 118.699 23.113C118.614 23.0704 118.538 23.0363 118.462 23.0021ZM117.18 20.4094C117.298 20.6823 117.442 20.9297 117.619 21.1685C117.804 21.4243 118.024 21.6461 118.26 21.8252C118.496 22.0043 118.749 22.1493 119.019 22.2601C119.661 22.5075 120.378 22.4392 120.935 22.1407C121.272 21.9531 121.576 21.7058 121.812 21.3987C122.057 21.0917 122.251 20.7335 122.386 20.3326C122.521 19.9318 122.588 19.5139 122.588 19.0874C122.588 18.6439 122.513 18.2175 122.361 17.8166C122.209 17.4158 121.998 17.0576 121.736 16.7505C121.475 16.452 121.171 16.2047 120.817 16.0341C120.26 15.7612 119.644 15.6503 118.91 15.9318C118.623 16.0427 118.353 16.1876 118.1 16.3753C117.855 16.5544 117.644 16.7676 117.475 17.0149C117.323 17.2282 117.231 17.4499 117.188 17.6717V20.4094H117.18Z" fill="#065582"/>
<path d="M130.106 23.9403C129.448 23.9403 128.849 23.8124 128.301 23.5565C127.752 23.3006 127.28 22.9424 126.875 22.4989C126.47 22.0469 126.157 21.5352 125.93 20.9467C125.702 20.3582 125.592 19.7356 125.592 19.0618C125.592 18.4051 125.702 17.7825 125.93 17.2025C126.157 16.6226 126.47 16.1109 126.866 15.6759C127.263 15.2409 127.735 14.8912 128.292 14.6354C128.841 14.3795 129.448 14.2516 130.089 14.2516C130.747 14.2516 131.347 14.3795 131.895 14.6354C132.443 14.8912 132.916 15.2409 133.304 15.6844C133.692 16.1279 134.004 16.6396 134.224 17.2111C134.443 17.7825 134.553 18.3966 134.553 19.0448C134.553 19.1386 134.553 19.2409 134.553 19.3347C134.553 19.4286 134.544 19.4968 134.536 19.5309H126.824C126.858 20.0341 126.967 20.4947 127.162 20.9211C127.356 21.3475 127.592 21.7143 127.896 22.0298C128.191 22.3369 128.537 22.5842 128.925 22.7548C129.313 22.9254 129.727 23.0192 130.165 23.0192C130.452 23.0192 130.739 22.9765 131.026 22.8912C131.313 22.806 131.574 22.6951 131.819 22.5501C132.064 22.4051 132.275 22.226 132.477 22.0213C132.671 21.8081 132.823 21.5778 132.924 21.3305L133.945 21.6205C133.81 21.9701 133.616 22.2857 133.363 22.5586C133.11 22.8401 132.815 23.0874 132.486 23.2921C132.157 23.4968 131.785 23.6674 131.38 23.7782C130.967 23.8806 130.545 23.9403 130.106 23.9403ZM133.431 18.5842C133.397 18.081 133.287 17.6205 133.093 17.2111C132.899 16.7932 132.663 16.4435 132.367 16.145C132.072 15.8465 131.735 15.6162 131.347 15.4456C130.958 15.275 130.545 15.1898 130.106 15.1898C129.667 15.1898 129.254 15.275 128.866 15.4456C128.478 15.6162 128.132 15.8465 127.837 16.145C127.541 16.4435 127.305 16.8017 127.128 17.2196C126.951 17.6375 126.841 18.0895 126.807 18.5842H133.431Z" fill="#065582"/>
<path d="M130.106 24.3923C129.389 24.3923 128.714 24.2473 128.107 23.9659C127.508 23.6844 126.976 23.2921 126.537 22.7974C126.098 22.3113 125.753 21.7399 125.508 21.1002C125.263 20.4605 125.137 19.7697 125.137 19.0533C125.137 18.3454 125.263 17.6631 125.508 17.0234C125.753 16.3923 126.09 15.8294 126.529 15.3518C126.968 14.8742 127.491 14.4819 128.098 14.2004C129.33 13.629 130.883 13.6375 132.081 14.2004C132.68 14.4819 133.203 14.8742 133.633 15.3603C134.063 15.8465 134.393 16.4008 134.637 17.0234C134.873 17.646 135 18.3198 135 19.0192V19.3091C135 19.4627 134.992 19.565 134.958 19.6503L134.857 19.9659H127.33C127.381 20.2303 127.457 20.4776 127.567 20.7164C127.735 21.0917 127.955 21.4243 128.216 21.6887C128.478 21.9616 128.773 22.1663 129.102 22.3198C129.642 22.5586 130.275 22.6098 130.891 22.4307C131.144 22.3625 131.372 22.2601 131.583 22.1322C131.785 22.0128 131.979 21.8593 132.14 21.6801C132.292 21.5096 132.418 21.3219 132.503 21.1258L132.654 20.7505L134.544 21.2793L134.359 21.7484C134.198 22.1407 133.979 22.5074 133.684 22.8315C133.405 23.1471 133.076 23.42 132.705 23.6503C132.334 23.8806 131.92 24.0597 131.482 24.1876C131.051 24.3241 130.579 24.3923 130.106 24.3923ZM130.089 14.6865C129.516 14.6865 128.976 14.8059 128.478 15.0277C127.98 15.258 127.55 15.5735 127.195 15.9659C126.833 16.3582 126.554 16.8273 126.352 17.3475C126.149 17.8763 126.048 18.4392 126.048 19.0448C126.048 19.6588 126.149 20.2388 126.352 20.7676C126.554 21.2964 126.841 21.774 127.204 22.1748C127.567 22.5757 127.997 22.8998 128.486 23.13C128.967 23.3603 129.516 23.4712 130.098 23.4712C130.494 23.4712 130.874 23.42 131.237 23.3177C131.591 23.2153 131.929 23.0703 132.224 22.8827C132.519 22.6951 132.781 22.4733 133.009 22.226C133.11 22.1151 133.194 21.9957 133.279 21.8763L133.144 21.8422C133.043 22.0042 132.924 22.1663 132.789 22.3113C132.562 22.5501 132.308 22.7548 132.038 22.9254C131.768 23.0874 131.465 23.2153 131.136 23.3091C130.309 23.548 129.465 23.4883 128.731 23.1556C128.292 22.9595 127.904 22.678 127.567 22.3283C127.229 21.9787 126.951 21.5693 126.748 21.0917C126.537 20.6226 126.411 20.1023 126.377 19.5394L126.343 19.0533H134.097V19.0192C134.097 18.4307 133.996 17.8678 133.802 17.3475C133.599 16.8273 133.321 16.3582 132.967 15.9573C132.621 15.565 132.19 15.2494 131.701 15.0192C131.22 14.8059 130.68 14.6865 130.089 14.6865ZM133.912 19.0362H126.326L126.36 18.5501C126.394 18.0128 126.512 17.501 126.714 17.0405C126.917 16.5714 127.187 16.162 127.516 15.8209C127.853 15.4797 128.242 15.2068 128.689 15.0192C129.583 14.6354 130.638 14.6354 131.524 15.0192C131.963 15.2068 132.351 15.4797 132.688 15.8209C133.017 16.1535 133.296 16.5629 133.507 17.0149C133.718 17.4755 133.844 17.9957 133.886 18.5501L133.912 19.0362ZM127.322 18.1236H132.916C132.865 17.8678 132.789 17.6204 132.688 17.3987C132.519 17.032 132.308 16.7164 132.055 16.4605C131.802 16.2047 131.507 16 131.178 15.855C130.52 15.565 129.718 15.5735 129.052 15.855C128.714 16 128.419 16.1961 128.166 16.4605C127.913 16.7164 127.71 17.032 127.55 17.3987C127.44 17.629 127.373 17.8678 127.322 18.1236Z" fill="#065582"/>
<path d="M40.8375 32C32.1047 32 25.0088 24.8188 25.0088 16C25.0004 7.18124 32.1047 0 40.8375 0C49.5704 0 56.6663 7.18124 56.6663 16C56.6663 24.8188 49.5619 32 40.8375 32ZM40.8375 3.63326C34.0875 3.63326 28.5947 9.1855 28.5947 16C28.5947 22.8145 34.0875 28.3667 40.8375 28.3667C47.5875 28.3667 53.0804 22.8145 53.0804 16C53.0804 9.1855 47.5875 3.63326 40.8375 3.63326Z" fill="#08A2B4"/>
<path d="M35.6907 15.8977C35.6907 15.1557 35.8172 14.4137 36.0704 13.6717C36.3235 12.9297 36.6863 12.2729 37.1672 11.693C37.6482 11.113 38.2388 10.6354 38.9476 10.2687C39.6479 9.90194 40.4494 9.72284 41.3522 9.72284C42.4154 9.72284 43.3266 9.97017 44.0776 10.4734C44.8285 10.9766 45.3854 11.6248 45.7482 12.4265L44.8285 13.0235C44.6344 12.6141 44.4066 12.2729 44.1282 11.9915C43.8582 11.71 43.5629 11.4883 43.2507 11.3092C42.9385 11.1386 42.6094 11.0107 42.2804 10.9339C41.9429 10.8572 41.6138 10.8231 41.2932 10.8231C40.576 10.8231 39.9432 10.9766 39.3947 11.2751C38.8463 11.5821 38.3822 11.9744 38.011 12.4606C37.6313 12.9467 37.3529 13.5011 37.1672 14.1066C36.9732 14.7207 36.8804 15.3348 36.8804 15.9659C36.8804 16.6567 36.9985 17.3049 37.2263 17.9361C37.4541 18.5672 37.7663 19.1216 38.1629 19.5992C38.5594 20.0853 39.0319 20.4691 39.5719 20.7506C40.1119 21.032 40.7026 21.177 41.3438 21.177C41.6813 21.177 42.0272 21.1344 42.3732 21.0491C42.7276 20.9638 43.0651 20.8188 43.3941 20.6312C43.7232 20.435 44.0269 20.1962 44.3054 19.9147C44.5838 19.6333 44.8201 19.2836 45.0057 18.8742L45.976 19.3945C45.7819 19.8636 45.5204 20.2729 45.166 20.6226C44.8201 20.9808 44.4319 21.2793 44.0101 21.5181C43.5882 21.7655 43.1326 21.9531 42.6601 22.081C42.1876 22.209 41.7151 22.2772 41.2594 22.2772C40.441 22.2772 39.69 22.0896 39.0066 21.7143C38.3232 21.339 37.7325 20.8529 37.2432 20.2559C36.7538 19.6589 36.3657 18.9766 36.0957 18.2175C35.8257 17.4584 35.6907 16.6823 35.6907 15.8977Z" fill="#10517D"/>
<path d="M41.2595 23.1642C40.2976 23.1642 39.4032 22.9424 38.5932 22.4989C37.817 22.0725 37.1335 21.5096 36.5767 20.8273C36.0198 20.1535 35.5895 19.3774 35.2773 18.5245C34.9735 17.6716 34.8132 16.7846 34.8132 15.8891C34.8132 15.0533 34.9567 14.2089 35.2351 13.3731C35.522 12.5373 35.9439 11.7782 36.4923 11.113C37.0492 10.4477 37.7326 9.89337 38.5426 9.47546C39.3695 9.04902 40.3145 8.82727 41.3439 8.82727C42.5757 8.82727 43.6557 9.12578 44.5501 9.72279C45.4445 10.3113 46.111 11.0959 46.5414 12.0512L46.8535 12.7505L44.4573 14.2942L44.0354 13.3902C43.892 13.0746 43.7148 12.8102 43.5123 12.6055C43.2929 12.3923 43.0651 12.2047 42.8289 12.0767C42.5926 11.9488 42.3395 11.8465 42.0864 11.7868C41.8164 11.7271 41.5464 11.6929 41.2848 11.6929C40.711 11.6929 40.2301 11.8038 39.8082 12.0341C39.361 12.2814 38.9982 12.5885 38.6945 12.9893C38.3823 13.3902 38.146 13.8507 37.9942 14.3625C37.8339 14.8827 37.7495 15.42 37.7495 15.9573C37.7495 16.5373 37.8507 17.1002 38.0364 17.6204C38.2304 18.1492 38.5004 18.6268 38.8295 19.0277C39.1501 19.42 39.5298 19.7356 39.9685 19.9573C40.6098 20.2985 41.3439 20.3838 42.1623 20.1791C42.4323 20.1109 42.7023 20 42.9554 19.855C43.217 19.7015 43.4617 19.5138 43.681 19.2836C43.892 19.0703 44.0692 18.8059 44.221 18.4904L44.6176 17.6546L47.0982 18.9936L46.7945 19.7356C46.5582 20.307 46.2292 20.8187 45.8073 21.2452C45.4023 21.6546 44.9551 22.0042 44.4573 22.2942C43.9679 22.5757 43.4448 22.7889 42.8964 22.9424C42.3395 23.0874 41.7995 23.1642 41.2595 23.1642Z" fill="#10517D"/>
<path d="M10.1165 15.8977C10.1165 15.1557 10.243 14.4137 10.5046 13.6717C10.7661 12.9297 11.1374 12.2729 11.6352 11.693C12.1246 11.113 12.7405 10.6354 13.4577 10.2687C14.1833 9.90194 15.0018 9.72284 15.9215 9.72284C17.0099 9.72284 17.9465 9.97017 18.7227 10.4734C19.499 10.9766 20.0727 11.6248 20.4355 12.4265L19.4905 13.0235C19.2965 12.6141 19.0602 12.2729 18.7733 11.9915C18.4949 11.71 18.1911 11.4883 17.8705 11.3092C17.5499 11.1386 17.2124 11.0107 16.8749 10.9339C16.529 10.8572 16.1915 10.8231 15.8624 10.8231C15.1283 10.8231 14.4786 10.9766 13.9133 11.2751C13.348 11.5821 12.8755 11.9744 12.4958 12.4606C12.1077 12.9467 11.8208 13.5011 11.6268 14.1066C11.4327 14.7207 11.3315 15.3348 11.3315 15.9659C11.3315 16.6567 11.4496 17.3049 11.6858 17.9361C11.9221 18.5672 12.2427 19.1216 12.6477 19.5992C13.0527 20.0853 13.5336 20.4691 14.0905 20.7506C14.6474 21.032 15.2549 21.177 15.9046 21.177C16.2505 21.177 16.6049 21.1344 16.9593 21.0491C17.3221 20.9638 17.668 20.8188 18.014 20.6312C18.3515 20.435 18.6636 20.1962 18.9505 19.9147C19.2374 19.6333 19.4821 19.2836 19.6761 18.8742L20.6718 19.3945C20.4777 19.8636 20.1993 20.2729 19.8449 20.6226C19.4905 20.9808 19.094 21.2793 18.6552 21.5181C18.2165 21.7655 17.7608 21.9531 17.2715 22.081C16.7821 22.209 16.3011 22.2772 15.8371 22.2772C15.0018 22.2772 14.2255 22.0896 13.5252 21.7143C12.8249 21.339 12.2258 20.8529 11.7196 20.2559C11.2133 19.6589 10.8252 18.9766 10.5383 18.2175C10.2515 17.4584 10.1165 16.6823 10.1165 15.8977Z" fill="#0096A6"/>
<path d="M19.2628 17.6631L18.8578 18.4989C18.7059 18.8145 18.5203 19.0789 18.3094 19.2921C18.0816 19.5224 17.8284 19.71 17.5584 19.8635C17.2969 20.0085 17.0184 20.1194 16.74 20.1876C15.8963 20.3923 15.1538 20.2985 14.4872 19.9659C14.3353 19.8891 14.2003 19.8038 14.0569 19.71C14.0231 19.6844 13.9894 19.6588 13.9556 19.6333C13.7194 19.4627 13.5084 19.258 13.3144 19.0362C12.9769 18.6354 12.6984 18.1578 12.5044 17.629C12.3103 17.1002 12.2091 16.5458 12.2091 15.9659C12.2091 15.4286 12.2934 14.8913 12.4622 14.371C12.6225 13.8678 12.8672 13.3987 13.1878 12.9979C13.5 12.6055 13.8713 12.29 14.3269 12.0426C14.7572 11.8124 15.255 11.7015 15.8456 11.7015C16.0144 11.7015 16.1831 11.7185 16.3519 11.7441C17.0691 11.7868 17.6175 12.0768 18.0056 12.5117C18.0478 12.5458 18.0816 12.58 18.1238 12.6141C18.3347 12.8188 18.5119 13.0832 18.6638 13.3987L19.0941 14.3028L21.5578 12.7591L21.2372 12.0597C20.7984 11.1045 20.115 10.3198 19.1953 9.73134C18.2756 9.13432 17.1703 8.83582 15.9047 8.83582C14.85 8.83582 13.8797 9.04904 13.0359 9.484C12.2091 9.90191 11.5003 10.4563 10.935 11.1215C10.3697 11.7868 9.93939 12.5458 9.64407 13.3817C9.3572 14.2089 9.20532 15.0533 9.20532 15.8976C9.20532 16.7932 9.36564 17.6716 9.67782 18.533C9.99001 19.3859 10.4456 20.162 11.0109 20.8358C11.5847 21.5181 12.285 22.081 13.0866 22.5075C13.9134 22.951 14.8331 23.1727 15.8203 23.1727C16.3688 23.1727 16.9256 23.0959 17.4909 22.951C18.0478 22.806 18.5878 22.5842 19.0856 22.3028C19.5919 22.0213 20.0559 21.6716 20.4694 21.2537C20.9081 20.8188 21.2456 20.307 21.4903 19.7356L21.8025 18.9936L19.2628 17.6631Z" fill="#0096A6"/>
<path d="M17.4824 12.1279L19.5074 6.93391L18.4696 6.55011L16.4277 11.7868C16.8412 11.8209 17.1871 11.9403 17.4824 12.1279Z" fill="#0096A6"/>
<path d="M13.6096 19.2921L11.7703 24.2218L12.9009 24.6482L14.6306 20C14.2171 19.855 13.8712 19.5992 13.6096 19.2921Z" fill="#0096A6"/>
</svg>
