<svg width="139" height="35" viewBox="0 0 139 35" fill="none" xmlns="http://www.w3.org/2000/svg">
<path fill-rule="evenodd" clip-rule="evenodd" d="M13.7568 26.262C15.5807 26.0266 17.0985 25.856 18.7929 25.1382C21.6581 23.9204 23.9349 21.7907 25.3292 18.9961C25.8352 17.9842 26.7648 15.3308 26.5824 13.9659L13.798 13.96C13.6804 14.4425 13.7451 25.5795 13.7568 26.262ZM16.4278 18.0665C16.6926 17.6253 16.7044 17.39 17.0397 16.9723C17.9281 15.8603 19.3283 15.4779 20.7991 15.8486C20.805 16.2251 20.6638 16.6016 20.5756 16.9193C19.8225 16.9252 19.5048 16.7075 18.7694 17.0546C18.4105 17.2252 17.9104 17.6547 17.834 18.0548C18.4458 18.0901 19.8166 17.9489 20.2932 18.1313C20.3108 18.2901 20.299 18.4137 20.2696 18.5549L20.0931 18.9549L17.5574 18.9785L17.5927 19.4903L20.0108 19.5315C20.0461 19.7551 20.0461 19.7609 19.999 19.9963L19.8225 20.3846L17.8457 20.3904C17.9928 20.9141 18.4693 21.3259 18.9282 21.5141C19.7284 21.8495 20.0108 21.5436 20.6697 21.5612C20.8168 21.8201 20.9403 22.326 20.8933 22.5908C19.8931 23.2615 17.0279 22.7143 16.4631 20.3963C15.9866 20.3669 15.7983 20.5022 15.7925 19.9551C15.7748 18.8961 16.3337 20.1198 16.2867 18.9785L15.8278 18.8784C15.7219 18.0371 15.7042 18.0783 16.4278 18.0665Z" fill="#0039A6"/>
<path fill-rule="evenodd" clip-rule="evenodd" d="M0.0194527 13.3187L6.45576 13.2716C7.40885 13.3363 12.0684 13.454 12.8391 13.2893L12.845 1.11676C12.2272 1.00498 10.7623 1.37563 10.1093 1.46388C9.24443 1.58154 8.4796 1.89924 7.73243 2.21105C5.09672 3.31123 2.53161 5.68807 1.27847 8.29436C0.701913 9.49455 -0.0805629 11.7302 0.0194527 13.3187ZM7.69713 4.49377C7.69713 4.1643 7.65594 3.81719 7.76184 3.51126C9.09146 3.29946 8.5502 3.94074 8.66787 4.37022C8.70905 4.52906 8.92673 4.54671 9.14441 4.59966C9.51506 4.6938 10.2152 5.03503 10.2446 5.26447C10.1799 5.50569 9.92101 5.98812 9.73862 6.1352C9.61508 6.10578 7.98541 4.99973 7.31471 5.97635C6.71462 6.84708 8.34429 7.27656 8.95027 7.53542C9.76804 7.88842 10.5152 8.3532 10.3976 9.5122C10.3034 10.43 9.57389 11.0889 8.66787 11.2183C8.6561 11.5007 8.73847 11.9949 8.56785 12.1538C8.3737 12.3479 7.81479 12.2597 7.77361 12.1597L7.68536 11.2654C6.65579 10.9124 6.55577 10.9477 5.85566 10.3535C5.89685 10.0829 6.25573 9.61222 6.44987 9.45925C6.66167 9.48867 8.16191 10.7242 8.99145 9.81813C9.83276 8.90034 8.05601 8.44144 7.48533 8.18258C6.70285 7.83547 5.89685 7.35304 5.96744 6.22933C6.04981 5.02326 7.10292 4.74086 7.69713 4.49377Z" fill="#02A702"/>
<path fill-rule="evenodd" clip-rule="evenodd" d="M3.0317 21.626L4.77904 20.8965C5.26147 20.7082 6.26751 20.467 6.63815 20.2728L6.00276 17.3194C5.80861 16.1545 5.78508 15.1838 5.71448 14.0013L0.00181678 13.9777C-0.0628993 16.99 1.61383 20.0022 3.0317 21.626Z" fill="#0039A6"/>
<path fill-rule="evenodd" clip-rule="evenodd" d="M19.958 7.05888C20.111 7.98255 20.4463 8.97094 20.6052 9.98875C20.7876 11.1242 20.8405 12.1185 20.8934 13.301L26.5885 13.3246C26.5826 11.7949 26.1413 10.1652 25.6177 8.94741C25.1941 7.97078 24.1587 6.1705 23.5468 5.68219C23.0938 5.81162 22.3878 6.21168 21.8465 6.41172C21.4288 6.57056 20.1992 6.90591 19.958 7.05888Z" fill="#02A702"/>
<path fill-rule="evenodd" clip-rule="evenodd" d="M7.55584 20.0551C8.32067 19.9962 9.26199 19.7491 10.1033 19.655C10.5681 19.602 12.5625 19.5667 12.7802 19.4255C12.939 19.1667 12.8567 14.7425 12.839 14.0306C12.3331 13.8717 7.58526 13.9776 6.66158 13.9776C6.5851 16.3368 7.12636 18.0253 7.55584 20.0551Z" fill="#0039A6"/>
<path fill-rule="evenodd" clip-rule="evenodd" d="M13.8097 7.84714L13.7686 13.3245H19.946C19.9931 11.989 19.5047 8.25309 18.9929 7.28235C18.3222 7.31177 17.2926 7.57063 16.5455 7.66476C15.6394 7.77066 14.7452 7.80596 13.8097 7.84714Z" fill="#02A702"/>
<path fill-rule="evenodd" clip-rule="evenodd" d="M7.89111 20.9258C8.11468 21.9318 9.17367 23.6321 9.70905 24.2557C10.3386 24.997 11.6976 26.3031 12.8331 26.1972L12.8448 20.3845C12.1035 20.2198 8.59122 20.7081 7.89111 20.9258Z" fill="#0039A6"/>
<path fill-rule="evenodd" clip-rule="evenodd" d="M13.7747 6.9412C15.4102 6.96473 17.2164 6.70587 18.7107 6.39406C18.2283 4.55259 16.1162 1.28737 13.7805 1.08734L13.7747 6.9412Z" fill="#02A702"/>
<path fill-rule="evenodd" clip-rule="evenodd" d="M19.6638 6.14109C20.5227 6.04107 22.1524 5.33508 22.876 4.98796C22.5819 4.4114 20.7698 3.2171 20.1403 2.85233C19.3814 2.41109 17.6517 1.61096 16.6692 1.47565C16.8398 1.78746 17.2811 2.11104 17.5517 2.45815C19.3461 4.7291 19.2872 5.61159 19.6638 6.14109Z" fill="#02A702"/>
<path fill-rule="evenodd" clip-rule="evenodd" d="M3.73193 22.3554C4.65561 23.4791 7.82081 25.55 9.95056 25.8442C9.62109 25.3206 7.70903 23.8203 6.9795 21.1376C6.32057 21.2494 4.10846 22.0083 3.73193 22.3554Z" fill="#0039A6"/>
<path fill-rule="evenodd" clip-rule="evenodd" d="M66.6357 6.48236V4.78209C65.6179 4.40556 65.765 4.79974 63.7764 5.29982C62.7174 5.56457 61.6408 5.7293 60.4936 5.84696L60.4406 6.49412C62.6292 7.22365 62.2409 6.68827 62.2409 10.2182C62.2409 11.0478 62.2997 12.1244 62.2056 12.9245C62.1056 13.8129 61.7879 14.3659 60.8289 14.3601C60.6171 13.9482 61.2054 14.5719 60.3994 13.5952C60.0464 13.707 59.817 13.9482 59.3581 13.8835C58.8874 13.4011 59.0639 11.9597 59.0639 11.1713C59.0639 8.04731 59.5934 5.39395 56.4047 4.71738C54.3691 4.28201 50.7803 4.74091 49.4801 6.50589C49.0918 7.0295 48.7035 8.21204 49.1447 8.94745L52.8277 7.47663C52.7159 6.94125 52.4452 6.62944 52.8041 6.0117C53.1101 5.47632 54.6162 4.90564 54.728 6.60591C54.7633 7.15894 54.7515 7.82375 54.7338 8.37677C53.4748 8.72389 52.0099 9.30045 50.7391 9.75346C49.1859 10.3006 48.3034 10.7713 48.1799 12.6363C47.9563 15.7838 51.6569 15.8074 53.1983 15.2955C54.0102 15.0249 54.3279 14.513 54.8162 14.1836C55.2398 15.0249 56.1811 15.5485 57.446 15.5661C58.7992 15.5838 59.5169 15.0425 60.4347 14.5719L60.4524 15.272C61.6585 15.2484 62.9292 15.0661 64.2059 15.0602C65.4885 15.0543 66.7475 15.2426 67.9536 15.2661L67.9653 14.3012C66.4474 14.466 66.6416 13.1305 66.6416 11.5302C66.6416 10.13 66.6416 8.72977 66.6416 7.32955C67.124 7.04715 68.2007 6.40588 68.9596 6.70004C69.795 7.01774 69.6832 8.20616 69.6832 9.25338C69.6832 10.2418 69.8244 13.1069 69.442 13.8247C69.2185 14.2424 68.9008 14.3071 68.336 14.3071V15.2661C70.3775 15.2661 71.1188 14.9425 73.7604 15.1308C74.1898 15.1602 75.137 15.2955 75.4842 15.2484V14.3012C74.737 14.2777 74.4193 14.313 74.2075 13.5894C73.9898 12.8363 74.0428 7.97671 74.0898 7.15305C74.5899 6.72946 75.6959 6.31174 76.4019 6.75299C77.5315 7.45898 77.1609 10.8242 77.1432 12.3421C77.1256 13.6953 76.955 14.1718 75.8607 14.3012L75.8372 15.2602L79.3436 15.0661C80.5732 15.0661 81.6969 15.2249 82.8794 15.2779L82.8912 14.3012C80.9379 14.5248 81.4086 12.648 81.4557 10.7301C81.491 9.17102 81.6675 7.3472 80.938 6.12348C79.7495 4.11728 77.5962 4.24083 75.5842 5.35277L73.978 6.32939C73.6192 5.82931 73.6368 5.33512 72.6719 4.83504C70.9187 3.94078 68.9184 4.94094 67.4829 5.91756C67.2652 6.07053 66.871 6.39999 66.6357 6.48236ZM54.7456 9.11807C54.7574 10.2947 54.7456 11.4714 54.7456 12.6421C54.7456 13.2893 54.8515 13.7188 54.1985 13.8776C51.4039 14.566 52.1275 9.38281 54.7456 9.11807Z" fill="#02A702"/>
<path fill-rule="evenodd" clip-rule="evenodd" d="M82.6442 1.39913L82.603 2.0051C83.8915 2.09335 84.2503 2.66991 84.2562 3.97012C84.2621 5.41741 84.1739 14.2776 84.2856 14.8895C86.0565 15.4896 90.1395 15.6367 92.0457 15.2072C100.006 13.4245 96.8523 2.68168 91.1867 4.79966C90.1513 5.18796 89.31 6.05868 88.6804 6.58818L88.6569 0.446036C88.4098 -0.101108 87.8156 0.175406 87.3685 0.322487C86.8919 0.481336 86.3977 0.628418 85.8918 0.75785L82.6442 1.39913ZM90.0748 6.74703C91.9574 6.32931 92.2222 8.56496 92.3516 10.1417C92.787 15.4837 89.5218 14.813 88.9275 13.7011C88.5628 13.0127 88.651 11.9596 88.651 11.0948C88.651 10.1358 88.6569 9.1827 88.651 8.22373C88.6452 7.58245 88.6863 7.55303 89.1158 7.20004C89.3923 6.98236 89.6394 6.84704 90.0748 6.74703Z" fill="#02A702"/>
<path fill-rule="evenodd" clip-rule="evenodd" d="M112.019 4.51728C108.342 4.74085 105.518 6.48229 105.483 10.2123C105.454 13.9952 108.578 15.7132 112.396 15.6073C115.985 15.5072 119.026 13.501 118.873 9.84165C118.72 6.1999 115.879 4.28783 112.019 4.51728ZM109.919 8.89444C109.807 7.91193 109.807 6.61761 110.307 5.92338C110.86 5.15856 111.772 5.21739 112.537 6.02928C114.661 8.28258 115.449 14.8954 112.908 14.5012C112.431 14.4247 112.096 14.06 111.843 13.7834C110.984 12.8598 110.119 10.5888 109.919 8.89444Z" fill="#02A702"/>
<path fill-rule="evenodd" clip-rule="evenodd" d="M45.9854 15.4837L47.2209 11.3007L46.2854 11.1007C45.9148 12.3832 45.2441 13.1775 44.2792 13.7305C41.3082 15.4366 36.6781 13.954 36.6486 8.60026C36.6016 0.175413 44.8323 1.04025 45.5206 5.83512L46.4972 5.82924L46.2972 1.31677H45.3853C45.0676 2.72287 44.1086 1.5168 41.2847 1.24617C39.5903 1.08144 37.8606 1.2697 36.4427 1.85215C30.3182 4.37607 30.1888 12.6421 36.1897 15.013C39.6491 16.378 42.979 15.013 44.8676 15.2366C45.2794 15.2837 45.6383 15.4425 45.9854 15.4837Z" fill="#02A702"/>
<path fill-rule="evenodd" clip-rule="evenodd" d="M97.2406 5.85871L97.2229 6.48822C99.3291 6.65295 98.9997 7.07654 99.0232 10.3653C99.0409 12.5303 99.4115 14.36 97.2229 14.2836L97.217 15.2602L101.088 15.066C102.453 15.066 103.753 15.219 105.065 15.2778L105.077 14.2483C103.024 14.1541 103.406 12.801 103.406 10.3594C103.406 8.52383 103.442 6.64706 103.4 4.81148C102.788 4.42319 102.688 4.63498 102.047 4.85267C100.3 5.44099 99.0879 5.58807 97.2406 5.85871Z" fill="#02A702"/>
<path fill-rule="evenodd" clip-rule="evenodd" d="M100.276 0.0459264C96.8639 0.546005 97.6523 4.89963 101.412 4.37602C104.712 3.91712 104 -0.495335 100.276 0.0459264Z" fill="#02A702"/>
<path fill-rule="evenodd" clip-rule="evenodd" d="M58.9287 24.2322C58.9287 24.6146 60.0171 24.7499 60.3407 24.9323C60.8938 25.2441 60.7702 25.8854 60.7702 26.5855L60.8055 31.5157C60.8055 33.0394 61.4232 33.7748 62.4999 34.2279C65.2297 35.3869 68.5126 32.4923 68.9068 32.3452V34.1926C69.801 34.4455 69.3539 34.5632 70.46 34.3396C71.6131 34.1043 74.4841 33.4571 75.3019 33.3865L75.3431 34.1514C80.2909 33.869 78.5848 33.8278 83.6032 34.1631V33.0806C82.9031 33.1041 82.6148 33.1041 82.3795 32.5511C82.0147 31.7039 82.1677 26.456 82.1677 25.2147C82.1677 24.544 84.1856 24.0321 84.8975 25.1029C85.5506 26.0854 85.4741 30.4037 85.2329 31.7392C85.1682 32.104 85.0564 32.4923 84.8622 32.7276C84.168 33.5572 84.0033 32.1393 84.0091 34.1455C88.5981 33.869 87.1861 33.8278 91.7751 34.1631L91.7457 33.0512C90.6925 33.2689 90.3513 32.7982 90.1983 31.8745C89.9101 30.139 90.4925 26.5855 89.9748 24.8676C89.2453 22.4495 87.139 21.6553 84.8152 22.5143C84.3092 22.7025 83.8738 22.9261 83.4267 23.1732C82.9619 23.432 82.6266 23.7497 82.1677 23.9262L82.15 22.526C81.4617 22.0848 81.2852 22.3672 80.5674 22.5966C78.7318 23.1791 77.261 23.4909 75.2842 23.685L75.2784 24.4087C77.2316 24.9617 77.2846 24.9382 77.2846 26.3501V30.8273C77.2846 32.0334 76.9316 33.2924 75.6078 33.11L75.6019 32.2746C74.4959 32.5335 74.0488 32.4864 73.8487 31.2803C73.6075 29.8095 73.9664 24.7087 73.7546 22.4848C72.8721 22.1436 73.0839 22.3083 72.1543 22.6025C69.8128 23.3379 69.248 23.2791 66.8888 23.6909C66.877 24.544 66.83 24.3969 67.4654 24.6146C68.7597 25.0441 68.895 24.9852 68.895 26.1207V30.8273C68.895 31.4274 67.5772 32.1981 66.6594 32.0922C65.4651 31.9569 65.671 30.6155 65.671 29.533C65.671 28.374 65.7298 23.1967 65.6474 22.4907C64.7414 22.1613 65.0179 22.273 64.0884 22.579C63.5118 22.7672 63.0294 22.9202 62.4528 23.0673C60.6408 23.5379 60.1289 23.4438 58.9229 23.6968L58.9287 24.2322Z" fill="#0039A6"/>
<path fill-rule="evenodd" clip-rule="evenodd" d="M99.2172 19.4255C100.082 19.4843 100.659 19.5961 100.959 20.2727C101.229 20.8846 101.247 21.8376 101.253 22.5731C99.8526 22.4319 99.2349 22.0906 97.6111 22.3495C96.5109 22.526 95.4872 22.9672 94.7636 23.5203C93.3634 24.5851 92.1338 26.4325 92.1691 29.0152C92.2338 33.6689 96.7051 35.7692 100.129 33.7454C100.912 33.2806 100.87 33.0571 101.253 32.8629V34.1749C102.065 34.5102 101.747 34.522 102.735 34.3161C103.324 34.1925 103.812 34.0984 104.383 33.9807C105.436 33.763 106.589 33.4748 107.619 33.3394L107.63 34.1455C108.136 34.1984 109.213 34.0337 109.807 34.0043C112.608 33.8513 113.661 34.0337 116.361 34.169V33.0276C115.255 33.0041 114.761 32.7217 114.567 31.7039C114.331 30.4625 114.637 24.238 114.478 22.5201C113.737 22.1142 113.708 22.3613 112.896 22.6201C112.36 22.7907 111.79 22.9555 111.243 23.0908C109.601 23.485 108.542 23.5144 107.63 23.7203V24.3851C109.878 24.7322 109.619 24.5969 109.631 28.6387C109.631 29.833 110.101 33.3865 107.96 33.0688L107.954 32.3922C107.183 32.4981 106.601 32.6335 106.312 31.9098C106.007 31.1391 106.136 26.8267 106.136 25.8383C106.136 23.1673 106.248 20.2433 106.13 17.6017C105.418 17.1663 105.383 17.3134 104.595 17.584C102.447 18.3194 101.412 18.3606 99.1819 18.7313L99.2172 19.4255ZM101.235 31.8098C100.506 32.2275 99.7703 32.7217 98.723 32.2216C96.3933 31.0979 97.0404 25.5382 97.6288 24.4086C98.3465 23.0261 99.8291 22.8849 100.835 23.885C101.318 24.3616 101.265 24.2792 101.259 25.1382C101.247 26.4089 101.318 30.9803 101.235 31.8098Z" fill="#0039A6"/>
<path fill-rule="evenodd" clip-rule="evenodd" d="M130.434 19.302C130.511 19.3843 130.387 19.4079 130.793 19.5608C132.411 20.1786 132.305 20.2786 132.305 21.8082V30.3802C132.305 31.7392 132.187 33.1159 130.758 33.11C130.952 32.6688 130.834 32.9335 130.363 32.304C129.852 32.4864 129.081 33.1512 128.928 31.9745C128.893 31.698 128.899 31.4215 128.899 31.1391C128.899 30.5802 128.899 30.0213 128.899 29.4683C128.899 26.0266 129.487 23.2144 125.945 22.4378C124.145 22.0436 121.68 22.373 120.144 23.032C118.497 23.738 117.403 24.8205 117.838 27.1561C118.238 27.0679 121.862 25.5794 121.992 25.45C121.509 24.3028 121.992 23.0379 123.374 23.3379C124.351 23.5556 124.145 25.5735 124.086 26.5208C123.392 26.6855 122.527 27.0444 121.821 27.2856C119.009 28.2622 116.991 28.474 116.814 31.2274C116.591 34.7691 120.721 34.7456 122.415 34.1749C123.156 33.9278 123.721 33.3336 124.157 32.9629C124.357 33.1983 124.38 33.3395 124.651 33.5983C125.257 34.1867 126.233 34.4691 127.11 34.4926C127.781 34.5102 128.428 34.3279 128.969 34.1278C129.481 33.9396 130.11 33.4866 130.44 33.3924L130.446 34.1514C131.846 34.1396 133.287 33.9278 134.776 33.9278L139 34.1337V33.1159C138.212 33.0983 137.794 33.0453 137.465 32.4687C136.994 31.6451 137.182 27.2797 137.182 26.2031C137.182 24.038 137.276 19.4373 137.17 17.5782C136.459 17.1369 136.494 17.2958 135.7 17.5664C133.523 18.3018 132.664 18.3136 130.452 18.7195L130.434 19.302ZM124.08 32.2805C123.586 32.6335 122.65 32.9218 122.027 32.3511C121.091 31.4921 121.456 27.6445 124.11 27.3091L124.08 32.2805Z" fill="#0039A6"/>
<path fill-rule="evenodd" clip-rule="evenodd" d="M59.1345 33.0982C57.6107 32.9982 57.1518 33.11 56.9989 30.7684C56.8106 27.9444 56.7753 25.1734 56.6047 22.3612C56.5635 21.7199 56.5753 20.9786 56.793 20.4374C57.0577 19.7608 57.4813 19.7726 58.2403 19.8138L58.2461 18.7371C57.1518 18.7724 56.134 18.9372 54.975 18.9313C53.8513 18.9313 52.8453 18.7724 51.7863 18.7371C51.3627 19.2078 48.474 26.8913 47.9681 27.4679L44.4381 18.7371C43.8968 18.7489 43.3085 18.8724 42.7555 18.9077C40.3139 19.0725 39.8021 18.8607 37.5723 18.7371L37.5958 19.8196C39.4314 19.7667 39.3079 20.8845 39.2078 22.4965L38.6725 30.7625C38.4724 33.3218 37.99 32.6628 36.6016 33.11V34.1631C37.4723 34.1395 38.3489 33.9925 39.2785 33.9983C40.1609 34.0042 41.0434 34.1572 41.8612 34.1572V33.0864C40.6081 33.0452 39.9668 33.0394 39.9138 31.6627L40.2845 25.3676C40.3551 24.438 40.3374 23.1437 40.5257 22.2671L45.4853 34.2337L46.3266 34.2513L51.6098 22.2083L51.9275 28.6269C52.0275 32.3216 52.6806 32.9452 49.9095 33.0923V34.1631C50.7508 34.1748 52.9688 33.9395 54.5279 33.9395C55.7281 33.9395 58.7639 34.1748 59.1404 34.1572L59.1345 33.0982Z" fill="#0039A6"/>
<path fill-rule="evenodd" clip-rule="evenodd" d="M114.62 20.0609C115.214 16.7074 109.283 16.1897 108.677 19.1549C107.989 22.5495 114.061 23.2379 114.62 20.0609Z" fill="#0039A6"/>
</svg>
