<svg width="20" height="26" viewBox="0 0 20 26" fill="none" xmlns="http://www.w3.org/2000/svg">
<g clip-path="url(#clip0_2060_28314)">
<path d="M0.444441 13.9607L0.444441 21.6474C0.44444 22.1784 0.872123 22.608 1.39913 22.608L16.497 22.608L15.4385 23.5366C15.2221 23.7268 15.1109 23.9931 15.1109 24.2616C15.1109 24.4853 15.188 24.7106 15.3459 24.8926C15.692 25.2923 16.2954 25.3341 16.6934 24.985L19.6731 22.3716C19.6776 22.3679 19.6805 22.3641 19.685 22.3604C19.7005 22.3462 19.7161 22.3313 19.7309 22.3156C19.7376 22.3089 19.7443 22.3022 19.7502 22.2955C19.7665 22.2776 19.7821 22.2597 19.7969 22.2403C19.8014 22.2344 19.8058 22.2291 19.8102 22.2232C19.8251 22.203 19.8392 22.1821 19.8532 22.1605C19.8599 22.1501 19.8651 22.1396 19.8718 22.1292C19.8799 22.115 19.8881 22.1008 19.8955 22.0859C19.9014 22.0747 19.9073 22.0628 19.9125 22.0509C19.9192 22.0367 19.9251 22.0218 19.9311 22.0069C19.9355 21.9957 19.9407 21.9837 19.9444 21.9726C19.9451 21.9703 19.9466 21.9673 19.9474 21.9651C19.954 21.9472 19.9592 21.9286 19.9644 21.9107C19.9659 21.9047 19.9681 21.8987 19.9696 21.8928C19.977 21.8652 19.9822 21.8383 19.9874 21.8107C19.9889 21.8025 19.9896 21.795 19.9911 21.7868C19.9941 21.766 19.9963 21.7458 19.9985 21.7249C19.9993 21.716 20 21.707 20 21.6973C20 21.6787 20 21.6586 20 21.6384C20 21.6295 20 21.6205 19.9993 21.6116C19.9985 21.5884 19.9963 21.5661 19.9941 21.5437C19.9933 21.5377 19.9933 21.5325 19.9926 21.5265C19.9889 21.4997 19.9844 21.4736 19.9792 21.4475C19.977 21.4363 19.9741 21.4244 19.9711 21.4132C19.9674 21.3975 19.9629 21.3818 19.9585 21.3669C19.9548 21.3542 19.9503 21.3423 19.9466 21.3296C19.9414 21.3147 19.9355 21.3005 19.9296 21.2856C19.9251 21.2744 19.9207 21.2625 19.9155 21.2513C19.9044 21.2267 19.8925 21.2028 19.8799 21.1797C19.8762 21.1723 19.871 21.1656 19.8673 21.1588C19.8562 21.1402 19.8451 21.1223 19.8332 21.1044C19.828 21.0962 19.8221 21.0887 19.8162 21.0805C19.8036 21.0634 19.7902 21.0462 19.7762 21.0291C19.7724 21.0246 19.7695 21.0201 19.7658 21.0156C19.7643 21.0134 19.7621 21.0119 19.7598 21.0097C19.7406 20.988 19.7206 20.9664 19.6991 20.9463C19.6946 20.9425 19.6902 20.9388 19.6857 20.9351C19.6716 20.9224 19.6576 20.909 19.642 20.897L16.5867 18.4372C16.1746 18.1061 15.5742 18.1732 15.2443 18.5872C14.9152 19.0018 14.982 19.606 15.3933 19.9379L16.3236 20.6867L2.35456 20.6867L2.35456 13.9607C2.35456 13.4304 1.92688 13 1.39913 13C0.872124 13 0.444441 13.4304 0.444441 13.9607Z" fill="#262103"/>
</g>
<g clip-path="url(#clip1_2060_28314)">
<path d="M19.9989 12.0393L19.9989 4.35263C19.9989 3.82159 19.5712 3.39198 19.0442 3.39198L3.94636 3.39198L5.00482 2.4634C5.22125 2.2732 5.33243 2.00694 5.33243 1.73843C5.33243 1.51468 5.25535 1.28943 5.09747 1.10744C4.75132 0.707668 4.14797 0.6659 3.74993 1.01496L0.770238 3.62841C0.76579 3.63214 0.762826 3.63587 0.758378 3.6396C0.742813 3.65377 0.727247 3.66869 0.712423 3.68435C0.705752 3.69106 0.699081 3.69777 0.693151 3.70449C0.676844 3.72239 0.661279 3.74029 0.646454 3.75968C0.642007 3.76565 0.63756 3.77087 0.633112 3.77683C0.618288 3.79697 0.604205 3.81786 0.590122 3.83949C0.583451 3.84993 0.578262 3.86037 0.571591 3.87081C0.563438 3.88498 0.555284 3.89915 0.547872 3.91407C0.541943 3.92526 0.536013 3.93719 0.530824 3.94913C0.524153 3.9633 0.518224 3.97821 0.512294 3.99313C0.507847 4.00432 0.502658 4.01625 0.498952 4.02744C0.498211 4.02968 0.496728 4.03266 0.495987 4.0349C0.489316 4.0528 0.484128 4.07144 0.478939 4.08934C0.477457 4.09531 0.475233 4.10128 0.47375 4.10725C0.466338 4.13484 0.46115 4.16169 0.455961 4.18929C0.454479 4.19749 0.453738 4.20495 0.452255 4.21316C0.44929 4.23404 0.447067 4.25418 0.444843 4.27506C0.444102 4.28401 0.443361 4.29296 0.443361 4.30266C0.443361 4.3213 0.443361 4.34144 0.443361 4.36158C0.443361 4.37053 0.443361 4.37948 0.444102 4.38843C0.444843 4.41155 0.447067 4.43393 0.44929 4.4563C0.450031 4.46227 0.450031 4.46749 0.450773 4.47346C0.454479 4.50031 0.458926 4.52641 0.464115 4.55252C0.466338 4.56371 0.469303 4.57564 0.472268 4.58683C0.475974 4.60249 0.480421 4.61815 0.484869 4.63307C0.488575 4.64575 0.493022 4.65768 0.496728 4.67036C0.501917 4.68528 0.507846 4.69945 0.513776 4.71437C0.518223 4.72555 0.522671 4.73749 0.527859 4.74868C0.538978 4.77329 0.550837 4.79716 0.563438 4.82028C0.567144 4.82774 0.572332 4.83445 0.576038 4.84116C0.587157 4.85981 0.598275 4.87771 0.610134 4.89561C0.615323 4.90381 0.621253 4.91127 0.627182 4.91948C0.639783 4.93663 0.653125 4.95378 0.667208 4.97094C0.670914 4.97541 0.673879 4.97989 0.677585 4.98436C0.679068 4.9866 0.681291 4.98809 0.683515 4.99033C0.702787 5.01196 0.7228 5.03359 0.744295 5.05373C0.748742 5.05746 0.75319 5.06119 0.757637 5.06492C0.77172 5.07759 0.785803 5.09102 0.801369 5.10295L3.85667 7.56276C4.26879 7.89392 4.86917 7.82679 5.19901 7.41285C5.52812 6.99816 5.46141 6.39402 5.05003 6.06212L4.1198 5.31328L18.0888 5.31329L18.0888 12.0393C18.0888 12.5696 18.5165 13 19.0442 13C19.5712 13 19.9989 12.5696 19.9989 12.0393Z" fill="#262103"/>
</g>
<defs>
<clipPath id="clip0_2060_28314">
<rect width="12.2222" height="19.5556" fill="white" transform="translate(20 13) rotate(90)"/>
</clipPath>
<clipPath id="clip1_2060_28314">
<rect width="12.2222" height="19.5556" fill="white" transform="translate(0.443359 13) rotate(-90)"/>
</clipPath>
</defs>
</svg>
