<svg width="21" height="21" viewBox="0 0 21 21" fill="none" xmlns="http://www.w3.org/2000/svg">
<path d="M14.4375 10.5H9.84375V5.90625C9.84375 5.54531 9.54844 5.25 9.1875 5.25C8.82656 5.25 8.53125 5.54531 8.53125 5.90625V11.1562C8.53125 11.5172 8.82656 11.8125 9.1875 11.8125H14.4375C14.7984 11.8125 15.0938 11.5172 15.0938 11.1562C15.0938 10.7953 14.7984 10.5 14.4375 10.5Z" fill="#8E8E8E"/>
<path d="M10.5 2.625C14.8444 2.625 18.375 6.15562 18.375 10.5C18.375 14.8444 14.8444 18.375 10.5 18.375C6.15562 18.375 2.625 14.8444 2.625 10.5C2.625 6.15562 6.15562 2.625 10.5 2.625ZM10.5 0C4.69875 0 0 4.69875 0 10.5C0 16.3013 4.69875 21 10.5 21C16.3013 21 21 16.3013 21 10.5C21 4.69875 16.3013 0 10.5 0Z" fill="#8E8E8E"/>
</svg>
