<svg width="16" height="31" viewBox="0 0 16 31" fill="none" xmlns="http://www.w3.org/2000/svg">
<path d="M9.95312 0.640625V5.25H7.51562V0.640625H9.95312ZM9.65625 26.1562V30.3594H7.21875V26.1562H9.65625ZM11.375 21.0312C11.375 20.4375 11.2656 19.9323 11.0469 19.5156C10.8385 19.099 10.4948 18.7292 10.0156 18.4062C9.54688 18.0833 8.91146 17.7708 8.10938 17.4688C6.75521 16.9479 5.5625 16.3958 4.53125 15.8125C3.51042 15.2188 2.71354 14.4844 2.14062 13.6094C1.56771 12.724 1.28125 11.6042 1.28125 10.25C1.28125 8.95833 1.58854 7.83854 2.20312 6.89062C2.81771 5.94271 3.66667 5.21354 4.75 4.70312C5.84375 4.18229 7.11458 3.92188 8.5625 3.92188C9.66667 3.92188 10.6667 4.08854 11.5625 4.42188C12.4583 4.74479 13.2292 5.22396 13.875 5.85938C14.5208 6.48438 15.0156 7.25 15.3594 8.15625C15.7031 9.0625 15.875 10.099 15.875 11.2656H11.3906C11.3906 10.6406 11.3229 10.0885 11.1875 9.60938C11.0521 9.13021 10.8542 8.72917 10.5938 8.40625C10.3438 8.08333 10.0417 7.84375 9.6875 7.6875C9.33333 7.52083 8.94271 7.4375 8.51562 7.4375C7.88021 7.4375 7.35938 7.5625 6.95312 7.8125C6.54688 8.0625 6.25 8.40104 6.0625 8.82812C5.88542 9.24479 5.79688 9.72396 5.79688 10.2656C5.79688 10.7969 5.89062 11.2604 6.07812 11.6562C6.27604 12.0521 6.61458 12.4167 7.09375 12.75C7.57292 13.0729 8.22917 13.4062 9.0625 13.75C10.4167 14.2708 11.6042 14.8333 12.625 15.4375C13.6458 16.0417 14.4427 16.7812 15.0156 17.6562C15.5885 18.5312 15.875 19.6458 15.875 21C15.875 22.3438 15.5625 23.4896 14.9375 24.4375C14.3125 25.375 13.4375 26.0938 12.3125 26.5938C11.1875 27.0833 9.88542 27.3281 8.40625 27.3281C7.44792 27.3281 6.49479 27.2031 5.54688 26.9531C4.59896 26.6927 3.73958 26.276 2.96875 25.7031C2.19792 25.1302 1.58333 24.3698 1.125 23.4219C0.666667 22.4635 0.4375 21.2865 0.4375 19.8906H4.9375C4.9375 20.651 5.03646 21.2865 5.23438 21.7969C5.43229 22.2969 5.69271 22.6979 6.01562 23C6.34896 23.2917 6.72396 23.5 7.14062 23.625C7.55729 23.75 7.97917 23.8125 8.40625 23.8125C9.07292 23.8125 9.61979 23.6927 10.0469 23.4531C10.4844 23.2135 10.8125 22.8854 11.0312 22.4688C11.2604 22.0417 11.375 21.5625 11.375 21.0312Z" fill="#8E8E8E"/>
</svg>
