<svg width="124" height="43" viewBox="0 0 124 43" fill="none" xmlns="http://www.w3.org/2000/svg">
<path d="M34.0605 8.54588C33.7948 8.18283 33.429 7.94545 33.0515 7.72901C31.8702 7.05178 20.9933 0.886856 20.1614 0.495875C19.5439 0.204967 18.9032 0.00714869 18.2134 0.000166897C17.7381 -0.00448763 17.2814 0.0886042 16.8317 0.230567C15.9509 0.507512 15.1587 0.968309 14.3595 1.41282C11.4445 3.03492 8.53187 4.66168 5.62157 6.28844C4.74545 6.77716 3.86933 7.26356 3.00254 7.76625C2.60642 7.99665 2.23593 8.27127 1.96797 8.65526C1.59515 9.18821 1.64409 9.72115 2.09147 10.1959C2.36642 10.4868 2.70894 10.6777 3.04215 10.8848C6.754 13.1911 10.4682 15.4997 14.1824 17.8037C14.8861 18.2389 15.5781 18.6974 16.3307 19.0512C17.5098 19.6074 18.6841 19.5957 19.8655 19.0605C20.3921 18.8208 20.8954 18.5392 21.387 18.232C23.9665 16.6192 26.5436 15.0064 29.123 13.3936C30.4255 12.579 31.7304 11.7645 33.0306 10.9476C33.4383 10.6916 33.8321 10.417 34.1024 10.0051C34.4146 9.53032 34.396 9.00901 34.0605 8.54588ZM17.2208 12.451L16.7595 13.6938C16.7595 13.6938 12.4744 12.7885 12.4744 9.11141C12.4744 6.09527 15.7063 5.20393 15.7063 5.20393L14.9187 4.13804L18.4138 4.80364L17.2581 7.3264L16.4053 6.30473C16.4053 6.30473 14.173 6.99825 14.173 9.12072C14.1707 11.2432 16.4729 12.3533 17.2208 12.451ZM20.5715 13.5704L21.5595 14.876L17.5307 13.8241L18.6911 11.1734L19.7723 12.3184C19.7723 12.3184 22.0278 11.7133 21.867 9.65366C21.6876 7.3613 20.2523 6.456 18.7331 6.10924C18.6865 6.0976 19.3202 5.05731 19.3202 5.05731C19.3202 5.05731 23.5307 6.03244 23.6426 9.77235C23.7288 12.7536 20.5715 13.5704 20.5715 13.5704Z" fill="#E4B12F"/>
<path d="M17.6425 33.1661C17.6425 34.5601 17.6285 35.9565 17.6471 37.3505C17.6635 38.5816 17.6541 39.8127 17.6611 41.0439C17.6635 41.3394 17.6378 41.6327 17.5539 41.9166C17.3769 42.5124 16.9108 42.794 16.3027 42.6869C15.8763 42.6101 15.4965 42.4263 15.1306 42.2075C13.0359 40.9531 10.9411 39.701 8.84635 38.449C7.16402 37.4413 5.47936 36.4359 3.79935 35.4212C3.07003 34.9813 2.37799 34.4903 1.76517 33.8922C0.889056 33.0381 0.402064 31.9931 0.190025 30.8039C0.0385687 29.9521 0.0106077 29.0934 0.00827762 28.2346C0.00594752 24.006 0.0129379 19.7797 0.0292486 15.551C0.0315787 14.9948 -0.0126934 14.4432 0.00361731 13.887C0.0152678 13.5496 0.0455592 13.2144 0.124783 12.884C0.148084 12.7886 0.178375 12.6955 0.213327 12.6047C0.420706 12.0997 0.786532 11.8926 1.32712 11.9624C1.68362 12.0066 1.98653 12.1788 2.28479 12.358C3.32867 12.9887 4.37256 13.6217 5.41644 14.2547C8.30577 16.0048 11.1974 17.7549 14.0868 19.505C14.5621 19.7936 15.0211 20.1078 15.4592 20.4499C16.6336 21.3622 17.265 22.5724 17.477 24.0269C17.5772 24.7181 17.6122 25.414 17.6169 26.1098C17.6169 26.3053 17.6169 26.5031 17.6169 26.6986C17.6169 28.856 17.6169 31.0134 17.6169 33.1707C17.6262 33.1661 17.6332 33.1661 17.6425 33.1661ZM3.15624 26.1936C3.14459 26.3262 3.13527 26.3914 3.13527 26.4566C3.12362 27.0663 3.09799 27.6761 3.10498 28.2858C3.10964 28.6209 2.98848 28.9747 3.12595 29.2865C3.2611 29.5914 3.4778 29.8614 3.66654 30.143C4.40052 31.2461 5.3046 32.1793 6.42072 32.9008C6.93567 33.2336 7.47858 33.5059 8.09606 33.6059C9.18655 33.7805 9.98577 33.1893 10.1489 32.1072C10.2234 31.6138 10.1862 31.1297 10.1069 30.6456C9.87859 29.219 9.28674 27.946 8.46422 26.7684C7.97256 26.0609 7.43431 25.3884 6.91237 24.7041C6.42305 24.0618 5.95703 23.4032 5.66576 22.6422C5.50732 22.2279 5.43042 21.8044 5.48635 21.3622C5.53062 21.0154 5.74732 20.8455 6.09683 20.8805C6.23897 20.8944 6.37411 20.9433 6.49994 21.0084C7.12907 21.3366 7.66732 21.7695 8.05878 22.3676C8.50383 23.0495 8.73218 23.8012 8.7648 24.6134C8.76946 24.7065 8.73451 24.8089 8.83936 24.8787C9.1982 25.1184 9.55703 25.3628 9.90422 25.5978C9.9881 25.542 9.97645 25.4838 9.97645 25.4303C9.9881 24.6017 9.99742 23.7756 10.0091 22.9471C10.0114 22.847 9.99742 22.7562 9.93451 22.6701C9.06771 21.5135 8.12169 20.4336 6.87509 19.6586C6.34615 19.3305 5.78926 19.0559 5.16246 18.9511C4.54964 18.8487 4.03236 19.0908 3.73178 19.6307C3.62459 19.8215 3.55702 20.0263 3.51508 20.2428C3.41023 20.792 3.49178 21.3296 3.6246 21.8602C3.88324 22.8796 4.27702 23.8454 4.83392 24.7391C5.62382 26.0051 6.44169 27.2548 7.11742 28.5883C7.44829 29.24 7.54849 29.9358 7.38305 30.6526C7.26188 31.1832 6.90072 31.3508 6.39042 31.146C6.17605 31.0599 5.98732 30.9296 5.81023 30.7853C5.23469 30.3222 4.85023 29.7241 4.56363 29.0515C4.26537 28.3556 4.10926 27.6225 3.99974 26.8778C3.98576 26.7847 4.00673 26.68 3.89955 26.6195C3.66654 26.4892 3.43353 26.3518 3.15624 26.1936ZM11.6588 36.5848C11.7054 36.4475 11.7403 36.3568 11.7683 36.2637C12.218 34.7416 12.6001 33.201 12.9636 31.6557C13.446 29.603 13.891 27.5388 14.4433 25.5024C14.5691 25.0416 14.618 25.1673 14.2033 24.9462C13.8631 24.7647 13.5182 24.5948 13.1873 24.4249C13.1058 24.497 13.1011 24.5645 13.0848 24.6273C12.8238 25.5583 12.5932 26.4985 12.3695 27.441C11.9337 29.2702 11.5073 31.1041 11.0576 32.931C10.8363 33.827 10.5706 34.7137 10.3236 35.605C10.2933 35.7098 10.2351 35.8029 10.3772 35.8797C10.7943 36.1008 11.2114 36.3358 11.6588 36.5848Z" fill="#035297"/>
<path d="M46.2386 18.1879C45.3392 18.1879 44.4398 18.1903 43.538 18.1879C43.3213 18.1879 43.319 18.1833 43.3143 17.9529C43.3143 17.904 43.3143 17.8551 43.3143 17.8063C43.3143 12.8934 43.3143 7.97824 43.3143 3.06538C43.3143 2.67207 43.2654 2.70931 43.6732 2.7C44.992 2.67207 46.3108 2.62786 47.632 2.64182C48.6013 2.65113 49.5637 2.74422 50.512 2.95134C51.8681 3.24691 52.9842 3.95672 53.9116 4.96443C55.0161 6.16297 55.7268 7.56631 56.0227 9.17445C56.279 10.5731 56.0809 11.9206 55.5264 13.2122C54.5524 15.472 52.9237 17.0522 50.5749 17.8551C49.8829 18.0925 49.1652 18.1717 48.4405 18.1786C47.7066 18.1856 46.9726 18.181 46.2409 18.181C46.2386 18.181 46.2386 18.1833 46.2386 18.1879ZM47.6483 14.7599C48.0631 14.8064 48.4336 14.7645 48.8017 14.7226C49.5939 14.6342 50.3303 14.3875 50.9524 13.8732C52.2945 12.7631 53.2196 10.6174 52.0639 8.5135C51.5233 7.5314 50.7683 6.80762 49.6685 6.49111C48.7971 6.23977 47.9116 6.26537 47.0215 6.3701C46.8957 6.38406 46.8211 6.42828 46.8421 6.57257C46.8514 6.63075 46.8444 6.68893 46.8444 6.74711C46.8444 9.27685 46.8444 11.8066 46.8444 14.3363C46.8444 14.3945 46.8514 14.455 46.8444 14.5109C46.8258 14.6691 46.905 14.7157 47.0472 14.7203C47.2615 14.7296 47.4759 14.7482 47.6483 14.7599Z" fill="#035297"/>
<path d="M72.4791 10.6265C72.3859 13.368 71.2581 15.6325 68.8325 17.1731C67.7117 17.8829 66.4697 18.225 65.1393 18.2576C63.0655 18.3111 61.2876 17.606 59.801 16.1794C58.6243 15.0506 57.881 13.6659 57.599 12.0624C57.1517 9.51641 57.7389 7.22639 59.4748 5.28545C60.7424 3.86582 62.3478 3.06291 64.2515 2.87208C67.9191 2.50204 71.2581 4.94567 72.2018 8.51103C72.2764 8.79496 72.3346 9.08121 72.3812 9.36979C72.4418 9.76078 72.4465 10.1494 72.4791 10.6265ZM61.0196 10.4915C61.0266 10.6358 61.0313 10.7545 61.0383 10.8709C61.0849 11.6971 61.3132 12.4674 61.7723 13.1563C62.5202 14.2757 63.5827 14.8714 64.9249 14.8854C66.1505 14.897 67.1618 14.3827 67.9284 13.4285C68.7066 12.4604 68.9979 11.3433 68.8698 10.1122C68.7556 9.00442 68.3315 8.04558 67.5299 7.25897C66.2624 6.01388 64.2981 5.83468 62.8558 6.87032C61.6138 7.76166 61.0662 9.01838 61.0196 10.4915Z" fill="#035297"/>
<path d="M119.166 37.2691C115.37 37.2691 111.574 37.2691 107.779 37.2691C107.76 37.2691 107.739 37.2691 107.72 37.2691C107.436 37.2667 107.434 37.2667 107.434 36.9782C107.434 34.0947 107.434 31.2135 107.434 28.3301C107.434 26.0633 107.434 23.7965 107.434 21.5298C107.434 21.4507 107.436 21.3739 107.434 21.2947C107.429 21.183 107.478 21.1318 107.59 21.1388C107.648 21.1411 107.707 21.1388 107.767 21.1388C111.337 21.1388 114.909 21.1388 118.479 21.1388C118.518 21.1388 118.558 21.1388 118.595 21.1388C118.814 21.1458 118.819 21.1458 118.819 21.3715C118.821 22.3583 118.821 23.3451 118.819 24.3318C118.819 24.6018 118.816 24.6041 118.544 24.6041C116.225 24.6041 113.907 24.6041 111.588 24.6064C111.134 24.6064 111.192 24.5506 111.19 25.0184C111.188 25.6444 111.188 26.2681 111.19 26.8941C111.19 27.2013 111.192 27.2037 111.521 27.2037C113.604 27.2037 115.689 27.2037 117.773 27.2037C118.257 27.2037 118.208 27.1571 118.208 27.6482C118.211 28.5954 118.208 29.5449 118.208 30.4921C118.208 30.5712 118.208 30.648 118.206 30.7271C118.204 30.8202 118.157 30.8714 118.062 30.8714C117.982 30.8714 117.905 30.8738 117.826 30.8738C115.722 30.8738 113.62 30.8738 111.516 30.8738C111.141 30.8738 111.167 30.8412 111.167 31.2205C111.167 31.9327 111.167 32.6471 111.167 33.3593C111.167 33.7177 111.16 33.6874 111.509 33.6874C113.935 33.6874 116.363 33.6874 118.788 33.6874C118.917 33.6874 119.042 33.6921 119.171 33.6944C119.166 34.8836 119.166 36.0775 119.166 37.2691Z" fill="#E4B12F"/>
<path d="M75.365 29.1611C75.3744 31.3883 74.6334 33.3315 73.0815 34.9397C71.9142 36.1475 70.4905 36.9062 68.8338 37.2064C67.1328 37.516 65.4854 37.3298 63.9196 36.5757C62.7359 36.0056 61.7572 35.1794 60.972 34.1275C60.1332 33.0011 59.6066 31.7374 59.4271 30.3457C59.1126 27.909 59.7044 25.7121 61.2866 23.8154C62.4633 22.4004 63.9662 21.4927 65.7767 21.1343C68.2116 20.6526 70.4182 21.1902 72.3522 22.7402C73.9926 24.0551 74.9456 25.7842 75.2998 27.8485C75.3278 28.0114 75.3557 28.1767 75.3627 28.3419C75.372 28.6142 75.365 28.8888 75.365 29.1611ZM71.5786 29.196C71.6066 27.7927 71.0008 26.4498 70.078 25.6143C68.9992 24.6369 67.7386 24.2994 66.3289 24.6764C65.1848 24.9813 64.3483 25.7121 63.7774 26.7384C63.153 27.8625 63.0178 29.0657 63.2905 30.3107C63.6936 32.1633 65.0543 33.4991 66.8252 33.7155C68.214 33.8854 69.3976 33.4479 70.3483 32.4402C71.1872 31.5512 71.5856 30.469 71.5786 29.196Z" fill="#E4B12F"/>
<path d="M43.3422 29.1469C43.3422 26.6358 43.3422 24.1247 43.3422 21.6135C43.3422 21.5647 43.3422 21.5158 43.3422 21.4669C43.3445 21.1458 43.3445 21.1434 43.6637 21.1434C44.682 21.1434 45.6979 21.1434 46.7162 21.1434C46.7651 21.1434 46.814 21.1458 46.863 21.1434C46.9771 21.1388 47.0191 21.1993 47.0144 21.3063C47.0121 21.3738 47.0144 21.4437 47.0144 21.5111C47.0144 23.2706 47.0144 25.0276 47.0144 26.7871C47.0144 26.8662 47.0167 26.943 47.0144 27.0221C47.0098 27.1361 47.0657 27.1804 47.1752 27.1757C47.2334 27.1734 47.2917 27.1757 47.3523 27.1757C49.1814 27.1757 51.0105 27.1757 52.8397 27.1757C52.8583 27.1757 52.8793 27.1757 52.8979 27.1757C53.1775 27.1734 53.1799 27.1734 53.1799 26.8801C53.1799 25.8631 53.1799 24.8484 53.1799 23.8314C53.1799 23.0308 53.1799 22.2303 53.1799 21.4274C53.1799 21.1458 53.1822 21.1434 53.4735 21.1434C54.529 21.1434 55.5869 21.1434 56.6424 21.1434C56.9197 21.1434 56.9243 21.1458 56.9243 21.4157C56.9267 21.8649 56.9243 22.3141 56.9243 22.7632C56.9243 27.4433 56.9243 32.1235 56.9243 36.8013C56.9243 37.2085 56.95 37.1876 56.5469 37.1876C55.5682 37.1876 53.2474 37.1853 53.2474 37.1853C53.2474 37.1853 53.2451 33.2173 53.2451 31.4276C53.2451 31.3485 53.2405 31.2717 53.2451 31.1926C53.2498 31.0785 53.1915 31.0343 53.0843 31.0413C53.0261 31.0436 52.9678 31.0413 52.9072 31.0413C51.0781 31.0413 49.249 31.0413 47.4199 31.0413C47.3616 31.0413 47.3033 31.0436 47.2428 31.0413C47.1309 31.0366 47.082 31.0878 47.0866 31.1995C47.089 31.2787 47.0866 31.3555 47.0866 31.4346C47.0866 33.2522 47.0866 35.0698 47.0866 36.885C47.0866 37.2295 47.103 37.2039 46.7698 37.2039C45.7329 37.2039 44.696 37.2039 43.6591 37.2039C43.3422 37.2039 43.3398 37.2016 43.3398 36.8781C43.3422 34.3064 43.3422 31.7255 43.3422 29.1469Z" fill="#E4B12F"/>
<path d="M87.0744 26.0335C87.0744 24.5091 87.0744 22.9848 87.0744 21.4627C87.0744 21.3952 87.0721 21.3254 87.0744 21.2579C87.0837 21.0578 87.0953 21.0415 87.2957 21.0392C87.7361 21.0322 88.1765 21.0345 88.6169 21.0299C89.2623 21.0252 89.9078 21.0229 90.5532 21.0066C90.6697 21.0043 90.7163 21.0392 90.7303 21.1416C90.7373 21.1997 90.7466 21.2579 90.7466 21.3161C90.7373 22.1353 90.742 22.9545 90.714 23.776C90.686 24.6138 90.6674 25.454 90.7326 26.2941C90.7396 26.3709 90.735 26.45 90.735 26.5292C90.735 27.5834 90.7326 28.64 90.735 29.6943C90.7373 30.4553 90.7373 31.2163 90.6977 31.9773C90.6161 33.5342 89.9614 34.791 88.7031 35.7195C87.7454 36.427 86.6503 36.7901 85.4876 36.9786C84.8095 37.088 84.1268 37.1275 83.4418 37.0856C81.8363 36.9879 80.401 36.4596 79.2359 35.3286C78.4297 34.5443 77.9264 33.5854 77.7726 32.459C77.7167 32.0518 77.6911 31.6445 77.6701 31.2349C77.5349 28.7261 77.6002 26.2173 77.6305 23.7085C77.6398 22.8986 77.6538 22.0888 77.6631 21.2789C77.6654 21.0275 77.6678 21.0252 77.9264 21.0252C78.933 21.0229 79.9419 21.0252 80.9485 21.0252C81.2491 21.0252 81.2515 21.0275 81.2515 21.3277C81.2515 23.8389 81.2515 26.35 81.2515 28.8588C81.2515 29.3475 81.2375 29.8362 81.2561 30.3249C81.2724 30.7532 81.2887 31.179 81.4076 31.598C81.7175 32.7011 82.5633 33.362 83.6771 33.5249C84.1501 33.5947 84.6115 33.5808 85.0705 33.4574C86.119 33.1782 86.8833 32.2659 87.0045 31.1907C87.0674 30.6252 87.0557 30.0596 87.0604 29.4941C87.0697 28.3421 87.0627 27.1878 87.0627 26.0358C87.0674 26.0335 87.0721 26.0335 87.0744 26.0335Z" fill="#E4B12F"/>
<path d="M102.363 25.961C101.904 25.961 101.442 25.9563 100.983 25.9633C100.853 25.9656 100.767 25.9168 100.678 25.826C100.38 25.5165 100.089 25.1976 99.7716 24.9091C99.1751 24.3598 98.4668 24.1597 97.6839 24.3831C97.0128 24.5739 96.6143 25.1744 96.6656 25.7538C96.7052 26.203 96.9336 26.5218 97.332 26.7173C97.7817 26.9361 98.2547 27.0897 98.7277 27.2456C99.6831 27.5598 100.659 27.8111 101.575 28.2394C102.3 28.5791 102.955 29.0143 103.493 29.6101C104.078 30.2571 104.397 31.0228 104.471 31.8815C104.569 33.0033 104.315 34.0366 103.609 34.9349C102.987 35.7238 102.174 36.2498 101.249 36.6152C100.24 37.0131 99.1891 37.2296 98.1009 37.2017C96.6167 37.1621 95.2722 36.7269 94.1631 35.7052C93.3406 34.9465 92.8442 33.997 92.6299 32.9009C92.5856 32.6705 92.5646 32.4377 92.5274 32.2073C92.5064 32.0677 92.5367 31.9956 92.6998 31.9816C93.1868 31.9374 93.6691 31.8745 94.1561 31.8233C94.6314 31.7721 95.1091 31.7303 95.5821 31.6674C95.7336 31.6488 95.8151 31.6884 95.885 31.8187C96.0901 32.1957 96.2788 32.582 96.5747 32.9032C97.2971 33.6875 98.1662 34.011 99.2194 33.748C99.5759 33.6596 99.8881 33.4827 100.144 33.2081C100.447 32.8823 100.517 32.5052 100.398 32.0933C100.263 31.6255 99.9464 31.302 99.5083 31.0996C99.0633 30.8971 98.6042 30.7272 98.1406 30.5783C97.4811 30.3665 96.8147 30.1756 96.1623 29.9359C95.4167 29.6613 94.7037 29.3192 94.0792 28.8165C93.1075 28.0369 92.5996 27.0292 92.5646 25.7771C92.5157 23.9944 93.3522 22.7238 94.8411 21.8301C95.6753 21.3297 96.591 21.0714 97.5534 20.955C98.567 20.834 99.5666 20.8829 100.531 21.2343C102.293 21.8743 103.388 23.1194 103.835 24.9347C103.901 25.2 103.959 25.4676 103.963 25.7422C103.966 25.9307 103.961 25.94 103.768 25.9424C103.302 25.9493 102.363 25.9563 102.363 25.961Z" fill="#E4B12F"/>
<path d="M124.001 18.1787C123.914 18.2415 123.833 18.2159 123.758 18.2182C122.742 18.2206 121.724 18.2136 120.708 18.2252C120.515 18.2275 120.412 18.1624 120.312 18.0018C119.406 16.5659 118.485 15.1369 117.577 13.701C117.472 13.5334 117.362 13.4566 117.157 13.466C116.796 13.4846 116.435 13.4683 116.071 13.4706C115.831 13.4729 115.827 13.4753 115.827 13.7126C115.824 14.4853 115.827 15.2556 115.827 16.0283C115.827 16.6915 115.829 17.3571 115.827 18.0204C115.827 18.2322 115.822 18.2368 115.622 18.2368C114.634 18.2392 113.646 18.2345 112.658 18.2415C112.502 18.2415 112.443 18.1903 112.46 18.0414C112.464 17.9925 112.46 17.9436 112.46 17.8947C112.46 13.1471 112.46 8.40183 112.46 3.65421C112.46 3.25624 112.425 3.30744 112.8 3.30744C113.739 3.30977 114.678 3.30744 115.615 3.32606C117.071 3.35399 118.525 3.39588 119.974 3.53551C120.743 3.60999 121.398 3.94046 121.957 4.45944C122.815 5.25304 123.306 6.23747 123.451 7.39877C123.546 8.17143 123.542 8.9371 123.32 9.69113C123.043 10.6313 122.479 11.3784 121.724 11.9881C121.489 12.179 121.249 12.3652 121.011 12.5537C120.797 12.7259 120.808 12.7003 120.941 12.9284C121.591 14.0408 122.244 15.1509 122.896 16.2633C123.241 16.8521 123.584 17.4432 123.926 18.0344C123.959 18.0809 123.977 18.1321 124.001 18.1787ZM117.283 10.0961C117.283 10.0937 117.283 10.0914 117.283 10.0868C117.684 10.0868 118.085 10.0984 118.483 10.0844C118.928 10.0681 119.359 10.0007 119.695 9.66088C120.566 8.76721 120.219 7.30103 119.04 6.90772C118.902 6.86118 118.758 6.83092 118.613 6.80765C117.74 6.66568 116.861 6.74714 115.983 6.72619C115.857 6.72387 115.843 6.79834 115.843 6.89609C115.843 7.90146 115.843 8.90451 115.845 9.90989C115.845 10.0961 115.855 10.0961 116.053 10.0961C116.463 10.0937 116.873 10.0961 117.283 10.0961Z" fill="#035297"/>
<path d="M111.245 18.3739C110.767 18.3739 110.308 18.3763 109.849 18.3739C109.301 18.3716 108.754 18.3576 108.206 18.3693C108.001 18.3739 107.899 18.3158 107.817 18.1179C107.489 17.3127 107.134 16.5214 106.803 15.7185C106.734 15.5486 106.65 15.4858 106.463 15.4881C104.839 15.4998 103.217 15.4974 101.593 15.5021C101.346 15.5021 101.344 15.5044 101.27 15.7371C101.016 16.5261 100.762 17.315 100.508 18.104C100.428 18.353 100.426 18.353 100.17 18.353C99.1421 18.353 98.1169 18.353 97.0893 18.353C97.0217 18.353 96.9542 18.353 96.8633 18.353C96.9006 18.0574 96.9891 17.7921 97.08 17.5315C97.3945 16.6192 97.7231 15.7092 98.0283 14.7946C99.0093 11.8623 99.981 8.92757 100.96 5.99522C101.26 5.0969 101.572 4.20555 101.878 3.30956C101.959 3.06985 101.962 3.06985 102.225 3.07218C103.427 3.07683 104.63 3.08381 105.832 3.09079C106.09 3.09312 106.07 3.07218 106.156 3.32585C107.335 6.78882 108.516 10.2495 109.697 13.7124C110.189 15.153 110.681 16.5913 111.17 18.0318C111.205 18.1272 111.259 18.225 111.245 18.3739ZM102.402 12.3766C103.527 12.3766 104.599 12.3766 105.711 12.3766C105.161 10.7265 104.62 9.10212 104.08 7.48001C104.063 7.48001 104.045 7.48234 104.028 7.48234C103.49 9.10444 102.95 10.7265 102.402 12.3766Z" fill="#035297"/>
<path d="M85.4674 10.7427C85.4674 8.31069 85.4674 5.8787 85.4674 3.44671C85.4674 3.09762 85.4394 3.1302 85.7796 3.1302C86.7279 3.1302 87.6763 3.1302 88.6246 3.1302C88.8763 3.1302 88.8786 3.13253 88.8809 3.3862C88.8809 4.72438 88.8809 6.06255 88.8809 7.40073C88.8809 9.78385 88.8809 12.167 88.8809 14.5501C88.8809 14.6176 88.8856 14.6874 88.8809 14.7549C88.874 14.8643 88.9112 14.9201 89.0301 14.9131C89.0977 14.9085 89.1676 14.9131 89.2351 14.9131C91.2786 14.9131 93.3221 14.9131 95.368 14.9131C95.4076 14.9131 95.4472 14.9131 95.4845 14.9131C95.7687 14.9155 95.7711 14.9155 95.7711 15.1994C95.7711 16.1559 95.7711 17.1147 95.7711 18.0712C95.7711 18.3109 95.7687 18.3133 95.5311 18.3133C92.2549 18.3133 88.9788 18.3133 85.7027 18.3133C85.4697 18.3133 85.4674 18.3086 85.4674 18.0387C85.4674 15.6067 85.4674 13.1747 85.4674 10.7427Z" fill="#035297"/>
<path d="M73.7763 10.722C73.7763 8.29927 73.7763 5.87426 73.7763 3.45158C73.7763 3.07689 73.7507 3.12809 74.1095 3.12809C75.0299 3.12576 75.948 3.12576 76.8684 3.12809C77.2156 3.12809 77.1899 3.09086 77.1899 3.43762C77.1899 4.34525 77.1899 5.25521 77.1899 6.16284C77.1899 8.94858 77.1899 11.732 77.1899 14.5177C77.1899 14.5759 77.1899 14.6341 77.1899 14.6946C77.1946 14.9087 77.1946 14.9134 77.4229 14.9134C78.8606 14.9157 80.2983 14.9134 81.7383 14.9134C82.4327 14.9134 83.127 14.9134 83.8214 14.9134C84.0637 14.9134 84.0661 14.9157 84.0684 15.1484C84.0707 16.1259 84.0707 17.1033 84.0684 18.0808C84.0684 18.3112 84.0661 18.3135 83.8237 18.3135C82.209 18.3135 80.5942 18.3135 78.9818 18.3135C77.3693 18.3135 75.7523 18.3135 74.1398 18.3135C74.0723 18.3135 74.0023 18.3088 73.9348 18.3135C73.8276 18.3205 73.767 18.2856 73.7763 18.1669C73.7833 18.0901 73.7763 18.0109 73.7763 17.9318C73.7763 15.5301 73.7763 13.126 73.7763 10.722Z" fill="#035297"/>
<path d="M26.9729 24.5808C26.9473 24.8531 27.1523 25.0812 27.3131 25.0742C27.4739 25.0672 27.7605 25.0346 27.7605 25.0346V23.1821C27.108 23.629 27.0008 24.3085 26.9729 24.5808Z" fill="#F4DF3E"/>
<path d="M29.954 27.611C29.651 27.611 29.5625 27.6459 29.5625 27.6459V30.1407C29.5625 30.1407 30.0728 29.7846 30.2336 29.5193C30.3943 29.254 30.5411 29.0585 30.5411 28.3371C30.5411 27.6179 30.2569 27.611 29.954 27.611Z" fill="#F4DF3E"/>
<path d="M36.9345 13.5262C36.9345 13.3517 36.9369 13.1771 36.9206 13.0026C36.8903 12.6861 36.8204 12.3789 36.6386 12.1089C36.4452 11.818 36.1796 11.6574 35.8231 11.6435C35.3454 11.6249 34.9167 11.7668 34.5229 12.0135C32.7963 13.0957 31.072 14.1848 29.3454 15.2717C27.1038 16.6843 24.8623 18.0946 22.6207 19.5073C22.206 19.7679 21.7446 19.9541 21.3508 20.2497C19.9714 21.2807 19.291 22.684 19.2631 24.3806C19.2281 26.4402 19.277 38.0998 19.2537 40.3665C19.2491 40.7715 19.2631 41.1718 19.3842 41.5628C19.5497 42.0957 19.8992 42.3494 20.4537 42.3331C20.9617 42.3191 21.4091 42.1097 21.8262 41.849C24.0421 40.4759 32.018 35.5096 33.7959 34.4041C34.5066 33.9643 35.1427 33.4383 35.653 32.7727C36.4965 31.6765 36.9555 30.4617 36.9415 29.0537C36.9136 26.5054 36.9345 16.1514 36.9345 13.5262ZM31.9435 29.5913C31.4448 30.222 29.6134 31.8464 29.6134 31.8464L29.5877 33.4709L27.8984 34.5088V32.9635C27.8984 32.9635 26.4887 33.671 26.0553 33.7525C25.6219 33.8316 24.7621 33.8921 24.7621 33.8921V31.1017C24.7621 31.1017 25.6149 30.5292 25.6685 30.4757C25.7221 30.4222 25.8223 30.4896 25.8619 30.5548C25.9015 30.6223 26.2953 31.7138 26.9081 31.6998C27.5209 31.6859 27.8681 31.374 27.8681 31.374C27.8681 31.374 27.8541 28.1507 27.8541 27.9832C27.8541 27.8156 27.747 27.811 27.6468 27.811C27.5466 27.811 26.8592 27.925 26.307 27.925C25.7524 27.925 24.853 27.8715 24.853 26.4123C24.853 24.9531 25.6382 23.6661 26.2161 22.9377C26.7939 22.2092 27.691 21.5786 27.7539 21.3575C27.8169 21.1364 27.7633 20.2474 27.7633 20.2474C27.7633 20.2474 29.4969 19.0488 29.4969 19.0837C29.4969 19.1186 29.5155 20.2194 29.5155 20.2194C29.5155 20.2194 31.1606 19.3933 31.8806 19.3933C32.307 19.3933 32.4398 19.5887 32.4398 19.5887V22.0487L31.2607 22.7678C31.2607 22.7678 30.9881 22.0277 30.6409 21.8415C30.2938 21.6554 29.5272 21.9207 29.5272 21.9207V24.8437C29.5272 24.8437 31.0534 24.7111 31.594 24.7041C32.1345 24.6971 32.9268 25.0974 32.9338 26.51C32.9431 27.925 32.4398 28.9606 31.9435 29.5913Z" fill="#F4DF3E"/>
</svg>
