<svg width="17" height="25" viewBox="0 0 17 25" fill="none" xmlns="http://www.w3.org/2000/svg">
<path d="M12.5781 20.6719C13.099 20.6719 13.6042 20.6302 14.0938 20.5469C14.5938 20.4635 15.0677 20.3385 15.5156 20.1719L16.0781 23.8281C15.4635 23.974 14.8177 24.0885 14.1406 24.1719C13.4635 24.2552 12.776 24.2969 12.0781 24.2969C10.7656 24.2969 9.55729 24.1146 8.45312 23.75C7.34896 23.3854 6.39062 22.8385 5.57812 22.1094C4.77604 21.3698 4.15104 20.4583 3.70312 19.375C3.25521 18.2812 3.03125 17.0052 3.03125 15.5469V10.1562C3.03125 8.63542 3.25521 7.30208 3.70312 6.15625C4.16146 5.01042 4.80729 4.05208 5.64062 3.28125C6.47396 2.51042 7.46354 1.93229 8.60938 1.54688C9.75521 1.15104 11.026 0.953125 12.4219 0.953125C13.0365 0.953125 13.6458 1 14.25 1.09375C14.8646 1.17708 15.474 1.29167 16.0781 1.4375L15.5156 5.10938C15.1094 4.95312 14.651 4.82812 14.1406 4.73438C13.6406 4.64062 13.1458 4.59375 12.6562 4.59375C11.8854 4.59375 11.1927 4.70312 10.5781 4.92188C9.96354 5.13021 9.44271 5.45833 9.01562 5.90625C8.59896 6.34375 8.28125 6.91146 8.0625 7.60938C7.84375 8.30729 7.73438 9.14583 7.73438 10.125V15.5469C7.73438 16.5052 7.84896 17.3177 8.07812 17.9844C8.30729 18.6406 8.63542 19.1667 9.0625 19.5625C9.48958 19.9479 10 20.2292 10.5938 20.4062C11.1875 20.5833 11.849 20.6719 12.5781 20.6719ZM12.9531 9.28125V11.5938H0.390625V9.28125H12.9531ZM12.9531 13.5781V15.8906H0.390625V13.5781H12.9531Z" fill="#8E8E8E"/>
</svg>
