<svg width="35" height="31" viewBox="0 0 35 31" fill="none" xmlns="http://www.w3.org/2000/svg">
<g filter="url(#filter0_d_1914_26714)">
<path d="M30.5781 28.0004H12.0701C11.8504 28.0004 11.6677 27.8384 11.6438 27.6275L11.4982 26.2055L11.3155 24.4106L11.1328 22.6156L10.9501 20.8207L10.9475 20.7873L10.7674 19.0258L10.5847 17.2309L10.4921 16.3334L10.3994 15.4359L10.214 13.641L10.0313 11.8795L10.0287 11.8461L9.84335 10.0512L9.47266 6.46131L9.33497 5.11898C9.31114 4.87725 9.50708 4.66382 9.76127 4.66382H28.256C28.4758 4.66382 28.6585 4.82325 28.6823 5.03669L28.828 6.45874L29.0133 8.25367L29.1987 10.0486L29.384 11.8435L29.4714 12.6818L29.5693 13.6384L29.7547 15.4334L29.8474 16.3308L29.94 17.2283L30.0671 18.4472L30.1254 19.0232L30.3107 20.8181L30.4961 22.6131L30.6814 24.408L30.8668 26.2029L31.0044 27.5427C31.0283 27.7895 30.8323 28.0004 30.5781 28.0004Z" fill="#CE232D"/>
<path d="M29.0094 8.2561H9.65409L9.46875 6.46118H28.824L29.0094 8.2561Z" fill="white"/>
<path d="M29.3834 11.8464H10.0281L9.84277 10.0515H29.1981L29.3834 11.8464Z" fill="white"/>
<path d="M29.7502 15.4368H10.4002L10.2148 13.6418H29.5648L29.7502 15.4368Z" fill="white"/>
<path d="M30.1237 19.0256H10.7684L10.583 17.2307H29.9383L30.0628 18.4496L30.1237 19.0256Z" fill="white"/>
<path d="M30.4945 22.616H11.1339L10.9512 20.821H30.3091L30.4945 22.616Z" fill="white"/>
<path d="M30.8621 26.2061H11.4988L11.3135 24.4111H30.6767L30.8621 26.2061Z" fill="white"/>
</g>
<g filter="url(#filter1_d_1914_26714)">
<path d="M22.2469 24.333H3.73893C3.51916 24.333 3.33647 24.171 3.31264 23.9602L3.15112 22.3889L2.95254 20.4449L2.75395 18.5008L2.1582 12.666H21.5109L21.7121 14.6101L21.9133 16.5542L22.1146 18.4982L22.3158 20.4423L22.517 22.3864L22.6706 23.8779C22.6971 24.1222 22.4985 24.333 22.2469 24.333Z" fill="#CE232D"/>
<path d="M21.054 8.21312L20.3471 1.37287C20.3259 1.16201 20.1405 1 19.9208 1H1.42602C1.17448 1 0.975895 1.21086 1.00237 1.45516L1.70139 8.21312L2.1621 12.667H21.5147L21.054 8.21312Z" fill="#25418A"/>
<path d="M2.73339 3.95269C3.09312 3.95269 3.38474 3.66947 3.38474 3.32009C3.38474 2.97072 3.09312 2.6875 2.73339 2.6875C2.37365 2.6875 2.08203 2.97072 2.08203 3.32009C2.08203 3.66947 2.37365 3.95269 2.73339 3.95269Z" fill="white"/>
<path d="M5.08202 3.95269C5.44175 3.95269 5.73337 3.66947 5.73337 3.32009C5.73337 2.97072 5.44175 2.6875 5.08202 2.6875C4.72229 2.6875 4.43066 2.97072 4.43066 3.32009C4.43066 3.66947 4.72229 3.95269 5.08202 3.95269Z" fill="white"/>
<path d="M12.1279 3.95269C12.4876 3.95269 12.7793 3.66947 12.7793 3.32009C12.7793 2.97072 12.4876 2.6875 12.1279 2.6875C11.7682 2.6875 11.4766 2.97072 11.4766 3.32009C11.4766 3.66947 11.7682 3.95269 12.1279 3.95269Z" fill="white"/>
<path d="M14.4765 3.95269C14.8363 3.95269 15.1279 3.66947 15.1279 3.32009C15.1279 2.97072 14.8363 2.6875 14.4765 2.6875C14.1168 2.6875 13.8252 2.97072 13.8252 3.32009C13.8252 3.66947 14.1168 3.95269 14.4765 3.95269Z" fill="white"/>
<path d="M16.8242 3.95269C17.1839 3.95269 17.4756 3.66947 17.4756 3.32009C17.4756 2.97072 17.1839 2.6875 16.8242 2.6875C16.4645 2.6875 16.1729 2.97072 16.1729 3.32009C16.1729 3.66947 16.4645 3.95269 16.8242 3.95269Z" fill="white"/>
<path d="M19.1728 3.95269C19.5326 3.95269 19.8242 3.66947 19.8242 3.32009C19.8242 2.97072 19.5326 2.6875 19.1728 2.6875C18.8131 2.6875 18.5215 2.97072 18.5215 3.32009C18.5215 3.66947 18.8131 3.95269 19.1728 3.95269Z" fill="white"/>
<path d="M7.43065 3.95269C7.79038 3.95269 8.082 3.66947 8.082 3.32009C8.082 2.97072 7.79038 2.6875 7.43065 2.6875C7.07092 2.6875 6.7793 2.97072 6.7793 3.32009C6.7793 3.66947 7.07092 3.95269 7.43065 3.95269Z" fill="white"/>
<path d="M9.77733 3.95269C10.1371 3.95269 10.4287 3.66947 10.4287 3.32009C10.4287 2.97072 10.1371 2.6875 9.77733 2.6875C9.4176 2.6875 9.12598 2.97072 9.12598 3.32009C9.12598 3.66947 9.4176 3.95269 9.77733 3.95269Z" fill="white"/>
<path d="M3.25585 9.21343C3.61558 9.21343 3.9072 8.93021 3.9072 8.58084C3.9072 8.23146 3.61558 7.94824 3.25585 7.94824C2.89611 7.94824 2.60449 8.23146 2.60449 8.58084C2.60449 8.93021 2.89611 9.21343 3.25585 9.21343Z" fill="white"/>
<path d="M5.60546 9.21343C5.96519 9.21343 6.25681 8.93021 6.25681 8.58084C6.25681 8.23146 5.96519 7.94824 5.60546 7.94824C5.24572 7.94824 4.9541 8.23146 4.9541 8.58084C4.9541 8.93021 5.24572 9.21343 5.60546 9.21343Z" fill="white"/>
<path d="M12.6484 9.21343C13.0082 9.21343 13.2998 8.93021 13.2998 8.58084C13.2998 8.23146 13.0082 7.94824 12.6484 7.94824C12.2887 7.94824 11.9971 8.23146 11.9971 8.58084C11.9971 8.93021 12.2887 9.21343 12.6484 9.21343Z" fill="white"/>
<path d="M14.9971 9.21343C15.3568 9.21343 15.6484 8.93021 15.6484 8.58084C15.6484 8.23146 15.3568 7.94824 14.9971 7.94824C14.6373 7.94824 14.3457 8.23146 14.3457 8.58084C14.3457 8.93021 14.6373 9.21343 14.9971 9.21343Z" fill="white"/>
<path d="M17.3447 9.21343C17.7045 9.21343 17.9961 8.93021 17.9961 8.58084C17.9961 8.23146 17.7045 7.94824 17.3447 7.94824C16.985 7.94824 16.6934 8.23146 16.6934 8.58084C16.6934 8.93021 16.985 9.21343 17.3447 9.21343Z" fill="white"/>
<path d="M19.6963 9.21343C20.056 9.21343 20.3476 8.93021 20.3476 8.58084C20.3476 8.23146 20.056 7.94824 19.6963 7.94824C19.3365 7.94824 19.0449 8.23146 19.0449 8.58084C19.0449 8.93021 19.3365 9.21343 19.6963 9.21343Z" fill="white"/>
<path d="M7.95214 9.21343C8.31187 9.21343 8.60349 8.93021 8.60349 8.58084C8.60349 8.23146 8.31187 7.94824 7.95214 7.94824C7.5924 7.94824 7.30078 8.23146 7.30078 8.58084C7.30078 8.93021 7.5924 9.21343 7.95214 9.21343Z" fill="white"/>
<path d="M10.3008 9.21343C10.6605 9.21343 10.9521 8.93021 10.9521 8.58084C10.9521 8.23146 10.6605 7.94824 10.3008 7.94824C9.94104 7.94824 9.64941 8.23146 9.64941 8.58084C9.64941 8.93021 9.94104 9.21343 10.3008 9.21343Z" fill="white"/>
<path d="M3.90526 6.36285C4.26499 6.36285 4.55662 6.07962 4.55662 5.73025C4.55662 5.38088 4.26499 5.09766 3.90526 5.09766C3.54553 5.09766 3.25391 5.38088 3.25391 5.73025C3.25391 6.07962 3.54553 6.36285 3.90526 6.36285Z" fill="white"/>
<path d="M10.9492 6.36285C11.3089 6.36285 11.6006 6.07962 11.6006 5.73025C11.6006 5.38088 11.3089 5.09766 10.9492 5.09766C10.5895 5.09766 10.2979 5.38088 10.2979 5.73025C10.2979 6.07962 10.5895 6.36285 10.9492 6.36285Z" fill="white"/>
<path d="M13.2998 6.36285C13.6595 6.36285 13.9512 6.07962 13.9512 5.73025C13.9512 5.38088 13.6595 5.09766 13.2998 5.09766C12.9401 5.09766 12.6484 5.38088 12.6484 5.73025C12.6484 6.07962 12.9401 6.36285 13.2998 6.36285Z" fill="white"/>
<path d="M15.6494 6.36285C16.0091 6.36285 16.3008 6.07962 16.3008 5.73025C16.3008 5.38088 16.0091 5.09766 15.6494 5.09766C15.2897 5.09766 14.998 5.38088 14.998 5.73025C14.998 6.07962 15.2897 6.36285 15.6494 6.36285Z" fill="white"/>
<path d="M17.9971 6.36285C18.3568 6.36285 18.6484 6.07962 18.6484 5.73025C18.6484 5.38088 18.3568 5.09766 17.9971 5.09766C17.6373 5.09766 17.3457 5.38088 17.3457 5.73025C17.3457 6.07962 17.6373 6.36285 17.9971 6.36285Z" fill="white"/>
<path d="M6.2539 6.36285C6.61363 6.36285 6.90525 6.07962 6.90525 5.73025C6.90525 5.38088 6.61363 5.09766 6.2539 5.09766C5.89416 5.09766 5.60254 5.38088 5.60254 5.73025C5.60254 6.07962 5.89416 6.36285 6.2539 6.36285Z" fill="white"/>
<path d="M8.60155 6.36285C8.96128 6.36285 9.2529 6.07962 9.2529 5.73025C9.2529 5.38088 8.96128 5.09766 8.60155 5.09766C8.24182 5.09766 7.9502 5.38088 7.9502 5.73025C7.9502 6.07962 8.24182 6.36285 8.60155 6.36285Z" fill="white"/>
<path d="M4.56053 11.7718C4.92027 11.7718 5.21189 11.4886 5.21189 11.1392C5.21189 10.7898 4.92027 10.5066 4.56053 10.5066C4.2008 10.5066 3.90918 10.7898 3.90918 11.1392C3.90918 11.4886 4.2008 11.7718 4.56053 11.7718Z" fill="white"/>
<path d="M11.6055 11.7718C11.9652 11.7718 12.2568 11.4886 12.2568 11.1392C12.2568 10.7898 11.9652 10.5066 11.6055 10.5066C11.2457 10.5066 10.9541 10.7898 10.9541 11.1392C10.9541 11.4886 11.2457 11.7718 11.6055 11.7718Z" fill="white"/>
<path d="M13.9531 11.7718C14.3128 11.7718 14.6045 11.4886 14.6045 11.1392C14.6045 10.7898 14.3128 10.5066 13.9531 10.5066C13.5934 10.5066 13.3018 10.7898 13.3018 11.1392C13.3018 11.4886 13.5934 11.7718 13.9531 11.7718Z" fill="white"/>
<path d="M16.3027 11.7718C16.6625 11.7718 16.9541 11.4886 16.9541 11.1392C16.9541 10.7898 16.6625 10.5066 16.3027 10.5066C15.943 10.5066 15.6514 10.7898 15.6514 11.1392C15.6514 11.4886 15.943 11.7718 16.3027 11.7718Z" fill="white"/>
<path d="M18.6484 11.7718C19.0082 11.7718 19.2998 11.4886 19.2998 11.1392C19.2998 10.7898 19.0082 10.5066 18.6484 10.5066C18.2887 10.5066 17.9971 10.7898 17.9971 11.1392C17.9971 11.4886 18.2887 11.7718 18.6484 11.7718Z" fill="white"/>
<path d="M6.91015 11.7718C7.26988 11.7718 7.5615 11.4886 7.5615 11.1392C7.5615 10.7898 7.26988 10.5066 6.91015 10.5066C6.55041 10.5066 6.25879 10.7898 6.25879 11.1392C6.25879 11.4886 6.55041 11.7718 6.91015 11.7718Z" fill="white"/>
<path d="M9.2578 11.7718C9.61754 11.7718 9.90916 11.4886 9.90916 11.1392C9.90916 10.7898 9.61754 10.5066 9.2578 10.5066C8.89807 10.5066 8.60645 10.7898 8.60645 11.1392C8.60645 11.4886 8.89807 11.7718 9.2578 11.7718Z" fill="white"/>
<path d="M21.7121 14.6101H2.35679L2.1582 12.666H21.5109L21.7121 14.6101Z" fill="white"/>
<path d="M22.1148 18.5039H2.75425L2.55566 16.5598H21.9136L22.1148 18.5039Z" fill="white"/>
<path d="M22.5166 22.3908H3.15338L2.95215 20.4468H22.3154L22.5166 22.3908Z" fill="white"/>
</g>
<defs>
<filter id="filter0_d_1914_26714" x="8.33301" y="3.66382" width="25.6738" height="27.3367" filterUnits="userSpaceOnUse" color-interpolation-filters="sRGB">
<feFlood flood-opacity="0" result="BackgroundImageFix"/>
<feColorMatrix in="SourceAlpha" type="matrix" values="0 0 0 0 0 0 0 0 0 0 0 0 0 0 0 0 0 0 127 0" result="hardAlpha"/>
<feOffset dx="1" dy="1"/>
<feGaussianBlur stdDeviation="1"/>
<feComposite in2="hardAlpha" operator="out"/>
<feColorMatrix type="matrix" values="0 0 0 0 0 0 0 0 0 0 0 0 0 0 0 0 0 0 0.15 0"/>
<feBlend mode="normal" in2="BackgroundImageFix" result="effect1_dropShadow_1914_26714"/>
<feBlend mode="normal" in="SourceGraphic" in2="effect1_dropShadow_1914_26714" result="shape"/>
</filter>
<filter id="filter1_d_1914_26714" x="0" y="0" width="25.6729" height="27.333" filterUnits="userSpaceOnUse" color-interpolation-filters="sRGB">
<feFlood flood-opacity="0" result="BackgroundImageFix"/>
<feColorMatrix in="SourceAlpha" type="matrix" values="0 0 0 0 0 0 0 0 0 0 0 0 0 0 0 0 0 0 127 0" result="hardAlpha"/>
<feOffset dx="1" dy="1"/>
<feGaussianBlur stdDeviation="1"/>
<feComposite in2="hardAlpha" operator="out"/>
<feColorMatrix type="matrix" values="0 0 0 0 0 0 0 0 0 0 0 0 0 0 0 0 0 0 0.15 0"/>
<feBlend mode="normal" in2="BackgroundImageFix" result="effect1_dropShadow_1914_26714"/>
<feBlend mode="normal" in="SourceGraphic" in2="effect1_dropShadow_1914_26714" result="shape"/>
</filter>
</defs>
</svg>
