<svg width="30" height="25" viewBox="0 0 30 25" fill="none" xmlns="http://www.w3.org/2000/svg">
<g filter="url(#filter0_d_1718_24122)">
<path d="M25.8084 22.0002H11.8982C11.7322 22.0002 11.593 21.8742 11.5768 21.7092L10.7148 12.9001H25.2738L26.1296 21.6464C26.1483 21.836 25.9991 22.0002 25.8084 22.0002Z" fill="#D6302E"/>
<path d="M25.2717 12.8755H10.7127L9.82227 3.77539H24.0883C24.2544 3.77539 24.3935 3.90143 24.4097 4.06637L25.2717 12.8755Z" fill="white"/>
</g>
<g filter="url(#filter1_d_1718_24122)">
<path d="M16.4494 19.2247H3.07428C2.90845 19.2247 2.7695 19.0991 2.7531 18.9342L1.00162 1.35445C0.982711 1.16471 1.13191 1 1.3228 1H14.7248L16.4494 19.2247Z" fill="#214598"/>
<path d="M17.0541 19.2248H3.07484C2.909 19.2248 2.77005 19.0992 2.75365 18.9343L1.87598 10.1248H16.5035L17.3755 18.8704C17.3942 19.0601 17.245 19.2248 17.0541 19.2248Z" fill="#D6302E"/>
<path d="M16.5007 10.1246H10.9872L10.0781 1H15.2966C15.4624 1 15.6014 1.12558 15.6178 1.29052L16.5007 10.1246Z" fill="white"/>
<path d="M6.49229 4.86185L8.126 4.88005L6.89867 5.86877L7.56108 7.43967L6.12783 6.46938L4.90642 7.39349L5.22419 5.84466L3.83057 4.88392L5.44491 4.86185L5.83079 3.33008L6.49229 4.86185Z" fill="white"/>
</g>
<defs>
<filter id="filter0_d_1718_24122" x="8.82227" y="2.77539" width="20.3091" height="22.2249" filterUnits="userSpaceOnUse" color-interpolation-filters="sRGB">
<feFlood flood-opacity="0" result="BackgroundImageFix"/>
<feColorMatrix in="SourceAlpha" type="matrix" values="0 0 0 0 0 0 0 0 0 0 0 0 0 0 0 0 0 0 127 0" result="hardAlpha"/>
<feOffset dx="1" dy="1"/>
<feGaussianBlur stdDeviation="1"/>
<feColorMatrix type="matrix" values="0 0 0 0 0 0 0 0 0 0 0 0 0 0 0 0 0 0 0.15 0"/>
<feBlend mode="normal" in2="BackgroundImageFix" result="effect1_dropShadow_1718_24122"/>
<feBlend mode="normal" in="SourceGraphic" in2="effect1_dropShadow_1718_24122" result="shape"/>
</filter>
<filter id="filter1_d_1718_24122" x="0" y="0" width="20.377" height="22.2249" filterUnits="userSpaceOnUse" color-interpolation-filters="sRGB">
<feFlood flood-opacity="0" result="BackgroundImageFix"/>
<feColorMatrix in="SourceAlpha" type="matrix" values="0 0 0 0 0 0 0 0 0 0 0 0 0 0 0 0 0 0 127 0" result="hardAlpha"/>
<feOffset dx="1" dy="1"/>
<feGaussianBlur stdDeviation="1"/>
<feColorMatrix type="matrix" values="0 0 0 0 0 0 0 0 0 0 0 0 0 0 0 0 0 0 0.15 0"/>
<feBlend mode="normal" in2="BackgroundImageFix" result="effect1_dropShadow_1718_24122"/>
<feBlend mode="normal" in="SourceGraphic" in2="effect1_dropShadow_1718_24122" result="shape"/>
</filter>
</defs>
</svg>
