<svg width="28" height="25" viewBox="0 0 28 25" fill="none" xmlns="http://www.w3.org/2000/svg">
<g filter="url(#filter0_d_1718_24150)">
<path d="M24.1202 20.0596H10.6073L9.34473 7.40869H22.8576L24.1202 20.0596Z" fill="white"/>
<path d="M23.9833 22.0002H11.0723C10.9185 22.0002 10.7896 21.8841 10.7744 21.7316L10.522 19.2034H24.0348L24.2813 21.6725C24.2986 21.8481 24.1603 22.0002 23.9833 22.0002Z" fill="#283877"/>
<path d="M22.9108 7.94479H9.39793L9.1514 5.4757C9.13387 5.30026 9.27224 5.14795 9.44926 5.14795H22.3603C22.514 5.14795 22.6429 5.26407 22.6581 5.41659L22.9108 7.94479Z" fill="#283877"/>
<path d="M23.7527 16.3782H10.2398L9.68066 10.7773H23.1935L23.7527 16.3782Z" fill="#CE232D"/>
</g>
<g filter="url(#filter1_d_1718_24150)">
<path d="M15.9703 15.9116H2.45745L1.19482 3.26074H14.7077L15.9703 15.9116Z" fill="white"/>
<path d="M15.8334 17.8523H2.92237C2.76858 17.8523 2.63972 17.7361 2.62451 17.5836L2.37207 15.0554H15.8849L16.1314 17.5245C16.1488 17.7 16.0104 17.8523 15.8334 17.8523Z" fill="#283877"/>
<path d="M14.7609 3.79684H1.24803L1.0015 1.32775C0.983967 1.1521 1.12233 1 1.29936 1H14.2104C14.3641 1 14.493 1.11612 14.5082 1.26864L14.7609 3.79684Z" fill="#283877"/>
<path d="M15.6028 12.2302H2.08993L1.53076 6.62915H15.0436L15.6028 12.2302Z" fill="#CE232D"/>
</g>
<defs>
<filter id="filter0_d_1718_24150" x="8.1499" y="4.14795" width="19.1328" height="20.8523" filterUnits="userSpaceOnUse" color-interpolation-filters="sRGB">
<feFlood flood-opacity="0" result="BackgroundImageFix"/>
<feColorMatrix in="SourceAlpha" type="matrix" values="0 0 0 0 0 0 0 0 0 0 0 0 0 0 0 0 0 0 127 0" result="hardAlpha"/>
<feOffset dx="1" dy="1"/>
<feGaussianBlur stdDeviation="1"/>
<feColorMatrix type="matrix" values="0 0 0 0 0 0 0 0 0 0 0 0 0 0 0 0 0 0 0.15 0"/>
<feBlend mode="normal" in2="BackgroundImageFix" result="effect1_dropShadow_1718_24150"/>
<feBlend mode="normal" in="SourceGraphic" in2="effect1_dropShadow_1718_24150" result="shape"/>
</filter>
<filter id="filter1_d_1718_24150" x="0" y="0" width="19.1328" height="20.8523" filterUnits="userSpaceOnUse" color-interpolation-filters="sRGB">
<feFlood flood-opacity="0" result="BackgroundImageFix"/>
<feColorMatrix in="SourceAlpha" type="matrix" values="0 0 0 0 0 0 0 0 0 0 0 0 0 0 0 0 0 0 127 0" result="hardAlpha"/>
<feOffset dx="1" dy="1"/>
<feGaussianBlur stdDeviation="1"/>
<feColorMatrix type="matrix" values="0 0 0 0 0 0 0 0 0 0 0 0 0 0 0 0 0 0 0.15 0"/>
<feBlend mode="normal" in2="BackgroundImageFix" result="effect1_dropShadow_1718_24150"/>
<feBlend mode="normal" in="SourceGraphic" in2="effect1_dropShadow_1718_24150" result="shape"/>
</filter>
</defs>
</svg>
