<svg width="138" height="29" viewBox="0 0 138 29" fill="none" xmlns="http://www.w3.org/2000/svg">
<path d="M0 0L3.41096 3.40112H25.3607V25.2875L28.7717 28.6886V0H0Z" fill="#2F705A"/>
<path d="M28.7717 28.6886H0V0L3.41096 3.40112V25.2875H25.3607L28.7717 28.6886Z" fill="#496E84"/>
<path opacity="0.8" d="M22.0093 14.1898L9.83398 4.53412L15.09 14.1898L9.83398 23.8476L22.0093 14.1898Z" fill="#2F705A"/>
<path d="M18.9373 14.1898L6.76196 4.53412L12.0179 14.1898L6.76196 23.8476L18.9373 14.1898Z" fill="#496E84"/>
<path d="M41.0333 4.39722H36.0276V9.99581H41.0333V4.39722Z" fill="#2F705A"/>
<path d="M49.0645 4.59601H45.782V8.26656H49.0645V4.59601Z" fill="#496E84"/>
<path d="M45.78 1.85291H43.3303V4.59367H45.78V1.85291Z" fill="#2F705A"/>
<path d="M53.3395 8.26648H49.0625V13.0501H53.3395V8.26648Z" fill="#2F705A"/>
<path d="M41.0134 12.5378V28.5562H35.9656V12.5378H41.0134Z" fill="#496E84"/>
<path d="M47.7067 16.0648L47.8308 17.5533C48.3291 16.8599 48.8629 16.4005 49.4344 16.1774C50.0058 15.9544 50.6083 15.8417 51.2373 15.8417C52.6969 15.8417 53.749 16.268 54.3958 17.1183C55.0425 17.9685 55.3659 19.1302 55.3659 20.6011V28.6843H50.5662V21.4182C50.5662 20.6916 50.4798 20.1991 50.3048 19.943C50.1299 19.6868 49.7777 19.5587 49.2483 19.5587C49.0002 19.5587 48.7832 19.6117 48.6016 19.7199C48.4199 19.8281 48.2693 19.9717 48.1542 20.1528V28.6821H43.3301V16.0648H47.7067Z" fill="#496E84"/>
<path d="M59.089 24.9672C59.7358 25.1483 60.4401 25.2388 61.202 25.2388C61.4833 25.2388 61.6782 25.1902 61.7868 25.0909C61.8953 24.9915 61.9485 24.8523 61.9485 24.669C61.9485 24.5211 61.9064 24.404 61.8244 24.3223C61.7425 24.2406 61.583 24.1567 61.3526 24.0749L60.0835 23.6045C59.0713 23.2247 58.3005 22.7454 57.7711 22.1668C57.2396 21.5881 56.976 20.7776 56.976 19.7374C56.976 18.4145 57.4101 17.3809 58.2806 16.6389C59.151 15.8946 60.2983 15.5236 61.7247 15.5236C62.6373 15.5236 63.479 15.581 64.2497 15.698C65.0205 15.8129 65.6806 15.9962 66.2277 16.2435L65.3085 19.7153C65.1424 19.6667 64.943 19.5961 64.7127 19.5055C64.4823 19.415 64.2276 19.331 63.9552 19.2582C63.6827 19.1831 63.3948 19.1168 63.098 19.0594C62.799 19.002 62.5022 18.9733 62.2032 18.9733C62.0038 18.9733 61.8421 19.0196 61.7181 19.1102C61.5941 19.2007 61.5321 19.3288 61.5321 19.4945C61.5321 19.6756 61.5852 19.8169 61.6937 19.9163C61.8023 20.0157 62.0304 20.1305 62.3781 20.263L63.7957 20.7842C64.7237 21.131 65.4458 21.5815 65.9597 22.1359C66.4735 22.6902 66.7304 23.4543 66.7304 24.4305C66.7304 25.7357 66.283 26.7737 65.3882 27.5423C64.4934 28.3109 63.1822 28.6952 61.459 28.6952C61.078 28.6952 60.6705 28.6753 60.2408 28.6333C59.8089 28.5914 59.388 28.5384 58.9716 28.4721C58.5574 28.4058 58.1632 28.3263 57.7911 28.2358C57.419 28.1452 57.1 28.0414 56.8342 27.9266L57.43 24.4548C57.8863 24.6116 58.4423 24.7861 59.089 24.9672Z" fill="#496E84"/>
<path d="M67.1714 19.2139V15.9652L68.9876 15.4197L69.9821 12.8159L73.5127 12.7165V15.8415H76.3965V19.2139H73.5127V23.3792C73.5127 23.8585 73.5703 24.2383 73.6877 24.5188C73.8028 24.7993 74.093 24.9406 74.5581 24.9406C74.7397 24.9406 74.9347 24.9163 75.1429 24.8655C75.3511 24.8147 75.5282 24.7507 75.6766 24.6668L76.6468 27.7167C76.1329 28.0303 75.5061 28.2711 74.7685 28.4367C74.031 28.6024 73.207 28.6841 72.2945 28.6841C71.2003 28.6841 70.3343 28.4036 69.6964 27.8404C69.0585 27.2772 68.7395 26.385 68.7395 25.1615V19.2139H67.1714Z" fill="#496E84"/>
<path d="M78.545 22.0807C79.2826 21.4535 80.2992 20.9986 81.5905 20.7159L83.7545 20.2454V20.0975C83.7545 19.6514 83.6415 19.362 83.4178 19.2295C83.1941 19.097 82.8176 19.0308 82.286 19.0308C81.987 19.0308 81.6769 19.0551 81.3535 19.1059C81.0301 19.1544 80.7067 19.2185 80.3834 19.2914C80.06 19.3665 79.7499 19.4526 79.4509 19.552C79.1519 19.6514 78.8883 19.7507 78.6557 19.8501L77.8606 16.6014C78.2083 16.4358 78.6026 16.2834 79.0411 16.142C79.4797 16.0007 79.9315 15.8902 80.3967 15.8063C80.8618 15.7246 81.3158 15.6584 81.7633 15.6076C82.2107 15.559 82.6249 15.5325 83.0058 15.5325C84.9129 15.5325 86.3171 15.8682 87.2208 16.5373C88.1245 17.2065 88.5763 18.3262 88.5763 19.8965V25.1528C88.5763 25.3847 88.5896 25.6497 88.614 25.9456C88.6383 26.2416 88.6716 26.5441 88.7136 26.8511C88.7557 27.1559 88.8045 27.4452 88.8621 27.7191C88.9196 27.9907 88.9817 28.2116 89.0481 28.3772L84.7246 28.6842C84.6426 28.5362 84.5851 28.3949 84.5097 28.1784C84.4344 27.9642 84.3813 27.7412 84.3481 27.5093C84.0668 27.8405 83.6637 28.121 83.1409 28.3529C82.6182 28.5848 81.9914 28.6842 81.2627 28.6842C80.7311 28.6842 80.235 28.629 79.7721 28.4898C79.3069 28.3485 78.9016 28.1254 78.5539 27.8207C78.2061 27.5159 77.9315 27.1228 77.7321 26.6435C77.5328 26.1643 77.4331 25.5768 77.4331 24.8833C77.4398 23.6444 77.8074 22.7102 78.545 22.0807ZM82.0135 25.2058C82.1952 25.3383 82.4277 25.4045 82.709 25.4045C82.9416 25.4045 83.1476 25.3758 83.3314 25.3184C83.513 25.261 83.6548 25.1992 83.7545 25.1329V23.2733L82.9327 23.4478C82.585 23.5141 82.2993 23.6245 82.0756 23.7835C81.8519 23.9403 81.7389 24.1921 81.7389 24.5388C81.7411 24.8502 81.8319 25.0733 82.0135 25.2058Z" fill="#496E84"/>
<path d="M95.3609 12.7499L94.9157 19.1634L100.581 12.7499H104.515L104.491 13.0701L98.3289 19.9298L103.204 28.3663L103.18 28.6865H99.1949L95.7795 22.5689L94.5679 23.8764L94.2468 28.6865H90.683L91.7971 12.7499H95.3609Z" fill="#2F705A"/>
<path d="M105.044 27.4894C104.555 26.6303 104.311 25.4023 104.311 23.8034C104.311 22.6417 104.433 21.5705 104.679 20.5855C104.922 19.6005 105.286 18.7525 105.766 18.0369C106.247 17.3214 106.847 16.767 107.563 16.3717C108.28 15.9764 109.12 15.7776 110.081 15.7776C110.57 15.7776 111.018 15.824 111.423 15.9167C111.828 16.0095 112.183 16.1155 112.486 16.2326L112.663 15.7268H115.144L114.256 28.6864H111.326L111.222 26.5309C111.053 26.8003 110.843 27.0698 110.588 27.3392C110.336 27.6086 110.048 27.8471 109.726 28.0592C109.405 28.269 109.06 28.4412 108.688 28.576C108.316 28.7107 107.939 28.6864 107.569 28.6864C106.371 28.6864 105.534 28.3485 105.044 27.4894ZM109.474 25.6607C109.693 25.5348 109.913 25.3824 110.132 25.2058C110.351 25.0291 110.55 24.8391 110.728 24.6382C110.905 24.4372 111.044 24.2605 111.146 24.1081L111.501 18.6818C111.399 18.6155 111.206 18.5471 110.918 18.4808C110.63 18.4146 110.378 18.3792 110.158 18.3792C109.771 18.3792 109.432 18.4676 109.146 18.6443C108.86 18.8209 108.619 19.1147 108.424 19.5277C108.229 19.9407 108.083 20.495 107.981 21.1929C107.879 21.8908 107.828 22.7698 107.828 23.8299C107.828 24.4703 107.904 24.965 108.056 25.3184C108.209 25.6718 108.477 25.8484 108.867 25.8484C109.053 25.8506 109.255 25.7866 109.474 25.6607Z" fill="#2F705A"/>
<path d="M118.814 25.8463C119.37 25.9721 119.895 26.0362 120.385 26.0362C120.892 26.0362 121.246 25.9434 121.448 25.7579C121.65 25.5724 121.751 25.3118 121.751 24.9761C121.751 24.5211 121.472 24.1589 120.916 23.8917L119.727 23.2866C118.967 22.9001 118.347 22.4164 117.866 21.8356C117.386 21.2547 117.144 20.5281 117.144 19.6514C117.144 18.4234 117.545 17.4473 118.347 16.7229C119.149 15.9985 120.292 15.6385 121.778 15.6385C122.504 15.6385 123.182 15.707 123.816 15.8395C124.449 15.972 124.976 16.1332 125.397 16.3187L124.637 18.8938C124.265 18.7591 123.818 18.6244 123.295 18.4897C122.772 18.355 122.241 18.2887 121.7 18.2887C121.364 18.2887 121.085 18.3594 120.865 18.5029C120.646 18.6465 120.535 18.8938 120.535 19.2472C120.535 19.5498 120.628 19.7993 120.814 19.9915C121.001 20.1858 121.295 20.3912 121.7 20.6099L122.815 21.1907C123.22 21.4093 123.574 21.6324 123.878 21.8599C124.181 22.0874 124.443 22.3347 124.662 22.6042C124.881 22.8736 125.045 23.1717 125.156 23.5008C125.266 23.8299 125.32 24.2031 125.32 24.6249C125.32 25.8529 124.894 26.8379 124.042 27.5777C123.189 28.3176 121.98 28.6886 120.409 28.6886C120.055 28.6886 119.692 28.6665 119.322 28.6246C118.95 28.5826 118.593 28.523 118.245 28.4479C117.9 28.3728 117.57 28.2845 117.257 28.1829C116.945 28.0813 116.679 27.9819 116.46 27.8803L117.118 25.356C117.691 25.5569 118.258 25.7204 118.814 25.8463Z" fill="#2F705A"/>
<path d="M131.909 12.3279L131.369 18.7415C131.891 17.783 132.465 17.0718 133.09 16.608C133.714 16.1443 134.507 15.9146 135.468 15.9146C135.94 15.9146 136.341 15.9985 136.671 16.1663C137.001 16.3342 137.263 16.5661 137.455 16.8598C137.65 17.1536 137.787 17.5069 137.874 17.9199C137.96 18.3329 138 18.7812 138 19.2693C138 19.3201 137.991 19.4924 137.976 19.7861C137.96 20.0798 137.938 20.4553 137.911 20.9102C137.885 21.3652 137.852 21.8687 137.81 22.4253C137.768 22.9796 137.73 23.545 137.697 24.117C137.612 25.4642 137.519 26.9859 137.418 28.6864H133.898C134 27.1559 134.084 25.7844 134.151 24.572C134.184 24.0508 134.217 23.5406 134.252 23.0459C134.288 22.5512 134.317 22.1028 134.341 21.7075C134.365 21.3122 134.388 20.9875 134.405 20.7358C134.423 20.484 134.43 20.3404 134.43 20.3073C134.43 19.9871 134.392 19.7309 134.317 19.5365C134.241 19.3422 134.051 19.2472 133.747 19.2472C133.477 19.2472 133.216 19.3267 132.963 19.488C132.711 19.647 132.474 19.859 132.255 20.1196C132.035 20.3802 131.829 20.6717 131.634 20.9897C131.44 21.31 131.276 21.6302 131.141 21.9482L130.66 28.6886H127.14L128.381 12.3302H131.909V12.3279Z" fill="#2F705A"/>
</svg>
