<svg width="61" height="17" viewBox="0 0 61 17" fill="none" xmlns="http://www.w3.org/2000/svg">
<path d="M28.6814 1.71709C29.7083 0.923105 30.8939 0.385165 32.1483 0.144078C33.4027 -0.0970087 34.6929 -0.0349106 35.921 0.325662C36.8491 0.576576 37.8829 1.02214 38.0929 1.96801C38.0254 2.7464 37.8649 3.51278 37.6151 4.24904C36.3426 3.2905 34.7606 2.90012 33.2148 3.16327C32.455 3.33319 31.7453 3.69255 31.1456 4.21104C30.5458 4.72952 30.0736 5.3919 29.7687 6.1423C29.3702 6.92719 29.1286 7.78937 29.0589 8.67588C28.9892 9.5624 29.0928 10.4545 29.3633 11.2974C29.5517 11.7721 29.8417 12.1948 30.2108 12.5326C30.58 12.8705 31.0183 13.1144 31.4918 13.2455C32.2739 13.4335 33.0867 13.431 33.8678 13.2381C34.6488 13.0451 35.3774 12.6669 35.9977 12.1323C35.7588 13.1071 35.6531 14.1092 35.3346 15.084C35.045 15.8915 34.0619 16.1697 33.2409 16.3096C32.1594 16.5408 31.0427 16.5184 29.9705 16.2439C28.8982 15.9695 27.8969 15.4498 27.038 14.722C26.3746 13.985 25.8721 13.105 25.5653 12.1433C25.2585 11.1816 25.1547 10.1613 25.2613 9.15327C25.2993 7.73047 25.6237 6.33223 26.2132 5.05056C26.8026 3.76888 27.6438 2.63281 28.6814 1.71709Z" fill="#818283"/>
<path d="M14.2068 0.661806C15.8091 0.377988 17.4326 0.247687 19.0574 0.272511C20.5577 0.241806 22.0272 0.721938 23.2462 1.64113C23.5457 1.91536 23.7908 2.24891 23.9675 2.62271C24.1442 2.9965 24.2489 3.40321 24.2758 3.81957C24.3027 4.23592 24.2512 4.65377 24.1242 5.0492C23.9973 5.44463 23.7973 5.80989 23.5358 6.1241C22.8487 6.93863 21.9277 7.49594 20.9121 7.71169C21.7488 7.94009 22.4767 8.48275 22.9581 9.23693C23.4115 10.1464 23.5405 11.1961 23.3217 12.1966C23.1029 13.1972 22.5508 14.0826 21.765 14.6931C20.3604 15.7147 18.6953 16.2679 16.9868 16.2807C15.713 16.3704 14.4337 16.2483 13.1961 15.9188C12.8892 15.8375 12.6046 15.6818 12.3652 15.4642C12.1259 15.2466 11.9384 14.9732 11.8177 14.6658C11.566 13.8041 11.566 12.883 11.8177 12.0213C12.6155 8.20591 13.3844 4.42093 14.2068 0.661806ZM17.2026 2.97324C16.9912 4.05901 16.7247 5.14478 16.5394 6.23055C16.4858 6.53468 16.884 6.67611 17.149 6.61984C18.2455 6.7539 19.3505 6.45647 20.2505 5.78499C20.439 5.62454 20.5876 5.4185 20.6838 5.18451C20.7799 4.95052 20.8206 4.69555 20.8024 4.44143C20.7841 4.18732 20.7076 3.94162 20.5792 3.72539C20.4508 3.50915 20.2744 3.32882 20.0651 3.19983C19.1413 2.888 18.1604 2.81035 17.2026 2.97324ZM15.9298 9.06966C15.6402 10.0992 15.4795 11.1576 15.2406 12.216C15.161 12.6615 14.9221 13.1618 15.2942 13.5526C16.4496 13.6889 17.6189 13.5065 18.6867 13.0234C18.9704 12.8846 19.2187 12.6772 19.4114 12.4181C19.604 12.1591 19.7355 11.8557 19.795 11.533C19.8544 11.2103 19.8403 10.8774 19.7536 10.5615C19.6669 10.2457 19.5102 9.95591 19.2963 9.71595C18.2662 9.13564 17.0887 8.90958 15.9298 9.06966Z" fill="#818283"/>
<path d="M40.4795 0.74553C41.6258 0.461889 42.8016 0.331093 43.9791 0.356233C45.6 0.210262 47.23 0.487664 48.724 1.16372C49.2315 1.42952 49.6688 1.82266 49.9971 2.30834C50.3255 2.79401 50.5347 3.35723 50.6063 3.9481C50.7577 5.25116 50.5072 6.57086 49.8917 7.71334C49.2761 8.85582 48.3278 9.76085 47.1863 10.2955C45.5027 11.0289 43.6683 11.2975 41.8579 11.0756C41.5683 12.3013 41.354 13.5528 41.063 14.7785C40.9849 15.1294 40.8181 15.4518 40.5801 15.7114C40.342 15.971 40.0416 16.1583 39.7106 16.2535C38.8882 16.3372 38.0412 16.2535 37.2188 16.2809C38.3583 11.1014 39.366 5.89611 40.4795 0.74553ZM43.7344 3.08435C43.4159 4.58831 43.0988 6.09076 42.8063 7.56735C42.7006 7.87148 42.9395 8.15129 43.2306 8.29119C44.114 8.42921 45.0167 8.29394 45.8281 7.9019C46.5116 7.55564 47.0403 6.94393 47.3023 6.19596C47.5644 5.448 47.5394 4.62233 47.2326 3.89336C46.5231 2.81215 44.9058 3.00071 43.7344 3.08435Z" fill="#818283"/>
<path d="M52.2754 4.1965C52.4884 3.58713 52.8162 3.02907 53.2391 2.55565C53.662 2.08223 54.1714 1.70314 54.7369 1.44102C55.0407 1.35116 55.3628 1.35592 55.664 1.45473C55.9653 1.55354 56.2327 1.74213 56.4339 1.99759C57.1012 3.72177 57.0918 5.65323 56.4078 7.37018C55.242 6.03774 53.8378 4.95935 52.2754 4.1965Z" fill="#818283"/>
<path d="M56.4113 1.99805C57.7524 2.75297 58.9266 3.79659 59.8574 5.06071C60.2395 5.46577 60.5379 5.94926 60.7339 6.48094C60.93 7.01262 61.0195 7.58107 60.9969 8.15074C60.8393 9.11742 60.4049 10.0107 59.7517 10.7116C58.4675 12.2096 56.9752 13.4954 55.3254 14.5255C54.9906 14.7743 54.6114 14.9495 54.2106 15.0404C53.8097 15.1314 53.3955 15.1362 52.9928 15.0546C52.4783 14.8982 52.0028 14.6251 51.5998 14.2546C51.1967 13.8841 50.876 13.4253 50.6602 12.9105C53.1369 11.8254 55.1663 9.8519 56.3867 7.34173C56.7319 6.49831 56.912 5.59055 56.9162 4.67252C56.9204 3.75449 56.7487 2.84494 56.4113 1.99805Z" fill="#818283"/>
<path d="M1.5918 4.19802C1.80468 3.58837 2.13236 3.03002 2.55528 2.55633C2.97819 2.08263 3.48767 1.70331 4.05327 1.44102C4.35706 1.35116 4.67917 1.35592 4.98043 1.45473C5.28169 1.55354 5.54913 1.74213 5.75024 1.99759C6.41775 3.72173 6.40838 5.65327 5.72418 7.37018C4.55825 6.03826 3.1541 4.96038 1.5918 4.19802Z" fill="#818283"/>
<path d="M5.75262 1.99805C7.09368 2.75293 8.26796 3.79656 9.19869 5.06071C9.58075 5.46577 9.87915 5.94926 10.0752 6.48094C10.2713 7.01262 10.3608 7.58107 10.3382 8.15074C10.1806 9.11742 9.74622 10.0107 9.09299 10.7116C7.80874 12.2096 6.31648 13.4954 4.66667 14.5255C4.33194 14.7743 3.95273 14.9495 3.55186 15.0404C3.151 15.1314 2.73675 15.1362 2.33406 15.0546C1.81948 14.8985 1.34378 14.6257 0.940492 14.2555C0.537208 13.8853 0.216165 13.4267 0 12.912C2.47676 11.8269 4.50618 9.85342 5.72655 7.34325C6.39758 5.63305 6.40694 3.71538 5.75262 1.99805Z" fill="#818283"/>
</svg>
