<svg width="152" height="29" viewBox="0 0 152 29" fill="none" xmlns="http://www.w3.org/2000/svg">
<path d="M5.89755 14.1793C4.96178 12.7204 4.76574 10.79 4.76776 9.30504C4.78393 4.24016 9.41627 -0.0120146 14.2224 2.55065e-05L29.3038 0.0441729L23.4326 5.80337L14.1032 5.77728C10.352 5.76725 5.81671 9.46357 5.89755 14.1793ZM11.6536 10.0555C12.0578 8.83748 13.2705 7.28832 14.4144 6.4716C12.2296 6.4716 9.76592 7.47494 7.88428 10.0435L11.6536 10.0555ZM14.6853 7.18999C13.7456 7.99264 12.9679 8.96502 12.3933 10.0555L16.9267 10.0696C16.3643 8.98154 15.6052 8.00545 14.6873 7.18999H14.6853ZM7.50634 10.802C6.96336 11.7966 6.63956 12.8945 6.55643 14.0228H10.7866C10.7894 12.9262 10.9892 11.8389 11.3767 10.8121L7.50634 10.802ZM12.1124 10.8141C11.7506 11.8508 11.5277 12.9303 11.4495 14.0248L17.8503 14.0428C17.7896 12.9425 17.5726 11.8561 17.2056 10.8161L12.1124 10.8141ZM21.3609 10.0876C19.5743 7.50705 17.1166 6.47561 14.9601 6.47561C16.0738 7.29835 17.2116 8.85554 17.6886 10.0756L21.3609 10.0876ZM17.9635 10.8281C18.3449 11.8603 18.5313 12.9535 18.5132 14.0529L22.7454 14.0669C22.6995 12.9311 22.3808 11.8227 21.8157 10.8341L17.9635 10.8281ZM7.85801 18.5378C9.72752 21.2208 12.1811 22.1499 14.37 22.1499C13.224 21.291 12.0154 19.7418 11.6273 18.5378H7.85801ZM14.6448 21.5037C15.57 20.6669 16.3342 19.6701 16.9004 18.5619L12.3711 18.5478C12.9385 19.663 13.7103 20.6633 14.6469 21.4977L14.6448 21.5037ZM11.3626 17.8977C10.9979 16.8609 10.8028 15.7729 10.7846 14.6749L6.55845 14.6629C6.6404 15.7894 6.95698 16.8868 7.48815 17.8856L11.3626 17.8977ZM17.1894 17.9137C17.5543 16.8746 17.7759 15.7912 17.8483 14.693L11.4475 14.6769C11.5279 15.7736 11.7452 16.8561 12.0942 17.8997L17.1894 17.9137ZM17.6684 18.5579C17.0501 19.953 16.1099 21.1842 14.9238 22.1519C17.0883 22.1519 19.546 21.2408 21.3468 18.5679L17.6684 18.5579ZM21.7955 17.9238C22.3562 16.9401 22.6812 15.8415 22.7454 14.7131L18.5152 14.701C18.5048 15.7951 18.3122 16.88 17.9453 17.9117L21.7955 17.9238ZM23.4123 14.3298C23.5033 19.2161 18.9659 22.8923 15.1986 22.8823L5.87532 22.8582L0 28.5472L15.0794 28.5913C19.8916 28.6034 24.526 24.3773 24.5401 19.3144C24.5401 17.8355 24.3663 15.903 23.4103 14.4281L23.4123 14.3298Z" fill="#ED1C24"/>
<path d="M60.6487 22.4993C56.8713 22.4893 54.1812 20.2699 54.1954 16.8003C54.1954 13.3889 57.0067 11.1053 60.679 11.1113C64.3514 11.1174 67.1465 13.399 67.1284 16.8324C67.1182 20.306 64.3857 22.5093 60.6487 22.4993ZM60.6487 19.7762C62.2191 19.7762 63.1488 18.4358 63.1529 16.8224C63.1569 15.209 62.2818 13.8485 60.6649 13.8445C58.9753 13.8445 58.1547 15.1889 58.1507 16.8083C58.1466 18.4277 59.0864 19.7843 60.6568 19.7843L60.6487 19.7762Z" fill="#ED1C24"/>
<path d="M97.7032 22.3629L97.7456 7.01172H101.61L101.598 12.2753H101.628C102.625 11.6125 103.795 11.2533 104.995 11.2418C108.009 11.2418 110.208 13.6137 110.202 16.7582C110.189 20.6612 107.722 22.6318 104.947 22.6238C102.831 22.6238 101.762 21.6505 101.497 21.3696H101.436L101.373 22.3729L97.7012 22.3589L97.7032 22.3629ZM106.19 16.9408C106.19 15.482 105.345 14.1896 103.872 14.1856C102.564 14.1856 101.521 15.2632 101.517 16.9268C101.517 18.5321 102.366 19.688 103.855 19.692C105.203 19.702 106.194 18.6084 106.198 16.9468L106.19 16.9408Z" fill="#ED1C24"/>
<path d="M77.402 11.4418H81.2805L81.2482 22.3321H77.3758L77.402 11.4418ZM79.3585 5.9375C78.9358 5.94186 78.5238 6.07017 78.1743 6.30631C77.8248 6.54244 77.5534 6.87588 77.3942 7.2647C77.235 7.65352 77.1951 8.08039 77.2795 8.49166C77.3639 8.90293 77.5689 9.28025 77.8687 9.5762C78.1684 9.87216 78.5496 10.0735 78.9643 10.155C79.379 10.2366 79.8087 10.1946 80.1994 10.0343C80.5901 9.87407 80.9244 9.60274 81.1603 9.25443C81.3962 8.90611 81.5231 8.49635 81.5251 8.07663C81.5224 7.50803 81.2929 6.96365 80.8868 6.56272C80.4807 6.16178 79.9312 5.93696 79.3585 5.9375Z" fill="#ED1C24"/>
<path d="M126.307 22.451H130.074L130.092 16.8323C130.092 15.5199 130.988 14.625 132.114 14.625C133.417 14.625 134.161 15.4577 134.157 16.8464L134.143 22.4651L137.9 22.4751L137.922 15.9273C137.922 13.4571 136.305 11.342 133.334 11.334C131.34 11.334 130.303 12.3855 129.834 12.8029H129.755L129.719 11.5989H126.329L126.297 22.4631" fill="#ED1C24"/>
<path d="M140.078 22.4856L143.932 22.4977L143.947 17.4649L143.997 17.4669L147.411 22.5057L151.701 22.5177L147.582 16.7385L151.629 11.6455L147.34 11.6354L144.001 16.1204L143.951 16.1224L143.977 7.15652L140.121 7.14648L140.078 22.4856Z" fill="#ED1C24"/>
<path d="M53.4393 11.5354C52.5446 11.2501 51.6121 11.0986 50.6724 11.0859C47.184 11.0859 44.5687 13.205 44.5586 16.7649C44.5485 19.9976 46.8849 22.4679 50.4865 22.4779C51.4788 22.4754 52.4645 22.3169 53.407 22.0083L53.2291 18.8318C52.93 18.9642 52.1559 19.3956 51.2707 19.3936C49.7064 19.3936 48.5665 18.302 48.5705 16.7849C48.5705 15.1796 49.8034 14.1602 51.3252 14.1642C51.9957 14.1971 52.6497 14.3817 53.2372 14.704L53.4393 11.5455" fill="#ED1C24"/>
<path d="M95.4536 11.4838L95.4232 22.3621H91.66L91.6155 21.2664H91.5225C91.1001 21.6377 90.231 22.6069 87.8138 22.5989C85.1156 22.5989 82.7712 20.2932 82.7813 16.8918C82.7813 13.7273 84.8873 11.2029 88.0907 11.2129C90.2654 11.2129 91.1567 12.1661 91.4902 12.4651H91.5872L91.6276 11.4778L95.4495 11.4918L95.4536 11.4838ZM86.874 16.7835C86.874 18.5895 87.8846 19.7213 89.2266 19.7253C90.4392 19.7253 91.6175 18.6296 91.6236 16.9561C91.6296 15.2825 90.5766 14.1026 89.2387 14.0985C87.8664 14.0965 86.8881 15.3066 86.874 16.7835Z" fill="#ED1C24"/>
<path d="M124.045 11.5561L124.013 22.4444L120.256 22.4344L120.197 21.3367H120.12C119.698 21.702 118.841 22.6732 116.405 22.6652C113.715 22.6652 111.371 20.3655 111.379 16.9581C111.379 13.7876 113.477 11.2752 116.686 11.2832C118.871 11.2832 119.748 12.2324 120.08 12.5274H120.179L120.223 11.5461H124.045V11.5561ZM115.478 16.8578C115.478 18.6638 116.488 19.7856 117.82 19.7896C119.033 19.7896 120.205 18.6959 120.213 17.0163C120.221 15.3367 119.176 14.1769 117.838 14.1688C116.458 14.1648 115.48 15.3688 115.478 16.8638V16.8578Z" fill="#ED1C24"/>
<path d="M32.3345 21.79C33.7898 22.1995 35.2946 22.4101 36.8072 22.4161C40.1056 22.4161 43.4081 21.2863 43.4182 17.7405C43.4323 12.8683 36.5727 13.5265 36.5768 11.582C36.5768 10.5907 37.6298 10.378 38.6646 10.378C40.0995 10.378 41.8983 11.0623 42.3025 11.2208L42.6279 7.87564C41.6376 7.54253 40.1177 7.34186 38.6908 7.34186C35.4308 7.33182 32.2234 8.56995 32.2031 11.7285C32.191 16.5164 39.0304 15.5412 39.0223 18.0516C39.0223 19.0128 38.034 19.376 36.7748 19.374C35.0509 19.374 33.4279 18.5191 32.7327 18.2121L32.3345 21.79Z" fill="#ED1C24"/>
<path d="M75.7234 19.3482C75.3712 19.4464 75.0094 19.5069 74.6442 19.5288C73.86 19.5288 73.0071 19.1636 73.0111 17.8352V14.1469H75.4364V11.4198H73.0111L73.0212 7.91211H69.1488V11.4198H67.4531V14.1449H69.1508L69.1387 18.4532C69.1387 20.8191 70.2463 22.5188 73.1102 22.5288C73.8214 22.5224 74.5307 22.4552 75.2303 22.3282L75.7234 19.3442" fill="#ED1C24"/>
</svg>
