<svg width="49" height="16" viewBox="0 0 49 16" fill="none" xmlns="http://www.w3.org/2000/svg">
<path fill-rule="evenodd" clip-rule="evenodd" d="M41.7019 0.0351562C42.883 0.0351562 43.0933 0.332287 43.4999 1.62635L48.0188 15.6776H43.9869L43.0114 12.3068H37.6005L36.625 15.6776H34.2812L38.8527 0.0351562H41.7019ZM42.3435 10.0142H38.2343L40.2626 2.87008L42.342 10.0142H42.3435Z" fill="#818283"/>
<path fill-rule="evenodd" clip-rule="evenodd" d="M18.8733 15.7031H12.6074V0.0348476H19.1005C19.6879 -0.0596553 20.2887 0.0391671 20.8204 0.317739C21.3522 0.596311 21.7887 1.04096 22.0701 1.59062C22.3516 2.14027 22.464 2.76795 22.3921 3.38744C22.3201 4.00692 22.0673 4.58782 21.6684 5.05032L20.9495 6.18688C26.0373 8.96495 24.3939 15.7031 18.8733 15.7031ZM18.1281 6.93538L19.3649 4.987C19.6093 4.66325 19.7447 4.26357 19.7498 3.85044C19.7311 3.38179 19.5403 2.93897 19.2175 2.61479C18.8947 2.29061 18.4649 2.11025 18.0183 2.1115H16.1261V13.6265H17.1789C17.6048 13.6673 18.0341 13.6076 18.4352 13.4515C18.8363 13.2955 19.1991 13.0471 19.4969 12.7247C19.7947 12.4022 20.0201 12.0139 20.1564 11.5881C20.2927 11.1623 20.3366 10.7098 20.2847 10.2639C20.3858 9.52665 20.2194 8.77645 19.8185 8.16203C19.4176 7.54762 18.8115 7.11385 18.1204 6.94675L18.1281 6.93538Z" fill="#818283"/>
<path fill-rule="evenodd" clip-rule="evenodd" d="M6.26583 15.7037H0V0.035428H6.49309C7.08071 -0.0599139 7.68202 0.0382955 8.21433 0.316549C8.74663 0.594802 9.18377 1.03943 9.46562 1.58928C9.74748 2.13913 9.8602 2.76718 9.78829 3.38707C9.71638 4.00695 9.46336 4.58821 9.06404 5.05089L8.34517 6.18745C13.4299 8.96552 11.7602 15.7037 6.26583 15.7037ZM5.52067 6.93595L6.75745 4.98757C7.00186 4.66382 7.13724 4.26414 7.1424 3.85101C7.12363 3.38236 6.93285 2.93954 6.61006 2.61537C6.28727 2.29119 5.85753 2.11083 5.41091 2.11208H3.51864V13.627H4.57144C4.99741 13.6679 5.42669 13.6081 5.82779 13.4521C6.2289 13.296 6.59167 13.0477 6.88949 12.7252C7.18732 12.4028 7.41266 12.0144 7.54898 11.5886C7.6853 11.1628 7.72914 10.7104 7.67731 10.2644C7.77328 9.52796 7.60482 8.78033 7.20472 8.16715C6.80463 7.55397 6.20156 7.11913 5.51294 6.94732L5.52067 6.93595Z" fill="#818283"/>
<path fill-rule="evenodd" clip-rule="evenodd" d="M33.6907 0.0351562H36.0467L31.5016 15.7034H27.9396L23.0605 0.0627584L25.6794 0.0351562C26.706 0.0351562 26.9626 0.304683 27.5021 2.08421L30.3266 11.9284L33.6907 0.0351562Z" fill="#818283"/>
</svg>
