<svg width="96" height="51" viewBox="0 0 96 51" fill="none" xmlns="http://www.w3.org/2000/svg">
<g clip-path="url(#clip0_1913_26472)">
<path d="M21.6876 0C9.70974 0 0 11.4162 0 25.5C0 39.5838 9.70974 51 21.6876 51C33.6655 51 43.3753 39.5838 43.3753 25.5C43.3753 11.4162 33.6655 0 21.6876 0Z" fill="#252D1C"/>
<path d="M30.6303 42.1775C30.73 41.8395 30.7768 41.6989 30.7908 41.647C30.9117 41.6244 31.0309 41.5938 31.1477 41.5553C31.9442 41.2827 32.6674 40.8306 33.2614 40.234C33.3989 40.0734 33.5276 39.9188 33.6492 39.7643C34.3022 38.9366 34.7459 38.1348 35.376 36.626C35.7369 35.7604 36.5534 32.326 36.8316 29.9805C36.9213 29.2176 37.2842 26.0395 36.7588 24.0231C36.5126 23.0757 36.2464 22.8982 36.2982 22.3278C36.35 21.7574 36.4527 17.574 36.4527 16.2447C36.6382 12.0754 34.9852 7.83816 31.7908 4.9861C31.7439 4.94322 31.6971 4.90133 31.6482 4.85945C31.5994 4.81757 31.5535 4.77768 31.5047 4.73779C31.4558 4.6979 31.4379 4.67995 31.405 4.65203C28.2993 2.08717 23.8527 0.78679 18.3054 1.95055H18.3004C17.0994 2.20921 15.9352 2.61656 14.8349 3.16317C12.805 4.1604 11.2826 5.82476 11.0104 8.12436C10.6355 11.2945 11.6256 14.4507 11.494 17.6179C11.4172 19.5067 10.2976 20.4102 9.26967 21.8511C9.26269 21.8611 9.2567 21.8711 9.24972 21.8801C8.23877 23.1196 6.84596 24.8049 6.51695 25.6895C4.15507 30.5429 8.29559 32.8555 8.31154 32.8615L8.18592 35.8163L8.28562 37.1436C8.69638 40.4942 10.2736 43.7073 12.8589 46.0129C12.9027 46.0528 12.9466 46.0926 12.9914 46.1315C13.0363 46.1704 13.0971 46.2213 13.151 46.2662C13.1799 46.2911 13.2088 46.316 13.2387 46.34C15.5956 48.2875 18.7222 49.5071 22.5217 49.4732H22.6035C22.6603 49.4732 22.7181 49.4732 22.775 49.4732H22.8408H22.8567C23.1389 49.4633 23.419 49.4383 23.7072 49.4084C23.9688 49.3704 24.2281 49.3178 24.4838 49.2508C24.9529 49.1325 25.4125 48.9792 25.8587 48.7921C26.2997 48.6074 26.7234 48.3838 27.1249 48.124C27.4915 47.8884 27.8329 47.6157 28.1438 47.3103C28.3576 47.0998 28.554 46.8724 28.731 46.6301C28.8207 46.5075 28.9095 46.3719 28.9962 46.2313C29.227 45.8388 29.4328 45.4321 29.6124 45.0136C29.8118 44.5629 29.9942 44.0872 30.1587 43.6245C30.3342 43.1349 30.4887 42.6612 30.6153 42.2483C30.6213 42.2304 30.6253 42.2144 30.6313 42.1975" fill="white"/>
<path d="M73.9682 0H73.8445H31.6836C34.3914 1.42104 36.8251 3.39056 38.9218 5.8537C41.1409 8.4808 42.8669 11.4876 44.0164 14.729C45.2522 18.1847 45.8787 21.8289 45.8678 25.499C45.8787 29.1691 45.2522 32.8133 44.0164 36.269C42.8679 39.5105 41.143 42.5177 38.9248 45.1453C36.8311 47.6114 34.3944 49.578 31.6866 50.999H73.8475H73.9712C85.9461 51 95.6538 39.5838 95.6538 25.5C95.6538 11.4162 85.9461 0 73.9682 0Z" fill="#FFDF4C"/>
<path d="M49.7372 16.8849C50.2495 17.1894 50.8363 17.3454 51.4321 17.3356C52.8565 17.3356 53.8635 16.6981 54.453 15.423L53.4052 14.9244C53.0316 15.7654 52.3922 16.1855 51.487 16.1849C51.2185 16.194 50.9515 16.1414 50.7066 16.0311C50.4617 15.9208 50.2453 15.7558 50.0742 15.5486C49.7173 15.1251 49.5385 14.578 49.5378 13.9072C49.5341 13.5306 49.6156 13.1579 49.7761 12.8172C49.9234 12.4964 50.1558 12.2222 50.4481 12.0244C50.739 11.8297 51.0821 11.7278 51.4321 11.7322C51.8383 11.7261 52.2349 11.856 52.5587 12.1012C52.8838 12.3465 53.0705 12.7029 53.119 13.1702H54.2397V10.741H53.119V11.2037C52.6179 10.7811 51.9798 10.556 51.3245 10.5705C50.7615 10.5634 50.2074 10.7118 49.7233 10.9993C49.2435 11.2862 48.8526 11.7004 48.5937 12.196C48.316 12.721 48.1745 13.3073 48.1819 13.9012C48.1746 14.5061 48.3135 15.1037 48.5867 15.6434C48.8458 16.1572 49.2446 16.5875 49.7372 16.8849Z" fill="#252D1C"/>
<path d="M56.0643 14.9415C56.0643 15.7705 56.2075 16.3636 56.494 16.7206C56.7804 17.0776 57.2238 17.2561 57.824 17.2561C58.4886 17.2561 59.1912 16.9739 59.9316 16.4094V17.1464H62.2875V16.0265H61.1908V10.7412H58.798V11.8681H59.9306V15.3334C59.2726 15.8819 58.6614 16.1561 58.0971 16.1561C57.8213 16.1561 57.6236 16.079 57.5039 15.9248C57.3843 15.7705 57.3241 15.5289 57.3235 15.1998V10.7412H55.168V11.8681H56.0653L56.0643 14.9415Z" fill="#252D1C"/>
<path d="M68.0673 7.81519H66.2468L65.3086 9.91035H66.167L68.0673 7.81519Z" fill="#252D1C"/>
<path d="M65.5029 13.1694C65.1171 13.1719 64.7366 13.2591 64.3882 13.4247C64.034 13.5827 63.7296 13.8344 63.5079 14.1527C63.29 14.4688 63.1761 14.8449 63.1818 15.2287C63.1792 15.5908 63.2832 15.9456 63.4809 16.2489C63.6772 16.5555 63.9473 16.8079 64.2666 16.9828C64.596 17.1661 64.9674 17.2603 65.3443 17.2561C66.0914 17.2561 66.7694 16.9569 67.3782 16.3586V17.1444H69.5576V16.0265H68.4859V13.0049C68.4859 12.1639 68.2865 11.5486 67.8877 11.159C67.4889 10.7695 66.8628 10.5747 66.0093 10.5747C65.4364 10.5596 64.8688 10.6882 64.3583 10.9486C63.8877 11.2099 63.5059 11.6058 63.2616 12.0855L64.467 12.3846C64.6015 12.1481 64.7984 11.9532 65.0363 11.8212C65.3016 11.6893 65.5956 11.6256 65.8917 11.6357C66.3756 11.6357 66.7228 11.7431 66.9335 11.9578C67.1442 12.1726 67.2499 12.5299 67.2506 13.0298V13.7189C66.7379 13.3613 66.1279 13.1696 65.5029 13.1694ZM67.2506 15.5139C66.7102 16.0305 66.1316 16.2884 65.5148 16.2878C65.2138 16.3 64.9202 16.1924 64.6983 15.9886C64.595 15.8916 64.5134 15.7739 64.4589 15.6431C64.4044 15.5122 64.3783 15.3714 64.3822 15.2297C64.3792 15.0794 64.4102 14.9305 64.4729 14.7939C64.5356 14.6573 64.6283 14.5366 64.7441 14.4409C64.9826 14.2334 65.2895 14.1218 65.6055 14.1278C66.1539 14.1278 66.7022 14.3408 67.2506 14.767V15.5139Z" fill="#252D1C"/>
<path d="M77.4393 17.1464V16.0265H76.3676V12.8404C76.3676 12.0931 76.2306 11.543 75.9568 11.1899C75.683 10.8369 75.2599 10.6601 74.6876 10.6594C73.9964 10.6594 73.2593 10.946 72.4763 11.519V10.7412H70.1074V11.8681H71.234V16.0265H70.1074V17.1474H73.579V16.0265H72.4763V12.621C73.1748 12.0685 73.8043 11.7923 74.3646 11.7923C74.6278 11.7923 74.8182 11.88 74.9339 12.0545C75.0495 12.2291 75.1073 12.5173 75.1073 12.9191V17.1464H77.4393Z" fill="#252D1C"/>
<path d="M78.9243 15.4899C78.9243 16.1351 79.0399 16.5918 79.2712 16.8571C79.5025 17.1223 79.8824 17.256 80.4098 17.256C80.7308 17.242 81.0484 17.1846 81.354 17.0854V15.9466C81.1386 16.0222 80.9122 16.0613 80.684 16.0623C80.612 16.0695 80.5394 16.0592 80.4723 16.0321C80.4053 16.005 80.3459 15.9619 80.2991 15.9067C80.2247 15.8037 80.1871 15.5773 80.1865 15.2276V11.872H81.3559V10.7411H80.1865V8.625L78.9263 9.77679V10.7411H78.0918V11.868H78.9263L78.9243 15.4899Z" fill="#252D1C"/>
<path d="M88.5034 12.2678C88.2163 11.7579 87.8003 11.3325 87.297 11.0342C86.7791 10.7258 86.1859 10.5667 85.5832 10.5745C84.9745 10.5639 84.3738 10.7139 83.8414 11.0093C83.3386 11.2916 82.9244 11.7084 82.645 12.2129C82.3532 12.7465 82.2051 13.3469 82.2153 13.9551C82.2091 14.5511 82.3571 15.1385 82.645 15.6603C82.9265 16.1707 83.3423 16.5942 83.8474 16.8849C84.3751 17.1883 84.9746 17.344 85.5832 17.3357C86.1785 17.3413 86.7642 17.1856 87.2781 16.8849C87.7829 16.5905 88.2011 16.1681 88.4904 15.6603C88.7872 15.1415 88.9404 14.5528 88.9341 13.9551C88.9411 13.3646 88.7926 12.7826 88.5034 12.2678ZM87.3459 15.0291C87.1772 15.3519 86.9247 15.6233 86.6151 15.8149C86.3065 16.0102 85.9484 16.113 85.5832 16.1111C85.2176 16.1133 84.8588 16.012 84.5483 15.8189C84.2338 15.6266 83.9768 15.3531 83.8046 15.0271C83.6272 14.6978 83.5353 14.3292 83.5374 13.9551C83.5353 13.581 83.6272 13.2124 83.8046 12.8831C83.9755 12.5568 84.2297 12.2815 84.5413 12.0853C84.8487 11.8884 85.2063 11.7845 85.5712 11.7861C85.94 11.7816 86.302 11.8857 86.6121 12.0853C86.9214 12.2826 87.1734 12.5577 87.3429 12.8831C87.5173 13.2112 87.6074 13.5775 87.6051 13.9491C87.6097 14.325 87.5206 14.6962 87.3459 15.0291Z" fill="#252D1C"/>
<path d="M49.8819 29.8279C50.4493 30.1234 51.0818 30.2718 51.7214 30.2596C52.3615 30.2657 52.9942 30.123 53.5698 29.8428C54.1333 29.5674 54.6087 29.1402 54.9427 28.6092L53.835 28.1106C53.61 28.4556 53.2963 28.7336 52.9268 28.9154C52.5603 29.091 52.1586 29.1803 51.7523 29.1767C51.2147 29.1912 50.6917 29.0005 50.2897 28.6432C49.8909 28.2881 49.6533 27.8038 49.5768 27.1902H54.9417C54.9354 26.5084 54.7753 25.8368 54.4731 25.2257C54.2076 24.6957 53.7968 24.2523 53.2887 23.9472C52.7532 23.6393 52.1435 23.484 51.526 23.4985C50.9325 23.492 50.3479 23.6423 49.8311 23.9343C49.3247 24.2189 48.9063 24.6374 48.6217 25.1439C48.3238 25.6734 48.1714 26.2725 48.1801 26.8801C48.1711 27.49 48.3257 28.0912 48.6277 28.6212C48.923 29.1342 49.3579 29.5527 49.8819 29.8279ZM50.3027 25.0252C50.6427 24.7127 51.0891 24.5415 51.5509 24.5466C52.0347 24.5405 52.5042 24.7106 52.8719 25.0252C53.2575 25.3495 53.5218 25.7949 53.6217 26.2887H49.6147C49.695 25.802 49.9374 25.3567 50.3027 25.0252Z" fill="#252D1C"/>
<path d="M55.9668 27.8783V30.0722H57.0874V29.7251C57.313 29.8685 57.5581 29.9784 57.8152 30.0512C58.1027 30.1378 58.4013 30.1818 58.7016 30.1819C59.4559 30.1819 60.0618 30.0034 60.5191 29.6463C60.7385 29.4817 60.9153 29.2669 61.0345 29.0198C61.1536 28.7727 61.2118 28.5006 61.204 28.2263C61.204 27.2198 60.5726 26.6005 59.3097 26.3685L58.4633 26.2039C57.903 26.1148 57.5424 26.0115 57.3815 25.8938C57.3043 25.8387 57.2419 25.7654 57.1999 25.6803C57.158 25.5952 57.1378 25.501 57.1413 25.4062C57.1411 25.2925 57.1702 25.1807 57.2258 25.0815C57.2813 24.9823 57.3614 24.8991 57.4583 24.8397C57.7012 24.6847 57.9859 24.6081 58.2738 24.6203C58.5694 24.6128 58.862 24.6811 59.1238 24.8186C59.3856 24.9562 59.6078 25.1584 59.7693 25.4062V25.7991H60.866V23.67H59.7693V23.9432C59.3506 23.7039 58.8348 23.5842 58.222 23.5842C57.8565 23.5842 57.4945 23.6567 57.1572 23.7976C56.8226 23.931 56.5292 24.1505 56.3068 24.4339C56.0825 24.7258 55.9656 25.086 55.9758 25.454C55.9675 25.6759 56.003 25.8971 56.0804 26.1052C56.1577 26.3133 56.2753 26.5041 56.4264 26.6666C56.7262 26.9824 57.1991 27.2058 57.8451 27.3368L58.4962 27.4764C59.0605 27.5861 59.436 27.6928 59.6228 27.7965C59.7095 27.8387 59.7822 27.9052 59.8319 27.9878C59.8816 28.0705 59.9063 28.1658 59.9029 28.2622C59.9086 28.3913 59.8787 28.5195 59.8164 28.6328C59.7542 28.746 59.662 28.84 59.55 28.9044C59.3147 29.0493 58.992 29.1215 58.5819 29.1208C58.2332 29.1284 57.8903 29.0308 57.5979 28.8406C57.4656 28.7589 57.3515 28.6508 57.263 28.5229C57.1745 28.3951 57.1133 28.2503 57.0834 28.0977V27.8783H55.9668Z" fill="#252D1C"/>
<path d="M62.0938 24.802H62.9282V28.4199C62.9282 29.0655 63.0439 29.5212 63.2752 29.7871C63.5065 30.053 63.886 30.186 64.4138 30.186C64.7347 30.172 65.0523 30.1147 65.3579 30.0155V28.8717C65.1428 28.9483 64.9163 28.9884 64.6879 28.9903C64.6157 28.9978 64.5427 28.9876 64.4753 28.9605C64.4078 28.9334 64.3481 28.8902 64.3011 28.8348C64.2267 28.7311 64.1891 28.5047 64.1884 28.1557V24.802H65.3579V23.6751H64.1884V21.55L62.9282 22.7008V23.6701H62.0938V24.802Z" fill="#252D1C"/>
<path d="M68.4941 22.8354H69.3526L71.2528 20.7402H69.4313L68.4941 22.8354Z" fill="#252D1C"/>
<path d="M70.5627 29.2896V30.0754H72.7432V28.9505H71.6714V25.9299C71.6714 25.0896 71.472 24.4743 71.0732 24.0841C70.6744 23.6938 70.0483 23.4987 69.1949 23.4987C68.6222 23.484 68.0549 23.6129 67.5448 23.8736C67.0722 24.1337 66.6881 24.5293 66.4422 25.0095L67.6485 25.3087C67.7827 25.0719 67.9797 24.8769 68.2178 24.7452C68.4829 24.6126 68.777 24.5485 69.0732 24.5587C69.5564 24.5587 69.9034 24.6664 70.1141 24.8818C70.3248 25.0972 70.4305 25.4546 70.4311 25.9539V26.6419C69.9187 26.2876 69.3104 26.098 68.6874 26.0985C68.3017 26.101 67.9212 26.1882 67.5727 26.3537C67.2188 26.5118 66.9148 26.7635 66.6934 27.0817C66.4758 27.3975 66.3618 27.7732 66.3674 28.1567C66.3651 28.5187 66.4691 28.8734 66.6665 29.1769C66.863 29.4833 67.1331 29.7356 67.4521 29.9108C67.7825 30.0944 68.1549 30.1889 68.5329 30.1851C69.2766 30.1824 69.9532 29.8839 70.5627 29.2896ZM67.5668 28.1567C67.5639 28.0064 67.595 27.8573 67.6579 27.7207C67.7207 27.5841 67.8136 27.4635 67.9297 27.3679C68.1678 27.1599 68.475 27.0483 68.7911 27.0548C69.3394 27.0548 69.8874 27.2679 70.4351 27.694V28.4429C69.8948 28.9582 69.3162 29.2161 68.6994 29.2168C68.5504 29.2229 68.4018 29.1997 68.2618 29.1483C68.1219 29.097 67.9934 29.0186 67.8838 28.9176C67.7797 28.8199 67.6976 28.7012 67.6429 28.5693C67.5882 28.4375 67.5623 28.2954 67.5668 28.1527V28.1567Z" fill="#252D1C"/>
<path d="M83.1264 25.2257C82.8609 24.6958 82.4501 24.2523 81.942 23.9473C81.4066 23.6391 80.7969 23.4839 80.1793 23.4985C79.5859 23.492 79.0012 23.6424 78.4844 23.9343C77.9784 24.2195 77.5602 24.6378 77.2751 25.1439C76.9774 25.6736 76.8254 26.2726 76.8344 26.8801C76.8249 27.4901 76.9796 28.0915 77.282 28.6212C77.5762 29.134 78.0102 29.5525 78.5333 29.8279C79.1003 30.1235 79.7324 30.2719 80.3717 30.2597C81.0118 30.2657 81.6446 30.123 82.2202 29.8428C82.7837 29.5671 83.2594 29.14 83.594 28.6093L82.4854 28.1107C82.2609 28.4557 81.9475 28.7338 81.5781 28.9154C81.2113 29.0909 80.8092 29.1802 80.4026 29.1767C79.8655 29.1911 79.3431 29.0007 78.941 28.6442C78.5422 28.2892 78.3046 27.8048 78.2282 27.1912H83.594C83.5878 26.5092 83.4279 25.8374 83.1264 25.2257ZM78.2671 26.2887C78.3479 25.8022 78.5902 25.3571 78.955 25.0252C79.2952 24.7129 79.7415 24.5417 80.2032 24.5466C80.6873 24.541 81.1569 24.7111 81.5253 25.0252C81.9105 25.3496 82.1745 25.795 82.274 26.2887H78.2671Z" fill="#252D1C"/>
<path d="M86.7024 20.8918H84.3086V22.0008H85.4412V28.9504H84.3086V30.0713H87.6764V28.9504H86.7024V20.8918Z" fill="#252D1C"/>
<path d="M54.8587 33.8169H52.3742V34.9258H53.6105V37.4597C53.3025 37.1321 52.9355 36.8655 52.5287 36.6739C52.1583 36.5073 51.7565 36.422 51.3503 36.4236C50.7856 36.4217 50.2321 36.5812 49.7551 36.8834C49.2673 37.1867 48.8691 37.6145 48.6016 38.1229C48.3221 38.6479 48.1785 39.2344 48.1838 39.8292C48.1773 40.4051 48.3122 40.9739 48.5766 41.4855C48.8284 41.9743 49.2099 42.3842 49.6793 42.6702C50.1726 42.9662 50.7393 43.1172 51.3144 43.106C52.2037 43.106 52.9681 42.7567 53.6075 42.0579V42.9963H56.0122V41.8755H54.8557L54.8587 33.8169ZM53.3423 40.8463C53.1725 41.1814 52.9186 41.4666 52.6055 41.674C52.2934 41.8812 51.9262 41.9896 51.5517 41.9851C51.1866 41.9896 50.8277 41.8904 50.5168 41.6989C50.2073 41.5072 49.9549 41.2358 49.786 40.9131C49.6039 40.5679 49.5117 40.1825 49.5178 39.7923C49.5156 39.414 49.6056 39.0409 49.78 38.7053C49.9452 38.3768 50.1912 38.0958 50.4949 37.8886C50.7998 37.6833 51.1602 37.5762 51.5277 37.5814C51.9044 37.5749 52.2755 37.6733 52.5995 37.8656C52.9132 38.0534 53.1699 38.323 53.3423 38.6454C53.5225 38.9802 53.6148 39.3552 53.6105 39.7354C53.6126 40.122 53.5205 40.5033 53.3423 40.8463Z" fill="#252D1C"/>
<path d="M61.7218 36.8833C61.2047 36.5755 60.6127 36.4164 60.011 36.4236C59.4015 36.4131 58.8001 36.5634 58.2672 36.8594C57.7637 37.1416 57.3492 37.5593 57.0708 38.065C56.779 38.5987 56.6309 39.199 56.6411 39.8072C56.6349 40.4032 56.7829 40.9906 57.0708 41.5124C57.3516 42.0233 57.7676 42.447 58.2732 42.737C58.8008 43.0404 59.4004 43.1961 60.009 43.1878C60.6043 43.1934 61.19 43.0377 61.7039 42.737C62.2091 42.4432 62.6274 42.0206 62.9162 41.5124C63.2134 40.9937 63.3668 40.405 63.3609 39.8072C63.3654 39.216 63.2141 38.634 62.9222 38.1199C62.6375 37.6095 62.2235 37.183 61.7218 36.8833ZM61.7707 40.8822C61.6022 41.2052 61.3497 41.4766 61.0399 41.668C60.732 41.862 60.3748 41.9634 60.011 41.9602C59.6453 41.9628 59.2864 41.8615 58.9761 41.668C58.6616 41.4759 58.4049 41.2023 58.2333 40.8762C58.0562 40.5469 57.965 40.1782 57.9681 39.8042C57.9659 39.43 58.0582 39.0613 58.2363 38.7322C58.4072 38.4059 58.6614 38.1306 58.9731 37.9344C59.2801 37.7377 59.6374 37.6338 60.002 37.6352C60.3707 37.6311 60.7326 37.7351 61.0429 37.9344C61.3521 38.1317 61.6041 38.4068 61.7736 38.7322C61.9481 39.0603 62.0382 39.4266 62.0359 39.7982C62.0392 40.176 61.9481 40.5487 61.7707 40.8822Z" fill="#252D1C"/>
<path d="M62.1728 33.6643H60.3512L59.4141 35.7605H60.2725L62.1728 33.6643Z" fill="#252D1C"/>
<path d="M66.4719 33.8169H64.0781V34.9258H65.2117V41.8755H64.0781V42.9963H67.446V41.8755H66.4719V33.8169Z" fill="#252D1C"/>
<path d="M73.7662 38.8538C73.7662 38.0135 73.5668 37.3985 73.168 37.0089C72.7692 36.6194 72.1428 36.4242 71.2887 36.4236C70.716 36.4084 70.1486 36.5373 69.6387 36.7985C69.1656 37.058 68.7815 37.4538 68.536 37.9344L69.7424 38.2335C69.8771 37.9973 70.074 37.8024 70.3117 37.6701C70.577 37.5382 70.871 37.4745 71.1671 37.4846C71.6503 37.4846 71.9976 37.5923 72.2089 37.8077C72.4203 38.0231 72.5257 38.3805 72.525 38.8797V39.5678C72.0122 39.2104 71.4022 39.019 70.7773 39.0193C70.3915 39.0224 70.011 39.1099 69.6626 39.2756C69.3086 39.4336 69.0046 39.6853 68.7833 40.0036C68.5655 40.3193 68.4515 40.6951 68.4572 41.0786C68.4553 41.4406 68.5593 41.7952 68.7563 42.0988C68.9531 42.405 69.2231 42.6572 69.542 42.8327C69.8742 43.0169 70.2488 43.1111 70.6287 43.106C71.3764 43.106 72.0544 42.8068 72.6626 42.2085V42.9943H74.843V41.8754H73.7712L73.7662 38.8538ZM72.53 41.3638C71.9903 41.879 71.4117 42.137 70.7942 42.1377C70.6453 42.1438 70.4966 42.1206 70.3567 42.0692C70.2167 42.0179 70.0883 41.9395 69.9787 41.8385C69.875 41.7419 69.7931 41.6244 69.7385 41.4937C69.6838 41.363 69.6576 41.2222 69.6616 41.0806C69.6587 40.9303 69.6899 40.7812 69.7527 40.6446C69.8156 40.508 69.9085 40.3874 70.0245 40.2918C70.2626 40.0836 70.5697 39.9716 70.8859 39.9777C71.4343 39.9777 71.9823 40.1907 72.53 40.6169V41.3638Z" fill="#252D1C"/>
<path d="M78.5868 36.8473C78.2073 37.0727 77.8896 37.4716 77.6337 38.044V36.594H75.3496V37.7209H76.6347V41.8753H75.3496V42.9962H79.2778V41.8753H77.882V40.4254C77.882 39.7433 77.9358 39.2214 78.0435 38.8597C78.0922 38.6866 78.176 38.5254 78.2898 38.3861C78.4035 38.2468 78.5446 38.1324 78.7045 38.05C79.0368 37.8711 79.5443 37.7817 80.2269 37.7817H80.4991V36.5093H80.2129C79.5084 36.5093 78.9664 36.622 78.5868 36.8473Z" fill="#252D1C"/>
<path d="M35.2144 16.6745C34.5664 15.2614 31.6452 16.2048 30.2853 16.5747C28.9254 16.9447 28.8257 18.1613 28.8257 18.1613C28.4797 20.5228 29.9622 25.0292 30.1616 25.5348C30.361 26.0404 30.7369 28.1116 27.406 28.1116C24.075 28.1116 23.418 26.9489 23.418 26.9489C24.1159 28.9712 27.728 29.0311 28.9742 28.688C31.0599 28.1116 31.379 26.5769 31.0978 25.3354C30.8167 24.0938 30.365 22.3706 30.1736 20.4071C29.9822 18.4435 30.365 17.8293 32.69 17.2339C35.015 16.6386 35.6292 18.3029 35.6292 18.3029C35.6292 18.3029 35.8625 18.0875 35.2144 16.6745Z" fill="#252D1C"/>
<path d="M21.3425 20.1479C21.3431 19.9126 21.2737 19.6824 21.1431 19.4867C21.8828 19.4867 22.4152 20.0791 22.5458 20.5637C22.6236 20.8509 23.0802 21.3954 23.5428 21.3386C23.5428 21.3386 23.6126 21.2877 23.491 21.2388C23.3414 21.178 23.0005 20.9746 22.8759 20.452C22.6765 19.6383 22.3315 19.1207 21.3445 19.031C21.0924 19.0055 20.8382 19.0086 20.5867 19.04C19.6217 19.1616 19.2538 19.6961 19.2538 19.6961C19.1665 19.8136 19.0719 19.9255 18.9706 20.0312C18.3724 20.6465 17.9736 20.5129 18.1112 20.6076C18.1112 20.6076 18.4711 20.7422 18.9995 20.4381C19.0646 20.695 19.2137 20.9229 19.423 21.0855C19.6324 21.2481 19.89 21.3361 20.1551 21.3356C20.4698 21.335 20.7715 21.2097 20.9941 20.9871C21.2167 20.7645 21.3419 20.4627 21.3425 20.1479Z" fill="#252D1C"/>
<path d="M32.2016 19.6573C31.7876 19.6544 31.3757 19.717 30.9813 19.8428C30.745 19.9196 30.5885 20.0014 30.5536 20.0423C30.4429 20.1849 30.5316 20.7403 30.5715 20.9537L30.5835 21.0155C30.5835 21.0315 30.5895 21.0425 30.5895 21.0425C30.6533 21.3012 30.802 21.531 31.0119 21.6952C31.2217 21.8593 31.4806 21.9483 31.747 21.9479C32.0624 21.9466 32.3645 21.8208 32.5876 21.5978C32.8107 21.3748 32.9368 21.0727 32.9384 20.7573C32.9384 20.5426 32.8802 20.332 32.7699 20.148C33.1664 20.2492 33.5334 20.443 33.8407 20.7134C34.383 21.2379 33.6652 21.8163 33.5944 21.8921C33.59 21.8956 33.5865 21.9 33.5841 21.905C33.5817 21.91 33.5804 21.9155 33.5804 21.921C33.5804 21.9266 33.5817 21.9321 33.5841 21.9371C33.5865 21.9421 33.59 21.9465 33.5944 21.9499C34.8237 21.4972 34.1517 20.4032 34.1517 20.4032C33.5685 19.8398 32.8437 19.6623 32.2016 19.6573Z" fill="#252D1C"/>
<path d="M20.2587 32.7717C20.2587 32.7717 20.1659 32.8715 20.3584 32.8715C20.7263 32.8715 21.2068 32.8804 22.1609 33.3352C22.8574 33.6776 23.6365 33.8159 24.4082 33.7341C25.2765 33.6343 25.4351 33.5017 26.0412 33.4738C26.7511 33.4399 27.1509 33.6363 27.7939 33.6194C28.2486 33.6084 28.7092 33.4588 29.1359 33.5057C29.5347 33.5486 30.1279 33.8787 30.3831 33.8787C30.5327 33.8787 30.5387 33.77 30.4559 33.77C30.1568 33.763 29.5875 32.5623 28.5965 32.8864C28.3971 32.9512 28.2286 33.0998 27.8358 33.1188C27.5746 33.1307 27.3044 33.0191 26.8797 32.8854C26.57 32.7806 26.2416 32.7426 25.9161 32.7739C25.5907 32.8052 25.2755 32.9051 24.9914 33.0669C24.4032 33.414 23.9096 33.4419 21.9705 32.8914C21.9765 32.8974 20.7302 32.4546 20.2587 32.7717Z" fill="#252D1C"/>
<path d="M20.5792 17.2042C20.621 17.2141 20.6639 17.2221 20.7068 17.2331C21.0886 17.3179 21.4236 17.4056 21.7187 17.4944H21.7247C22.0896 17.6071 23.5193 18.1296 23.5193 18.1296C24.0557 18.2592 24.6349 17.3617 24.5751 17.283C24.5572 17.2471 24.2511 16.7634 23.4355 16.5679C22.961 16.4543 22.3189 16.2877 21.635 16.1511C21.3359 16.0923 21.0288 16.0384 20.7257 15.9965C19.4625 15.827 18.2472 15.8829 17.8344 16.6697C17.7287 16.8691 17.644 17.0496 17.5762 17.2062C17.5303 17.3059 17.4925 17.4056 17.4615 17.4924C17.2123 18.1725 17.3688 18.2961 17.3688 18.2961C17.5062 18.0185 17.7096 17.7788 17.961 17.5981C18.4386 17.2471 19.2541 16.9379 20.5792 17.2042Z" fill="#252D1C"/>
<path d="M28.7776 41.4864C28.672 41.4645 28.5663 41.4405 28.4626 41.4146C27.8765 41.2957 27.28 41.2359 26.682 41.2361C25.9354 41.2354 25.1917 41.3293 24.4686 41.5153C23.7459 41.7014 23.0026 41.7952 22.2563 41.7945C21.2931 41.7957 20.3363 41.6391 19.4238 41.3308C21.5102 42.3472 23.801 42.8739 26.1216 42.8705C27.6186 42.8718 29.1076 42.6537 30.5413 42.2233C30.9926 42.0239 31.4326 41.8068 31.8613 41.5722C31.4324 41.6373 30.9991 41.6706 30.5652 41.6719C29.9647 41.6702 29.3658 41.608 28.7776 41.4864Z" fill="#252D1C"/>
</g>
<defs>
<clipPath id="clip0_1913_26472">
<rect width="95.6567" height="51" fill="white"/>
</clipPath>
</defs>
</svg>
