<svg width="29" height="33" viewBox="0 0 29 33" fill="none" xmlns="http://www.w3.org/2000/svg">
<path fill-rule="evenodd" clip-rule="evenodd" d="M21.6517 21.8521C21.782 21.0441 21.9397 20.2069 22.07 19.3989C22.2553 18.4827 22.0962 17.5254 21.627 16.7329C21.1577 15.9403 20.4157 15.3755 19.5602 15.1599C18.043 14.7979 16.5034 14.6864 14.9573 14.4342C13.5559 14.308 12.166 14.0653 10.8 13.7085C9.79947 13.4826 8.89247 12.9225 8.21061 12.1097C7.52875 11.2969 7.1075 10.2735 7.00797 9.18815C6.93939 8.61298 6.98797 8.0288 7.1504 7.47547C7.31282 6.92214 7.58526 6.41268 7.94914 5.98184C9.62234 4.11364 11.3486 2.27288 13.0492 0.432129C13.1853 0.290281 13.3466 0.178992 13.5238 0.104854C13.7009 0.0307149 13.8902 -0.00476562 14.0804 0.000513353C14.2706 0.00579233 14.4579 0.0517234 14.6312 0.135586C14.8045 0.219449 14.9602 0.339538 15.0892 0.488741C16.8155 2.30205 18.5675 4.11364 20.2665 5.92694C21.4168 7.12781 22.5188 8.38014 23.645 9.60845C24.7165 10.751 25.8411 11.8112 26.8627 12.9829C27.3068 13.4855 27.9342 13.875 28.0388 14.7121C28.1691 15.8272 27.3856 16.3007 26.8096 16.9149C25.6336 18.1415 24.4302 19.3406 23.2267 20.5398C22.7553 21.0132 22.2614 21.4884 21.7884 21.9619C21.7305 21.9362 21.7032 21.883 21.6517 21.8521Z" fill="#8E8E8E"/>
<path fill-rule="evenodd" clip-rule="evenodd" d="M6.45927 11.0341C6.33667 11.5953 6.24055 12.1627 6.17128 12.7342C6.09667 13.4656 6.06175 14.2011 6.06671 14.9369C6.1342 15.7218 6.44228 16.4612 6.94334 17.0408C7.44439 17.6203 8.11051 18.0078 8.83875 18.1432C10.6816 18.6027 12.5691 18.8272 14.4617 18.8123C16.0776 18.8438 17.6532 19.3553 19.0115 20.2893C19.6547 20.7172 20.1892 21.3074 20.5678 22.0079C20.9463 22.7083 21.1572 23.4974 21.1818 24.3054C21.1799 25.3705 20.7852 26.3921 20.083 27.1497C19.2979 28.0692 18.4886 28.9613 17.6504 29.8551C16.7607 30.8037 15.8453 31.7507 14.9572 32.6994C14.6955 32.8853 14.3902 32.9892 14.0759 32.9992C13.7616 33.0092 13.451 32.9249 13.1794 32.756C12.1852 31.7524 11.2488 30.6974 10.2513 29.6681C9.4662 28.8309 8.68269 27.968 7.89758 27.1308L4.36777 23.3584C3.26893 22.185 2.14434 21.0167 1.01976 19.845C0.738138 19.559 0.476286 19.2517 0.236252 18.9255C0.0701043 18.6833 -0.0127618 18.3876 0.00159588 18.088C0.0159536 17.7883 0.126659 17.5031 0.315086 17.2803C0.812219 16.6953 1.36084 16.1378 1.88371 15.6077C3.3735 14.122 4.8649 12.6518 6.45927 11.0341Z" fill="#8E8E8E"/>
</svg>
