<svg width="96" height="18" viewBox="0 0 96 18" fill="none" xmlns="http://www.w3.org/2000/svg">
<path fill-rule="evenodd" clip-rule="evenodd" d="M61.5171 7.12463C61.8969 7.15308 62.2672 7.26255 62.6053 7.44635C62.9434 7.63014 63.2423 7.88441 63.4837 8.19361C63.7251 8.50281 63.904 8.86045 64.0094 9.24469C64.1147 9.62893 64.1444 10.0317 64.0966 10.4284C64.1454 10.8256 64.1164 11.2291 64.0115 11.6142C63.9066 11.9992 63.7279 12.3577 63.4864 12.6677C63.2449 12.9776 62.9456 13.2325 62.607 13.4168C62.2684 13.601 61.8975 13.7107 61.5171 13.739C61.1569 13.7635 60.7971 13.6833 60.4774 13.5073C60.1576 13.3312 59.8902 13.0661 59.7044 12.741C59.2738 12.1361 59.0699 11.386 59.1317 10.6335C59.075 9.80002 59.2402 8.96643 59.6088 8.22588C59.8173 7.89221 60.1005 7.61733 60.4337 7.42534C60.7669 7.23334 61.1398 7.13009 61.5198 7.12463H61.5171ZM59.129 2.40713V6.72129C59.6366 6.13663 60.2961 5.72081 61.026 5.52512C61.756 5.32943 62.5245 5.36242 63.2368 5.62004C65.0521 6.12111 66.102 7.92717 66.1977 10.438C66.2442 11.1021 66.1603 11.7691 65.9512 12.3977C65.7421 13.0263 65.4122 13.6031 64.9821 14.0923C64.552 14.5815 64.0307 14.9726 63.4507 15.2415C62.8706 15.5103 62.2442 15.6512 61.6102 15.6552C60.992 15.6862 60.3745 15.5795 59.7983 15.3421C59.2221 15.1047 58.7002 14.742 58.2669 14.2777C57.8337 13.8135 57.4989 13.2582 57.2844 12.6484C57.07 12.0386 56.9808 11.3881 57.0227 10.7395V2.40713H59.129ZM55.117 5.11621H55.7854V7.42334H55.117C54.6611 7.43779 54.2234 7.61446 53.8757 7.92441C53.5654 8.27993 53.395 8.74575 53.3986 9.22802V15.5492H51.2006V9.2294C51.2339 8.14534 51.6415 7.11102 52.3475 6.31933C52.7083 5.93294 53.1397 5.62707 53.6158 5.42009C54.092 5.21311 54.603 5.10929 55.1183 5.11484L55.117 5.11621ZM46.6157 11.5365H43.4622C43.4622 11.637 43.5579 11.7375 43.5579 11.838C43.7377 12.3081 44.0383 12.7164 44.4262 13.0176C44.8141 13.3187 45.274 13.5008 45.7546 13.5436C45.8895 13.5285 46.0251 13.5641 46.1373 13.6441H46.5201C47.3218 13.6651 48.114 13.4577 48.8125 13.0439C48.8603 13.5441 48.8603 14.0482 48.8125 14.5485C48.6211 15.552 46.9972 15.552 46.4244 15.552H45.8516C45.6557 15.5678 45.4592 15.5333 45.2788 15.4515C44.1331 15.2089 43.1117 14.5339 42.4077 13.5541C41.7036 12.5743 41.3659 11.3575 41.4581 10.1338C41.4601 9.11541 41.765 8.12312 42.3301 7.29559C42.8953 6.46806 43.6925 5.84664 44.6104 5.51817C45.2968 5.29519 46.0262 5.26112 46.7287 5.41924C47.4312 5.57737 48.0833 5.92238 48.6224 6.4212C48.8088 6.5959 48.9696 6.79862 49.0995 7.02276C49.2817 7.21895 49.4134 7.46052 49.4823 7.72481C49.6577 8.13562 49.7552 8.57842 49.7693 9.02842C49.7729 9.51067 49.6024 9.97644 49.2922 10.332C49.0178 10.6528 48.695 10.9239 48.3367 11.1346C47.8133 11.4424 47.2154 11.5822 46.617 11.5365H46.6157ZM43.4635 9.83096H46.7114C47.4756 9.83096 48.2397 9.429 47.8583 8.42686C47.8583 8.32637 47.7626 8.22588 47.6669 8.12539L47.3799 7.82392C47.1094 7.50976 46.7573 7.28545 46.3671 7.17858C45.9768 7.07171 45.5653 7.08692 45.1831 7.22236C44.9918 7.32285 44.8961 7.32285 44.8004 7.42334C44.7047 7.52383 44.5134 7.62432 44.4177 7.72481C44.1236 7.98335 43.886 8.30544 43.7211 8.66913C43.5562 9.03282 43.4679 9.42957 43.4622 9.83234L43.4635 9.83096ZM37.8275 2.50762V5.2167H41.3664L41.2654 6.02337C41.1698 6.82591 40.7883 7.02689 39.9285 7.02689H37.7318V11.8449V12.4464C37.8275 13.249 38.3046 13.45 38.973 13.45C39.7491 13.5549 40.5379 13.4511 41.2654 13.1485C41.3611 13.951 41.2654 15.055 40.7883 15.256C40.1745 15.4763 39.5206 15.545 38.8773 15.457C38.5874 15.4733 38.2969 15.4393 38.0175 15.3565C37.4145 15.1983 36.8571 14.8884 36.3935 14.4535C35.8565 13.6661 35.5874 12.7119 35.6294 11.7444V2.50762H37.8275ZM29.2305 5.11621H29.9947C30.5091 5.11585 31.0185 5.222 31.4938 5.42857C31.9691 5.63515 32.401 5.93811 32.7648 6.32013C33.1285 6.70215 33.417 7.15573 33.6137 7.65492C33.8104 8.15412 33.9114 8.68915 33.9111 9.2294V15.5492H31.8139V9.2294C31.8256 8.98899 31.7891 8.74869 31.7068 8.52402C31.6245 8.29935 31.4983 8.09531 31.3362 7.9251C31.1741 7.75488 30.9799 7.62227 30.7659 7.53585C30.552 7.44942 30.3232 7.41109 30.0943 7.42334H29.3302C28.8743 7.43779 28.4366 7.61446 28.0889 7.92441C27.7787 8.28 27.6083 8.74578 27.6118 9.22802V15.5492H25.4085V9.2294C25.4419 8.14534 25.8495 7.11102 26.5554 6.31933C26.8916 5.92706 27.305 5.61618 27.7669 5.40821C28.2288 5.20024 28.7282 5.10014 29.2305 5.11484V5.11621ZM21.3008 2.30664H23.4975V15.4487H21.3008V2.30664ZM80.2406 5.11621H81.0047C82.0369 5.15122 83.0217 5.57933 83.7755 6.32071C84.4971 7.10167 84.9074 8.14266 84.9224 9.23078V15.5492H82.7243V9.2294C82.736 8.98899 82.6995 8.74869 82.6172 8.52402C82.5349 8.29935 82.4087 8.09531 82.2466 7.9251C82.0845 7.75488 81.8903 7.62227 81.6763 7.53585C81.4624 7.44942 81.2336 7.41109 81.0047 7.42334H80.2406C80.0117 7.41109 79.7829 7.44942 79.5689 7.53585C79.355 7.62227 79.1607 7.75488 78.9987 7.9251C78.8366 8.09531 78.7103 8.29935 78.628 8.52402C78.5457 8.74869 78.5093 8.98899 78.5209 9.2294V15.5492H76.3242V9.2294C76.3575 8.14534 76.7651 7.11102 77.4711 6.31933C77.8261 5.925 78.2565 5.61386 78.734 5.40629C79.2115 5.19873 79.7253 5.09941 80.2419 5.11484L80.2406 5.11621ZM86.6407 2.30664H88.8375V15.4487H86.6407V2.30664ZM94.9519 5.5168H92.7539L88.8375 10.2315L93.2323 15.4487H95.429L91.0303 10.2329L94.9467 5.51817L94.9519 5.5168ZM72.9806 10.935H71.548C70.9295 10.9029 70.3115 11.0055 69.7326 11.2364C69.5351 11.3225 69.3614 11.4596 69.2278 11.6351C69.0942 11.8105 69.005 12.0186 68.9685 12.24V12.3404C68.9396 12.512 68.9441 12.6879 68.9817 12.8575C69.0193 13.0272 69.0891 13.1871 69.1871 13.3277C69.2851 13.4683 69.4091 13.5866 69.5517 13.6755C69.6944 13.7644 69.8527 13.8221 70.0171 13.845C70.6994 13.9752 71.4035 13.8694 72.0238 13.5436C72.2368 13.4012 72.4163 13.2099 72.5487 12.9841C72.681 12.7583 72.7628 12.5038 72.7879 12.24C72.9591 11.8305 73.0251 11.381 72.9793 10.9363L72.9806 10.935ZM70.3054 5.2167C71.4331 5.03853 72.5843 5.28738 73.5533 5.91875C73.9373 6.18846 74.2366 6.5717 74.4132 7.02001C74.6463 7.55335 74.7451 8.14062 74.7002 8.72558V11.7348C74.7645 12.4555 74.6154 13.1795 74.2734 13.8079C73.9314 14.4364 73.4131 14.9387 72.7892 15.2464C72.2657 15.4501 71.7203 15.5851 71.1652 15.6483C68.6815 15.7488 66.8661 14.4438 67.0575 12.0362C67.1532 10.3307 68.5858 9.6286 70.2097 9.42762C70.9739 9.32713 72.3069 9.52811 72.7892 9.42762C72.7786 8.88708 72.7145 8.34916 72.5978 7.82255C72.5382 7.63588 72.4381 7.46627 72.3055 7.32703C72.1729 7.18779 72.0114 7.0827 71.8337 7.02001C71.1827 6.8198 70.4997 6.76097 69.8264 6.84712C69.1531 6.93327 68.5035 7.16259 67.9173 7.52108V6.61805C67.8975 6.47764 67.9041 6.33449 67.937 6.19679C67.9698 6.05908 68.0282 5.92952 68.1087 5.81551C68.7693 5.39396 69.5329 5.18483 70.3054 5.21395V5.2167Z" fill="#818283"/>
<path fill-rule="evenodd" clip-rule="evenodd" d="M0 17.5567H14.811C15.3653 17.5503 15.8951 17.3161 16.2871 16.9045C16.679 16.4928 16.902 15.9363 16.9081 15.3542V0H2.09713C1.54284 0.006441 1.01298 0.240558 0.621015 0.652219C0.229049 1.06388 0.00613284 1.62036 0 2.2025V17.5567ZM4.01207 14.7471L12.8003 13.1421V3.50611L4.01207 5.11669V14.7526V14.7471Z" fill="#818283"/>
</svg>
