<svg width="38" height="35" viewBox="0 0 38 35" fill="none" xmlns="http://www.w3.org/2000/svg">
<path d="M1.17532 21.0394C1.17532 21.0394 -0.709492 27.1789 9.54092 26.8931C19.7913 26.6073 36.0304 25.7869 36.0304 25.7869C36.0304 25.7869 39.5122 23.2887 35.6962 18.4951C35.6962 18.4951 34.2942 17.4349 33.57 13.0193C32.8458 8.60363 30.7195 1.4501 21.8247 0.583561C12.9299 -0.282975 9.44808 2.6485 6.97832 5.91184C4.50856 9.17518 4.08146 14.4574 4.08146 14.4574C4.08146 14.4574 3.55223 16.8634 1.17532 21.0394Z" fill="white"/>
<path d="M8.00085 11.5803C7.45305 17.5908 7.1188 23.2509 7.80587 27.178C7.45305 27.4085 10.7492 35.7235 15.6422 33.6125C15.6422 33.6125 18.7341 36.1568 21.8816 33.8061C21.8816 33.8061 24.927 34.479 26.719 32.6538C28.511 30.8285 30.7022 29.9159 30.3494 19.9784C29.9965 10.0409 29.5137 0.536606 19.1612 0.103338C8.80863 -0.329931 8.00085 11.5803 8.00085 11.5803Z" fill="#FCE0E4"/>
<path d="M15.7441 26.5137C15.7441 26.5137 16.8026 28.6155 18.9381 28.7722C18.9381 28.7722 20.3494 28.7999 21.8907 27.0483C21.8907 27.0576 17.304 26.993 15.7441 26.5137Z" fill="white"/>
<path d="M17.1172 24.1458C17.1172 24.1458 17.0987 23.6111 17.7486 23.8692C18.3985 24.1366 20.2462 25.0953 21.5461 23.9706V24.2748C21.5461 24.2748 20.7383 25.8512 18.9371 25.5746C18.9371 25.5746 17.6001 25.2059 17.1172 24.1458Z" fill="#D7A0A0"/>
<path d="M14.5014 19.6033C14.5014 19.6033 13.5543 21.3271 12.858 21.4746C12.1616 21.6221 11.7252 20.857 12.1059 20.3961C12.4866 19.9259 14.5478 18.9027 14.5014 19.6033Z" fill="#D7A0A0"/>
<path d="M23.2194 19.8688C23.2194 19.8688 24.0736 20.7815 24.9742 20.9198C25.8749 21.058 25.8749 20.3113 25.6335 20.1638C25.3921 20.0163 24.2872 19.8965 23.6929 19.6015C23.108 19.3157 23.2194 19.8688 23.2194 19.8688Z" fill="#D7A0A0"/>
<path d="M5.03906 21.7943C5.03906 21.7943 5.73542 24.228 7.41597 24.5691V19.25C7.42525 19.25 5.87469 21.7851 5.03906 21.7943Z" fill="#D7A0A0"/>
<path d="M2.61477 18.3047C2.61477 18.3047 0.952787 21.6141 3.03258 22.8125C3.03258 22.8125 3.86821 25.5965 6.23584 23.9556L7.42429 24.5825C7.42429 24.5825 7.27573 29.2562 10.6554 32.4182C10.6554 32.4182 9.82905 34.9625 5.87373 33.2847C5.87373 33.2847 5.00096 33.8563 4.52743 33.9761C4.52743 33.9761 1.15705 33.8009 0.878509 31.9757C0.599965 30.1504 0.182149 30.6851 0.952787 28.4081C0.952787 28.4081 1.63058 27.4402 1.05492 25.9929C0.479262 24.5456 -0.179958 24.1031 0.386415 22.0197C0.952787 19.9364 2.61477 18.3047 2.61477 18.3047Z" fill="#D8D8D8"/>
<path d="M31.4728 23.7962C31.4728 23.7962 32.9119 25.474 34.5553 23.7962C34.5553 23.7962 36.663 25.4832 37.4243 22.2383C37.4243 22.2383 37.9907 24.1926 37.0715 25.1974C36.1523 26.2022 36.7837 27.8431 36.7837 27.8431C36.7837 27.8431 38.7799 31.7149 34.9824 33.577C33.4133 34.2131 32.3548 33.9826 31.7792 32.987C31.2314 33.5494 27.9631 33.2728 27.666 32.0283C27.666 32.0283 30.2936 28.9309 30.3215 24.2756C30.3215 24.2756 31.1292 24.2018 31.4728 23.7962Z" fill="#D8D8D8"/>
<path d="M30.3203 18.9473C30.3203 18.9473 31.8523 21.0583 32.8272 21.6391C32.8272 21.6391 32.1401 23.999 30.506 24.2663L30.3203 18.9473Z" fill="#D7A0A0"/>
<path d="M5.71647 32.828C4.69514 32.4777 3.82237 31.6941 3.4974 30.6432C3.33956 30.1362 3.33028 29.5831 3.46026 29.0668C3.62739 28.4031 4.02664 27.8316 4.15662 27.1586C4.28661 26.4949 4.24019 25.8035 4.00807 25.1674C3.76666 24.5221 3.38599 23.9321 3.256 23.2408C2.99603 21.8856 3.58097 20.5213 4.19376 19.3413C4.50945 18.7329 4.85298 18.1245 5.13153 17.4976C5.41936 16.8524 5.63291 16.1978 5.76289 15.5065C5.90217 14.7966 5.96716 14.0776 6.06929 13.3585C6.15286 12.7409 6.2457 12.1141 6.35712 11.4964C6.81208 9.03508 7.54557 6.50922 9.22612 4.56412C10.8138 2.72965 13.0607 1.31 15.4377 0.775329C15.7162 0.7108 16.004 0.664707 16.2919 0.627834C16.5054 0.600178 16.5147 0.259094 16.2919 0.28675C13.7942 0.581741 11.4266 1.89076 9.64394 3.62384C8.73403 4.49959 8.00053 5.53206 7.46201 6.66594C6.89564 7.85512 6.51496 9.12727 6.23642 10.4086C5.94859 11.7361 5.77218 13.0728 5.59577 14.4187C5.50292 15.1562 5.38222 15.8936 5.14081 16.5942C4.90869 17.2672 4.58373 17.9033 4.24947 18.5301C3.59954 19.7562 2.91246 21.0375 2.86604 22.448C2.83818 23.1486 3.02388 23.7939 3.31171 24.4299C3.46026 24.7526 3.62739 25.0752 3.73881 25.4255C3.84094 25.7666 3.89665 26.1169 3.89665 26.4764C3.89665 26.836 3.83166 27.1863 3.72024 27.5181C3.60882 27.8592 3.43241 28.1819 3.29314 28.5137C3.0703 29.0484 2.98674 29.6384 3.06102 30.2191C3.20958 31.3069 3.90593 32.2472 4.85298 32.8003C5.09439 32.9478 5.36365 33.0584 5.63291 33.1506C5.83717 33.2244 5.92074 32.8925 5.71647 32.828Z" fill="#A5A4A4"/>
<path d="M32.2063 32.993C33.3298 32.6058 34.2676 31.7393 34.6575 30.6146C34.8432 30.0615 34.8804 29.4715 34.7689 28.9C34.6204 28.1901 34.184 27.5817 34.0447 26.8627C33.8869 26.0883 34.0355 25.3232 34.3604 24.6134C34.5183 24.2815 34.6854 23.9496 34.8061 23.5993C34.9268 23.2675 34.9825 22.908 35.0011 22.5576C35.0753 21.0366 34.3419 19.6538 33.6455 18.3448C33.2927 17.6719 32.9306 16.9989 32.6984 16.2706C32.457 15.524 32.3363 14.7404 32.2435 13.966C32.0671 12.5464 31.8628 11.136 31.5378 9.74397C31.2129 8.38885 30.7672 7.04295 30.0894 5.81689C29.7923 5.273 29.4395 4.74755 29.0309 4.27741C28.6596 3.86258 28.251 3.50306 27.8054 3.16197C26.8212 2.41528 25.7256 1.81608 24.5928 1.3275C23.4879 0.857354 22.3366 0.470178 21.1574 0.248934C20.9067 0.202842 20.6468 0.165968 20.3961 0.138312C20.1732 0.110657 20.1825 0.451741 20.3961 0.479396C21.5103 0.608455 22.6059 0.921883 23.655 1.31828C24.7878 1.74233 25.8927 2.277 26.9047 2.94073C27.8425 3.55837 28.6967 4.28663 29.3281 5.21769C30.0801 6.33313 30.5908 7.59606 30.9622 8.88665C31.3429 10.2049 31.575 11.5692 31.77 12.9243C31.8721 13.671 31.9464 14.4177 32.0856 15.1552C32.2156 15.8835 32.4292 16.5841 32.7356 17.2662C33.3391 18.6121 34.2119 19.8474 34.5461 21.2947C34.704 21.9953 34.7318 22.7328 34.509 23.4242C34.2861 24.1156 33.8683 24.724 33.7198 25.4338C33.5712 26.1529 33.6362 26.9088 33.9148 27.5909C34.1654 28.2178 34.4904 28.7893 34.4997 29.4807C34.5275 30.6146 33.8683 31.6747 32.9213 32.2739C32.6706 32.4306 32.4013 32.5597 32.1228 32.6611C31.9092 32.7348 32.0021 33.0667 32.2063 32.993Z" fill="#A5A4A4"/>
<path d="M16.301 0.286749C14.9362 0.4619 13.6084 0.867513 12.3364 1.37453C11.1015 1.88155 9.82951 2.49918 8.86389 3.43025C7.72186 4.53647 6.76553 5.82705 6.01346 7.20983C5.65135 7.87356 5.27996 8.56494 5.03856 9.28398C4.79715 9.99381 4.66716 10.7313 4.52789 11.4595C4.37934 12.2247 4.20292 12.9898 4.06365 13.7549C3.89653 14.6215 3.73868 15.5065 3.39515 16.3269C2.7545 17.8848 1.60318 19.1662 0.841827 20.6596C0.136183 22.0516 -0.281633 23.757 0.442581 25.2227C0.628277 25.6007 0.888252 25.9418 1.03681 26.3289C1.17608 26.7069 1.18537 27.0941 1.09252 27.4905C0.906821 28.3017 0.461151 29.0207 0.359018 29.8504C0.154752 31.3899 0.934675 32.9109 2.29954 33.6484C3.25587 34.1646 4.44433 34.2845 5.44709 33.8236C5.67921 33.7222 5.88347 33.5654 6.01346 33.3626C5.93918 33.3811 5.85562 33.3995 5.78134 33.4272C6.19916 33.6392 6.6634 33.7959 7.11835 33.9065C7.93541 34.1093 8.84532 34.1739 9.62525 33.8143C10.1266 33.5839 10.5073 33.1783 10.7487 32.6897C10.8508 32.4961 10.5537 32.321 10.4516 32.5145C10.2473 32.9202 9.9595 33.252 9.55097 33.464C9.20743 33.6484 8.80818 33.7129 8.41822 33.7222C7.71258 33.7314 7.00693 33.5562 6.34771 33.2981C6.20844 33.2428 6.08774 33.1967 5.93918 33.123C5.85562 33.0769 5.75349 33.1045 5.70706 33.1875C5.45637 33.5747 4.86214 33.6853 4.43504 33.7498C3.96152 33.8143 3.48799 33.7498 3.04232 33.6023C1.5939 33.1322 0.628277 31.7494 0.665416 30.2376C0.683986 29.4264 1.06466 28.7257 1.30607 27.9698C1.42677 27.6103 1.51033 27.2231 1.48248 26.8452C1.45462 26.4672 1.31535 26.1169 1.12966 25.7851C0.934676 25.4348 0.71184 25.1029 0.581853 24.7249C0.461151 24.3654 0.396157 23.9967 0.396157 23.6187C0.386872 22.8259 0.600423 22.0331 0.906821 21.3141C1.53819 19.8484 2.61522 18.6223 3.34872 17.2027C3.73868 16.456 3.99866 15.6632 4.18435 14.8427C4.36077 14.0315 4.51861 13.2203 4.68573 12.4183C4.83429 11.7177 4.94571 11.0171 5.10355 10.3257C5.17783 9.99381 5.26139 9.67116 5.37281 9.34851C5.49351 8.99821 5.66064 8.66634 5.81848 8.33448C6.48698 6.94249 7.32262 5.62425 8.35323 4.47194C8.78961 3.98336 9.25385 3.504 9.79237 3.11682C10.3402 2.72965 10.9251 2.39778 11.5286 2.11201C12.7728 1.52203 14.0912 1.0611 15.4468 0.784547C15.7254 0.729236 16.0132 0.673925 16.2917 0.637051C16.5146 0.600178 16.5239 0.259094 16.301 0.286749Z" fill="#020203"/>
<path d="M4.31392 22.3863C5.45595 21.8608 6.44014 21.0311 7.15507 20.0079C7.35934 19.7129 7.53575 19.4087 7.69359 19.0953C7.78644 18.9017 7.48932 18.7265 7.39647 18.9201C6.86724 19.9987 6.05018 20.9297 5.03814 21.5935C4.75031 21.7778 4.45319 21.9438 4.13751 22.0913C3.94253 22.1835 4.11894 22.4784 4.31392 22.3863Z" fill="#020203"/>
<path d="M7.56512 14.7999C7.48156 16.6989 7.39799 18.5979 7.31443 20.4969C7.24015 22.2945 7.19373 24.1014 7.42585 25.8897C7.6394 27.4661 8.07578 29.0056 8.88356 30.3791C9.59849 31.5868 10.5827 32.6653 11.8176 33.3751C12.3468 33.6794 12.9503 33.9559 13.5538 34.0665C14.0923 34.1679 14.668 34.1864 15.2065 34.1034C15.3829 34.0757 15.5593 34.0297 15.7172 33.9743C15.9214 33.9006 15.8286 33.5687 15.6243 33.6425C15.2994 33.7623 14.9558 33.8084 14.6123 33.8176C14.3523 33.8268 14.0366 33.7992 13.8045 33.7715C13.2938 33.707 12.7925 33.5042 12.3282 33.2737C11.1026 32.6653 10.0999 31.6697 9.36637 30.5266C8.54002 29.2453 8.05721 27.7887 7.81581 26.2861C7.52798 24.5438 7.55583 22.7739 7.62083 21.0132C7.68582 19.1695 7.77867 17.3258 7.86223 15.4821C7.87152 15.2516 7.8808 15.0212 7.89009 14.7907C7.91794 14.5787 7.5744 14.5787 7.56512 14.7999Z" fill="#020203"/>
<path d="M29.8668 14.6366C29.9504 16.4342 30.0896 18.2226 30.1732 20.011C30.2475 21.7902 30.3218 23.5878 30.1361 25.3577C29.9689 26.9433 29.5883 28.5197 28.8176 29.9209C28.1491 31.1377 27.2206 32.2255 26.0322 32.963C25.4844 33.3041 24.8623 33.5898 24.2216 33.7189C24.0452 33.7558 23.906 33.765 23.711 33.7834C23.3396 33.8111 22.9589 33.8018 22.5875 33.7558C22.3647 33.7281 22.1326 33.682 21.919 33.6267C21.7055 33.5714 21.6126 33.894 21.8262 33.9586C22.5597 34.1614 23.3396 34.189 24.1009 34.0876C24.6487 34.0139 25.178 33.8018 25.6701 33.5622C26.9514 32.9261 28.0006 31.8752 28.7712 30.686C29.6347 29.3493 30.1268 27.8283 30.3775 26.2611C30.656 24.4543 30.6374 22.6106 30.5632 20.7946C30.4889 18.9601 30.3496 17.1256 30.2568 15.3004C30.2475 15.0791 30.2382 14.8579 30.2289 14.6366C30.2011 14.4154 29.8575 14.4154 29.8668 14.6366Z" fill="#020203"/>
<path d="M4.88319 21.9331C5.17102 23.196 6.10878 24.2654 7.32509 24.7355C7.52936 24.8185 7.62221 24.4866 7.41794 24.4037C6.31305 23.9704 5.47742 22.984 5.21744 21.8409C5.16173 21.6289 4.82748 21.7211 4.88319 21.9331Z" fill="#020203"/>
<path d="M20.3825 0.474938C21.5988 0.631653 22.8059 0.917425 23.985 1.24929C25.2663 1.61803 26.5662 2.0513 27.7268 2.70581C28.2467 3.0008 28.6831 3.34188 29.0917 3.76593C29.6673 4.35592 30.1873 4.99199 30.6608 5.67416C31.1343 6.35633 31.5521 7.07537 31.9235 7.82206C32.2671 8.52267 32.5642 9.21405 32.7406 9.96997C32.917 10.7074 33.0284 11.4634 33.1863 12.2101C33.372 13.0858 33.5298 13.9708 33.7341 14.8373C33.9383 15.6946 34.254 16.5059 34.6811 17.271C35.1175 18.0361 35.6282 18.7552 36.1017 19.5019C36.9837 20.8939 37.8101 22.6085 37.3458 24.2863C37.1137 25.0975 36.4545 25.7336 36.3895 26.6001C36.3338 27.4482 36.7888 28.2226 37.0394 28.9969C37.2901 29.7713 37.2716 30.6009 36.9745 31.3661C36.6866 32.1128 36.1295 32.6935 35.461 33.1268C34.8575 33.514 34.189 33.7721 33.4741 33.7997C33.1398 33.809 32.8056 33.7629 32.5085 33.5877C32.2578 33.4402 32.0628 33.219 31.9514 32.9424C31.9142 32.8594 31.84 32.7857 31.7378 32.8226C31.4036 32.9424 31.0415 33.0162 30.6886 33.0623C30.0016 33.1544 29.2495 33.136 28.6274 32.8226C28.2189 32.6198 27.9032 32.2971 27.6804 31.8915C27.5782 31.6979 27.2811 31.8731 27.3833 32.0667C28.1632 33.5232 29.9644 33.6246 31.4129 33.2743C31.5521 33.2374 31.7007 33.2005 31.8307 33.1544C31.7564 33.1176 31.6914 33.0715 31.6171 33.0346C31.8492 33.5969 32.3042 33.9749 32.9077 34.0947C33.2977 34.1685 33.7155 34.15 34.0962 34.0671C35.6653 33.7444 37.1044 32.5091 37.4573 30.942C37.6522 30.1031 37.5223 29.2919 37.2251 28.4991C36.9187 27.6879 36.5102 26.8398 36.9002 25.9825C37.0766 25.5861 37.3366 25.2358 37.513 24.8302C37.6801 24.4338 37.7822 24.0189 37.8101 23.5949C37.8751 22.7191 37.6615 21.8434 37.3273 21.0414C36.6402 19.382 35.4053 18.0361 34.6347 16.4229C34.2169 15.5379 34.0219 14.5884 33.8455 13.6389C33.6876 12.8185 33.5019 12.0073 33.3441 11.196C33.2048 10.4309 33.0656 9.64732 32.7963 8.90984C32.5085 8.12627 32.0999 7.36114 31.6821 6.63288C31.255 5.8954 30.7722 5.1948 30.243 4.53107C29.7787 3.95952 29.2774 3.36032 28.6831 2.90862C27.6525 2.11583 26.3619 1.63647 25.1271 1.23085C23.8365 0.806804 22.518 0.46572 21.181 0.235258C20.921 0.189166 20.6611 0.152292 20.4011 0.115418C20.169 0.106199 20.169 0.447283 20.3825 0.474938Z" fill="#020203"/>
<path d="M33.7281 21.8509C32.6325 21.3531 31.6762 20.5511 30.9891 19.5647C30.7941 19.279 30.6177 18.984 30.4692 18.6798C30.3763 18.4862 30.0792 18.6521 30.172 18.8549C30.7199 19.9796 31.5741 20.9383 32.6232 21.6297C32.9203 21.8233 33.2267 21.9984 33.5517 22.1459C33.756 22.2289 33.9324 21.9431 33.7281 21.8509Z" fill="#020203"/>
<path d="M32.6637 21.6054C32.4037 22.7485 31.5681 23.744 30.4632 24.1681C30.3796 24.205 30.3146 24.2787 30.3425 24.3801C30.3611 24.4631 30.4632 24.5368 30.556 24.5C31.7723 24.0298 32.7101 22.9605 32.9979 21.6975C33.0444 21.4763 32.7194 21.3841 32.6637 21.6054Z" fill="#020203"/>
<path d="M17.33 0.45984C18.8713 0.201723 20.4776 0.376874 21.9631 0.819361C23.458 1.26185 24.8971 1.99933 26.0484 3.06867C27.3483 4.28551 28.1932 5.93562 28.7225 7.61338C29.3445 9.58613 29.5581 11.6511 29.7345 13.7068C29.9016 15.6335 30.0038 17.5693 30.1523 19.496C30.1709 19.7172 30.1895 19.9477 30.208 20.1689C30.2266 20.3902 30.5701 20.3902 30.5516 20.1689C30.3937 18.2331 30.3009 16.288 30.1337 14.3429C29.9573 12.2318 29.7809 10.1024 29.2146 8.05587C28.7225 6.28592 27.9147 4.51597 26.6334 3.16085C25.5285 1.99933 24.0893 1.17888 22.5852 0.662647C21.0718 0.137194 19.4284 -0.111705 17.8314 0.0634459C17.6364 0.0818829 17.4414 0.109538 17.2557 0.146412C17.0143 0.164849 17.1072 0.496714 17.33 0.45984Z" fill="#020203"/>
<path d="M20.5993 0.132523C18.993 -0.144031 17.3218 0.0311196 15.7619 0.482825C14.1928 0.93453 12.6794 1.69045 11.4723 2.79666C10.0889 4.05037 9.21613 5.79267 8.66833 7.53496C8.01839 9.59068 7.81412 11.7386 7.63771 13.8773C7.47059 15.8039 7.47059 17.7398 7.34988 19.6757C7.3406 19.8877 7.32203 20.109 7.30346 20.321C7.28489 20.5422 7.62843 20.5422 7.647 20.321C7.80484 18.4496 7.78627 16.5783 7.91626 14.7069C7.99054 13.6652 8.08338 12.6143 8.20409 11.5727C8.33407 10.5125 8.5012 9.46162 8.77046 8.41993C9.2347 6.64077 9.99605 4.85238 11.2588 3.47883C12.3265 2.32652 13.7564 1.51529 15.2327 0.99906C16.7461 0.473607 18.3709 0.224708 19.9679 0.381422C20.1443 0.399859 20.33 0.427514 20.5064 0.45517C20.72 0.501262 20.8128 0.169397 20.5993 0.132523Z" fill="#020203"/>
<path d="M16.9679 24.2247C17.4322 25.0267 18.2492 25.6351 19.187 25.7273C20.1062 25.8194 20.9975 25.3401 21.5361 24.6118C22.1303 23.8006 22.2046 22.6759 21.8517 21.7541C21.666 21.2563 21.3504 20.8415 21.044 20.4082C20.7469 19.9934 20.4869 19.5509 20.3012 19.0715C19.8926 18.0114 19.8091 16.8499 20.0783 15.7437C20.1341 15.5316 19.7998 15.4394 19.7441 15.6515C19.512 16.5918 19.5213 17.5781 19.7627 18.5184C19.8834 18.9886 20.0598 19.4495 20.3012 19.8827C20.5426 20.316 20.849 20.7032 21.1275 21.118C21.4061 21.5329 21.6196 21.9846 21.6939 22.4824C21.7682 22.9525 21.7218 23.4503 21.5453 23.8928C21.2482 24.6671 20.4962 25.2848 19.6512 25.377C18.6671 25.4876 17.7386 24.8699 17.2651 24.0403C17.1536 23.8651 16.8565 24.0311 16.9679 24.2247Z" fill="#B78080"/>
<path d="M14.1103 27.7967C13.7668 26.8472 13.8968 25.7871 14.4538 24.939C14.5745 24.7546 14.2774 24.5795 14.1567 24.7639C13.5532 25.6765 13.4139 26.8565 13.7761 27.8797C13.8503 28.0917 14.1846 27.9996 14.1103 27.7967Z" fill="#B78080"/>
<path d="M24.0154 27.51C24.0804 26.9845 24.1918 26.4406 24.1175 25.9059C24.0525 25.4174 23.8483 24.9657 23.5326 24.5877C23.4769 24.514 23.3469 24.5324 23.2912 24.5877C23.2169 24.6615 23.2355 24.7536 23.2912 24.8274C23.5697 25.1685 23.7461 25.5925 23.7926 26.0258C23.839 26.5144 23.7368 27.0214 23.6811 27.5007C23.6719 27.5929 23.7647 27.6667 23.8483 27.6667C23.9504 27.6851 24.0061 27.6021 24.0154 27.51Z" fill="#B78080"/>
<path d="M15.3745 26.5316C17.12 26.9556 18.912 27.2875 20.7132 27.2137C21.2146 27.1953 21.716 27.14 22.2174 27.0478C22.4309 27.0109 22.3381 26.6791 22.1245 26.7159C20.3975 27.0201 18.6334 26.8542 16.925 26.5223C16.4329 26.4302 15.9501 26.3195 15.458 26.1997C15.2445 26.1536 15.1516 26.4855 15.3745 26.5316Z" fill="#B78080"/>
<path d="M15.417 26.4777C16.0298 27.3442 16.6797 28.2568 17.6824 28.7085C18.1745 28.9298 18.6945 29.0035 19.2237 28.9298C19.7622 28.856 20.2729 28.6348 20.7279 28.349C21.2478 28.0172 21.7121 27.5931 22.1577 27.1691C22.3156 27.0123 22.0742 26.7727 21.9163 26.9294C21.1921 27.6208 20.4029 28.3306 19.3909 28.561C18.908 28.6717 18.4159 28.644 17.961 28.4596C17.5246 28.2937 17.1439 28.0079 16.8097 27.6853C16.3919 27.2705 16.0576 26.7911 15.7141 26.321C15.5841 26.1274 15.287 26.2933 15.417 26.4777Z" fill="#B78080"/>
<path d="M12.9748 21.6196C13.6804 21.1126 14.2561 20.4581 14.646 19.6929C14.7482 19.4993 14.4511 19.3242 14.3489 19.5178C13.9775 20.2276 13.4483 20.8544 12.7984 21.3246C12.7241 21.3799 12.6869 21.4721 12.7334 21.555C12.7798 21.6288 12.8912 21.6749 12.9748 21.6196Z" fill="#B78080"/>
<path d="M14.5757 18.2392C14.2229 17.7874 13.6843 17.4464 13.0994 17.4925C12.8023 17.5201 12.533 17.6307 12.3195 17.8335C12.0873 18.0548 11.9202 18.3498 11.7531 18.6263C11.6417 18.8199 11.9388 18.9859 12.0502 18.8015C12.3009 18.3682 12.5794 17.8612 13.1365 17.8335C13.6286 17.8059 14.0464 18.1101 14.3343 18.4788C14.39 18.5526 14.52 18.5341 14.5757 18.4788C14.65 18.4051 14.6407 18.3037 14.5757 18.2392Z" fill="#020203"/>
<path d="M22.8923 18.8554C23.0316 18.6249 23.2452 18.4313 23.4587 18.2654C23.6723 18.0995 23.9044 17.9704 24.1829 17.9704C24.74 17.9796 25.13 18.4221 25.3528 18.883C25.4457 19.0766 25.7428 18.9107 25.6499 18.7079C25.3714 18.1363 24.8607 17.6385 24.1829 17.6293C23.8487 17.6201 23.5608 17.7676 23.3009 17.9612C23.0316 18.164 22.7809 18.3945 22.6045 18.6802C22.4745 18.8738 22.7716 19.0397 22.8923 18.8554Z" fill="#020203"/>
<path d="M23.0973 19.9932C23.5894 20.5279 24.2301 20.9058 24.9265 21.0902C25.14 21.1455 25.2328 20.8136 25.0193 20.7583C24.3694 20.5924 23.7937 20.2329 23.3388 19.7443C23.1902 19.5876 22.9488 19.8273 23.0973 19.9932Z" fill="#B78080"/>
<path d="M15.343 33.5601C16.1972 34.2423 17.2093 34.7309 18.3049 34.8876C19.3448 35.0351 20.4032 34.8876 21.341 34.4175C21.8517 34.1593 22.3252 33.809 22.7059 33.3758C22.8544 33.2098 22.613 32.9702 22.4645 33.1361C21.8238 33.8643 20.9418 34.3345 19.9947 34.5189C19.0105 34.7124 17.9892 34.565 17.07 34.1962C16.5408 33.975 16.0394 33.68 15.5937 33.3205C15.5194 33.2651 15.4266 33.2467 15.3523 33.3205C15.2873 33.385 15.2687 33.5048 15.343 33.5601Z" fill="#020203"/>
<path d="M10.5716 15.7209C10.5716 15.7393 10.5994 15.7486 10.6087 15.7301C10.7666 15.4904 11.5372 14.5133 12.54 14.3197C13.7656 14.08 14.8333 14.1538 15.1583 13.8311C15.1583 13.8311 15.1583 13.6652 14.9911 13.5085C14.824 13.3518 14.4991 12.8632 14.4991 12.8632C14.4991 12.8632 14.4991 12.5405 14.007 12.6972C13.5241 12.854 10.3116 13.656 10.5716 15.7209Z" fill="#020203"/>
<path d="M26.1983 15.5365C26.1983 15.555 25.9105 15.7209 25.8733 15.7025C25.5484 15.5365 25.0749 14.6055 24.0721 14.4027C22.8465 14.163 22.1687 14.163 21.8438 13.8311C21.8438 13.8311 21.8437 13.6652 22.0109 13.5085C22.178 13.3518 22.503 12.8632 22.503 12.8632C22.503 12.8632 22.503 12.5405 22.9951 12.6972C23.4686 12.854 26.449 13.4716 26.1983 15.5365Z" fill="#020203"/>
</svg>
