<svg width="110" height="41" viewBox="0 0 110 41" fill="none" xmlns="http://www.w3.org/2000/svg">
<path d="M40.5345 12.3311C39.6815 10.0919 38.0408 7.2766 34.112 5.45318C30.2204 3.50537 24.9186 3.09616 20.2364 4.38925C15.5198 5.6005 11.4166 8.51076 9.05679 11.3326C6.5849 14.1218 5.8564 16.8258 5.27734 16.8193C5.41121 17.3103 5.08432 14.4426 7.26046 10.9038C9.26226 7.37809 13.7702 3.18455 19.5265 1.28584C25.2082 -0.717629 32.1444 -0.432822 37.3591 2.51345C42.6079 5.23385 46.0947 10.0756 46.0667 13.3983C46.0854 15.7782 44.4479 16.577 42.8134 15.7357C42.2686 15.4181 41.3315 14.3084 40.5345 12.3311Z" fill="url(#paint0_linear_1915_27450)"/>
<path d="M5.53236 28.6273C6.38538 30.8664 8.02604 33.6818 11.9549 35.5052C15.8464 37.453 21.1483 37.8622 25.8305 36.5691C30.5502 35.3579 34.6534 32.4476 37.0101 29.6225C39.482 26.8333 40.2105 24.1293 40.7896 24.1359C40.6557 23.6448 40.9826 26.5125 38.8064 30.0513C36.8046 33.577 32.2967 37.7705 26.5404 39.6692C20.8556 41.676 13.9225 41.3912 8.70784 38.4416C3.46207 35.7245 -0.0278515 30.8795 0.000167481 27.5568C-0.0185118 25.1769 1.61904 24.3781 3.25348 25.2194C3.79829 25.537 4.73537 26.65 5.53236 28.6273Z" fill="url(#paint1_linear_1915_27450)"/>
<path d="M36.7117 7.08667H34.9683C34.5231 7.08667 34.0966 7.26999 33.7822 7.60063L28.0881 13.5521C26.9082 14.7863 24.9251 13.6634 25.2551 11.948L25.7812 9.20471C25.9929 8.10804 25.1959 7.08667 24.1343 7.08667H23.0509H20.8156H7.79925C7.02406 7.08667 6.34849 7.64319 6.16481 8.43541L5.785 10.0755C5.5266 11.1885 6.32981 12.2623 7.41944 12.2623H8.80171C9.88822 12.2623 10.6883 13.3262 10.4393 14.4393L6.7501 30.7911C6.50104 31.9008 7.30114 32.968 8.38765 32.968H10.5264C11.311 32.968 11.9928 32.3984 12.1671 31.5931L16.0493 13.6405C16.2236 12.8352 16.9054 12.2656 17.6899 12.2656C18.7609 12.2656 19.5579 13.3033 19.3337 14.4032L16.0026 30.8336C15.7784 31.9336 16.5785 32.9713 17.6464 32.9713H19.8069C20.6039 32.9713 21.2951 32.3821 21.4538 31.5571L22.5092 26.1556C22.8112 24.6137 24.7321 24.2242 25.5571 25.5336L29.7474 32.1791C30.0588 32.6734 30.5849 32.9713 31.1484 32.9713H34.7722C36.1264 32.9713 36.9265 31.3738 36.1576 30.1985L29.8471 20.5708C29.3863 19.8669 29.4704 18.9176 30.0463 18.312L37.8947 10.1082C38.9626 8.99847 38.2123 7.08667 36.7117 7.08667Z" fill="#33B6FF"/>
<path d="M42.9249 29.6616C42.9591 29.2852 42.5606 29.0462 42.2649 29.2623C41.0134 30.1789 39.8988 30.6699 38.336 30.6699C35.6711 30.6699 34.5908 28.8858 35.4282 26.2833C36.6237 22.571 39.0178 21.399 41.278 20.7279C43.5039 20.0568 45.5836 19.8506 46.1284 18.0959C46.4086 17.1891 46.1315 16.4002 45.2006 16.4002C44.3569 16.4002 43.8433 16.6915 43.4759 17.1564C42.5513 18.3251 41.1379 18.9438 39.6902 18.9438H38.5664C38.2799 18.9438 38.0714 18.6426 38.171 18.3578C38.7687 16.6261 39.7556 15.4017 41.0351 14.5866C42.4517 13.6798 44.1639 13.3 46.0163 13.3C50.5616 13.3 51.7851 14.7044 50.6923 18.3022L47.6321 28.3326C47.4888 28.7941 47.4484 29.259 47.4484 29.7075C47.4484 29.9497 47.2585 30.1461 47.0312 30.1461H43.3358C43.0961 30.1429 42.9031 29.9203 42.9249 29.6616ZM44.578 23.0915C44.6869 22.7379 44.3569 22.4106 44.0301 22.5448C43.3016 22.8394 42.6727 23.0686 42.1403 23.3894C41.4243 23.7986 40.7425 24.3846 40.3907 25.4943C40.0669 26.519 40.4561 27.249 41.5737 27.249C42.9591 27.249 43.7001 25.8151 44.0581 24.7643L44.578 23.0915Z" fill="#33B6FF"/>
<path d="M56.7282 13.7682C57.6684 13.7682 58.3377 14.7241 58.0606 15.6702H58.1198C59.3121 14.1774 60.9933 13.3884 62.2635 13.3001C63.764 13.2117 64.9315 14.089 65.0591 15.4639H65.1183C66.376 14.0006 67.7925 13.3001 69.0939 13.3001C71.2638 13.3001 72.8733 14.4982 72.26 16.721L68.823 29.0888C68.6487 29.7141 68.1039 30.1429 67.4843 30.1429H65.6973C64.7634 30.1429 64.094 29.1968 64.3618 28.2573L67.1294 18.5117C67.1419 18.4659 67.1543 18.4233 67.1606 18.3775C67.2975 17.6474 67.1668 17.0451 66.3044 17.1007C65.4825 17.1302 64.9128 17.5983 64.67 18.4462L61.6097 29.1019C61.4322 29.7206 60.8905 30.1429 60.2741 30.1429H58.4965C57.5594 30.1429 56.8869 29.187 57.164 28.2442L59.9908 18.6001C60.0219 18.492 60.0437 18.3807 60.05 18.2662C60.0904 17.6376 60.0406 17.1007 59.3246 17.1007C58.3937 17.1007 57.8769 17.5689 57.5594 18.4462L54.3964 29.115C54.2158 29.7272 53.6741 30.1462 53.0639 30.1462H51.2925C50.3492 30.1462 49.6767 29.1805 49.9631 28.2377L54.0228 14.7928C54.2065 14.1839 54.745 13.7715 55.3521 13.7715H56.7282V13.7682Z" fill="#33B6FF"/>
<path d="M79.7845 15.1104H79.8437C80.9426 13.706 82.4401 13.2968 83.7726 13.2968C86.8111 13.2968 86.9262 16.338 86.26 18.9111L84.7906 24.5843C84.0776 27.3309 82.5958 30.4735 79.2179 30.6601C79.137 30.6634 79.0529 30.6634 78.972 30.6601C77.5305 30.5619 76.332 29.7468 75.9833 28.2671H75.9241L75.8525 28.5323C75.5972 29.4816 74.7722 30.1364 73.832 30.1364C72.4342 30.1364 71.4255 28.7287 71.8147 27.3145L76.6153 9.80054C76.8737 8.85446 77.6987 8.203 78.6326 8.203H78.8537C80.2453 8.203 81.2508 9.60085 80.8773 11.0085L79.7845 15.1104ZM81.3941 19.7917C81.6493 18.8259 82.0976 17.1302 80.759 17.1302C79.5074 17.1302 78.9004 18.4167 78.477 19.9946L77.4403 23.8543C77.0636 25.2586 76.9172 26.8955 78.0722 26.866C79.5759 26.866 79.99 25.0819 80.2702 24.0278L81.3941 19.7917Z" fill="#33B6FF"/>
<path d="M91.4099 9.67582C91.6278 8.81158 92.3719 8.20923 93.2249 8.20923H93.9285C95.1582 8.20923 96.0548 9.43029 95.7466 10.6808C95.5318 11.5516 94.7846 12.1572 93.9285 12.1572H93.2249C91.9921 12.1572 91.0923 10.9296 91.4099 9.67582ZM86.8272 27.6579L89.9996 15.2279C90.2206 14.3669 90.9647 13.7646 91.8115 13.7646H92.5462C93.7759 13.7646 94.6725 14.9889 94.3612 16.2395L91.2605 28.6694C91.0425 29.537 90.2985 30.1426 89.4454 30.1426H88.6391C87.4032 30.1426 86.5066 28.9117 86.8272 27.6579Z" fill="#33B6FF"/>
<path d="M96.6457 18.9143C97.6762 14.7044 100.481 13.3 104.043 13.3C108.096 13.3 109.622 15.2315 108.778 18.9143L107.249 25.5663C107.246 25.5762 107.243 25.5892 107.24 25.5991C106.144 29.3015 103.489 30.6699 99.9115 30.6699C96.5368 30.6699 94.0866 29.3245 95.0082 25.5827L96.6457 18.9143ZM99.6188 25.8479C99.6157 25.8642 99.6126 25.8806 99.6095 25.897C99.4819 26.8169 99.7496 27.3046 100.712 27.3046C101.677 27.3046 102.178 26.8169 102.486 25.897C102.492 25.8806 102.495 25.8642 102.499 25.8479L104.217 18.5608C104.466 17.5067 104.317 16.6588 103.24 16.6588C102.162 16.6588 101.611 17.5067 101.359 18.5608L99.6188 25.8479Z" fill="#33B6FF"/>
<path d="M36.7117 7.08667H34.9683C34.5231 7.08667 34.0966 7.26999 33.7822 7.60063L28.0881 13.5521C26.9082 14.7863 24.9251 13.6634 25.2551 11.948L25.7812 9.20471C25.9929 8.10804 25.1959 7.08667 24.1343 7.08667H23.0509H20.8156H7.79925C7.02406 7.08667 6.34849 7.64319 6.16481 8.43541L5.785 10.0755C5.5266 11.1885 6.32981 12.2623 7.41944 12.2623H8.80171C9.88822 12.2623 10.6883 13.3262 10.4393 14.4393L6.7501 30.7911C6.50104 31.9008 7.30114 32.968 8.38765 32.968H10.5264C11.311 32.968 11.9928 32.3984 12.1671 31.5931L16.0493 13.6405C16.2236 12.8352 16.9054 12.2656 17.6899 12.2656C18.7609 12.2656 19.5579 13.3033 19.3337 14.4032L16.0026 30.8336C15.7784 31.9336 16.5785 32.9713 17.6464 32.9713H19.8069C20.6039 32.9713 21.2951 32.3821 21.4538 31.5571L22.5092 26.1556C22.8112 24.6137 24.7321 24.2242 25.5571 25.5336L29.7474 32.1791C30.0588 32.6734 30.5849 32.9713 31.1484 32.9713H34.7722C36.1264 32.9713 36.9265 31.3738 36.1576 30.1985L29.8471 20.5708C29.3863 19.8669 29.4704 18.9176 30.0463 18.312L37.8947 10.1082C38.9626 8.99847 38.2123 7.08667 36.7117 7.08667Z" fill="url(#paint2_linear_1915_27450)"/>
<path d="M42.9249 29.6616C42.9591 29.2852 42.5606 29.0462 42.2649 29.2623C41.0134 30.1789 39.8988 30.6699 38.336 30.6699C35.6711 30.6699 34.5908 28.8858 35.4282 26.2833C36.6237 22.571 39.0178 21.399 41.278 20.7279C43.5039 20.0568 45.5836 19.8506 46.1284 18.0959C46.4086 17.1891 46.1315 16.4002 45.2006 16.4002C44.3569 16.4002 43.8433 16.6915 43.4759 17.1564C42.5513 18.3251 41.1379 18.9438 39.6902 18.9438H38.5664C38.2799 18.9438 38.0714 18.6426 38.171 18.3578C38.7687 16.6261 39.7556 15.4017 41.0351 14.5866C42.4517 13.6798 44.1639 13.3 46.0163 13.3C50.5616 13.3 51.7851 14.7044 50.6923 18.3022L47.6321 28.3326C47.4888 28.7941 47.4484 29.259 47.4484 29.7075C47.4484 29.9497 47.2585 30.1461 47.0312 30.1461H43.3358C43.0961 30.1429 42.9031 29.9203 42.9249 29.6616ZM44.578 23.0915C44.6869 22.7379 44.3569 22.4106 44.0301 22.5448C43.3016 22.8394 42.6727 23.0686 42.1403 23.3894C41.4243 23.7986 40.7425 24.3846 40.3907 25.4943C40.0669 26.519 40.4561 27.249 41.5737 27.249C42.9591 27.249 43.7001 25.8151 44.0581 24.7643L44.578 23.0915Z" fill="url(#paint3_linear_1915_27450)"/>
<path d="M56.7282 13.7682C57.6684 13.7682 58.3377 14.7241 58.0606 15.6702H58.1198C59.3121 14.1774 60.9933 13.3884 62.2635 13.3001C63.764 13.2117 64.9315 14.089 65.0591 15.4639H65.1183C66.376 14.0006 67.7925 13.3001 69.0939 13.3001C71.2638 13.3001 72.8733 14.4982 72.26 16.721L68.823 29.0888C68.6487 29.7141 68.1039 30.1429 67.4843 30.1429H65.6973C64.7634 30.1429 64.094 29.1968 64.3618 28.2573L67.1294 18.5117C67.1419 18.4659 67.1543 18.4233 67.1606 18.3775C67.2975 17.6474 67.1668 17.0451 66.3044 17.1007C65.4825 17.1302 64.9128 17.5983 64.67 18.4462L61.6097 29.1019C61.4322 29.7206 60.8905 30.1429 60.2741 30.1429H58.4965C57.5594 30.1429 56.8869 29.187 57.164 28.2442L59.9908 18.6001C60.0219 18.492 60.0437 18.3807 60.05 18.2662C60.0904 17.6376 60.0406 17.1007 59.3246 17.1007C58.3937 17.1007 57.8769 17.5689 57.5594 18.4462L54.3964 29.115C54.2158 29.7272 53.6741 30.1462 53.0639 30.1462H51.2925C50.3492 30.1462 49.6767 29.1805 49.9631 28.2377L54.0228 14.7928C54.2065 14.1839 54.745 13.7715 55.3521 13.7715H56.7282V13.7682Z" fill="url(#paint4_linear_1915_27450)"/>
<path d="M79.7845 15.1104H79.8437C80.9426 13.706 82.4401 13.2968 83.7726 13.2968C86.8111 13.2968 86.9262 16.338 86.26 18.9111L84.7906 24.5843C84.0776 27.3309 82.5958 30.4735 79.2179 30.6601C79.137 30.6634 79.0529 30.6634 78.972 30.6601C77.5305 30.5619 76.332 29.7468 75.9833 28.2671H75.9241L75.8525 28.5323C75.5972 29.4816 74.7722 30.1364 73.832 30.1364C72.4342 30.1364 71.4255 28.7287 71.8147 27.3145L76.6153 9.80054C76.8737 8.85446 77.6987 8.203 78.6326 8.203H78.8537C80.2453 8.203 81.2508 9.60085 80.8773 11.0085L79.7845 15.1104ZM81.3941 19.7917C81.6493 18.8259 82.0976 17.1302 80.759 17.1302C79.5074 17.1302 78.9004 18.4167 78.477 19.9946L77.4403 23.8543C77.0636 25.2586 76.9172 26.8955 78.0722 26.866C79.5759 26.866 79.99 25.0819 80.2702 24.0278L81.3941 19.7917Z" fill="url(#paint5_linear_1915_27450)"/>
<path d="M91.4099 9.67582C91.6278 8.81158 92.3719 8.20923 93.2249 8.20923H93.9285C95.1582 8.20923 96.0548 9.43029 95.7466 10.6808C95.5318 11.5516 94.7846 12.1572 93.9285 12.1572H93.2249C91.9921 12.1572 91.0923 10.9296 91.4099 9.67582ZM86.8272 27.6579L89.9996 15.2279C90.2206 14.3669 90.9647 13.7646 91.8115 13.7646H92.5462C93.7759 13.7646 94.6725 14.9889 94.3612 16.2395L91.2605 28.6694C91.0425 29.537 90.2985 30.1426 89.4454 30.1426H88.6391C87.4032 30.1426 86.5066 28.9117 86.8272 27.6579Z" fill="url(#paint6_linear_1915_27450)"/>
<path d="M96.6457 18.9143C97.6762 14.7044 100.481 13.3 104.043 13.3C108.096 13.3 109.622 15.2315 108.778 18.9143L107.249 25.5663C107.246 25.5762 107.243 25.5892 107.24 25.5991C106.144 29.3015 103.489 30.6699 99.9115 30.6699C96.5368 30.6699 94.0866 29.3245 95.0082 25.5827L96.6457 18.9143ZM99.6188 25.8479C99.6157 25.8642 99.6126 25.8806 99.6095 25.897C99.4819 26.8169 99.7496 27.3046 100.712 27.3046C101.677 27.3046 102.178 26.8169 102.486 25.897C102.492 25.8806 102.495 25.8642 102.499 25.8479L104.217 18.5608C104.466 17.5067 104.317 16.6588 103.24 16.6588C102.162 16.6588 101.611 17.5067 101.359 18.5608L99.6188 25.8479Z" fill="url(#paint7_linear_1915_27450)"/>
<defs>
<linearGradient id="paint0_linear_1915_27450" x1="5.27781" y1="8.43757" x2="46.0664" y2="8.43757" gradientUnits="userSpaceOnUse">
<stop stop-color="#33B6FF" stop-opacity="0"/>
<stop offset="0.9933" stop-color="#33B6FF"/>
</linearGradient>
<linearGradient id="paint1_linear_1915_27450" x1="40.7887" y1="32.5195" x2="0.000165321" y2="32.5195" gradientUnits="userSpaceOnUse">
<stop stop-color="#33B6FF" stop-opacity="0"/>
<stop offset="0.9933" stop-color="#33B6FF"/>
</linearGradient>
<linearGradient id="paint2_linear_1915_27450" x1="22.0663" y1="26.8723" x2="22.0663" y2="-35.1129" gradientUnits="userSpaceOnUse">
<stop stop-color="white" stop-opacity="0"/>
<stop offset="1" stop-color="white"/>
</linearGradient>
<linearGradient id="paint3_linear_1915_27450" x1="43.1124" y1="26.8723" x2="43.1124" y2="-35.1128" gradientUnits="userSpaceOnUse">
<stop stop-color="white" stop-opacity="0"/>
<stop offset="1" stop-color="white"/>
</linearGradient>
<linearGradient id="paint4_linear_1915_27450" x1="61.1466" y1="26.8723" x2="61.1466" y2="-35.1129" gradientUnits="userSpaceOnUse">
<stop stop-color="white" stop-opacity="0"/>
<stop offset="1" stop-color="white"/>
</linearGradient>
<linearGradient id="paint5_linear_1915_27450" x1="79.1629" y1="26.8723" x2="79.1629" y2="-35.1129" gradientUnits="userSpaceOnUse">
<stop stop-color="white" stop-opacity="0"/>
<stop offset="1" stop-color="white"/>
</linearGradient>
<linearGradient id="paint6_linear_1915_27450" x1="91.2824" y1="26.872" x2="91.2824" y2="-35.1132" gradientUnits="userSpaceOnUse">
<stop stop-color="white" stop-opacity="0"/>
<stop offset="1" stop-color="white"/>
</linearGradient>
<linearGradient id="paint7_linear_1915_27450" x1="101.905" y1="26.8723" x2="101.905" y2="-35.1128" gradientUnits="userSpaceOnUse">
<stop stop-color="white" stop-opacity="0"/>
<stop offset="1" stop-color="white"/>
</linearGradient>
</defs>
</svg>
