<svg width="137" height="30" viewBox="0 0 137 30" fill="none" xmlns="http://www.w3.org/2000/svg">
<path d="M17.0532 18.6663C17.0532 17.2877 16.7642 15.9813 16.2484 14.8108C16.7642 13.6398 17.0532 12.3343 17.0532 10.9563C17.0532 6.67079 14.2667 3.07843 10.5175 2.12267V2.12061C10.5175 0.949072 9.62475 0 8.52515 0C7.427 0 6.53669 0.949072 6.53669 2.12009V2.12267C2.7879 3.07843 0 6.67028 0 10.9563C0 12.3343 0.290487 13.6403 0.805244 14.8108C0.290004 15.9808 0.00048334 17.2877 0.00048334 18.6663C0.00048334 22.9528 2.78887 26.5426 6.5391 27.4978V27.5014C6.5391 28.6714 7.42797 29.6215 8.52563 29.6215C9.62571 29.6215 10.5175 28.672 10.5175 27.5014V27.4978C14.2663 26.5421 17.0532 22.9528 17.0532 18.6663ZM8.52515 24.2793C5.61593 24.2793 3.25626 21.7653 3.25626 18.6658C3.25626 18.4809 3.26448 18.2981 3.28139 18.1189C4.31091 18.9747 5.53037 19.5839 6.85714 19.8651C7.21916 20.4341 7.83107 20.808 8.52466 20.808C9.22261 20.808 9.83258 20.4336 10.1936 19.8651C10.4126 19.5211 10.5392 19.1102 10.5392 18.6652C10.5392 17.6116 9.8263 16.7357 8.8862 16.5544C8.7702 16.5323 8.6484 16.5199 8.52466 16.5199C8.4048 16.5199 8.283 16.5323 8.16651 16.5544C6.80011 16.4566 5.58064 15.8057 4.69806 14.8103C3.91457 13.9286 3.39595 12.7787 3.28091 11.5027C3.26399 11.3224 3.25384 11.1406 3.25384 10.9558C3.25384 7.85469 5.61544 5.34168 8.52466 5.34168C11.4373 5.34168 13.7955 7.85469 13.7955 10.9558C13.7955 11.1406 13.7858 11.3224 13.7704 11.5027C12.7404 10.6453 11.5233 10.0371 10.1961 9.75541C9.83307 9.18535 9.22309 8.81148 8.52515 8.81148C7.83107 8.81148 7.22158 9.18535 6.85956 9.75541C6.64109 10.0984 6.51445 10.5103 6.51445 10.9553C6.51445 12.0078 7.22786 12.8833 8.16748 13.064C8.28396 13.0872 8.40576 13.1001 8.52563 13.1001C8.64937 13.1001 8.77117 13.0872 8.88717 13.064C10.2512 13.1639 11.473 13.8154 12.358 14.8103C13.1367 15.6908 13.6563 16.8402 13.7713 18.1189C13.7887 18.2976 13.7994 18.4809 13.7994 18.6658C13.7984 21.7653 11.4378 24.2793 8.52515 24.2793Z" fill="#EFC52E"/>
<path d="M27.346 11.7082L30.6584 11.1633L29.8478 14.6913H33.3926L32.7546 17.4675H29.2291L28.2871 21.6551C28.2025 22.0027 28.1484 22.3302 28.1266 22.6341C28.1058 22.9353 28.1392 23.1974 28.2349 23.4189C28.3272 23.6382 28.4867 23.8082 28.7134 23.9307C28.942 24.0523 29.2557 24.1125 29.6535 24.1125C29.9981 24.1125 30.3282 24.0796 30.6482 24.0095C30.9711 23.9436 31.2901 23.8483 31.6202 23.7248L31.8546 26.3191C31.4278 26.488 30.9648 26.6302 30.467 26.7543C29.9691 26.8737 29.3775 26.933 28.6955 26.933C27.711 26.933 26.9497 26.7795 26.4069 26.4674C25.8651 26.1554 25.4813 25.73 25.2527 25.1929C25.0255 24.6548 24.9264 24.0368 24.9564 23.3385C24.9849 22.6402 25.084 21.9028 25.2527 21.1314L27.346 11.7082Z" fill="#EFC52E"/>
<path d="M45.1619 14.6914L43.6466 21.4966C43.4441 22.3592 43.3905 23.2284 43.4736 24.1008C43.5601 24.9752 43.7254 25.7512 43.9666 26.4341L41.1265 26.8656C40.9689 26.5335 40.8181 26.1611 40.678 25.7512C40.2807 26.0844 39.8307 26.3661 39.3304 26.5932C38.8326 26.8203 38.2782 26.9331 37.6682 26.9331C36.8228 26.9331 36.1437 26.7719 35.6242 26.4454C35.1046 26.1189 34.716 25.6879 34.4617 25.1498C34.2046 24.6096 34.0644 23.9921 34.047 23.2923C34.0243 22.595 34.0973 21.8798 34.2684 21.1526L35.7218 14.6909H38.9036L37.4729 21.1089C37.399 21.442 37.3415 21.783 37.2917 22.1326C37.2414 22.4823 37.2371 22.8046 37.2806 23.1002C37.3226 23.3953 37.4309 23.6384 37.6116 23.8289C37.7876 24.0184 38.0703 24.1126 38.4551 24.1126C38.7813 24.1126 39.0849 24.0467 39.3623 23.9195C39.6422 23.7913 39.9365 23.5688 40.2502 23.2485C40.2802 22.8695 40.3232 22.4725 40.388 22.0538C40.4556 21.6362 40.5218 21.2515 40.5929 20.9039L41.9796 14.6919H45.1619V14.6914Z" fill="#EFC52E"/>
<path d="M46.6582 21.88C46.6582 20.8511 46.8148 19.8789 47.1285 18.9705C47.4412 18.0585 47.8907 17.2618 48.4741 16.5795C49.0594 15.8962 49.767 15.3575 50.6013 14.9631C51.4336 14.5701 52.3616 14.3708 53.3882 14.3708C54.0311 14.3708 54.6029 14.4357 55.107 14.5655C55.614 14.6922 56.0717 14.8632 56.4845 15.0769L55.396 17.7155C55.1108 17.5935 54.8179 17.4858 54.5081 17.3854C54.2046 17.2886 53.8305 17.2392 53.3882 17.2392C52.3196 17.2392 51.4781 17.6233 50.8671 18.3881C50.2543 19.1528 49.9493 20.1971 49.9493 21.5175C49.9493 22.292 50.1054 22.9171 50.4191 23.395C50.7352 23.8729 51.3099 24.1118 52.1494 24.1118C52.5632 24.1118 52.9619 24.0681 53.3447 23.9738C53.7295 23.8827 54.0722 23.7699 54.3713 23.6355L54.6058 26.3401C54.2089 26.509 53.7696 26.6568 53.292 26.786C52.8126 26.9153 52.2355 26.9802 51.5515 26.9802C50.669 26.9802 49.9183 26.8432 49.3079 26.5682C48.6955 26.2963 48.1928 25.9281 47.7936 25.4636C47.3953 25.0012 47.1063 24.4594 46.9274 23.8394C46.7496 23.2168 46.6582 22.5659 46.6582 21.88Z" fill="#1C3044"/>
<path d="M66.5917 21.4954C66.396 22.359 66.3365 23.2283 66.4211 24.1006C66.5052 24.975 66.6671 25.751 66.9098 26.4339L64.0706 26.867C63.9832 26.6831 63.9073 26.5096 63.8352 26.3407C63.7652 26.1764 63.6912 25.9869 63.6202 25.7753C63.2219 26.1239 62.7806 26.4097 62.2953 26.6378C61.81 26.867 61.2731 26.9808 60.6732 26.9808C59.9637 26.9808 59.3503 26.8479 58.8472 26.5817C58.3402 26.3175 57.9274 25.9606 57.6084 25.5121C57.2865 25.0651 57.054 24.5419 56.9162 23.9435C56.7722 23.3452 56.6992 22.7004 56.6992 22.0202C56.6992 20.9722 56.8742 19.9861 57.2251 19.0607C57.5716 18.1348 58.0574 17.3273 58.6766 16.6363C59.2957 15.9467 60.0241 15.4045 60.8656 15.009C61.7052 14.615 62.6192 14.4163 63.6008 14.4163C63.7275 14.4163 63.9537 14.4255 64.2707 14.4394C64.5946 14.4544 64.9609 14.4873 65.3727 14.5404C65.786 14.5965 66.2191 14.682 66.6773 14.803C67.1321 14.9245 67.5642 15.0914 67.9784 15.3041L66.5917 21.4954ZM64.3669 17.3067C64.1837 17.2774 64.017 17.2547 63.8681 17.2398C63.7188 17.2228 63.5399 17.2146 63.3229 17.2146C62.8376 17.2146 62.3857 17.3464 61.9662 17.6028C61.5442 17.8593 61.1793 18.1981 60.8656 18.6163C60.5539 19.0334 60.3059 19.5149 60.1271 20.0618C59.9511 20.6076 59.8617 21.1767 59.8617 21.7694C59.8617 22.497 59.9758 23.0748 60.202 23.4986C60.4301 23.9229 60.8521 24.1356 61.464 24.1356C61.7941 24.1356 62.086 24.0687 62.3504 23.9307C62.6119 23.7937 62.8956 23.5666 63.1939 23.2478C63.2224 22.8673 63.2688 22.4708 63.335 22.0531C63.3988 21.6345 63.4636 21.2508 63.5399 20.9032L64.3669 17.3067Z" fill="#1C3044"/>
<path d="M71.4175 15.2373C71.6625 15.1616 71.9182 15.0731 72.199 14.9747C72.476 14.8769 72.7887 14.7857 73.1372 14.7002C73.4881 14.6189 73.8782 14.5509 74.3132 14.4958C74.7453 14.4438 75.2513 14.417 75.8202 14.417C76.5032 14.417 77.0682 14.5071 77.5187 14.6915C77.9648 14.8722 78.3757 15.1462 78.7449 15.5087C79.2737 15.1905 79.7972 14.9278 80.3197 14.7229C80.8369 14.52 81.4449 14.417 82.1414 14.417C82.8108 14.417 83.386 14.5123 83.8611 14.7002C84.3372 14.8902 84.7326 15.1632 85.0492 15.5221C85.3619 15.879 85.5871 16.3043 85.7312 16.7966C85.8742 17.2889 85.9438 17.8291 85.9438 18.4239C85.9438 18.6968 85.9274 18.9857 85.8926 19.287C85.8559 19.5908 85.8032 19.8951 85.7312 20.1979L84.2787 26.6612H81.0959L82.5063 20.3354C82.5464 20.1217 82.5938 19.8828 82.646 19.6165C82.6924 19.3524 82.7171 19.0887 82.7171 18.8312C82.7171 18.4074 82.6252 18.0403 82.4401 17.7287C82.2569 17.4177 81.8949 17.2616 81.3516 17.2616C81.0524 17.2616 80.7701 17.3188 80.499 17.4321C80.2274 17.5464 79.9886 17.6638 79.7706 17.7828C79.8006 17.9058 79.8146 18.0191 79.8146 18.1273V18.4234C79.8146 18.6963 79.7981 18.9852 79.7619 19.2865C79.7237 19.5903 79.6734 19.8946 79.5985 20.1974L78.1499 26.6607H74.9642L76.3766 20.3349C76.4177 20.1212 76.4631 19.8823 76.5153 19.616C76.5627 19.3519 76.5912 19.0882 76.5912 18.8307C76.5912 18.4069 76.4974 18.0397 76.3113 17.7282C76.1262 17.4172 75.7622 17.2611 75.2238 17.2611C74.9923 17.2611 74.8018 17.2719 74.6457 17.2956C74.4862 17.3183 74.304 17.3528 74.0913 17.396L72.0197 26.6607H68.8359L71.4175 15.2373Z" fill="#1C3044"/>
<path d="M94.5781 14.4421C95.2591 14.4421 95.8483 14.5683 96.3476 14.8268C96.8455 15.0843 97.2582 15.4324 97.5874 15.8732C97.9136 16.3135 98.1563 16.8284 98.3148 17.4206C98.4724 18.0128 98.5483 18.6519 98.5483 19.3342C98.5483 20.3806 98.3651 21.3693 98.004 22.3045C97.641 23.235 97.1471 24.0502 96.5197 24.7387C95.8904 25.4283 95.1504 25.9752 94.2977 26.3773C93.4432 26.7785 92.5181 26.9804 91.518 26.9804C91.3924 26.9804 91.1671 26.9757 90.8472 26.9675C90.5262 26.9598 90.1613 26.9268 89.7475 26.8645C89.3348 26.8042 88.8944 26.7141 88.4348 26.5926C87.9679 26.4711 87.5324 26.3032 87.1172 26.0915L90.8124 9.54534L94.1276 9L92.8013 14.8716C93.0875 14.7341 93.3721 14.6295 93.6554 14.5528C93.9425 14.4776 94.246 14.4421 94.5781 14.4421ZM91.7964 24.1805C92.2972 24.1805 92.7675 24.0523 93.2078 23.7948C93.6457 23.5363 94.0295 23.1897 94.35 22.7592C94.6738 22.3272 94.9246 21.8364 95.1083 21.2895C95.2944 20.7447 95.3872 20.1752 95.3872 19.584C95.3872 18.8553 95.2722 18.2847 95.0445 17.8764C94.8159 17.4675 94.3963 17.262 93.7844 17.262C93.5848 17.262 93.3257 17.3017 93.0048 17.3769C92.6839 17.452 92.3977 17.6101 92.1387 17.8532L90.7302 24.0904C90.8124 24.1058 90.8897 24.1213 90.9535 24.1362C91.0173 24.1517 91.0864 24.1615 91.1579 24.1712C91.228 24.1759 91.3121 24.181 91.4132 24.181H91.7964V24.1805Z" fill="#1C3044"/>
<path d="M102.782 26.6623H99.6172L102.289 14.6921H105.47L102.782 26.6623ZM104.32 13.2347C103.876 13.2347 103.478 13.0941 103.12 12.813C102.764 12.5333 102.588 12.1044 102.588 11.5256C102.588 11.2078 102.645 10.9092 102.77 10.6275C102.887 10.3473 103.046 10.1043 103.248 9.89932C103.449 9.69385 103.677 9.53164 103.94 9.41062C104.205 9.28858 104.489 9.22729 104.789 9.22729C105.228 9.22729 105.626 9.36839 105.983 9.64802C106.338 9.93125 106.519 10.3597 106.519 10.9339C106.519 11.2521 106.456 11.5544 106.336 11.833C106.212 12.1162 106.054 12.3562 105.854 12.5617C105.655 12.7666 105.424 12.9293 105.16 13.0514C104.897 13.1724 104.618 13.2347 104.32 13.2347Z" fill="#1C3044"/>
<path d="M109.529 24.2485C110.252 24.2485 110.753 24.1409 111.022 23.919C111.293 23.6986 111.427 23.4612 111.427 23.2032C111.427 23.0363 111.403 22.8921 111.352 22.7711C111.303 22.6485 111.223 22.5342 111.11 22.4281C110.994 22.3221 110.838 22.2113 110.64 22.0981C110.437 21.9832 110.181 21.8524 109.868 21.7015C109.514 21.5326 109.175 21.356 108.863 21.1655C108.551 20.9749 108.277 20.7478 108.039 20.4816C107.808 20.2174 107.624 19.9131 107.488 19.5722C107.35 19.2308 107.284 18.8244 107.284 18.3548C107.284 17.1246 107.706 16.1528 108.556 15.4422C109.402 14.7284 110.639 14.3716 112.26 14.3716C113.029 14.3716 113.715 14.4622 114.311 14.6425C114.908 14.8258 115.394 15.023 115.762 15.2367L114.676 17.7626C114.376 17.5937 113.992 17.4351 113.521 17.2847C113.051 17.1328 112.587 17.0571 112.134 17.0571C111.934 17.0571 111.737 17.0684 111.543 17.0916C111.351 17.1122 111.172 17.1632 111.009 17.2399C110.847 17.3156 110.714 17.4207 110.617 17.5566C110.516 17.6957 110.466 17.8764 110.466 18.103C110.466 18.4073 110.574 18.636 110.794 18.7874C111.016 18.9393 111.329 19.1211 111.726 19.3343C112.281 19.6206 112.746 19.8868 113.116 20.1299C113.486 20.3729 113.783 20.6309 114 20.9013C114.223 21.1773 114.381 21.4873 114.482 21.837C114.582 22.1856 114.632 22.5955 114.632 23.0646C114.632 23.5513 114.536 24.0292 114.344 24.4993C114.149 24.9695 113.849 25.3871 113.437 25.7522C113.025 26.1147 112.494 26.4129 111.856 26.6379C111.215 26.865 110.446 26.9809 109.55 26.9809C108.993 26.9809 108.491 26.9428 108.039 26.8656C107.593 26.7899 107.199 26.6967 106.857 26.5818C106.514 26.468 106.226 26.3506 105.991 26.2291C105.755 26.1086 105.576 26.0102 105.447 25.933L106.534 23.3396C106.778 23.491 107.156 23.6805 107.669 23.9081C108.18 24.1358 108.802 24.2485 109.529 24.2485Z" fill="#1C3044"/>
<path d="M119.462 11.7082L122.772 11.1633L121.961 14.6913H125.507L124.867 17.4675H121.341L120.402 21.6551C120.316 22.0027 120.263 22.3302 120.241 22.6341C120.221 22.9353 120.255 23.1974 120.348 23.4189C120.442 23.6382 120.602 23.8082 120.828 23.9307C121.056 24.0523 121.369 24.1125 121.77 24.1125C122.109 24.1125 122.442 24.0796 122.761 24.0095C123.083 23.9436 123.404 23.8483 123.734 23.7248L123.969 26.3191C123.541 26.488 123.079 26.6302 122.58 26.7543C122.081 26.8737 121.492 26.933 120.81 26.933C119.826 26.933 119.063 26.7795 118.521 26.4674C117.979 26.1554 117.595 25.73 117.367 25.1929C117.141 24.6548 117.04 24.0368 117.07 23.3385C117.097 22.6402 117.198 21.9028 117.367 21.1314L119.462 11.7082Z" fill="#1C3044"/>
<path d="M135.613 21.4954C135.415 22.359 135.355 23.2283 135.442 24.1006C135.527 24.975 135.689 25.751 135.929 26.4339L133.092 26.867C133.008 26.6831 132.927 26.5096 132.857 26.3407C132.787 26.1764 132.714 25.9869 132.642 25.7753C132.245 26.1239 131.804 26.4097 131.32 26.6378C130.834 26.867 130.292 26.9808 129.693 26.9808C128.982 26.9808 128.375 26.8479 127.866 26.5817C127.362 26.3175 126.951 25.9606 126.627 25.5121C126.307 25.0651 126.078 24.5419 125.934 23.9435C125.795 23.3452 125.723 22.7004 125.723 22.0202C125.723 20.9722 125.894 19.9861 126.242 19.0607C126.592 18.1348 127.078 17.3273 127.698 16.6363C128.317 15.9467 129.048 15.4045 129.889 15.009C130.728 14.615 131.638 14.4163 132.62 14.4163C132.748 14.4163 132.973 14.4255 133.294 14.4394C133.616 14.4544 133.983 14.4873 134.394 14.5404C134.806 14.5965 135.242 14.682 135.695 14.803C136.152 14.9245 136.586 15.0914 137 15.3041L135.613 21.4954ZM133.389 17.3067C133.205 17.2774 133.038 17.2547 132.891 17.2398C132.74 17.2228 132.558 17.2146 132.342 17.2146C131.86 17.2146 131.408 17.3464 130.988 17.6028C130.565 17.8593 130.199 18.1981 129.889 18.6163C129.572 19.0334 129.329 19.5149 129.148 20.0618C128.973 20.6076 128.883 21.1767 128.883 21.7694C128.883 22.497 128.998 23.0748 129.224 23.4986C129.452 23.9229 129.872 24.1356 130.486 24.1356C130.811 24.1356 131.108 24.0687 131.37 23.9307C131.634 23.7937 131.92 23.5666 132.215 23.2478C132.246 22.8673 132.291 22.4708 132.353 22.0531C132.419 21.6345 132.486 21.2508 132.559 20.9032L133.389 17.3067Z" fill="#1C3044"/>
</svg>
