<svg width="167" height="89" viewBox="0 0 167 89" fill="none" xmlns="http://www.w3.org/2000/svg">
<g clip-path="url(#clip0_2091_31850)">
<path d="M37.8628 0C16.9515 0 0 19.9224 0 44.5C0 69.0776 16.9515 89 37.8628 89C58.7742 89 75.7257 69.0776 75.7257 44.5C75.7257 19.9224 58.7742 0 37.8628 0Z" fill="#252D1C"/>
<path d="M53.4759 73.604C53.6499 73.014 53.7318 72.7686 53.7561 72.6781C53.9672 72.6387 54.1754 72.5852 54.3793 72.518C55.7698 72.0424 57.0323 71.2534 58.0693 70.2122C58.3095 69.932 58.534 69.6623 58.7464 69.3925C59.8865 67.9481 60.661 66.549 61.7611 63.916C62.3911 62.4054 63.8167 56.412 64.3023 52.3189C64.459 50.9876 65.0925 45.4414 64.1752 41.9227C63.7453 40.2694 63.2806 39.9597 63.3711 38.9642C63.4616 37.9688 63.6409 30.6684 63.6409 28.3487C63.9646 21.0727 61.0788 13.6784 55.5019 8.70124C55.4201 8.62641 55.3383 8.55331 55.253 8.48022C55.1677 8.40713 55.0877 8.33752 55.0024 8.26791C54.9171 8.1983 54.8858 8.16698 54.8283 8.11825C49.4064 3.64232 41.6434 1.37304 31.9588 3.40391H31.9501C29.8533 3.8553 27.8209 4.56616 25.8999 5.52006C22.356 7.26031 19.6982 10.1648 19.223 14.1778C18.5685 19.7101 20.2969 25.218 20.0672 30.745C19.9332 34.0411 17.9785 35.6177 16.184 38.1324C16.1718 38.1498 16.1613 38.1672 16.1491 38.1829C14.3842 40.346 11.9526 43.287 11.3782 44.8306C7.25476 53.3004 14.4834 57.3361 14.5112 57.3465L14.2919 62.5029L14.466 64.8192C15.1831 70.6664 17.9367 76.2735 22.45 80.297C22.5266 80.3666 22.6032 80.4362 22.6815 80.5041C22.7599 80.5719 22.866 80.6607 22.96 80.739C23.0105 80.7825 23.061 80.826 23.1132 80.8678C27.2279 84.2665 32.6864 86.3948 39.3197 86.3356H39.4625C39.5617 86.3356 39.6626 86.3356 39.7619 86.3356H39.8767H39.9046C40.3972 86.3182 40.8863 86.2747 41.3893 86.2225C41.846 86.1563 42.2987 86.0645 42.7452 85.9476C43.5642 85.7411 44.3665 85.4735 45.1455 85.147C45.9154 84.8247 46.6552 84.4345 47.356 83.9811C47.9961 83.57 48.5922 83.0941 49.1349 82.561C49.5082 82.1938 49.851 81.7969 50.1601 81.3742C50.3167 81.1601 50.4716 80.9235 50.6231 80.6781C51.026 79.9932 51.3853 79.2835 51.6988 78.5532C52.0469 77.7666 52.3654 76.9365 52.6526 76.1291C52.9589 75.2746 53.2287 74.448 53.4498 73.7275C53.4602 73.6962 53.4672 73.6683 53.4776 73.6388" fill="white"/>
<path d="M129.136 0H128.92H55.3145C60.0419 2.47986 64.2906 5.91686 67.9511 10.2153C71.8253 14.7998 74.8386 20.047 76.8454 25.7035C79.003 31.7341 80.0966 38.0935 80.0777 44.4983C80.0966 50.903 79.003 57.2624 76.8454 63.293C74.8404 68.9498 71.8289 74.1975 67.9563 78.783C64.3011 83.0866 60.0471 86.5184 55.3197 88.9983H128.925H129.141C150.047 89 166.995 69.0776 166.995 44.5C166.995 19.9224 150.047 0 129.136 0Z" fill="#FFDF4C"/>
<path d="M86.833 29.4657C87.7273 29.9971 88.7518 30.2694 89.792 30.2523C92.2787 30.2523 94.0367 29.1397 95.0659 26.9145L93.2366 26.0444C92.5844 27.512 91.4681 28.2452 89.8877 28.2441C89.419 28.2601 88.9529 28.1683 88.5253 27.9758C88.0977 27.7834 87.72 27.4953 87.4213 27.1338C86.7982 26.3948 86.486 25.44 86.4849 24.2693C86.4784 23.6121 86.6206 22.9618 86.9009 22.3673C87.1579 21.8074 87.5637 21.3289 88.074 20.9838C88.5819 20.6439 89.1809 20.4661 89.792 20.4739C90.5011 20.4631 91.1934 20.6897 91.7588 21.1178C92.3263 21.5459 92.6523 22.1677 92.737 22.9833H94.6934V18.744H92.737V19.5515C91.8621 18.8141 90.7481 18.4211 89.604 18.4465C88.6211 18.4342 87.6539 18.6931 86.8086 19.1948C85.9711 19.6955 85.2885 20.4183 84.8365 21.2831C84.3518 22.1993 84.1047 23.2225 84.1177 24.2589C84.1049 25.3144 84.3473 26.3574 84.8243 27.2991C85.2767 28.1958 85.973 28.9468 86.833 29.4657Z" fill="#252D1C"/>
<path d="M97.8773 26.0741C97.8773 27.5208 98.1273 28.5557 98.6275 29.1787C99.1276 29.8017 99.9016 30.1132 100.949 30.1132C102.11 30.1132 103.336 29.6207 104.629 28.6357V29.9218H108.742V27.9675H106.827V18.7441H102.65V20.7106H104.627V26.758C103.478 27.7151 102.411 28.1937 101.426 28.1937C100.945 28.1937 100.6 28.0591 100.391 27.79C100.182 27.5208 100.077 27.0991 100.076 26.5248V18.7441H96.3125V20.7106H97.879L97.8773 26.0741Z" fill="#252D1C"/>
<path d="M118.834 13.6387H115.655L114.018 17.2949H115.516L118.834 13.6387Z" fill="#252D1C"/>
<path d="M114.357 22.9814C113.684 22.9857 113.019 23.1378 112.411 23.4269C111.793 23.7026 111.261 24.1418 110.874 24.6973C110.494 25.2488 110.295 25.9052 110.305 26.575C110.3 27.2068 110.482 27.826 110.827 28.3553C111.17 28.8904 111.641 29.3308 112.199 29.6361C112.774 29.956 113.422 30.1203 114.08 30.1129C115.385 30.1129 116.568 29.5908 117.631 28.5467V29.918H121.436V27.9672H119.565V22.6942C119.565 21.2266 119.217 20.1529 118.521 19.473C117.824 18.7932 116.731 18.4532 115.241 18.4532C114.241 18.427 113.25 18.6513 112.359 19.1058C111.537 19.5618 110.871 20.2526 110.444 21.0897L112.549 21.6118C112.783 21.1991 113.127 20.8589 113.543 20.6286C114.006 20.3985 114.519 20.2872 115.036 20.3049C115.881 20.3049 116.487 20.4922 116.855 20.867C117.223 21.2417 117.407 21.8653 117.408 22.7377V23.9403C116.513 23.3162 115.448 22.9816 114.357 22.9814ZM117.408 27.0727C116.465 27.9742 115.455 28.4243 114.378 28.4231C113.852 28.4445 113.34 28.2568 112.952 27.9011C112.772 27.7319 112.63 27.5264 112.535 27.2981C112.439 27.0698 112.394 26.8239 112.401 26.5767C112.395 26.3145 112.45 26.0545 112.559 25.8161C112.668 25.5778 112.83 25.3672 113.033 25.2002C113.449 24.838 113.985 24.6433 114.536 24.6538C115.494 24.6538 116.451 25.0256 117.408 25.7693V27.0727Z" fill="#252D1C"/>
<path d="M135.195 29.9219V27.9676H133.324V22.4075C133.324 21.1035 133.085 20.1434 132.607 19.5274C132.128 18.9113 131.39 18.6027 130.391 18.6016C129.184 18.6016 127.897 19.1016 126.53 20.1017V18.7443H122.395V20.7107H124.361V27.9676H122.395V29.9236H128.455V27.9676H126.53V22.0246C127.75 21.0605 128.849 20.5785 129.827 20.5785C130.286 20.5785 130.619 20.7316 130.821 21.0362C131.023 21.3407 131.124 21.8437 131.124 22.545V29.9219H135.195Z" fill="#252D1C"/>
<path d="M137.789 27.0307C137.789 28.1566 137.991 28.9537 138.395 29.4166C138.799 29.8795 139.462 30.1127 140.383 30.1127C140.943 30.0883 141.498 29.9882 142.031 29.8151V27.8277C141.655 27.9596 141.26 28.0278 140.861 28.0296C140.736 28.0422 140.609 28.0241 140.492 27.9768C140.375 27.9295 140.271 27.8545 140.19 27.7581C140.06 27.5783 139.994 27.1832 139.993 26.573V20.717H142.035V18.7436H139.993V15.0508L137.793 17.0608V18.7436H136.336V20.7101H137.793L137.789 27.0307Z" fill="#252D1C"/>
<path d="M154.514 21.409C154.013 20.5192 153.286 19.7769 152.408 19.2563C151.504 18.7181 150.468 18.4405 149.416 18.454C148.353 18.4356 147.304 18.6973 146.375 19.2128C145.497 19.7054 144.774 20.4328 144.286 21.3133C143.777 22.2445 143.518 23.2922 143.536 24.3535C143.525 25.3935 143.784 26.4187 144.286 27.3293C144.778 28.22 145.504 28.9591 146.385 29.4664C147.307 29.9958 148.353 30.2675 149.416 30.253C150.455 30.2628 151.478 29.991 152.375 29.4664C153.256 28.9526 153.986 28.2154 154.491 27.3293C155.009 26.4238 155.277 25.3966 155.266 24.3535C155.278 23.323 155.019 22.3075 154.514 21.409ZM152.493 26.2277C152.198 26.791 151.758 27.2646 151.217 27.5991C150.678 27.9399 150.053 28.1193 149.416 28.1159C148.777 28.1197 148.151 27.943 147.609 27.606C147.06 27.2705 146.611 26.7932 146.311 26.2243C146.001 25.6496 145.84 25.0063 145.844 24.3535C145.84 23.7007 146.001 23.0574 146.311 22.4827C146.609 21.9133 147.053 21.433 147.597 21.0905C148.133 20.747 148.758 20.5657 149.395 20.5684C150.039 20.5606 150.671 20.7422 151.212 21.0905C151.752 21.4348 152.192 21.9149 152.488 22.4827C152.792 23.0553 152.95 23.6946 152.946 24.3431C152.954 24.9991 152.798 25.6468 152.493 26.2277Z" fill="#252D1C"/>
<path d="M87.087 52.0528C88.0776 52.5685 89.1818 52.8276 90.2984 52.8064C91.4159 52.8169 92.5206 52.5679 93.5255 52.0789C94.5091 51.5983 95.3392 50.8528 95.9222 49.9263L93.9885 49.0561C93.5956 49.6581 93.0479 50.1432 92.4028 50.4605C91.7631 50.7669 91.0617 50.9229 90.3524 50.9165C89.4138 50.9419 88.5008 50.609 87.7989 49.9854C87.1027 49.3659 86.6879 48.5207 86.5544 47.4499H95.9205C95.9096 46.2601 95.63 45.0881 95.1024 44.0216C94.6389 43.0968 93.9217 42.323 93.0346 41.7906C92.0998 41.2531 91.0354 40.9823 89.9573 41.0075C88.9212 40.9962 87.9005 41.2585 86.9983 41.768C86.1142 42.2647 85.3837 42.9949 84.887 43.8789C84.3668 44.803 84.1007 45.8484 84.1159 46.9087C84.1002 47.9731 84.3701 49.0223 84.8974 49.9471C85.4129 50.8424 86.1723 51.5727 87.087 52.0528ZM87.8216 43.6718C88.4153 43.1264 89.1946 42.8277 90.0008 42.8365C90.8454 42.8259 91.6651 43.1228 92.3071 43.6718C92.9802 44.2376 93.4416 45.0149 93.616 45.8767H86.6206C86.7607 45.0273 87.184 44.2503 87.8216 43.6718Z" fill="#252D1C"/>
<path d="M97.707 48.6498V52.4783H99.6634V51.8727C100.057 52.1229 100.485 52.3146 100.934 52.4418C101.436 52.5929 101.957 52.6697 102.481 52.6698C103.798 52.6698 104.856 52.3583 105.655 51.7352C106.038 51.448 106.346 51.073 106.554 50.6418C106.762 50.2106 106.864 49.7357 106.85 49.2571C106.85 47.5006 105.748 46.4199 103.543 46.015L102.065 45.7279C101.087 45.5724 100.458 45.392 100.177 45.1867C100.042 45.0906 99.9331 44.9626 99.8599 44.814C99.7867 44.6655 99.7515 44.5012 99.7574 44.3357C99.7572 44.1373 99.808 43.9422 99.905 43.7691C100.002 43.596 100.142 43.4507 100.311 43.3472C100.735 43.0766 101.232 42.943 101.735 42.9644C102.251 42.9512 102.762 43.0704 103.219 43.3104C103.676 43.5504 104.064 43.9034 104.346 44.3357V45.0214H106.26V41.3059H104.346V41.7827C103.615 41.3651 102.714 41.1563 101.644 41.1563C101.006 41.1562 100.374 41.2828 99.7853 41.5287C99.2011 41.7614 98.6889 42.1445 98.3006 42.6389C97.909 43.1483 97.7049 43.777 97.7227 44.4192C97.7083 44.8063 97.7703 45.1925 97.9053 45.5556C98.0403 45.9187 98.2456 46.2517 98.5094 46.5354C99.0328 47.0865 99.8584 47.4763 100.986 47.7048L102.123 47.9485C103.108 48.1399 103.764 48.3261 104.09 48.5071C104.241 48.5807 104.368 48.6967 104.455 48.8409C104.542 48.9852 104.585 49.1515 104.579 49.3198C104.589 49.5451 104.537 49.7688 104.428 49.9665C104.319 50.1641 104.158 50.3281 103.963 50.4405C103.552 50.6934 102.989 50.8193 102.273 50.8181C101.664 50.8314 101.065 50.661 100.555 50.3291C100.324 50.1866 100.125 49.9979 99.97 49.7747C99.8154 49.5516 99.7087 49.299 99.6565 49.0326V48.6498H97.707Z" fill="#252D1C"/>
<path d="M108.404 43.2824H109.861V49.596C109.861 50.7226 110.063 51.5178 110.467 51.9819C110.871 52.446 111.533 52.678 112.455 52.678C113.015 52.6536 113.569 52.5536 114.103 52.3804V50.3844C113.727 50.518 113.332 50.588 112.933 50.5914C112.807 50.6045 112.68 50.5866 112.562 50.5393C112.444 50.492 112.34 50.4167 112.258 50.32C112.128 50.139 112.062 49.7439 112.061 49.1349V43.2824H114.103V41.3159H112.061V37.6074L109.861 39.6157V41.3072H108.404V43.2824Z" fill="#252D1C"/>
<path d="M119.578 39.8496H121.077L124.394 36.1934H121.214L119.578 39.8496Z" fill="#252D1C"/>
<path d="M123.192 51.1135V52.4848H126.999V50.5218H125.127V45.2506C125.127 43.7841 124.779 42.7104 124.083 42.0294C123.387 41.3483 122.294 41.0078 120.804 41.0078C119.804 40.9821 118.814 41.2071 117.923 41.6622C117.098 42.1159 116.427 42.8063 115.998 43.6443L118.104 44.1664C118.338 43.7533 118.682 43.413 119.098 43.1832C119.561 42.9517 120.074 42.8398 120.591 42.8577C121.435 42.8577 122.041 43.0457 122.409 43.4216C122.776 43.7975 122.961 44.4211 122.962 45.2923V46.4931C122.067 45.8748 121.005 45.5439 119.918 45.5447C119.244 45.5492 118.58 45.7013 117.972 45.9902C117.354 46.2659 116.823 46.7052 116.437 47.2606C116.057 47.8116 115.858 48.4673 115.868 49.1366C115.864 49.7683 116.045 50.3873 116.39 50.9168C116.733 51.4516 117.204 51.8919 117.761 52.1977C118.338 52.518 118.988 52.6829 119.648 52.6762C120.947 52.6716 122.128 52.1507 123.192 51.1135ZM117.961 49.1366C117.956 48.8742 118.011 48.6141 118.121 48.3757C118.23 48.1373 118.392 47.9269 118.595 47.76C119.011 47.3971 119.547 47.2023 120.099 47.2136C121.056 47.2136 122.013 47.5854 122.969 48.3291V49.636C122.026 50.5351 121.016 50.9853 119.939 50.9865C119.679 50.9972 119.419 50.9566 119.175 50.867C118.931 50.7775 118.706 50.6406 118.515 50.4644C118.333 50.294 118.19 50.0868 118.094 49.8566C117.999 49.6265 117.954 49.3786 117.961 49.1296V49.1366Z" fill="#252D1C"/>
<path d="M145.124 44.0216C144.661 43.0968 143.943 42.323 143.056 41.7906C142.122 41.2529 141.057 40.982 139.979 41.0075C138.943 40.9962 137.922 41.2585 137.02 41.768C136.137 42.2657 135.407 42.9957 134.909 43.8789C134.389 44.8032 134.124 45.8486 134.139 46.9087C134.123 47.9732 134.393 49.0227 134.921 49.9472C135.435 50.842 136.192 51.5724 137.105 52.0529C138.095 52.5687 139.199 52.8278 140.315 52.8064C141.432 52.817 142.537 52.568 143.542 52.079C144.526 51.5979 145.356 50.8525 145.941 49.9263L144.005 49.0562C143.613 49.6584 143.066 50.1436 142.421 50.4606C141.781 50.7667 141.079 50.9227 140.369 50.9165C139.431 50.9416 138.519 50.6094 137.817 49.9872C137.121 49.3677 136.706 48.5225 136.573 47.4517H145.941C145.93 46.2615 145.651 45.0891 145.124 44.0216ZM136.641 45.8767C136.782 45.0277 137.205 44.2509 137.842 43.6718C138.436 43.1267 139.215 42.828 140.021 42.8365C140.866 42.8268 141.686 43.1236 142.329 43.6718C143.001 44.2378 143.462 45.0151 143.636 45.8767H136.641Z" fill="#252D1C"/>
<path d="M151.367 36.459H147.188V38.3941H149.165V50.522H147.188V52.478H153.067V50.522H151.367V36.459Z" fill="#252D1C"/>
<path d="M95.7747 59.0137H91.4372V60.9488H93.5955V65.3708C93.0579 64.799 92.4171 64.3337 91.7069 63.9995C91.0602 63.7087 90.3587 63.5598 89.6496 63.5627C88.6638 63.5592 87.6975 63.8376 86.8646 64.3649C86.013 64.8943 85.3179 65.6409 84.8508 66.5281C84.3629 67.4442 84.1122 68.4678 84.1215 69.5056C84.1102 70.5107 84.3457 71.5033 84.8073 72.3962C85.2468 73.2491 85.9128 73.9644 86.7324 74.4636C87.5936 74.9801 88.5828 75.2437 89.5869 75.2241C91.1395 75.2241 92.474 74.6144 93.5903 73.3951V75.0327H97.7885V73.0766H95.7695L95.7747 59.0137ZM93.1273 71.2807C92.8309 71.8655 92.3876 72.3632 91.841 72.7251C91.2961 73.0867 90.6551 73.2759 90.0012 73.2681C89.3638 73.2759 88.7373 73.1027 88.1944 72.7686C87.6541 72.4339 87.2134 71.9603 86.9186 71.3973C86.6008 70.7949 86.4397 70.1222 86.4504 69.4413C86.4466 68.7812 86.6037 68.1301 86.9082 67.5444C87.1965 66.9712 87.626 66.4807 88.1562 66.1191C88.6886 65.761 89.3177 65.574 89.9594 65.5831C90.617 65.5717 91.2649 65.7434 91.8305 66.0791C92.3781 66.4068 92.8264 66.8772 93.1273 67.44C93.4418 68.0242 93.603 68.6786 93.5955 69.3421C93.5992 70.0167 93.4385 70.6821 93.1273 71.2807Z" fill="#252D1C"/>
<path d="M107.754 64.3657C106.851 63.8284 105.817 63.5508 104.767 63.5634C103.703 63.5451 102.653 63.8074 101.723 64.3239C100.843 64.8164 100.12 65.5453 99.6339 66.4279C99.1244 67.3591 98.8659 68.4068 98.8837 69.4681C98.8728 70.5081 99.1312 71.5333 99.6339 72.4439C100.124 73.3355 100.85 74.0748 101.733 74.5809C102.654 75.1104 103.701 75.3821 104.763 75.3675C105.803 75.3774 106.825 75.1056 107.722 74.5809C108.604 74.0682 109.335 73.3308 109.839 72.4439C110.358 71.5386 110.626 70.5114 110.615 69.4681C110.623 68.4363 110.359 67.4207 109.849 66.5236C109.352 65.6328 108.63 64.8886 107.754 64.3657ZM107.839 71.3441C107.545 71.9077 107.104 72.3814 106.563 72.7154C106.026 73.0539 105.402 73.2309 104.767 73.2253C104.128 73.2299 103.502 73.053 102.96 72.7154C102.411 72.3802 101.963 71.9028 101.663 71.3336C101.354 70.7589 101.195 70.1155 101.2 69.4629C101.197 68.8098 101.358 68.1664 101.669 67.5921C101.967 67.0227 102.411 66.5423 102.955 66.1999C103.491 65.8566 104.115 65.6754 104.751 65.6778C105.395 65.6705 106.027 65.852 106.568 66.1999C107.108 66.5442 107.548 67.0243 107.844 67.5921C108.149 68.1646 108.306 68.8039 108.302 69.4524C108.308 70.1117 108.149 70.762 107.839 71.3441Z" fill="#252D1C"/>
<path d="M108.543 58.748H105.363L103.727 62.4061H105.225L108.543 58.748Z" fill="#252D1C"/>
<path d="M116.048 59.0137H111.869V60.9488H113.848V73.0767H111.869V75.0327H117.749V73.0767H116.048V59.0137Z" fill="#252D1C"/>
<path d="M128.785 67.8036C128.785 66.3372 128.436 65.264 127.74 64.5842C127.044 63.9043 125.95 63.5638 124.459 63.5626C123.459 63.5361 122.469 63.7611 121.579 64.217C120.753 64.6699 120.082 65.3605 119.653 66.1991L121.76 66.7212C121.995 66.3089 122.339 65.9688 122.753 65.738C123.217 65.5079 123.73 65.3966 124.247 65.4143C125.09 65.4143 125.697 65.6022 126.066 65.9781C126.435 66.354 126.619 66.9776 126.618 67.8489V69.0497C125.722 68.426 124.657 68.0919 123.566 68.0925C122.893 68.0979 122.229 68.2505 121.62 68.5398C121.002 68.8154 120.472 69.2547 120.085 69.8102C119.705 70.3611 119.506 71.0169 119.516 71.6861C119.513 72.3178 119.694 72.9367 120.038 73.4664C120.382 74.0008 120.853 74.441 121.41 74.7473C121.99 75.0687 122.644 75.2331 123.307 75.2241C124.612 75.2241 125.796 74.702 126.858 73.6579V75.0292H130.664V73.0766H128.793L128.785 67.8036ZM126.626 72.1839C125.684 73.083 124.674 73.5331 123.596 73.5343C123.336 73.5451 123.076 73.5045 122.832 73.4149C122.588 73.3253 122.364 73.1885 122.172 73.0122C121.991 72.8437 121.848 72.6386 121.753 72.4106C121.657 72.1825 121.612 71.9367 121.619 71.6896C121.614 71.4273 121.668 71.1672 121.778 70.9288C121.887 70.6904 122.05 70.4799 122.252 70.3131C122.668 69.9497 123.204 69.7542 123.756 69.7649C124.713 69.7649 125.67 70.1368 126.626 70.8804V72.1839Z" fill="#252D1C"/>
<path d="M137.2 64.3028C136.538 64.6961 135.983 65.3922 135.536 66.3911V63.8608H131.549V65.8273H133.792V73.0772H131.549V75.0332H138.407V73.0772H135.97V70.5469C135.97 69.3565 136.064 68.4458 136.252 67.8147C136.337 67.5125 136.483 67.2312 136.682 66.9881C136.88 66.745 137.127 66.5453 137.406 66.4016C137.986 66.0895 138.872 65.9334 140.064 65.9334H140.539V63.7129H140.039C138.809 63.7129 137.863 63.9095 137.2 64.3028Z" fill="#252D1C"/>
<path d="M61.4774 29.0996C60.346 26.6337 55.2461 28.2799 52.8719 28.9256C50.4978 29.5712 50.3237 31.6943 50.3237 31.6943C49.7197 35.8152 52.308 43.6794 52.6561 44.5618C53.0042 45.4441 53.6604 49.0586 47.8451 49.0586C42.0299 49.0586 40.8828 47.0294 40.8828 47.0294C42.1012 50.5587 48.4074 50.6631 50.5831 50.0644C54.2244 49.0586 54.7814 46.3803 54.2905 44.2137C53.7997 42.0471 53.0112 39.0399 52.677 35.6134C52.3428 32.1868 53.0112 31.1148 57.0702 30.0759C61.1293 29.037 62.2015 31.9414 62.2015 31.9414C62.2015 31.9414 62.6088 31.5655 61.4774 29.0996Z" fill="#252D1C"/>
<path d="M37.261 35.1605C37.2621 34.7499 37.1409 34.3483 36.9129 34.0067C38.2044 34.0067 39.1339 35.0404 39.3619 35.8862C39.4977 36.3874 40.2949 37.3376 41.1025 37.2384C41.1025 37.2384 41.2243 37.1496 41.012 37.0643C40.7509 36.9582 40.1556 36.6032 39.938 35.6913C39.5899 34.2712 38.9877 33.368 37.2645 33.2114C36.8244 33.167 36.3806 33.1723 35.9417 33.2271C34.2568 33.4394 33.6145 34.3722 33.6145 34.3722C33.4621 34.5772 33.297 34.7725 33.1202 34.9569C32.0758 36.0306 31.3796 35.7974 31.6198 35.9628C31.6198 35.9628 32.2482 36.1977 33.1707 35.6669C33.2843 36.1154 33.5445 36.5131 33.91 36.7968C34.2755 37.0806 34.7253 37.2341 35.188 37.2331C35.7375 37.2322 36.2643 37.0136 36.6528 36.6251C37.0414 36.2366 37.2601 35.7099 37.261 35.1605Z" fill="#252D1C"/>
<path d="M56.2168 34.3029C55.494 34.2978 54.775 34.407 54.0863 34.6266C53.6738 34.7606 53.4006 34.9033 53.3396 34.9746C53.1464 35.2235 53.3013 36.1928 53.371 36.5652L53.3918 36.6731C53.3918 36.701 53.4023 36.7201 53.4023 36.7201C53.5137 37.1716 53.7734 37.5727 54.1397 37.8591C54.5061 38.1456 54.958 38.3009 55.4231 38.3003C55.9737 38.298 56.5012 38.0784 56.8907 37.6892C57.2803 37.3001 57.5003 36.7729 57.5031 36.2224C57.5032 35.8479 57.4015 35.4804 57.2089 35.1591C57.9012 35.3359 58.5418 35.674 59.0783 36.1458C60.0252 37.0612 58.772 38.0706 58.6484 38.2028C58.6408 38.2088 58.6346 38.2165 58.6304 38.2252C58.6262 38.234 58.624 38.2436 58.624 38.2533C58.624 38.263 58.6262 38.2726 58.6304 38.2813C58.6346 38.29 58.6408 38.2977 58.6484 38.3037C60.7945 37.5137 59.6214 35.6046 59.6214 35.6046C58.6031 34.6214 57.3377 34.3116 56.2168 34.3029Z" fill="#252D1C"/>
<path d="M35.3671 57.1901C35.3671 57.1901 35.2052 57.3641 35.5412 57.3641C36.1834 57.3641 37.0224 57.3798 38.6881 58.1733C39.904 58.7709 41.2641 59.0122 42.6114 58.8694C44.1274 58.6954 44.4042 58.4639 45.4625 58.4152C46.7018 58.3561 47.3997 58.6989 48.5224 58.6693C49.3161 58.6501 50.1203 58.3891 50.8652 58.4709C51.5615 58.5457 52.5971 59.1218 53.0427 59.1218C53.3038 59.1218 53.3142 58.9321 53.1698 58.9321C52.6476 58.9199 51.6537 56.8246 49.9236 57.3902C49.5755 57.5033 49.2813 57.7626 48.5955 57.7957C48.1395 57.8166 47.6678 57.6217 46.9263 57.3885C46.3856 57.2056 45.8123 57.1393 45.2441 57.1939C44.6758 57.2485 44.1256 57.4227 43.6296 57.7052C42.6027 58.3108 41.7411 58.3595 38.3557 57.3989C38.3661 57.4093 36.1904 56.6367 35.3671 57.1901Z" fill="#252D1C"/>
<path d="M35.9296 30.0234C36.0027 30.0408 36.0776 30.0548 36.1524 30.0739C36.819 30.2218 37.4039 30.375 37.9191 30.5298H37.9295C38.5666 30.7265 41.0626 31.6384 41.0626 31.6384C41.999 31.8646 43.0103 30.2984 42.9059 30.1609C42.8745 30.0983 42.3402 29.2542 40.9164 28.9131C40.0879 28.7148 38.9669 28.4241 37.7729 28.1857C37.2507 28.083 36.7146 27.9891 36.1855 27.916C33.9802 27.6201 31.8584 27.7176 31.1378 29.0907C30.9533 29.4387 30.8053 29.7537 30.687 30.0269C30.6069 30.2009 30.5408 30.375 30.4868 30.5264C30.0517 31.7132 30.3249 31.929 30.3249 31.929C30.5648 31.4446 30.9198 31.0263 31.3588 30.7108C32.1926 30.0983 33.6164 29.5588 35.9296 30.0234Z" fill="#252D1C"/>
<path d="M50.2422 72.3977C50.0577 72.3595 49.8732 72.3177 49.6922 72.2725C48.669 72.0651 47.6276 71.9607 46.5835 71.9609C45.2801 71.9598 43.9818 72.1235 42.7194 72.4482C41.4577 72.7729 40.1599 72.9366 38.8571 72.9355C37.1756 72.9376 35.5052 72.6642 33.9121 72.1263C37.5545 73.9 41.5539 74.819 45.6053 74.8132C48.2187 74.8154 50.8183 74.4349 53.3213 73.6838C54.1092 73.3357 54.8774 72.9569 55.6258 72.5474C54.8769 72.661 54.1206 72.7192 53.3631 72.7214C52.3146 72.7185 51.269 72.6101 50.2422 72.3977Z" fill="#252D1C"/>
</g>
<defs>
<clipPath id="clip0_2091_31850">
<rect width="167" height="89" fill="white"/>
</clipPath>
</defs>
</svg>
