<svg width="208" height="89" viewBox="0 0 208 89" fill="none" xmlns="http://www.w3.org/2000/svg">
<path d="M53.7539 76.1845H207.21V75.1025H53.7539V76.1845Z" fill="white"/>
<path d="M53.7539 76.1845H207.21V75.1025H53.7539V76.1845Z" fill="#D6D6D6"/>
<path fill-rule="evenodd" clip-rule="evenodd" d="M191.965 61.8135C192.519 62.0711 192.451 62.8868 192.451 63.3849V67.5925C192.451 68.0992 192.519 68.9235 191.957 69.121L194.153 69.1554C193.566 68.7861 193.574 68.3396 193.574 67.7128V62.6808C193.83 62.6378 194.085 62.6121 194.349 62.6121C195.235 62.6121 195.916 63.0071 195.916 63.986C195.916 65.0594 194.886 65.6519 193.94 65.7034C194.196 65.8236 194.468 65.858 194.749 65.858C196.001 65.858 197.184 65.0422 197.184 63.7627C197.184 62.4833 196.094 61.8135 194.656 61.8135H191.965ZM188.789 65.5746H189.607C189.947 65.5746 190.416 65.5488 190.594 65.8837L190.629 64.6987C190.467 64.7674 190.288 64.7674 190.118 64.7674H188.789V62.6893C189.147 62.6206 189.53 62.6121 189.913 62.6121C190.424 62.6121 190.875 62.655 191.216 63.05L191.25 61.7534C191.071 61.8306 190.884 61.8135 190.697 61.8135H187.155C187.717 62.0625 187.649 62.8697 187.649 63.3849V67.5925C187.649 68.0992 187.717 68.9235 187.155 69.121L189.241 69.1554C188.687 68.9064 188.772 68.0992 188.772 67.5925V65.5746H188.789ZM183.681 65.5746H181.502L182.6 62.7666L183.681 65.5746ZM184.005 66.3989L184.601 67.9704C184.899 68.7518 184.984 68.872 184.447 69.121L186.712 69.1554C186.082 68.8033 185.886 68.1765 185.631 67.541L183.332 61.8221H181.587C182.115 62.0196 181.91 62.4918 181.757 62.8954L179.909 67.5496C179.671 68.1851 179.475 68.8119 178.837 69.1296L180.871 69.164C180.344 68.9321 180.42 68.6058 180.65 67.979L181.221 66.4075H184.005V66.3989ZM173.388 65.9438L176.112 61.8221H174.179C174.801 62.1569 174.546 62.6893 174.358 62.9727L172.988 65.0508L171.217 62.1398C171.072 61.9079 170.74 61.8306 170.391 61.8306H169.386C169.914 62.1226 170.135 62.4918 170.433 62.9813L172.272 65.961V67.6097C172.272 68.1335 172.349 68.8634 171.804 69.1382L173.958 69.1726C173.396 68.726 173.396 68.3911 173.396 67.7214V65.961L173.388 65.9438ZM165.197 61.8822C164.669 61.7104 164.099 61.6331 163.545 61.6331C162.2 61.6331 160.77 62.1655 160.77 63.5738C160.77 65.9352 164.576 65.6261 164.576 67.3693C164.576 68.1507 163.622 68.5285 162.992 68.5285C162.132 68.5285 161.221 68.1765 160.574 67.6011L160.898 68.9922C161.528 69.2241 162.2 69.3271 162.873 69.3271C164.601 69.3271 165.836 68.2108 165.836 67.0172C165.836 64.9563 162.03 64.9735 162.03 63.445C162.03 62.6722 162.83 62.4317 163.46 62.4317C164.09 62.4317 164.763 62.6893 165.197 63.1359V61.8736V61.8822ZM156.121 62.4317C157.867 62.4317 158.897 64.0032 158.897 65.6347C158.897 67.2662 157.824 68.5371 156.147 68.5371C154.47 68.5371 153.32 66.9313 153.32 65.3685C153.32 63.6854 154.418 62.4317 156.13 62.4317H156.121ZM156.198 61.6246C153.874 61.5644 152.052 63.342 152.052 65.463C152.052 67.7471 153.899 69.3357 156.087 69.3357C158.275 69.3357 160.157 67.687 160.157 65.4114C160.157 63.4021 158.522 61.616 156.198 61.6331V61.6246ZM146.211 61.8135C146.773 62.0625 146.696 62.8697 146.696 63.3849V67.5925C146.696 68.0992 146.773 68.9235 146.211 69.121L148.322 69.1554C147.761 68.9235 147.829 68.1078 147.829 67.5925V62.5949C148.084 62.552 148.322 62.5176 148.578 62.509C149.319 62.4747 150.008 62.947 150.008 63.7456C150.008 64.7932 148.978 65.2053 148.093 65.3427L149.106 66.9142L150.459 68.5972C150.792 69.0094 151.158 69.1554 151.745 69.1554H152.758C152.128 68.7518 151.43 68.1765 150.97 67.5925L149.378 65.5746C150.289 65.3599 151.141 64.5957 151.141 63.6082C151.141 62.6206 150.332 61.8135 148.85 61.8135H146.22H146.211ZM143.699 69.1468H145.326C144.764 68.8978 144.832 68.0906 144.832 67.584V63.3763C144.832 62.8611 144.764 62.0453 145.326 61.8392L143.214 61.8049C143.767 62.0539 143.699 62.8611 143.699 63.3677V66.7253C143.699 67.1288 143.708 67.4036 143.469 67.7385C143.103 68.2623 142.473 68.5199 141.852 68.5199C140.711 68.5199 140.098 67.8244 140.098 66.3474V63.3677C140.098 62.8697 140.03 62.0539 140.583 61.8392L138.48 61.8049C139.042 62.0539 138.966 62.8611 138.966 63.3677V66.3474C138.966 67.1546 138.94 67.9017 139.528 68.5457C140.021 69.0953 140.796 69.3271 141.528 69.3271C142.303 69.3271 143.206 69.0609 143.699 68.4083V69.1468ZM137.186 61.8221C136.607 61.7018 136.037 61.6331 135.449 61.6331C132.776 61.6331 130.886 63.1273 130.886 65.5231C130.886 67.7643 132.555 69.3271 135.39 69.3271C136.284 69.3271 137.152 69.164 138.029 68.9922C137.961 68.8377 137.969 68.6573 137.969 68.4942V65.9267C137.969 65.7549 137.969 65.5832 138.029 65.4458L136.335 65.4114C136.829 65.6433 136.846 66.1929 136.846 66.7081V68.3139C136.352 68.4598 135.815 68.5285 135.305 68.5285C133.559 68.5285 132.146 67.1718 132.146 65.3685C132.146 63.5652 133.466 62.4317 135.185 62.4317C135.858 62.4317 136.701 62.5863 137.152 63.1015L137.186 61.8221ZM126.944 65.566H127.761C128.102 65.566 128.57 65.5574 128.749 65.8751L128.783 64.6901C128.621 64.7588 128.442 64.7588 128.263 64.7588H126.944V62.6808C127.301 62.6121 127.685 62.6035 128.076 62.6035C128.587 62.6035 129.038 62.6464 129.379 63.05L129.413 61.7448C129.234 61.8221 129.047 61.8049 128.859 61.8049H125.318C125.88 62.0539 125.811 62.8611 125.811 63.3763V67.584C125.811 68.0906 125.88 68.9149 125.318 69.1125L129.932 69.1468L130.426 67.687C129.839 68.1765 129.081 68.4083 128.349 68.3482L126.944 68.2194V65.5746V65.566ZM123.794 61.8736C123.266 61.7018 122.695 61.6246 122.142 61.6246C120.797 61.6246 119.366 62.1569 119.366 63.5652C119.366 65.9267 123.172 65.6175 123.172 67.3607C123.172 68.1421 122.219 68.5199 121.589 68.5199C120.729 68.5199 119.818 68.1679 119.171 67.5925L119.494 68.9836C120.124 69.2155 120.797 69.3185 121.469 69.3185C123.198 69.3185 124.432 68.2022 124.432 67.0086C124.432 64.9477 120.626 64.9649 120.626 63.4364C120.626 62.6636 121.427 62.4231 122.057 62.4231C122.687 62.4231 123.359 62.6808 123.794 63.1273V61.865V61.8736ZM113.977 70.3404C114.156 70.3404 114.275 70.1944 114.394 70.0742C114.735 69.705 115.05 69.2069 115.05 68.6659C115.05 68.2537 114.794 67.9103 114.36 67.9103C113.986 67.9103 113.696 68.1936 113.696 68.5715C113.696 68.8978 113.926 69.0867 114.215 69.164C114.275 69.1726 114.36 69.1983 114.36 69.2756C114.36 69.4989 113.739 70.1601 113.551 70.3146L113.969 70.349L113.977 70.3404ZM109.686 65.566H107.506L108.605 62.758L109.686 65.566ZM110.009 66.3904L110.605 67.9618C110.903 68.7432 110.989 68.8634 110.452 69.1125L112.717 69.1468C112.087 68.7947 111.891 68.1679 111.636 67.5324L109.337 61.8135H107.592C108.119 62.011 107.915 62.4833 107.762 62.8868L105.914 67.541C105.667 68.1765 105.48 68.8033 104.841 69.121L106.876 69.1554C106.348 68.9235 106.425 68.5972 106.655 67.9704L107.225 66.3989H110.009V66.3904ZM104.211 61.9079C103.556 61.7534 102.875 61.6246 102.202 61.6246C99.9374 61.6246 98.3198 63.153 98.3198 65.463C98.3198 67.7729 99.9374 69.3185 102.543 69.3185C103.113 69.3185 103.692 69.2327 104.211 68.9836L104.773 67.687C104.041 68.0906 103.215 68.3911 102.389 68.3911C100.687 68.3911 99.5798 66.9313 99.5798 65.2912C99.5798 63.6511 100.644 62.552 102.168 62.552C102.9 62.552 103.607 62.7924 104.211 63.1874V61.9079ZM91.8406 63.3763L95.6293 68.228C96.1146 68.8634 96.4552 69.2327 97.247 69.4989V63.2389C97.247 62.6121 97.247 62.1655 97.8174 61.8306L95.8677 61.7963C96.4552 62.1655 96.4382 62.6121 96.4382 63.2389V67.4637L92.394 62.3115L92.2408 62.0883C92.1642 62.0024 92.1216 61.9423 92.0705 61.8135H90.4528C91.0318 62.1741 91.0318 62.6206 91.0318 63.2389V67.687C91.0318 68.3139 91.0318 68.7604 90.4443 69.1039L92.4025 69.1382C91.8151 68.7604 91.8236 68.3139 91.8236 67.687V63.3677L91.8406 63.3763ZM86.9962 65.566H84.8166L85.9149 62.758L86.9962 65.566ZM87.3197 66.3904L87.9157 67.9618C88.2137 68.7432 88.2988 68.8634 87.7624 69.1125L90.0271 69.1468C89.3971 68.7947 89.2013 68.1679 88.9459 67.5324L86.6471 61.8135H84.9017C85.4296 62.011 85.2253 62.4833 85.0635 62.8868L83.2159 67.541C82.969 68.1765 82.7817 68.8033 82.1432 69.121L84.178 69.1554C83.6502 68.9235 83.7268 68.5972 83.9567 67.9704L84.5271 66.3989H87.3112L87.3197 66.3904ZM77.6733 64.7588V62.5691L78.4141 62.4918C79.0781 62.4231 79.7848 62.8267 79.7848 63.5996C79.7848 64.5098 78.7546 64.7588 78.0394 64.7588H77.6733ZM77.6733 68.2452V65.4887L78.4481 65.4458C79.4187 65.3943 80.4574 65.858 80.4574 66.9399C80.4574 68.0219 79.5379 68.4255 78.6354 68.331L77.6733 68.2452ZM76.5495 67.5668C76.5495 68.082 76.6176 68.8978 76.0642 69.1039L77.8862 69.1382C78.712 69.1382 79.589 69.1726 80.3638 68.7947C81.1045 68.4427 81.6919 67.7042 81.6919 66.8455C81.6919 65.7549 80.8831 65.0851 79.887 64.8705C80.517 64.5871 80.9938 64.1663 80.9938 63.4192C80.9938 62.4231 80.1424 61.8049 78.6865 61.8049H76.0642C76.6261 62.0539 76.5495 62.8611 76.5495 63.3677V67.5754V67.5668ZM68.7847 65.5574H69.6021C69.9426 65.5574 70.4109 65.5488 70.5897 65.8666L70.6237 64.6815C70.4535 64.7502 70.2832 64.7502 70.1044 64.7502H68.7847V62.6722C69.1423 62.6035 69.5254 62.5949 69.9171 62.5949C70.4279 62.5949 70.8792 62.6378 71.2197 63.0414L71.2538 61.7362C71.075 61.8135 70.8877 61.7963 70.7004 61.7963H67.1585C67.7205 62.0453 67.6524 62.8525 67.6524 63.3677V67.5754C67.6524 68.082 67.7205 68.9064 67.1585 69.1039L71.7731 69.1382L72.2669 67.6784C71.6795 68.1679 70.9217 68.3997 70.1895 68.3396L68.7847 68.2108V65.566V65.5574ZM61.1392 62.7237C61.4712 62.6464 61.8032 62.6035 62.1353 62.6035C63.9828 62.6035 65.0641 63.5824 65.0641 65.5402C65.0641 67.4981 63.5912 68.3396 61.948 68.3396C61.6755 68.3396 61.4031 68.3139 61.1392 68.2623V62.7323V62.7237ZM60.0068 67.5324C60.0068 68.1936 60.0749 68.726 59.5215 69.1039L62.1779 69.1382C64.6554 69.1382 66.3242 67.6011 66.3242 65.4028C66.3242 63.2046 64.7576 61.8049 62.2289 61.8049H59.5215C60.0834 62.0024 60.0068 62.8182 60.0068 63.3334V67.541V67.5324ZM59.4534 46.6488L59.3342 46.5371C58.6871 45.9017 57.6484 45.5324 56.7034 45.5324C55.7583 45.5324 54.5663 45.8845 54.5663 46.9493C54.5663 47.4817 54.9154 47.8767 55.4518 48.2288C55.7243 48.4005 56.0393 48.5637 56.3798 48.7268C56.7204 48.89 57.0865 49.0445 57.4526 49.1991C58.917 49.8431 60.424 50.5988 60.424 52.1359C60.424 53.9134 58.4743 55.5535 55.7838 55.5535C54.7366 55.5535 53.6894 55.4075 52.7103 55.0641L52.1313 52.8142L52.2846 52.9431C53.2807 53.7588 54.66 54.274 55.9712 54.274C56.9332 54.274 58.3466 53.7245 58.3466 52.6425C58.3466 52.0328 57.9975 51.6035 57.4526 51.2428C57.1802 51.0625 56.8651 50.8993 56.5246 50.7448C56.184 50.5902 55.8179 50.4356 55.4518 50.2811C53.9874 49.6456 52.4804 48.89 52.4804 47.1296C52.4804 45.0344 54.7366 44.2444 56.8311 44.2444C57.691 44.2444 58.5679 44.356 59.3938 44.605L59.4364 46.6488H59.4534ZM69.0061 54.3513C68.2143 55.21 66.8776 55.5621 65.7282 55.5621C64.5788 55.5621 63.3698 55.2186 62.5865 54.4029C62.1268 53.922 61.9054 53.4068 61.7947 52.8658C61.6926 52.3248 61.7011 51.758 61.7011 51.1741V46.8377C61.7011 46.6573 61.7011 46.4427 61.7011 46.228C61.7011 46.0133 61.6841 45.7901 61.65 45.5754C61.5734 45.1546 61.3946 44.8111 60.9859 44.6651L60.9433 44.502H64.3149V44.648C63.8807 44.8025 63.7019 45.1546 63.6167 45.5754C63.5742 45.7815 63.5656 46.0047 63.5571 46.228C63.5571 46.4427 63.5571 46.6573 63.5571 46.8377V51.1741C63.5571 53.3209 64.5022 54.2826 66.205 54.2826C67.1415 54.2826 68.0866 53.9134 68.64 53.1749C68.8188 52.9431 68.9124 52.7198 68.9465 52.4965C68.9891 52.2647 68.9805 52.0157 68.9805 51.7323V46.8463C68.9805 46.6659 68.9805 46.4513 68.9805 46.2366C68.9805 46.0219 68.9635 45.7986 68.9209 45.584C68.8443 45.1632 68.657 44.8197 68.2654 44.6737L68.2228 44.5106H71.5773L71.6284 44.648C71.1686 44.8111 70.9813 45.1546 70.9047 45.584C70.8621 45.7986 70.8536 46.0219 70.8451 46.2366C70.8451 46.4598 70.8451 46.6745 70.8451 46.8548V52.9774C70.8451 53.1577 70.8451 53.3724 70.8451 53.5871C70.8451 53.8018 70.8621 54.025 70.9047 54.2397C70.9898 54.6605 71.2112 55.0039 71.6114 55.1499V55.3131H68.972V54.3599L69.0061 54.3513ZM100.559 55.0898C100.874 54.9181 101.027 54.5832 101.095 54.1882C101.163 53.776 101.138 53.3209 101.138 52.9688V46.8463C101.138 46.6573 101.138 46.4427 101.138 46.228C101.138 46.0133 101.121 45.7815 101.087 45.5754C101.01 45.1546 100.831 44.8025 100.423 44.6651L100.38 44.502H103.752V44.648C103.317 44.8025 103.139 45.1546 103.054 45.584C102.977 46.0133 103.002 46.4942 103.002 46.8548V52.9774C103.002 53.1577 103.002 53.3724 103.002 53.5871C103.002 53.8018 103.02 54.025 103.062 54.2397C103.139 54.6605 103.369 55.0039 103.76 55.1499V55.3131H99.1286C98.2091 55.3131 97.6216 55.0984 97.0938 54.4801L95.0078 52.0242L93.3902 49.6628L93.4838 49.6456C94.8461 49.4481 96.3786 48.8556 96.3786 47.3787C96.3786 46.2452 95.3569 45.584 94.2501 45.6355C93.8755 45.6527 93.5264 45.6956 93.1518 45.7557V52.9774C93.1518 53.1663 93.1518 53.381 93.1518 53.5957C93.1518 53.8103 93.1688 54.0336 93.2114 54.2483C93.2965 54.6691 93.5179 55.0125 93.918 55.1413V55.3045H90.5295V55.1585C90.9722 55.0125 91.151 54.6605 91.2361 54.2397C91.2787 54.025 91.2872 53.8018 91.2872 53.5871C91.2872 53.3638 91.2872 53.1577 91.2872 52.9688V46.8463C91.2872 46.6573 91.2872 46.4427 91.2872 46.228C91.2872 46.0133 91.2702 45.7815 91.2361 45.5754C91.1595 45.1546 90.9807 44.8025 90.572 44.6651L90.5295 44.502H94.6588C96.9746 44.502 98.2517 45.6612 98.2517 47.1726C98.2517 48.598 96.9746 49.7229 95.5868 50.0664L97.9877 52.9345C98.6518 53.7245 99.6394 54.5059 100.559 55.0812V55.0898ZM77.1199 44.5106C79.3591 44.5106 81.096 45.5496 81.096 47.413C81.096 49.2764 79.2314 50.5215 77.2732 50.5215C76.839 50.5215 76.4048 50.47 75.9961 50.2897L75.7832 50.1952L76.0216 50.178C77.469 50.1007 79.01 49.2506 79.01 47.7393C79.01 46.3482 77.9969 45.7986 76.6517 45.7986C76.2685 45.7986 75.8939 45.8244 75.5278 45.8845V53.1577C75.5278 53.381 75.5278 53.5957 75.5363 53.7932C75.5448 53.9907 75.5704 54.1624 75.63 54.3256C75.7321 54.6519 75.979 54.9181 76.4133 55.1585V55.3131H72.8885V55.1671C73.3312 55.0211 73.5185 54.6691 73.6036 54.2483C73.6462 54.0336 73.6547 53.8103 73.6632 53.5957C73.6632 53.3724 73.6632 53.1663 73.6632 52.9774V46.8548C73.6632 46.6745 73.6632 46.4598 73.6632 46.2452C73.6632 46.0305 73.6462 45.8072 73.6036 45.5925C73.527 45.1718 73.3397 44.8197 72.9481 44.6651L72.9055 44.502H77.1199V44.5106ZM84.3653 53.8361L86.4683 54.025C87.5751 54.1195 88.733 53.7846 89.6185 53.0804L89.8058 52.9345L88.9544 55.3045H81.726V55.1585C82.1687 55.0125 82.356 54.6605 82.4412 54.2397C82.4837 54.025 82.4923 53.8018 82.5008 53.5871C82.5008 53.3638 82.5008 53.1577 82.5008 52.9688V46.8463C82.5008 46.6573 82.5008 46.4427 82.5008 46.228C82.5008 46.0133 82.4837 45.7815 82.4412 45.5754C82.356 45.1546 82.1772 44.8025 81.7686 44.6651L81.726 44.502H87.2516C87.3963 44.502 87.5411 44.502 87.6773 44.502C87.8135 44.502 87.9497 44.4762 88.0689 44.4247L88.1711 44.3818L88.1115 46.5371L87.9923 46.4083C87.4815 45.8502 86.8174 45.7815 86.0341 45.7815C85.4551 45.7815 84.8847 45.7986 84.3653 45.8845V48.7955H86.3321C86.6045 48.7955 86.8684 48.7955 87.1068 48.7011L87.2005 48.6667L87.1494 50.4786L87.0217 50.5043C86.894 50.2897 86.6726 50.1866 86.4002 50.1265C86.264 50.1007 86.1192 50.0922 85.983 50.0836C85.8383 50.0836 85.6935 50.0836 85.5658 50.0836H84.3738V53.8189L84.3653 53.8361ZM107.055 53.1406C107.055 53.3638 107.055 53.5785 107.064 53.776C107.081 53.9735 107.098 54.1452 107.157 54.3084C107.259 54.6347 107.506 54.9095 107.941 55.1499V55.3045H104.79V55.1671C105.693 54.6691 105.693 54.0508 105.693 53.1406V46.6659C105.693 45.7557 105.693 45.1374 104.833 44.6651L104.799 44.5106L107.404 44.5278C107.481 44.751 107.549 44.8283 107.668 44.9571L107.907 45.2834L114.028 52.6339V46.6573C114.028 46.4341 114.028 46.2194 114.02 46.0219C114.011 45.8244 113.986 45.6527 113.926 45.4895C113.824 45.1632 113.611 44.897 113.177 44.6566L113.143 44.502H116.276V44.6394C115.39 45.1288 115.39 45.7385 115.39 46.6573V55.8455L115.297 55.8197C114.071 55.4247 113.526 54.8751 112.777 53.9477L107.047 47.0352V53.1406H107.055ZM121.58 53.1406C121.58 53.3724 121.58 53.5785 121.589 53.776C121.597 53.9735 121.623 54.1452 121.682 54.3084C121.784 54.6347 122.031 54.9009 122.465 55.1499V55.3045H118.958V55.1585C119.392 55.0039 119.571 54.6519 119.656 54.2311C119.698 54.025 119.707 53.8018 119.715 53.5785C119.715 53.3638 119.715 53.1491 119.715 52.9688V45.7986H118.285C117.561 45.7986 116.812 45.9704 116.25 46.4341L116.071 46.5801L116.812 44.3818L116.88 44.4075C116.974 44.4419 117.076 44.4676 117.178 44.4762C117.289 44.4934 117.391 44.502 117.502 44.5106H124.287C124.577 44.5106 124.841 44.4934 125.096 44.399L125.224 44.356L124.534 46.5886L124.466 46.4083C124.262 45.8845 123.632 45.7986 123.061 45.7986H121.597V53.1406H121.58ZM128.042 53.8361L130.145 54.025C131.252 54.1195 132.41 53.7846 133.295 53.0804L133.483 52.9345L132.623 55.3045H125.394V55.1585C125.837 55.0125 126.024 54.6605 126.101 54.2397C126.144 54.025 126.161 53.8018 126.161 53.5871C126.161 53.3638 126.161 53.1577 126.161 52.9688V46.8463C126.161 46.6573 126.161 46.4427 126.161 46.228C126.161 46.0133 126.144 45.7815 126.101 45.5754C126.016 45.1546 125.837 44.8025 125.428 44.6651L125.386 44.502H130.911C131.056 44.502 131.201 44.502 131.337 44.502C131.473 44.502 131.609 44.4762 131.729 44.4247L131.831 44.3818L131.771 46.5371L131.652 46.4083C131.141 45.8502 130.477 45.7815 129.694 45.7815C129.115 45.7815 128.544 45.7986 128.025 45.8845V48.7955H129.992C130.264 48.7955 130.528 48.7955 130.767 48.7011L130.86 48.6667L130.809 50.4786L130.681 50.5043C130.554 50.2897 130.332 50.1866 130.06 50.1265C129.924 50.1007 129.779 50.0922 129.643 50.0836C129.498 50.0836 129.353 50.0836 129.226 50.0836H128.034V53.8189L128.042 53.8361ZM136.377 53.1406C136.377 53.3638 136.377 53.5785 136.386 53.776C136.394 53.9735 136.42 54.1452 136.48 54.3084C136.582 54.6347 136.829 54.9095 137.263 55.1499V55.3045H134.113V55.1671C135.015 54.6691 135.015 54.0508 135.015 53.1406V46.6659C135.015 45.7557 135.015 45.1374 134.164 44.6651L134.13 44.5106L136.735 44.5278C136.812 44.751 136.88 44.8283 136.999 44.9571L137.237 45.2834L143.359 52.6339V46.6573C143.359 46.4341 143.359 46.2194 143.35 46.0219C143.342 45.8244 143.316 45.6527 143.257 45.4895C143.154 45.1632 142.942 44.897 142.507 44.6566L142.473 44.502H145.607V44.6394C144.721 45.1288 144.721 45.7385 144.721 46.6573V55.8455L144.627 55.8197C143.401 55.4247 142.856 54.8751 142.107 53.9477L136.377 47.0352V53.1406ZM147.19 46.7947C147.19 46.6058 147.19 46.3911 147.19 46.1765C147.19 45.9618 147.173 45.7385 147.139 45.5324C147.062 45.1203 146.884 44.794 146.483 44.6823L146.441 44.5192H150.689C154.614 44.5192 157.066 46.5543 157.066 49.8174C157.066 53.0804 154.461 55.3131 150.604 55.3131H146.441V55.1757C146.875 54.8923 147.062 54.5746 147.139 54.2054C147.182 54.0164 147.19 53.8189 147.199 53.6043C147.199 53.3896 147.199 53.1577 147.199 52.9173V46.7947H147.19ZM149.063 53.922C149.455 53.9907 149.838 54.025 150.238 54.025C152.75 54.025 154.98 52.7799 154.98 50.0063C154.98 47.2327 153.337 45.7986 150.528 45.7986C150.042 45.7986 149.548 45.8587 149.063 45.9618V53.922ZM160.097 53.8361L162.2 54.025C163.307 54.1195 164.465 53.7846 165.35 53.0804L165.538 52.9345L164.686 55.3045H157.458V55.1585C157.901 55.0125 158.088 54.6605 158.165 54.2397C158.207 54.025 158.216 53.8018 158.224 53.5871C158.224 53.3638 158.224 53.1577 158.224 52.9688V46.8463C158.224 46.6573 158.224 46.4427 158.224 46.228C158.224 46.0133 158.207 45.7815 158.165 45.5754C158.08 45.1546 157.901 44.8025 157.492 44.6651L157.449 44.502H162.975C163.12 44.502 163.265 44.502 163.401 44.502C163.537 44.502 163.673 44.4762 163.792 44.4247L163.895 44.3818L163.835 46.5371L163.716 46.4083C163.205 45.8502 162.541 45.7815 161.758 45.7815C161.179 45.7815 160.608 45.7986 160.089 45.8845V48.7955H162.047C162.319 48.7955 162.583 48.7955 162.822 48.7011L162.915 48.6667L162.864 50.4786L162.737 50.5043C162.609 50.2897 162.388 50.1866 162.115 50.1265C161.979 50.1007 161.834 50.0922 161.689 50.0836C161.545 50.0836 161.4 50.0836 161.272 50.0836H160.08V53.8189L160.097 53.8361ZM168.092 53.1406C168.092 53.3638 168.092 53.5785 168.1 53.776C168.109 53.9735 168.135 54.1452 168.194 54.3084C168.296 54.6347 168.543 54.9095 168.977 55.1499V55.3045H165.827V55.1671C166.73 54.6691 166.73 54.0508 166.73 53.1406V46.6659C166.73 45.7557 166.73 45.1374 165.87 44.6651L165.836 44.5106L168.441 44.5278C168.518 44.751 168.586 44.8283 168.705 44.9571L168.943 45.2834L175.065 52.6339V46.6573C175.065 46.4341 175.065 46.2194 175.056 46.0219C175.048 45.8244 175.022 45.6527 174.963 45.4895C174.861 45.1632 174.648 44.897 174.205 44.6566L174.171 44.502H177.304V44.6394C176.419 45.1288 176.419 45.7385 176.419 46.6573V55.8455L176.325 55.8197C175.099 55.4247 174.554 54.8751 173.805 53.9477L168.075 47.0352V53.1406H168.092ZM186.763 46.6917L186.661 46.6316C185.733 46.0648 184.652 45.7128 183.545 45.7128C181.238 45.7128 179.62 47.3185 179.62 49.6456C179.62 51.9727 181.306 54.1023 183.885 54.1023C185.145 54.1023 186.414 53.673 187.538 53.089L187.708 53.0032L186.755 55.0641C185.92 55.4333 185.018 55.5707 184.124 55.5707C180.063 55.5707 177.543 53.3982 177.543 49.8947C177.543 46.3911 180.063 44.253 183.596 44.253C184.643 44.253 185.707 44.4333 186.721 44.6566L186.772 46.6917H186.763ZM188.807 46.8548C188.807 46.6659 188.807 46.4513 188.807 46.2366C188.807 46.0219 188.789 45.7901 188.755 45.584C188.679 45.1632 188.5 44.8111 188.091 44.6737L188.049 44.5106H191.42V44.6566C190.986 44.8111 190.807 45.1632 190.722 45.5925C190.646 46.0219 190.671 46.5028 190.671 46.8634V52.986C190.671 53.1663 190.671 53.381 190.671 53.5957C190.671 53.8103 190.688 54.0336 190.731 54.2483C190.807 54.6691 191.037 55.0125 191.429 55.1585V55.3217H188.057V55.1757C188.492 55.0297 188.67 54.6776 188.755 54.2569C188.798 54.0422 188.807 53.8189 188.815 53.6043C188.815 53.381 188.815 53.1749 188.815 52.986V46.8634L188.807 46.8548ZM195.694 51.2943L194.826 53.5441C194.46 54.463 194.417 54.8751 195.166 55.1413V55.3045H191.897V55.1671C192.408 54.9267 192.723 54.5918 192.961 54.1968C193.081 53.9993 193.183 53.7846 193.276 53.5613C193.37 53.3381 193.464 53.1062 193.557 52.8744L196.41 46.1078C196.469 45.9618 196.537 45.8158 196.58 45.6612C196.631 45.5153 196.665 45.3693 196.673 45.2405C196.673 44.9915 196.571 44.7854 196.197 44.6651L196.154 44.502H198.964L202.531 52.8658C202.625 53.0976 202.718 53.3295 202.821 53.5527C202.923 53.776 203.025 53.9821 203.144 54.1882C203.391 54.5832 203.732 54.9181 204.208 55.1499V55.3045H200.581V55.1585C201.033 54.961 201.177 54.8408 201.186 54.6519C201.186 54.5488 201.16 54.4114 201.092 54.2311C201.024 54.0508 200.93 53.8275 200.82 53.5441L199.917 51.2943H195.711H195.694ZM197.78 46.1164L196.188 49.9805H199.355L197.78 46.1164L195.694 51.2943L197.78 46.1164Z" fill="#001E6B"/>
<path fill-rule="evenodd" clip-rule="evenodd" d="M99.8436 83.6503C99.8436 83.4442 99.801 83.2639 99.7073 83.1179C99.6137 82.9719 99.4604 82.8688 99.2391 82.8087C99.171 82.7916 99.0943 82.7744 99.0092 82.7658C98.9241 82.7658 98.8134 82.7572 98.6686 82.7572H98.0727V84.5519H98.7623C98.9496 84.5519 99.1114 84.5261 99.2391 84.4832C99.3668 84.4403 99.486 84.3716 99.5796 84.2943C99.6733 84.217 99.7329 84.114 99.7755 84.0109C99.818 83.8993 99.8351 83.7791 99.8351 83.6503H99.8436ZM100.891 87.3942C100.891 87.3942 100.891 87.4372 100.882 87.4543C100.882 87.4715 100.857 87.4887 100.831 87.4973C100.806 87.5059 100.763 87.5144 100.721 87.523C100.669 87.523 100.61 87.523 100.525 87.523C100.457 87.523 100.397 87.523 100.354 87.523C100.312 87.523 100.278 87.5059 100.244 87.4973C100.218 87.4887 100.193 87.4715 100.184 87.4457C100.167 87.42 100.159 87.3942 100.142 87.3599L99.6563 86.1062C99.5967 85.9602 99.5371 85.8314 99.4775 85.7112C99.4179 85.5909 99.3412 85.4879 99.2561 85.402C99.171 85.3162 99.0688 85.2475 98.9581 85.1959C98.8474 85.1444 98.7027 85.1272 98.5494 85.1272H98.0812V87.3942C98.0812 87.3942 98.0812 87.4372 98.0641 87.4543C98.0556 87.4715 98.0301 87.4801 98.0045 87.4973C97.979 87.5059 97.9449 87.5144 97.9024 87.523C97.8598 87.523 97.8002 87.5316 97.7321 87.5316C97.664 87.5316 97.6044 87.5316 97.5618 87.523C97.5192 87.523 97.4852 87.5059 97.4511 87.4973C97.4256 87.4887 97.4086 87.4715 97.3915 87.4543C97.383 87.4372 97.3745 87.42 97.3745 87.3942V82.4653C97.3745 82.3622 97.4001 82.2849 97.4597 82.242C97.5192 82.1991 97.5788 82.1819 97.6384 82.1819H98.7623C98.8985 82.1819 99.0092 82.1819 99.0943 82.1905C99.1795 82.1905 99.2646 82.2076 99.3327 82.2162C99.5371 82.2506 99.7159 82.3107 99.8776 82.388C100.031 82.4653 100.167 82.5597 100.269 82.6799C100.371 82.8002 100.457 82.9375 100.508 83.0835C100.559 83.2381 100.584 83.4012 100.584 83.5902C100.584 83.7791 100.559 83.9251 100.516 84.071C100.465 84.2084 100.397 84.3372 100.312 84.4489C100.218 84.5605 100.116 84.655 99.9883 84.7322C99.8606 84.8095 99.7244 84.8782 99.5711 84.9383C99.6563 84.9727 99.7329 85.0242 99.8095 85.0843C99.8776 85.1444 99.9457 85.2131 100.005 85.299C100.065 85.3849 100.125 85.4793 100.176 85.5824C100.227 85.6854 100.286 85.8142 100.337 85.943L100.814 87.1194C100.848 87.2139 100.874 87.2912 100.891 87.3255C100.899 87.3685 100.908 87.3942 100.908 87.42" fill="#001E6B"/>
<path fill-rule="evenodd" clip-rule="evenodd" d="M104.143 85.1873C104.143 84.8266 104.075 84.5518 103.905 84.3458C103.743 84.1397 103.496 84.0452 103.164 84.0452C102.994 84.0452 102.849 84.0796 102.721 84.1397C102.594 84.1998 102.491 84.2856 102.406 84.3887C102.321 84.4917 102.253 84.612 102.21 84.7493C102.168 84.8867 102.134 85.0327 102.134 85.1873H104.135H104.143ZM104.824 85.3848C104.824 85.4878 104.799 85.5651 104.748 85.6166C104.696 85.6596 104.637 85.6853 104.569 85.6853H102.151C102.151 85.8914 102.168 86.0803 102.21 86.2435C102.253 86.4066 102.321 86.5526 102.415 86.6643C102.508 86.7845 102.636 86.8703 102.789 86.939C102.943 86.9992 103.13 87.0335 103.351 87.0335C103.53 87.0335 103.683 87.0163 103.82 86.9906C103.956 86.9648 104.075 86.9305 104.177 86.8961C104.279 86.8618 104.356 86.8274 104.424 86.8017C104.492 86.7759 104.535 86.7587 104.569 86.7587C104.586 86.7587 104.603 86.7587 104.62 86.7759C104.637 86.7845 104.645 86.8016 104.654 86.8188C104.654 86.836 104.671 86.8618 104.671 86.8961C104.671 86.9305 104.671 86.9734 104.671 87.0249C104.671 87.0593 104.671 87.0936 104.671 87.1194C104.671 87.1451 104.671 87.1709 104.662 87.1881C104.662 87.2052 104.654 87.231 104.645 87.2482C104.637 87.2653 104.62 87.2825 104.611 87.2997C104.594 87.3169 104.552 87.3426 104.475 87.377C104.398 87.4113 104.305 87.4457 104.186 87.48C104.066 87.5144 103.93 87.5401 103.777 87.5659C103.624 87.5917 103.462 87.6088 103.283 87.6088C102.985 87.6088 102.713 87.5659 102.491 87.48C102.261 87.3942 102.074 87.2654 101.921 87.1022C101.768 86.939 101.648 86.7244 101.572 86.4753C101.495 86.2263 101.453 85.9258 101.453 85.5909C101.453 85.256 101.495 84.9898 101.572 84.7322C101.657 84.4746 101.768 84.2599 101.921 84.0881C102.074 83.9078 102.261 83.779 102.474 83.6846C102.696 83.5901 102.934 83.5386 103.207 83.5386C103.496 83.5386 103.743 83.5815 103.939 83.676C104.143 83.7704 104.305 83.8906 104.441 84.0538C104.569 84.2084 104.671 84.3973 104.731 84.612C104.79 84.8266 104.824 85.0499 104.824 85.2903V85.4105V85.3848Z" fill="#001E6B"/>
<path fill-rule="evenodd" clip-rule="evenodd" d="M108.528 85.5653C108.528 85.3764 108.511 85.196 108.485 85.0157C108.46 84.8354 108.409 84.6808 108.341 84.5434C108.272 84.406 108.179 84.2944 108.06 84.2171C107.94 84.1312 107.796 84.0969 107.617 84.0969C107.532 84.0969 107.447 84.1141 107.361 84.1398C107.276 84.1656 107.191 84.2085 107.106 84.2601C107.021 84.3202 106.927 84.3889 106.834 84.4833C106.74 84.5778 106.638 84.6894 106.527 84.8182V86.2952C106.714 86.5184 106.893 86.6988 107.055 86.819C107.225 86.9392 107.396 86.9993 107.583 86.9993C107.753 86.9993 107.898 86.9564 108.017 86.8791C108.136 86.7932 108.238 86.6902 108.315 86.5528C108.392 86.4154 108.443 86.2608 108.485 86.0891C108.519 85.9174 108.536 85.7456 108.536 85.5739L108.528 85.5653ZM109.235 85.4966C109.235 85.8229 109.2 86.1149 109.132 86.3725C109.064 86.6301 108.962 86.8533 108.826 87.0251C108.69 87.2054 108.528 87.3428 108.324 87.4373C108.128 87.5317 107.898 87.5832 107.642 87.5832C107.532 87.5832 107.43 87.5747 107.344 87.5489C107.251 87.5231 107.166 87.4888 107.072 87.4458C106.987 87.4029 106.893 87.3428 106.808 87.2655C106.723 87.1968 106.629 87.111 106.527 87.0165V88.8713C106.527 88.8713 106.527 88.9142 106.51 88.9314C106.502 88.9486 106.485 88.9657 106.459 88.9743C106.433 88.9829 106.399 88.9915 106.357 89.0001C106.314 89.0001 106.255 89.0001 106.187 89.0001C106.118 89.0001 106.067 89.0001 106.025 89.0001C105.982 89.0001 105.948 88.9829 105.923 88.9743C105.897 88.9657 105.88 88.9486 105.872 88.9314C105.863 88.9142 105.854 88.8971 105.854 88.8713V83.6933C105.854 83.6933 105.854 83.6504 105.872 83.6332C105.872 83.616 105.897 83.6074 105.923 83.5903C105.948 83.5817 105.982 83.5731 106.016 83.5645C106.05 83.5645 106.101 83.5645 106.152 83.5645C106.204 83.5645 106.255 83.5645 106.297 83.5645C106.331 83.5645 106.365 83.5731 106.391 83.5903C106.416 83.5989 106.433 83.616 106.442 83.6332C106.45 83.6504 106.459 83.6675 106.459 83.6933V84.1914C106.57 84.0797 106.68 83.9767 106.783 83.8908C106.885 83.8049 106.987 83.7362 107.098 83.6761C107.2 83.616 107.31 83.5817 107.421 83.5473C107.532 83.5216 107.651 83.5044 107.77 83.5044C108.034 83.5044 108.264 83.5559 108.451 83.659C108.639 83.762 108.792 83.908 108.911 84.0883C109.03 84.2686 109.115 84.4833 109.166 84.7238C109.218 84.9642 109.252 85.2218 109.252 85.488" fill="#001E6B"/>
<path fill-rule="evenodd" clip-rule="evenodd" d="M112.147 81.8813C112.147 81.8813 112.181 81.8298 112.206 81.804C112.232 81.7869 112.257 81.7697 112.283 81.7611C112.317 81.7525 112.351 81.7439 112.402 81.7354C112.445 81.7354 112.504 81.7354 112.572 81.7354C112.649 81.7354 112.708 81.7354 112.76 81.7525C112.811 81.7611 112.836 81.7783 112.862 81.7955C112.879 81.8126 112.887 81.8298 112.887 81.8556C112.887 81.8813 112.87 81.8985 112.853 81.9243L112.112 82.886C112.112 82.886 112.07 82.9375 112.053 82.9547C112.036 82.9719 112.019 82.9805 111.993 82.9976C111.968 83.0062 111.942 83.0148 111.9 83.0148C111.866 83.0148 111.815 83.0148 111.763 83.0148C111.704 83.0148 111.653 83.0148 111.619 83.0062C111.585 83.0062 111.559 82.9891 111.542 82.9719C111.525 82.9547 111.525 82.9375 111.525 82.9204C111.525 82.8946 111.542 82.8688 111.559 82.8431L112.155 81.8899L112.147 81.8813ZM113.39 87.3942C113.39 87.3942 113.39 87.4371 113.373 87.4543C113.364 87.4715 113.347 87.4801 113.321 87.4973C113.296 87.5058 113.262 87.5144 113.228 87.523C113.185 87.523 113.143 87.523 113.083 87.523C113.023 87.523 112.972 87.523 112.93 87.523C112.887 87.523 112.862 87.5058 112.836 87.4973C112.811 87.4887 112.802 87.4715 112.785 87.4543C112.785 87.4371 112.777 87.42 112.777 87.3942V86.9048C112.564 87.1366 112.359 87.3083 112.155 87.4114C111.951 87.5144 111.746 87.5745 111.534 87.5745C111.287 87.5745 111.082 87.5316 110.912 87.4543C110.742 87.3685 110.606 87.2568 110.503 87.1194C110.401 86.982 110.325 86.8103 110.282 86.6214C110.239 86.4325 110.214 86.2092 110.214 85.9344V83.6846C110.214 83.6846 110.214 83.6417 110.231 83.6245C110.239 83.6073 110.256 83.5987 110.282 83.5816C110.308 83.573 110.342 83.5644 110.384 83.5558C110.427 83.5558 110.486 83.5558 110.546 83.5558C110.606 83.5558 110.665 83.5558 110.708 83.5558C110.75 83.5558 110.784 83.573 110.81 83.5816C110.835 83.5902 110.852 83.6073 110.869 83.6245C110.878 83.6417 110.886 83.6588 110.886 83.6846V85.84C110.886 86.0546 110.904 86.235 110.938 86.3638C110.972 86.4926 111.014 86.6042 111.082 86.6987C111.15 86.7931 111.227 86.8618 111.329 86.9133C111.423 86.9649 111.542 86.9906 111.67 86.9906C111.84 86.9906 112.002 86.9305 112.172 86.8103C112.342 86.6901 112.513 86.5097 112.708 86.2779V83.6846C112.708 83.6846 112.708 83.6417 112.725 83.6245C112.734 83.6073 112.751 83.5987 112.785 83.5816C112.811 83.573 112.845 83.5644 112.887 83.5558C112.93 83.5558 112.981 83.5558 113.049 83.5558C113.117 83.5558 113.168 83.5558 113.211 83.5558C113.253 83.5558 113.287 83.573 113.313 83.5816C113.339 83.5902 113.356 83.6073 113.364 83.6245C113.373 83.6417 113.381 83.6588 113.381 83.6846V87.3856L113.39 87.3942Z" fill="#001E6B"/>
<path fill-rule="evenodd" clip-rule="evenodd" d="M117.314 85.5738C117.314 85.3849 117.297 85.2046 117.272 85.0243C117.246 84.8439 117.195 84.6894 117.118 84.552C117.05 84.4146 116.957 84.303 116.837 84.2171C116.718 84.1312 116.574 84.0883 116.395 84.0883C116.31 84.0883 116.224 84.1054 116.139 84.1226C116.054 84.1484 115.969 84.1913 115.884 84.2428C115.799 84.3029 115.705 84.3716 115.611 84.4661C115.518 84.5606 115.416 84.6722 115.313 84.8096V86.2866C115.501 86.5098 115.68 86.6901 115.85 86.8104C116.02 86.9306 116.199 86.9907 116.378 86.9907C116.548 86.9907 116.693 86.9478 116.812 86.8705C116.931 86.7846 117.033 86.6816 117.101 86.5442C117.178 86.4068 117.229 86.2522 117.263 86.0891C117.297 85.9173 117.314 85.7456 117.314 85.5738ZM118.012 85.4966C118.012 85.8143 117.978 86.1062 117.91 86.3638C117.842 86.6215 117.74 86.8361 117.604 87.0165C117.467 87.1968 117.306 87.3342 117.11 87.4286C116.914 87.5231 116.693 87.5746 116.437 87.5746C116.318 87.5746 116.216 87.566 116.114 87.5403C116.012 87.5145 115.918 87.4802 115.824 87.4286C115.731 87.3771 115.637 87.3084 115.535 87.2311C115.441 87.1538 115.339 87.0594 115.237 86.9392V87.3943C115.237 87.3943 115.237 87.4372 115.22 87.4544C115.211 87.4716 115.194 87.4802 115.169 87.4973C115.143 87.5059 115.118 87.5145 115.075 87.5231C115.041 87.5231 114.99 87.5231 114.93 87.5231C114.871 87.5231 114.828 87.5231 114.794 87.5231C114.76 87.5231 114.726 87.5059 114.7 87.4973C114.675 87.4887 114.658 87.4716 114.649 87.4544C114.641 87.4372 114.632 87.42 114.632 87.3943V81.8986C114.632 81.8986 114.632 81.8556 114.649 81.8385C114.658 81.8213 114.675 81.8041 114.7 81.7955C114.726 81.7869 114.76 81.7784 114.803 81.7698C114.845 81.7698 114.905 81.7698 114.964 81.7698C115.024 81.7698 115.092 81.7698 115.135 81.7698C115.177 81.7698 115.211 81.7869 115.237 81.7955C115.262 81.8041 115.279 81.8213 115.288 81.8385C115.296 81.8556 115.305 81.8728 115.305 81.8986V84.114C115.416 84.0024 115.518 83.9079 115.62 83.8307C115.722 83.7534 115.824 83.6933 115.918 83.6417C116.012 83.5902 116.114 83.5559 116.207 83.5387C116.301 83.5129 116.412 83.5044 116.514 83.5044C116.778 83.5044 117.008 83.5559 117.195 83.6675C117.382 83.7706 117.536 83.9165 117.655 84.0969C117.774 84.2772 117.859 84.4833 117.91 84.7323C117.961 84.9727 117.995 85.2304 117.995 85.4966" fill="#001E6B"/>
<path fill-rule="evenodd" clip-rule="evenodd" d="M119.698 87.3943C119.698 87.3943 119.698 87.4372 119.681 87.4458C119.673 87.463 119.656 87.4716 119.63 87.4887C119.605 87.4973 119.571 87.5059 119.528 87.5145C119.486 87.5145 119.426 87.5145 119.358 87.5145C119.29 87.5145 119.239 87.5145 119.196 87.5145C119.154 87.5145 119.12 87.4973 119.094 87.4887C119.068 87.4802 119.051 87.463 119.043 87.4458C119.034 87.4286 119.026 87.4115 119.026 87.3943V81.8986C119.026 81.8986 119.026 81.8556 119.043 81.8385C119.051 81.8213 119.068 81.8041 119.094 81.7955C119.12 81.7869 119.154 81.7784 119.196 81.7698C119.239 81.7698 119.298 81.7698 119.358 81.7698C119.418 81.7698 119.486 81.7698 119.528 81.7698C119.571 81.7698 119.605 81.7869 119.63 81.7955C119.656 81.8041 119.673 81.8213 119.681 81.8385C119.69 81.8556 119.698 81.8728 119.698 81.8986V87.3943Z" fill="#001E6B"/>
<path fill-rule="evenodd" clip-rule="evenodd" d="M121.614 87.3942C121.614 87.3942 121.614 87.4371 121.597 87.4457C121.588 87.4629 121.571 87.4715 121.546 87.4887C121.52 87.4973 121.486 87.5058 121.443 87.5144C121.401 87.5144 121.341 87.5144 121.273 87.5144C121.205 87.5144 121.154 87.5144 121.111 87.5144C121.069 87.5144 121.035 87.4973 121.009 87.4887C120.984 87.4801 120.967 87.4629 120.958 87.4457C120.95 87.4286 120.941 87.4114 120.941 87.3942V83.6932C120.941 83.6932 120.941 83.6588 120.958 83.6417C120.967 83.6245 120.984 83.6073 121.009 83.5987C121.035 83.5901 121.069 83.5816 121.111 83.573C121.154 83.573 121.214 83.573 121.273 83.573C121.333 83.573 121.401 83.573 121.443 83.573C121.486 83.573 121.52 83.5901 121.546 83.5987C121.571 83.6073 121.588 83.6245 121.597 83.6417C121.605 83.6588 121.614 83.676 121.614 83.6932V87.3942ZM121.69 82.4395C121.69 82.6026 121.665 82.7057 121.597 82.7658C121.537 82.8259 121.426 82.8517 121.265 82.8517C121.103 82.8517 121.001 82.8259 120.941 82.7658C120.882 82.7057 120.856 82.6026 120.856 82.4481C120.856 82.2935 120.89 82.1819 120.95 82.1218C121.009 82.0617 121.12 82.0359 121.282 82.0359C121.443 82.0359 121.546 82.0617 121.605 82.1218C121.665 82.1819 121.69 82.2849 121.69 82.4395Z" fill="#001E6B"/>
<path fill-rule="evenodd" clip-rule="evenodd" d="M125.496 86.8361C125.496 86.8791 125.496 86.922 125.496 86.9563C125.496 86.9907 125.496 87.0165 125.479 87.0422C125.479 87.068 125.462 87.0852 125.454 87.1023C125.445 87.1195 125.42 87.1453 125.386 87.1796C125.352 87.214 125.292 87.2569 125.215 87.3084C125.13 87.3599 125.045 87.4029 124.943 87.4458C124.841 87.4887 124.73 87.5145 124.611 87.5403C124.492 87.566 124.364 87.5746 124.236 87.5746C123.972 87.5746 123.742 87.5317 123.538 87.4458C123.334 87.3599 123.163 87.2311 123.027 87.0594C122.891 86.8876 122.789 86.6816 122.712 86.4411C122.644 86.1921 122.602 85.9087 122.602 85.591C122.602 85.2304 122.644 84.9126 122.738 84.6464C122.823 84.3888 122.951 84.1656 123.104 84.0024C123.257 83.8307 123.436 83.7104 123.649 83.6332C123.853 83.5559 124.083 83.5129 124.321 83.5129C124.441 83.5129 124.551 83.5215 124.662 83.5473C124.773 83.573 124.875 83.5988 124.968 83.6332C125.062 83.6675 125.147 83.7104 125.215 83.7534C125.283 83.7963 125.343 83.8392 125.369 83.8736C125.403 83.9079 125.428 83.9337 125.437 83.9509C125.445 83.9681 125.462 83.9938 125.471 84.0196C125.471 84.0453 125.488 84.0797 125.488 84.1054C125.488 84.1398 125.488 84.1827 125.488 84.2257C125.488 84.3287 125.479 84.406 125.454 84.4489C125.428 84.4919 125.403 84.509 125.369 84.509C125.326 84.509 125.283 84.4833 125.224 84.4403C125.173 84.3974 125.105 84.3459 125.02 84.2944C124.934 84.2428 124.841 84.1913 124.722 84.1484C124.602 84.1054 124.466 84.0797 124.313 84.0797C123.989 84.0797 123.742 84.2085 123.572 84.4575C123.402 84.7065 123.317 85.0758 123.317 85.5481C123.317 85.7885 123.342 85.9946 123.385 86.1749C123.427 86.3553 123.496 86.5012 123.581 86.6214C123.666 86.7417 123.776 86.8361 123.904 86.8876C124.032 86.9478 124.177 86.9735 124.338 86.9735C124.492 86.9735 124.628 86.9478 124.747 86.8962C124.866 86.8447 124.968 86.7932 125.054 86.7331C125.139 86.673 125.215 86.6215 125.266 86.5699C125.326 86.5184 125.369 86.5012 125.403 86.5012C125.42 86.5012 125.437 86.5012 125.454 86.5184C125.471 86.527 125.479 86.5442 125.488 86.5699C125.496 86.5957 125.505 86.63 125.505 86.673C125.505 86.7159 125.505 86.7588 125.505 86.8104" fill="#001E6B"/>
<path fill-rule="evenodd" clip-rule="evenodd" d="M128.425 85.7111H127.846C127.659 85.7111 127.497 85.7282 127.361 85.7626C127.225 85.7969 127.114 85.8399 127.02 85.9C126.927 85.9601 126.867 86.0374 126.825 86.1232C126.782 86.2091 126.765 86.3122 126.765 86.4238C126.765 86.6127 126.825 86.7673 126.944 86.8789C127.063 86.9905 127.233 87.0506 127.455 87.0506C127.633 87.0506 127.795 87.0077 127.948 86.9132C128.102 86.8188 128.255 86.6814 128.425 86.5011V85.7111ZM129.098 87.4027C129.098 87.4027 129.089 87.4628 129.064 87.48C129.038 87.4972 129.013 87.5058 128.97 87.5143C128.928 87.5229 128.877 87.5229 128.8 87.5229C128.723 87.5229 128.672 87.5229 128.63 87.5143C128.587 87.5143 128.553 87.4972 128.536 87.48C128.519 87.4628 128.51 87.4371 128.51 87.4027V87.0335C128.349 87.2052 128.17 87.3426 127.974 87.4371C127.778 87.5315 127.565 87.583 127.344 87.583C127.148 87.583 126.978 87.5573 126.816 87.5058C126.663 87.4542 126.527 87.3855 126.416 87.2825C126.305 87.1794 126.22 87.0678 126.161 86.9304C126.101 86.793 126.067 86.6299 126.067 86.4495C126.067 86.2435 126.109 86.0631 126.195 85.9086C126.28 85.754 126.399 85.6252 126.561 85.5221C126.722 85.4191 126.91 85.3418 127.14 85.2903C127.37 85.2388 127.625 85.213 127.914 85.213H128.417V84.9211C128.417 84.7751 128.4 84.6549 128.374 84.5432C128.349 84.4316 128.298 84.3457 128.229 84.2684C128.161 84.1912 128.076 84.1396 127.974 84.1053C127.872 84.0709 127.736 84.0538 127.582 84.0538C127.421 84.0538 127.267 84.0709 127.14 84.1139C127.003 84.1568 126.893 84.1997 126.791 84.2427C126.688 84.2942 126.612 84.3371 126.544 84.3715C126.476 84.4144 126.424 84.4316 126.399 84.4316C126.373 84.4316 126.356 84.4316 126.339 84.4144C126.322 84.3972 126.305 84.3887 126.297 84.3629C126.288 84.3371 126.28 84.3114 126.271 84.277C126.271 84.2427 126.271 84.2083 126.271 84.1654C126.271 84.0967 126.271 84.0452 126.288 84.0022C126.297 83.9593 126.322 83.925 126.356 83.8906C126.39 83.8563 126.459 83.8133 126.544 83.7618C126.637 83.7103 126.739 83.6673 126.85 83.633C126.969 83.5901 127.097 83.5557 127.233 83.5385C127.37 83.5128 127.514 83.4956 127.65 83.4956C127.914 83.4956 128.136 83.53 128.323 83.5901C128.51 83.6502 128.655 83.736 128.774 83.8563C128.885 83.9765 128.97 84.1139 129.021 84.2942C129.072 84.4659 129.098 84.672 129.098 84.8953V87.3941V87.4027Z" fill="#001E6B"/>
<path fill-rule="evenodd" clip-rule="evenodd" d="M134.683 84.7923C134.504 84.5604 134.325 84.3887 134.155 84.2685C133.985 84.1483 133.806 84.0882 133.619 84.0882C133.448 84.0882 133.304 84.1311 133.184 84.2084C133.065 84.2942 132.972 84.3973 132.895 84.5347C132.818 84.6721 132.767 84.818 132.733 84.9898C132.699 85.1615 132.682 85.3333 132.682 85.505C132.682 85.6939 132.699 85.8743 132.725 86.0546C132.75 86.2349 132.801 86.3895 132.869 86.5269C132.937 86.6643 133.031 86.7759 133.15 86.8618C133.269 86.9476 133.414 86.9906 133.593 86.9906C133.687 86.9906 133.772 86.982 133.848 86.9562C133.934 86.9305 134.019 86.8875 134.104 86.836C134.189 86.7759 134.283 86.7072 134.376 86.6127C134.47 86.5183 134.572 86.4067 134.674 86.2778V84.7923H134.683ZM135.364 87.3942C135.364 87.3942 135.364 87.4371 135.347 87.4543C135.338 87.4714 135.321 87.48 135.296 87.4972C135.27 87.5058 135.245 87.5144 135.202 87.523C135.168 87.523 135.117 87.523 135.066 87.523C135.015 87.523 134.964 87.523 134.921 87.523C134.887 87.523 134.853 87.5058 134.828 87.4972C134.802 87.4886 134.785 87.4714 134.776 87.4543C134.768 87.4371 134.759 87.4199 134.759 87.3942V86.9047C134.564 87.1194 134.368 87.2825 134.155 87.3942C133.951 87.5144 133.721 87.5745 133.474 87.5745C133.201 87.5745 132.972 87.523 132.784 87.4199C132.597 87.3169 132.444 87.1709 132.324 86.9906C132.205 86.8102 132.12 86.5956 132.069 86.3551C132.018 86.1147 131.984 85.8571 131.984 85.5909C131.984 85.2732 132.018 84.9812 132.086 84.7322C132.154 84.4746 132.256 84.2599 132.384 84.0796C132.52 83.8992 132.682 83.7618 132.878 83.6588C133.074 83.5643 133.304 83.5128 133.559 83.5128C133.772 83.5128 133.968 83.5643 134.146 83.6588C134.325 83.7533 134.504 83.8906 134.674 84.0796V81.9242C134.674 81.9242 134.674 81.8899 134.691 81.8727C134.7 81.8555 134.717 81.8383 134.751 81.8298C134.776 81.8212 134.811 81.8126 134.853 81.804C134.896 81.804 134.947 81.7954 135.015 81.7954C135.083 81.7954 135.143 81.7954 135.185 81.804C135.228 81.804 135.262 81.8212 135.287 81.8298C135.313 81.8383 135.33 81.8555 135.338 81.8727C135.347 81.8899 135.355 81.907 135.355 81.9242V87.4113L135.364 87.3942Z" fill="#001E6B"/>
<path fill-rule="evenodd" clip-rule="evenodd" d="M139.067 85.1873C139.067 84.8266 138.999 84.5518 138.829 84.3458C138.667 84.1397 138.42 84.0452 138.088 84.0452C137.918 84.0452 137.773 84.0796 137.646 84.1397C137.518 84.1998 137.416 84.2856 137.331 84.3887C137.245 84.4917 137.177 84.612 137.135 84.7493C137.092 84.8867 137.067 85.0327 137.058 85.1873H139.059H139.067ZM139.749 85.3848C139.749 85.4878 139.723 85.5651 139.672 85.6166C139.621 85.6596 139.561 85.6853 139.493 85.6853H137.075C137.075 85.8914 137.092 86.0803 137.135 86.2435C137.177 86.4066 137.245 86.5526 137.339 86.6643C137.433 86.7845 137.56 86.8703 137.714 86.939C137.867 86.9992 138.054 87.0335 138.276 87.0335C138.454 87.0335 138.608 87.0163 138.744 86.9906C138.88 86.9648 138.999 86.9305 139.101 86.8961C139.204 86.8618 139.28 86.8274 139.348 86.8017C139.416 86.7759 139.459 86.7587 139.493 86.7587C139.51 86.7587 139.527 86.7587 139.544 86.7759C139.561 86.7845 139.57 86.8016 139.578 86.8188C139.587 86.836 139.595 86.8618 139.595 86.8961C139.595 86.9305 139.595 86.9734 139.595 87.0249C139.595 87.0593 139.595 87.0936 139.595 87.1194C139.595 87.1451 139.595 87.1709 139.587 87.1881C139.587 87.2052 139.578 87.231 139.57 87.2482C139.561 87.2653 139.544 87.2825 139.536 87.2997C139.519 87.3169 139.476 87.3426 139.399 87.377C139.323 87.4113 139.229 87.4457 139.11 87.48C138.991 87.5144 138.855 87.5401 138.701 87.5659C138.548 87.5917 138.386 87.6088 138.207 87.6088C137.909 87.6088 137.637 87.5659 137.416 87.48C137.186 87.3942 136.998 87.2654 136.845 87.1022C136.692 86.939 136.573 86.7244 136.496 86.4753C136.42 86.2263 136.377 85.9258 136.377 85.5909C136.377 85.256 136.42 84.9898 136.496 84.7322C136.581 84.4746 136.692 84.2599 136.845 84.0881C136.998 83.9078 137.186 83.779 137.399 83.6846C137.62 83.5901 137.858 83.5386 138.131 83.5386C138.42 83.5386 138.667 83.5815 138.863 83.676C139.067 83.7704 139.229 83.8906 139.365 84.0538C139.493 84.2084 139.595 84.3973 139.655 84.612C139.714 84.8266 139.749 85.0499 139.749 85.2903V85.4105V85.3848Z" fill="#001E6B"/>
<path fill-rule="evenodd" clip-rule="evenodd" d="M141.443 87.3943C141.443 87.3943 141.443 87.4372 141.426 87.4458C141.418 87.463 141.401 87.4716 141.375 87.4887C141.349 87.4973 141.315 87.5059 141.273 87.5145C141.23 87.5145 141.171 87.5145 141.103 87.5145C141.034 87.5145 140.983 87.5145 140.941 87.5145C140.898 87.5145 140.864 87.4973 140.839 87.4887C140.813 87.4802 140.796 87.463 140.788 87.4458C140.779 87.4286 140.771 87.4115 140.771 87.3943V81.8986C140.771 81.8986 140.771 81.8556 140.788 81.8385C140.796 81.8213 140.813 81.8041 140.839 81.7955C140.864 81.7869 140.898 81.7784 140.941 81.7698C140.983 81.7698 141.043 81.7698 141.103 81.7698C141.162 81.7698 141.23 81.7698 141.273 81.7698C141.315 81.7698 141.349 81.7869 141.375 81.7955C141.401 81.8041 141.418 81.8213 141.426 81.8385C141.435 81.8556 141.443 81.8728 141.443 81.8986V87.3943Z" fill="#001E6B"/>
<path fill-rule="evenodd" clip-rule="evenodd" d="M147.156 83.7963C147.156 83.5816 147.113 83.4013 147.037 83.2553C146.96 83.1093 146.858 82.9977 146.739 82.929C146.62 82.8603 146.5 82.8088 146.373 82.7916C146.245 82.7744 146.126 82.7658 146.007 82.7658H145.359V84.904H145.99C146.202 84.904 146.381 84.8783 146.517 84.8182C146.654 84.7666 146.773 84.6893 146.866 84.5863C146.96 84.4918 147.037 84.3716 147.079 84.2342C147.13 84.0968 147.156 83.9509 147.156 83.7877V83.7963ZM147.897 83.7276C147.897 83.9938 147.854 84.2342 147.769 84.4489C147.684 84.6636 147.556 84.8439 147.394 84.9985C147.233 85.153 147.037 85.2647 146.798 85.3505C146.56 85.4364 146.279 85.4708 145.955 85.4708H145.359V87.3857C145.359 87.3857 145.36 87.4286 145.342 87.4458C145.334 87.463 145.308 87.4715 145.283 87.4887C145.257 87.4973 145.223 87.5059 145.181 87.5145C145.138 87.5145 145.079 87.5231 145.01 87.5231C144.942 87.5231 144.883 87.5231 144.84 87.5145C144.798 87.5145 144.764 87.4973 144.729 87.4887C144.704 87.4801 144.687 87.463 144.67 87.4458C144.661 87.4286 144.653 87.4114 144.653 87.3857V82.4739C144.653 82.3623 144.678 82.285 144.738 82.242C144.798 82.1991 144.857 82.1733 144.934 82.1733H146.066C146.177 82.1733 146.288 82.1733 146.398 82.1905C146.5 82.1991 146.628 82.2163 146.773 82.2506C146.918 82.285 147.062 82.3451 147.207 82.431C147.352 82.5168 147.479 82.6199 147.582 82.7487C147.684 82.8775 147.76 83.0235 147.82 83.1866C147.88 83.3498 147.905 83.5387 147.905 83.7362" fill="#001E6B"/>
<path fill-rule="evenodd" clip-rule="evenodd" d="M151.183 85.1873C151.183 84.8266 151.115 84.5518 150.945 84.3458C150.783 84.1397 150.536 84.0452 150.204 84.0452C150.034 84.0452 149.889 84.0796 149.761 84.1397C149.634 84.1998 149.531 84.2856 149.446 84.3887C149.361 84.4917 149.293 84.612 149.25 84.7493C149.208 84.8867 149.182 85.0327 149.174 85.1873H151.175H151.183ZM151.864 85.3848C151.864 85.4878 151.839 85.5651 151.788 85.6166C151.737 85.6596 151.677 85.6853 151.609 85.6853H149.191C149.191 85.8914 149.208 86.0803 149.25 86.2435C149.293 86.4066 149.361 86.5526 149.455 86.6643C149.548 86.7845 149.676 86.8703 149.829 86.939C149.983 86.9992 150.17 87.0335 150.391 87.0335C150.57 87.0335 150.723 87.0163 150.86 86.9906C150.996 86.9648 151.115 86.9305 151.217 86.8961C151.319 86.8618 151.396 86.8274 151.464 86.8017C151.532 86.7759 151.575 86.7587 151.609 86.7587C151.626 86.7587 151.643 86.7587 151.66 86.7759C151.677 86.7845 151.685 86.8016 151.694 86.8188C151.702 86.836 151.711 86.8618 151.711 86.8961C151.711 86.9305 151.711 86.9734 151.711 87.0249C151.711 87.0593 151.711 87.0936 151.711 87.1194C151.711 87.1451 151.711 87.1709 151.702 87.1881C151.702 87.2052 151.694 87.231 151.685 87.2482C151.677 87.2653 151.66 87.2825 151.651 87.2997C151.634 87.3169 151.592 87.3426 151.515 87.377C151.439 87.4113 151.345 87.4457 151.226 87.48C151.106 87.5144 150.97 87.5401 150.817 87.5659C150.664 87.5917 150.502 87.6088 150.323 87.6088C150.025 87.6088 149.753 87.5659 149.531 87.48C149.302 87.3942 149.114 87.2654 148.961 87.1022C148.808 86.939 148.688 86.7244 148.612 86.4753C148.535 86.2263 148.493 85.9258 148.493 85.5909C148.493 85.256 148.535 84.9898 148.612 84.7322C148.697 84.4746 148.808 84.2599 148.961 84.0881C149.114 83.9078 149.302 83.779 149.514 83.6846C149.736 83.5901 149.974 83.5386 150.247 83.5386C150.536 83.5386 150.783 83.5815 150.979 83.676C151.183 83.7704 151.345 83.8906 151.481 84.0538C151.609 84.2084 151.711 84.3973 151.771 84.612C151.83 84.8266 151.864 85.0499 151.864 85.2903V85.4105V85.3848Z" fill="#001E6B"/>
<path fill-rule="evenodd" clip-rule="evenodd" d="M155.031 83.9337C155.031 83.9938 155.031 84.0453 155.031 84.0883C155.031 84.1312 155.031 84.1656 155.014 84.1827C155.006 84.2085 154.997 84.2257 154.98 84.2343C154.972 84.2428 154.955 84.2514 154.929 84.2514C154.904 84.2514 154.878 84.2514 154.852 84.2343C154.818 84.2257 154.784 84.2085 154.75 84.1999C154.708 84.1827 154.665 84.1741 154.623 84.1656C154.572 84.157 154.52 84.1484 154.461 84.1484C154.393 84.1484 154.325 84.1656 154.256 84.1913C154.188 84.2171 154.12 84.2686 154.052 84.3287C153.976 84.3888 153.907 84.4747 153.822 84.5777C153.746 84.6808 153.661 84.8096 153.558 84.9641V87.4029C153.558 87.4029 153.558 87.4458 153.541 87.4544C153.533 87.4716 153.516 87.4802 153.49 87.4973C153.465 87.5059 153.431 87.5145 153.388 87.5231C153.345 87.5231 153.286 87.5231 153.218 87.5231C153.15 87.5231 153.099 87.5231 153.056 87.5231C153.013 87.5231 152.979 87.5059 152.954 87.4973C152.928 87.4887 152.911 87.4716 152.903 87.4544C152.894 87.4372 152.886 87.42 152.886 87.4029V83.7019C152.886 83.7019 152.886 83.6589 152.894 83.6503C152.903 83.6332 152.92 83.6246 152.945 83.6074C152.971 83.5988 153.005 83.5902 153.039 83.5816C153.082 83.5816 153.124 83.5816 153.192 83.5816C153.26 83.5816 153.303 83.5816 153.337 83.5816C153.38 83.5816 153.405 83.5902 153.431 83.6074C153.456 83.616 153.465 83.6332 153.482 83.6503C153.49 83.6675 153.499 83.6847 153.499 83.7019V84.2428C153.601 84.0969 153.695 83.9766 153.78 83.8822C153.865 83.7877 153.95 83.719 154.027 83.6589C154.103 83.6074 154.18 83.5645 154.265 83.5473C154.342 83.5301 154.418 83.5129 154.503 83.5129C154.537 83.5129 154.58 83.5129 154.623 83.5129C154.665 83.5129 154.716 83.5215 154.767 83.5387C154.818 83.5473 154.861 83.5645 154.904 83.573C154.946 83.5902 154.972 83.5988 154.989 83.616C155.006 83.6332 155.014 83.6417 155.023 83.6589C155.023 83.6675 155.031 83.6847 155.04 83.7104C155.04 83.7276 155.04 83.762 155.04 83.7963C155.04 83.8307 155.04 83.8822 155.04 83.9423" fill="#001E6B"/>
<path fill-rule="evenodd" clip-rule="evenodd" d="M157.705 81.8813C157.705 81.8813 157.739 81.8298 157.764 81.804C157.79 81.7869 157.815 81.7697 157.841 81.7611C157.875 81.7525 157.909 81.7439 157.96 81.7354C158.003 81.7354 158.062 81.7354 158.13 81.7354C158.207 81.7354 158.267 81.7354 158.318 81.7525C158.369 81.7611 158.394 81.7783 158.42 81.7955C158.437 81.8126 158.445 81.8298 158.445 81.8556C158.445 81.8813 158.428 81.8985 158.411 81.9243L157.671 82.886C157.671 82.886 157.628 82.9375 157.611 82.9547C157.594 82.9719 157.577 82.9805 157.551 82.9976C157.526 83.0062 157.5 83.0148 157.458 83.0148C157.424 83.0148 157.373 83.0148 157.322 83.0148C157.262 83.0148 157.211 83.0148 157.177 83.0062C157.143 83.0062 157.117 82.9891 157.1 82.9719C157.083 82.9547 157.083 82.9375 157.083 82.9204C157.083 82.8946 157.1 82.8688 157.117 82.8431L157.713 81.8899L157.705 81.8813ZM158.948 87.3942C158.948 87.3942 158.948 87.4371 158.931 87.4543C158.922 87.4715 158.905 87.4801 158.88 87.4973C158.854 87.5058 158.82 87.5144 158.786 87.523C158.743 87.523 158.701 87.523 158.641 87.523C158.582 87.523 158.53 87.523 158.488 87.523C158.445 87.523 158.42 87.5058 158.394 87.4973C158.369 87.4887 158.352 87.4715 158.343 87.4543C158.343 87.4371 158.335 87.42 158.335 87.3942V86.9048C158.122 87.1366 157.918 87.3083 157.713 87.4114C157.509 87.5144 157.304 87.5745 157.092 87.5745C156.845 87.5745 156.64 87.5316 156.47 87.4543C156.3 87.3685 156.164 87.2568 156.061 87.1194C155.959 86.982 155.883 86.8103 155.84 86.6214C155.798 86.4325 155.772 86.2092 155.772 85.9344V83.6846C155.772 83.6846 155.772 83.6417 155.789 83.6245C155.798 83.6073 155.815 83.5987 155.84 83.5816C155.866 83.573 155.9 83.5644 155.942 83.5558C155.985 83.5558 156.044 83.5558 156.104 83.5558C156.164 83.5558 156.223 83.5558 156.266 83.5558C156.308 83.5558 156.342 83.573 156.368 83.5816C156.393 83.5902 156.411 83.6073 156.428 83.6245C156.436 83.6417 156.445 83.6588 156.445 83.6846V85.84C156.445 86.0546 156.462 86.235 156.496 86.3638C156.53 86.4926 156.572 86.6042 156.64 86.6987C156.7 86.7931 156.785 86.8618 156.879 86.9133C156.972 86.9649 157.092 86.9906 157.219 86.9906C157.39 86.9906 157.56 86.9305 157.722 86.8103C157.892 86.6901 158.071 86.5097 158.258 86.2779V83.6846C158.258 83.6846 158.258 83.6417 158.275 83.6245C158.284 83.6073 158.301 83.5987 158.335 83.5816C158.36 83.573 158.394 83.5644 158.437 83.5558C158.479 83.5558 158.531 83.5558 158.599 83.5558C158.667 83.5558 158.718 83.5558 158.76 83.5558C158.803 83.5558 158.837 83.573 158.863 83.5816C158.888 83.5902 158.905 83.6073 158.914 83.6245C158.922 83.6417 158.931 83.6588 158.931 83.6846V87.3856L158.948 87.3942Z" fill="#001E6B"/>
<path fill-rule="evenodd" clip-rule="evenodd" d="M21.8895 78.1011L1.99227 58.0332L0 60.0426L21.8895 82.1113L43.7705 60.0426L41.7782 58.0332L21.8895 78.1011Z" fill="#B2B4B5"/>
<path fill-rule="evenodd" clip-rule="evenodd" d="M21.881 74.1358L13.9204 66.1069L19.9398 60.0359L27.8493 52.0585L27.8663 52.0757C32.2425 56.4895 32.251 63.6339 27.9089 68.0648L21.8895 74.1358H21.881ZM15.8616 44.0898L21.881 38.0187L29.8416 46.0476L23.8222 52.1187L15.9127 60.096H15.9041C11.528 55.6737 11.5194 48.5293 15.8616 44.0984V44.0898ZM21.881 34L0 56.0773L21.8895 78.146L43.7705 56.0773L21.881 34Z" fill="#001E6B"/>
<path d="M22.4854 4.20312H26.7217C27.6826 4.20312 28.4941 4.34961 29.1562 4.64258C29.8242 4.93555 30.3311 5.36914 30.6768 5.94336C31.0283 6.51172 31.2041 7.21191 31.2041 8.04395C31.2041 8.62988 31.084 9.16602 30.8438 9.65234C30.6094 10.1328 30.2695 10.543 29.8242 10.8828C29.3848 11.2168 28.8574 11.4658 28.2422 11.6299L27.7676 11.8145H23.7861L23.7686 10.4346H26.7744C27.3838 10.4346 27.8906 10.3291 28.2949 10.1182C28.6992 9.90137 29.0039 9.61133 29.209 9.24805C29.4141 8.88477 29.5166 8.4834 29.5166 8.04395C29.5166 7.55176 29.4199 7.12109 29.2266 6.75195C29.0332 6.38281 28.7285 6.09863 28.3125 5.89941C27.9023 5.69434 27.3721 5.5918 26.7217 5.5918H24.1816V17H22.4854V4.20312ZM29.9648 17L26.8535 11.1992L28.6201 11.1904L31.7754 16.8945V17H29.9648ZM37.2773 17.1758C36.6152 17.1758 36.0146 17.0645 35.4756 16.8418C34.9424 16.6133 34.4824 16.2939 34.0957 15.8838C33.7148 15.4736 33.4219 14.9873 33.2168 14.4248C33.0117 13.8623 32.9092 13.2471 32.9092 12.5791V12.21C32.9092 11.4365 33.0234 10.748 33.252 10.1445C33.4805 9.53516 33.791 9.01953 34.1836 8.59766C34.5762 8.17578 35.0215 7.85645 35.5195 7.63965C36.0176 7.42285 36.5332 7.31445 37.0664 7.31445C37.7461 7.31445 38.332 7.43164 38.8242 7.66602C39.3223 7.90039 39.7295 8.22852 40.0459 8.65039C40.3623 9.06641 40.5967 9.55859 40.749 10.127C40.9014 10.6895 40.9775 11.3047 40.9775 11.9727V12.7021H33.876V11.375H39.3516V11.252C39.3281 10.8301 39.2402 10.4199 39.0879 10.0215C38.9414 9.62305 38.707 9.29492 38.3848 9.03711C38.0625 8.7793 37.623 8.65039 37.0664 8.65039C36.6973 8.65039 36.3574 8.72949 36.0469 8.8877C35.7363 9.04004 35.4697 9.26855 35.2471 9.57324C35.0244 9.87793 34.8516 10.25 34.7285 10.6895C34.6055 11.1289 34.5439 11.6357 34.5439 12.21V12.5791C34.5439 13.0303 34.6055 13.4551 34.7285 13.8535C34.8574 14.2461 35.042 14.5918 35.2822 14.8906C35.5283 15.1895 35.8242 15.4238 36.1699 15.5938C36.5215 15.7637 36.9199 15.8486 37.3652 15.8486C37.9395 15.8486 38.4258 15.7314 38.8242 15.4971C39.2227 15.2627 39.5713 14.9492 39.8701 14.5566L40.8545 15.3389C40.6494 15.6494 40.3887 15.9453 40.0723 16.2266C39.7559 16.5078 39.3662 16.7363 38.9033 16.9121C38.4463 17.0879 37.9043 17.1758 37.2773 17.1758ZM49.0371 7.49023H50.5137V16.7979C50.5137 17.6357 50.3438 18.3506 50.0039 18.9424C49.6641 19.5342 49.1895 19.9824 48.5801 20.2871C47.9766 20.5977 47.2793 20.7529 46.4883 20.7529C46.1602 20.7529 45.7734 20.7002 45.3281 20.5947C44.8887 20.4951 44.4551 20.3223 44.0273 20.0762C43.6055 19.8359 43.251 19.5107 42.9639 19.1006L43.8164 18.1338C44.2148 18.6143 44.6309 18.9482 45.0645 19.1357C45.5039 19.3232 45.9375 19.417 46.3652 19.417C46.8809 19.417 47.3262 19.3203 47.7012 19.127C48.0762 18.9336 48.3662 18.6465 48.5713 18.2656C48.7822 17.8906 48.8877 17.4277 48.8877 16.877V9.58203L49.0371 7.49023ZM42.4893 12.3506V12.166C42.4893 11.4395 42.5742 10.7803 42.7441 10.1885C42.9199 9.59082 43.1689 9.07812 43.4912 8.65039C43.8193 8.22266 44.2148 7.89453 44.6777 7.66602C45.1406 7.43164 45.6621 7.31445 46.2422 7.31445C46.8398 7.31445 47.3613 7.41992 47.8066 7.63086C48.2578 7.83594 48.6387 8.1377 48.9492 8.53613C49.2656 8.92871 49.5146 9.40332 49.6963 9.95996C49.8779 10.5166 50.0039 11.1465 50.0742 11.8496V12.6582C50.0098 13.3555 49.8838 13.9824 49.6963 14.5391C49.5146 15.0957 49.2656 15.5703 48.9492 15.9629C48.6387 16.3555 48.2578 16.6572 47.8066 16.8682C47.3555 17.0732 46.8281 17.1758 46.2246 17.1758C45.6562 17.1758 45.1406 17.0557 44.6777 16.8154C44.2207 16.5752 43.8281 16.2383 43.5 15.8047C43.1719 15.3711 42.9199 14.8613 42.7441 14.2754C42.5742 13.6836 42.4893 13.042 42.4893 12.3506ZM44.1152 12.166V12.3506C44.1152 12.8252 44.1621 13.2705 44.2559 13.6865C44.3555 14.1025 44.5049 14.4688 44.7041 14.7852C44.9092 15.1016 45.1699 15.3506 45.4863 15.5322C45.8027 15.708 46.1807 15.7959 46.6201 15.7959C47.1592 15.7959 47.6045 15.6816 47.9561 15.4531C48.3076 15.2246 48.5859 14.9229 48.791 14.5479C49.002 14.1729 49.166 13.7656 49.2832 13.3262V11.208C49.2188 10.8857 49.1191 10.5752 48.9844 10.2764C48.8555 9.97168 48.6855 9.70215 48.4746 9.46777C48.2695 9.22754 48.0146 9.03711 47.71 8.89648C47.4053 8.75586 47.0479 8.68555 46.6377 8.68555C46.1924 8.68555 45.8086 8.7793 45.4863 8.9668C45.1699 9.14844 44.9092 9.40039 44.7041 9.72266C44.5049 10.0391 44.3555 10.4082 44.2559 10.8301C44.1621 11.2461 44.1152 11.6914 44.1152 12.166ZM54.75 7.49023V17H53.1152V7.49023H54.75ZM52.9922 4.96777C52.9922 4.7041 53.0713 4.48145 53.2295 4.2998C53.3936 4.11816 53.6338 4.02734 53.9502 4.02734C54.2607 4.02734 54.498 4.11816 54.6621 4.2998C54.832 4.48145 54.917 4.7041 54.917 4.96777C54.917 5.21973 54.832 5.43652 54.6621 5.61816C54.498 5.79395 54.2607 5.88184 53.9502 5.88184C53.6338 5.88184 53.3936 5.79395 53.2295 5.61816C53.0713 5.43652 52.9922 5.21973 52.9922 4.96777ZM62.8975 14.4775C62.8975 14.2432 62.8447 14.0264 62.7393 13.8271C62.6396 13.6221 62.4316 13.4375 62.1152 13.2734C61.8047 13.1035 61.3359 12.957 60.709 12.834C60.1816 12.7227 59.7041 12.5908 59.2764 12.4385C58.8545 12.2861 58.4941 12.1016 58.1953 11.8848C57.9023 11.668 57.6768 11.4131 57.5186 11.1201C57.3604 10.8271 57.2812 10.4844 57.2812 10.0918C57.2812 9.7168 57.3633 9.3623 57.5273 9.02832C57.6973 8.69434 57.9346 8.39844 58.2393 8.14062C58.5498 7.88281 58.9219 7.68066 59.3555 7.53418C59.7891 7.3877 60.2725 7.31445 60.8057 7.31445C61.5674 7.31445 62.2178 7.44922 62.7568 7.71875C63.2959 7.98828 63.709 8.34863 63.9961 8.7998C64.2832 9.24512 64.4268 9.74023 64.4268 10.2852H62.8008C62.8008 10.0215 62.7217 9.7666 62.5635 9.52051C62.4111 9.26855 62.1855 9.06055 61.8867 8.89648C61.5938 8.73242 61.2334 8.65039 60.8057 8.65039C60.3545 8.65039 59.9883 8.7207 59.707 8.86133C59.4316 8.99609 59.2295 9.16895 59.1006 9.37988C58.9775 9.59082 58.916 9.81348 58.916 10.0479C58.916 10.2236 58.9453 10.3818 59.0039 10.5225C59.0684 10.6572 59.1797 10.7832 59.3379 10.9004C59.4961 11.0117 59.7188 11.1172 60.0059 11.2168C60.293 11.3164 60.6592 11.416 61.1045 11.5156C61.8838 11.6914 62.5254 11.9023 63.0293 12.1484C63.5332 12.3945 63.9082 12.6963 64.1543 13.0537C64.4004 13.4111 64.5234 13.8447 64.5234 14.3545C64.5234 14.7705 64.4355 15.1514 64.2598 15.4971C64.0898 15.8428 63.8408 16.1416 63.5127 16.3936C63.1904 16.6396 62.8037 16.833 62.3525 16.9736C61.9072 17.1084 61.4062 17.1758 60.8496 17.1758C60.0117 17.1758 59.3027 17.0264 58.7227 16.7275C58.1426 16.4287 57.7031 16.042 57.4043 15.5674C57.1055 15.0928 56.9561 14.5918 56.9561 14.0645H58.5908C58.6143 14.5098 58.7432 14.8643 58.9775 15.1279C59.2119 15.3857 59.499 15.5703 59.8389 15.6816C60.1787 15.7871 60.5156 15.8398 60.8496 15.8398C61.2949 15.8398 61.667 15.7812 61.9658 15.6641C62.2705 15.5469 62.502 15.3857 62.6602 15.1807C62.8184 14.9756 62.8975 14.7412 62.8975 14.4775ZM70.6406 7.49023V8.73828H65.499V7.49023H70.6406ZM67.2393 5.17871H68.8652V14.6445C68.8652 14.9668 68.915 15.21 69.0146 15.374C69.1143 15.5381 69.2432 15.6465 69.4014 15.6992C69.5596 15.752 69.7295 15.7783 69.9111 15.7783C70.0459 15.7783 70.1865 15.7666 70.333 15.7432C70.4854 15.7139 70.5996 15.6904 70.6758 15.6729L70.6846 17C70.5557 17.041 70.3857 17.0791 70.1748 17.1143C69.9697 17.1553 69.7207 17.1758 69.4277 17.1758C69.0293 17.1758 68.6631 17.0967 68.3291 16.9385C67.9951 16.7803 67.7285 16.5166 67.5293 16.1475C67.3359 15.7725 67.2393 15.2686 67.2393 14.6357V5.17871ZM74.1738 8.98438V17H72.5479V7.49023H74.1299L74.1738 8.98438ZM77.1445 7.4375L77.1357 8.94922C77.001 8.91992 76.8721 8.90234 76.749 8.89648C76.6318 8.88477 76.4971 8.87891 76.3447 8.87891C75.9697 8.87891 75.6387 8.9375 75.3516 9.05469C75.0645 9.17188 74.8213 9.33594 74.6221 9.54688C74.4229 9.75781 74.2646 10.0098 74.1475 10.3027C74.0361 10.5898 73.9629 10.9062 73.9277 11.252L73.4707 11.5156C73.4707 10.9414 73.5264 10.4023 73.6377 9.89844C73.7549 9.39453 73.9336 8.94922 74.1738 8.5625C74.4141 8.16992 74.7188 7.86523 75.0879 7.64844C75.4629 7.42578 75.9082 7.31445 76.4238 7.31445C76.541 7.31445 76.6758 7.3291 76.8281 7.3584C76.9805 7.38184 77.0859 7.4082 77.1445 7.4375ZM83.9033 15.374V10.4785C83.9033 10.1035 83.8271 9.77832 83.6748 9.50293C83.5283 9.22168 83.3057 9.00488 83.0068 8.85254C82.708 8.7002 82.3389 8.62402 81.8994 8.62402C81.4893 8.62402 81.1289 8.69434 80.8184 8.83496C80.5137 8.97559 80.2734 9.16016 80.0977 9.38867C79.9277 9.61719 79.8428 9.86328 79.8428 10.127H78.2168C78.2168 9.78711 78.3047 9.4502 78.4805 9.11621C78.6562 8.78223 78.9082 8.48047 79.2363 8.21094C79.5703 7.93555 79.9688 7.71875 80.4316 7.56055C80.9004 7.39648 81.4219 7.31445 81.9961 7.31445C82.6875 7.31445 83.2969 7.43164 83.8242 7.66602C84.3574 7.90039 84.7734 8.25488 85.0723 8.72949C85.377 9.19824 85.5293 9.78711 85.5293 10.4961V14.9258C85.5293 15.2422 85.5557 15.5791 85.6084 15.9365C85.667 16.2939 85.752 16.6016 85.8633 16.8594V17H84.167C84.085 16.8125 84.0205 16.5635 83.9736 16.2529C83.9268 15.9365 83.9033 15.6436 83.9033 15.374ZM84.1846 11.2344L84.2021 12.377H82.5586C82.0957 12.377 81.6826 12.415 81.3193 12.4912C80.9561 12.5615 80.6514 12.6699 80.4053 12.8164C80.1592 12.9629 79.9717 13.1475 79.8428 13.3701C79.7139 13.5869 79.6494 13.8418 79.6494 14.1348C79.6494 14.4336 79.7168 14.7061 79.8516 14.9521C79.9863 15.1982 80.1885 15.3945 80.458 15.541C80.7334 15.6816 81.0703 15.752 81.4688 15.752C81.9668 15.752 82.4062 15.6465 82.7871 15.4355C83.168 15.2246 83.4697 14.9668 83.6924 14.6621C83.9209 14.3574 84.0439 14.0615 84.0615 13.7744L84.7559 14.5566C84.7148 14.8027 84.6035 15.0752 84.4219 15.374C84.2402 15.6729 83.9971 15.96 83.6924 16.2354C83.3936 16.5049 83.0361 16.7305 82.6201 16.9121C82.21 17.0879 81.7471 17.1758 81.2314 17.1758C80.5869 17.1758 80.0215 17.0498 79.5352 16.7979C79.0547 16.5459 78.6797 16.209 78.4102 15.7871C78.1465 15.3594 78.0146 14.8818 78.0146 14.3545C78.0146 13.8447 78.1143 13.3965 78.3135 13.0098C78.5127 12.6172 78.7998 12.292 79.1748 12.0342C79.5498 11.7705 80.001 11.5713 80.5283 11.4365C81.0557 11.3018 81.6445 11.2344 82.2949 11.2344H84.1846ZM94.0811 15.1543V3.5H95.7158V17H94.2217L94.0811 15.1543ZM87.6826 12.3506V12.166C87.6826 11.4395 87.7705 10.7803 87.9463 10.1885C88.1279 9.59082 88.3828 9.07812 88.7109 8.65039C89.0449 8.22266 89.4404 7.89453 89.8975 7.66602C90.3604 7.43164 90.876 7.31445 91.4443 7.31445C92.042 7.31445 92.5635 7.41992 93.0088 7.63086C93.46 7.83594 93.8408 8.1377 94.1514 8.53613C94.4678 8.92871 94.7168 9.40332 94.8984 9.95996C95.0801 10.5166 95.2061 11.1465 95.2764 11.8496V12.6582C95.2119 13.3555 95.0859 13.9824 94.8984 14.5391C94.7168 15.0957 94.4678 15.5703 94.1514 15.9629C93.8408 16.3555 93.46 16.6572 93.0088 16.8682C92.5576 17.0732 92.0303 17.1758 91.4268 17.1758C90.8701 17.1758 90.3604 17.0557 89.8975 16.8154C89.4404 16.5752 89.0449 16.2383 88.7109 15.8047C88.3828 15.3711 88.1279 14.8613 87.9463 14.2754C87.7705 13.6836 87.6826 13.042 87.6826 12.3506ZM89.3174 12.166V12.3506C89.3174 12.8252 89.3643 13.2705 89.458 13.6865C89.5576 14.1025 89.71 14.4688 89.915 14.7852C90.1201 15.1016 90.3809 15.3506 90.6973 15.5322C91.0137 15.708 91.3916 15.7959 91.8311 15.7959C92.3701 15.7959 92.8125 15.6816 93.1582 15.4531C93.5098 15.2246 93.791 14.9229 94.002 14.5479C94.2129 14.1729 94.377 13.7656 94.4941 13.3262V11.208C94.4238 10.8857 94.3213 10.5752 94.1865 10.2764C94.0576 9.97168 93.8877 9.70215 93.6768 9.46777C93.4717 9.22754 93.2168 9.03711 92.9121 8.89648C92.6133 8.75586 92.2588 8.68555 91.8486 8.68555C91.4033 8.68555 91.0195 8.7793 90.6973 8.9668C90.3809 9.14844 90.1201 9.40039 89.915 9.72266C89.71 10.0391 89.5576 10.4082 89.458 10.8301C89.3643 11.2461 89.3174 11.6914 89.3174 12.166ZM103.854 15.374V10.4785C103.854 10.1035 103.778 9.77832 103.626 9.50293C103.479 9.22168 103.257 9.00488 102.958 8.85254C102.659 8.7002 102.29 8.62402 101.851 8.62402C101.44 8.62402 101.08 8.69434 100.77 8.83496C100.465 8.97559 100.225 9.16016 100.049 9.38867C99.8789 9.61719 99.7939 9.86328 99.7939 10.127H98.168C98.168 9.78711 98.2559 9.4502 98.4316 9.11621C98.6074 8.78223 98.8594 8.48047 99.1875 8.21094C99.5215 7.93555 99.9199 7.71875 100.383 7.56055C100.852 7.39648 101.373 7.31445 101.947 7.31445C102.639 7.31445 103.248 7.43164 103.775 7.66602C104.309 7.90039 104.725 8.25488 105.023 8.72949C105.328 9.19824 105.48 9.78711 105.48 10.4961V14.9258C105.48 15.2422 105.507 15.5791 105.56 15.9365C105.618 16.2939 105.703 16.6016 105.814 16.8594V17H104.118C104.036 16.8125 103.972 16.5635 103.925 16.2529C103.878 15.9365 103.854 15.6436 103.854 15.374ZM104.136 11.2344L104.153 12.377H102.51C102.047 12.377 101.634 12.415 101.271 12.4912C100.907 12.5615 100.603 12.6699 100.356 12.8164C100.11 12.9629 99.9229 13.1475 99.7939 13.3701C99.665 13.5869 99.6006 13.8418 99.6006 14.1348C99.6006 14.4336 99.668 14.7061 99.8027 14.9521C99.9375 15.1982 100.14 15.3945 100.409 15.541C100.685 15.6816 101.021 15.752 101.42 15.752C101.918 15.752 102.357 15.6465 102.738 15.4355C103.119 15.2246 103.421 14.9668 103.644 14.6621C103.872 14.3574 103.995 14.0615 104.013 13.7744L104.707 14.5566C104.666 14.8027 104.555 15.0752 104.373 15.374C104.191 15.6729 103.948 15.96 103.644 16.2354C103.345 16.5049 102.987 16.7305 102.571 16.9121C102.161 17.0879 101.698 17.1758 101.183 17.1758C100.538 17.1758 99.9727 17.0498 99.4863 16.7979C99.0059 16.5459 98.6309 16.209 98.3613 15.7871C98.0977 15.3594 97.9658 14.8818 97.9658 14.3545C97.9658 13.8447 98.0654 13.3965 98.2646 13.0098C98.4639 12.6172 98.751 12.292 99.126 12.0342C99.501 11.7705 99.9521 11.5713 100.479 11.4365C101.007 11.3018 101.596 11.2344 102.246 11.2344H104.136ZM116.449 17.1758C115.787 17.1758 115.187 17.0645 114.647 16.8418C114.114 16.6133 113.654 16.2939 113.268 15.8838C112.887 15.4736 112.594 14.9873 112.389 14.4248C112.184 13.8623 112.081 13.2471 112.081 12.5791V12.21C112.081 11.4365 112.195 10.748 112.424 10.1445C112.652 9.53516 112.963 9.01953 113.355 8.59766C113.748 8.17578 114.193 7.85645 114.691 7.63965C115.189 7.42285 115.705 7.31445 116.238 7.31445C116.918 7.31445 117.504 7.43164 117.996 7.66602C118.494 7.90039 118.901 8.22852 119.218 8.65039C119.534 9.06641 119.769 9.55859 119.921 10.127C120.073 10.6895 120.149 11.3047 120.149 11.9727V12.7021H113.048V11.375H118.523V11.252C118.5 10.8301 118.412 10.4199 118.26 10.0215C118.113 9.62305 117.879 9.29492 117.557 9.03711C117.234 8.7793 116.795 8.65039 116.238 8.65039C115.869 8.65039 115.529 8.72949 115.219 8.8877C114.908 9.04004 114.642 9.26855 114.419 9.57324C114.196 9.87793 114.023 10.25 113.9 10.6895C113.777 11.1289 113.716 11.6357 113.716 12.21V12.5791C113.716 13.0303 113.777 13.4551 113.9 13.8535C114.029 14.2461 114.214 14.5918 114.454 14.8906C114.7 15.1895 114.996 15.4238 115.342 15.5938C115.693 15.7637 116.092 15.8486 116.537 15.8486C117.111 15.8486 117.598 15.7314 117.996 15.4971C118.395 15.2627 118.743 14.9492 119.042 14.5566L120.026 15.3389C119.821 15.6494 119.561 15.9453 119.244 16.2266C118.928 16.5078 118.538 16.7363 118.075 16.9121C117.618 17.0879 117.076 17.1758 116.449 17.1758ZM123.674 9.52051V17H122.048V7.49023H123.586L123.674 9.52051ZM123.287 11.8848L122.61 11.8584C122.616 11.208 122.713 10.6074 122.9 10.0566C123.088 9.5 123.352 9.0166 123.691 8.60645C124.031 8.19629 124.436 7.87988 124.904 7.65723C125.379 7.42871 125.903 7.31445 126.478 7.31445C126.946 7.31445 127.368 7.37891 127.743 7.50781C128.118 7.63086 128.438 7.83008 128.701 8.10547C128.971 8.38086 129.176 8.73828 129.316 9.17773C129.457 9.61133 129.527 10.1416 129.527 10.7686V17H127.893V10.751C127.893 10.2529 127.819 9.85449 127.673 9.55566C127.526 9.25098 127.312 9.03125 127.031 8.89648C126.75 8.75586 126.404 8.68555 125.994 8.68555C125.59 8.68555 125.221 8.77051 124.887 8.94043C124.559 9.11035 124.274 9.34473 124.034 9.64355C123.8 9.94238 123.615 10.2852 123.48 10.6719C123.352 11.0527 123.287 11.457 123.287 11.8848ZM138.229 3.5V17H136.594V3.5H138.229ZM146.446 15.374V10.4785C146.446 10.1035 146.37 9.77832 146.218 9.50293C146.071 9.22168 145.849 9.00488 145.55 8.85254C145.251 8.7002 144.882 8.62402 144.442 8.62402C144.032 8.62402 143.672 8.69434 143.361 8.83496C143.057 8.97559 142.816 9.16016 142.641 9.38867C142.471 9.61719 142.386 9.86328 142.386 10.127H140.76C140.76 9.78711 140.848 9.4502 141.023 9.11621C141.199 8.78223 141.451 8.48047 141.779 8.21094C142.113 7.93555 142.512 7.71875 142.975 7.56055C143.443 7.39648 143.965 7.31445 144.539 7.31445C145.23 7.31445 145.84 7.43164 146.367 7.66602C146.9 7.90039 147.316 8.25488 147.615 8.72949C147.92 9.19824 148.072 9.78711 148.072 10.4961V14.9258C148.072 15.2422 148.099 15.5791 148.151 15.9365C148.21 16.2939 148.295 16.6016 148.406 16.8594V17H146.71C146.628 16.8125 146.563 16.5635 146.517 16.2529C146.47 15.9365 146.446 15.6436 146.446 15.374ZM146.728 11.2344L146.745 12.377H145.102C144.639 12.377 144.226 12.415 143.862 12.4912C143.499 12.5615 143.194 12.6699 142.948 12.8164C142.702 12.9629 142.515 13.1475 142.386 13.3701C142.257 13.5869 142.192 13.8418 142.192 14.1348C142.192 14.4336 142.26 14.7061 142.395 14.9521C142.529 15.1982 142.731 15.3945 143.001 15.541C143.276 15.6816 143.613 15.752 144.012 15.752C144.51 15.752 144.949 15.6465 145.33 15.4355C145.711 15.2246 146.013 14.9668 146.235 14.6621C146.464 14.3574 146.587 14.0615 146.604 13.7744L147.299 14.5566C147.258 14.8027 147.146 15.0752 146.965 15.374C146.783 15.6729 146.54 15.96 146.235 16.2354C145.937 16.5049 145.579 16.7305 145.163 16.9121C144.753 17.0879 144.29 17.1758 143.774 17.1758C143.13 17.1758 142.564 17.0498 142.078 16.7979C141.598 16.5459 141.223 16.209 140.953 15.7871C140.689 15.3594 140.558 14.8818 140.558 14.3545C140.558 13.8447 140.657 13.3965 140.856 13.0098C141.056 12.6172 141.343 12.292 141.718 12.0342C142.093 11.7705 142.544 11.5713 143.071 11.4365C143.599 11.3018 144.188 11.2344 144.838 11.2344H146.728ZM162.161 13.7656C162.161 13.4668 162.114 13.2031 162.021 12.9746C161.933 12.7402 161.774 12.5293 161.546 12.3418C161.323 12.1543 161.013 11.9756 160.614 11.8057C160.222 11.6357 159.724 11.4629 159.12 11.2871C158.487 11.0996 157.916 10.8916 157.406 10.6631C156.896 10.4287 156.46 10.1621 156.097 9.86328C155.733 9.56445 155.455 9.22168 155.262 8.83496C155.068 8.44824 154.972 8.00586 154.972 7.50781C154.972 7.00977 155.074 6.5498 155.279 6.12793C155.484 5.70605 155.777 5.33984 156.158 5.0293C156.545 4.71289 157.005 4.4668 157.538 4.29102C158.071 4.11523 158.666 4.02734 159.322 4.02734C160.283 4.02734 161.098 4.21191 161.766 4.58105C162.439 4.94434 162.952 5.42188 163.304 6.01367C163.655 6.59961 163.831 7.22656 163.831 7.89453H162.144C162.144 7.41406 162.041 6.98926 161.836 6.62012C161.631 6.24512 161.32 5.95215 160.904 5.74121C160.488 5.52441 159.961 5.41602 159.322 5.41602C158.719 5.41602 158.221 5.50684 157.828 5.68848C157.436 5.87012 157.143 6.11621 156.949 6.42676C156.762 6.7373 156.668 7.0918 156.668 7.49023C156.668 7.75977 156.724 8.00586 156.835 8.22852C156.952 8.44531 157.131 8.64746 157.371 8.83496C157.617 9.02246 157.928 9.19531 158.303 9.35352C158.684 9.51172 159.138 9.66406 159.665 9.81055C160.392 10.0156 161.019 10.2441 161.546 10.4961C162.073 10.748 162.507 11.0322 162.847 11.3486C163.192 11.6592 163.447 12.0137 163.611 12.4121C163.781 12.8047 163.866 13.25 163.866 13.748C163.866 14.2695 163.761 14.7412 163.55 15.1631C163.339 15.585 163.037 15.9453 162.645 16.2441C162.252 16.543 161.78 16.7744 161.229 16.9385C160.685 17.0967 160.075 17.1758 159.401 17.1758C158.81 17.1758 158.227 17.0938 157.652 16.9297C157.084 16.7656 156.565 16.5195 156.097 16.1914C155.634 15.8633 155.262 15.459 154.98 14.9785C154.705 14.4922 154.567 13.9297 154.567 13.291H156.255C156.255 13.7305 156.34 14.1084 156.51 14.4248C156.68 14.7354 156.911 14.9932 157.204 15.1982C157.503 15.4033 157.84 15.5557 158.215 15.6553C158.596 15.749 158.991 15.7959 159.401 15.7959C159.993 15.7959 160.494 15.7139 160.904 15.5498C161.314 15.3857 161.625 15.1514 161.836 14.8467C162.053 14.542 162.161 14.1816 162.161 13.7656ZM170.59 11.0146H167.347L167.329 9.65234H170.273C170.76 9.65234 171.185 9.57031 171.548 9.40625C171.911 9.24219 172.192 9.00781 172.392 8.70312C172.597 8.39258 172.699 8.02344 172.699 7.5957C172.699 7.12695 172.608 6.74609 172.427 6.45312C172.251 6.1543 171.979 5.9375 171.609 5.80273C171.246 5.66211 170.783 5.5918 170.221 5.5918H167.725V17H166.028V4.20312H170.221C170.877 4.20312 171.463 4.27051 171.979 4.40527C172.494 4.53418 172.931 4.73926 173.288 5.02051C173.651 5.2959 173.927 5.64746 174.114 6.0752C174.302 6.50293 174.396 7.01562 174.396 7.61328C174.396 8.14062 174.261 8.61816 173.991 9.0459C173.722 9.46777 173.347 9.81348 172.866 10.083C172.392 10.3525 171.835 10.5254 171.196 10.6016L170.59 11.0146ZM170.511 17H166.679L167.637 15.6201H170.511C171.05 15.6201 171.507 15.5264 171.882 15.3389C172.263 15.1514 172.553 14.8877 172.752 14.5479C172.951 14.2021 173.051 13.7949 173.051 13.3262C173.051 12.8516 172.966 12.4414 172.796 12.0957C172.626 11.75 172.359 11.4834 171.996 11.2959C171.633 11.1084 171.164 11.0146 170.59 11.0146H168.173L168.19 9.65234H171.495L171.855 10.1445C172.471 10.1973 172.992 10.373 173.42 10.6719C173.848 10.9648 174.173 11.3398 174.396 11.7969C174.624 12.2539 174.738 12.7578 174.738 13.3086C174.738 14.1055 174.562 14.7793 174.211 15.3301C173.865 15.875 173.376 16.291 172.743 16.5781C172.11 16.8594 171.366 17 170.511 17ZM184.063 13.7656C184.063 13.4668 184.017 13.2031 183.923 12.9746C183.835 12.7402 183.677 12.5293 183.448 12.3418C183.226 12.1543 182.915 11.9756 182.517 11.8057C182.124 11.6357 181.626 11.4629 181.022 11.2871C180.39 11.0996 179.818 10.8916 179.309 10.6631C178.799 10.4287 178.362 10.1621 177.999 9.86328C177.636 9.56445 177.357 9.22168 177.164 8.83496C176.971 8.44824 176.874 8.00586 176.874 7.50781C176.874 7.00977 176.977 6.5498 177.182 6.12793C177.387 5.70605 177.68 5.33984 178.061 5.0293C178.447 4.71289 178.907 4.4668 179.44 4.29102C179.974 4.11523 180.568 4.02734 181.225 4.02734C182.186 4.02734 183 4.21191 183.668 4.58105C184.342 4.94434 184.854 5.42188 185.206 6.01367C185.558 6.59961 185.733 7.22656 185.733 7.89453H184.046C184.046 7.41406 183.943 6.98926 183.738 6.62012C183.533 6.24512 183.223 5.95215 182.807 5.74121C182.391 5.52441 181.863 5.41602 181.225 5.41602C180.621 5.41602 180.123 5.50684 179.73 5.68848C179.338 5.87012 179.045 6.11621 178.852 6.42676C178.664 6.7373 178.57 7.0918 178.57 7.49023C178.57 7.75977 178.626 8.00586 178.737 8.22852C178.854 8.44531 179.033 8.64746 179.273 8.83496C179.52 9.02246 179.83 9.19531 180.205 9.35352C180.586 9.51172 181.04 9.66406 181.567 9.81055C182.294 10.0156 182.921 10.2441 183.448 10.4961C183.976 10.748 184.409 11.0322 184.749 11.3486C185.095 11.6592 185.35 12.0137 185.514 12.4121C185.684 12.8047 185.769 13.25 185.769 13.748C185.769 14.2695 185.663 14.7412 185.452 15.1631C185.241 15.585 184.939 15.9453 184.547 16.2441C184.154 16.543 183.683 16.7744 183.132 16.9385C182.587 17.0967 181.978 17.1758 181.304 17.1758C180.712 17.1758 180.129 17.0938 179.555 16.9297C178.986 16.7656 178.468 16.5195 177.999 16.1914C177.536 15.8633 177.164 15.459 176.883 14.9785C176.607 14.4922 176.47 13.9297 176.47 13.291H178.157C178.157 13.7305 178.242 14.1084 178.412 14.4248C178.582 14.7354 178.813 14.9932 179.106 15.1982C179.405 15.4033 179.742 15.5557 180.117 15.6553C180.498 15.749 180.894 15.7959 181.304 15.7959C181.896 15.7959 182.396 15.7139 182.807 15.5498C183.217 15.3857 183.527 15.1514 183.738 14.8467C183.955 14.542 184.063 14.1816 184.063 13.7656Z" fill="#80387D"/>
</svg>
