<svg width="155" height="39" viewBox="0 0 155 39" fill="none" xmlns="http://www.w3.org/2000/svg">
<path d="M16.7842 5.00684C21.4014 5.00684 25.7845 6.24487 28.5505 8.12327V16.2559C24.593 12.7125 20.3162 11.752 17.2523 11.752C11.8692 11.752 8.37971 15.2526 8.37971 20.4823C8.37971 25.6692 11.8692 29.2552 17.2523 29.2552C20.3162 29.2552 24.593 28.2734 28.5505 24.7514V32.884C25.7845 34.7624 21.4227 36.0004 16.7842 36.0004C7.06052 35.9577 0.783737 29.0631 0.783737 20.4609C0.783737 11.8587 7.06052 5.00684 16.7842 5.00684Z" fill="#5C448E"/>
<path d="M51.7215 35.979H46.2532L46.1468 34.314C45.0404 35.0824 43.2106 35.979 40.2956 35.979C35.5508 35.979 32.6996 32.7771 32.6996 29.3832C32.6996 25.8826 34.9976 22.5313 42.2531 22.5313C43.1042 22.5313 43.7425 22.574 44.7213 22.6594V22.1898C44.7213 20.6102 43.6149 19.7137 41.6999 19.7137C39.4445 19.7137 36.104 20.3968 33.4231 21.6348L34.4018 15.5514C36.1465 14.911 38.8488 14.1426 42.6787 14.1426C48.232 14.1426 51.7215 16.6186 51.7215 21.2933V35.979ZM44.7213 29.8742V26.8004C44.2532 26.7577 43.6574 26.6723 42.6361 26.6723C40.3807 26.6723 39.6573 27.8677 39.6573 28.9777C39.6573 30.0449 40.5084 30.9841 41.8701 30.9841C42.9765 30.9841 43.8702 30.6426 44.7213 29.8742Z" fill="#5C448E"/>
<path d="M62.892 35.9792H55.8918V14.1214H61.3388L61.4877 15.9358C62.892 15.0393 65.2325 14.1001 67.7645 14.1001C70.5305 14.1001 72.637 15.082 73.9136 16.4908C76.0839 14.8685 78.1478 14.1001 80.8712 14.1001C86.0842 14.1001 88.9353 17.3873 88.9353 21.4216V35.9365H81.9351V23.1932C81.9351 21.5283 81.084 20.1195 78.9137 20.1195C77.8924 20.1195 76.9562 20.333 75.8924 20.9733V35.9792H68.8922V23.1932C68.8922 21.5283 68.0411 20.1195 65.8708 20.1195C64.8495 20.1195 63.9133 20.333 62.8494 20.9733V35.9792H62.892Z" fill="#5C448E"/>
<path d="M115.404 24.5589C115.404 30.8344 111.447 35.9787 104.361 35.9787C101.085 35.9787 93.0844 35.9787 93.0844 35.9787V3H100.085V14.9961C101.212 14.3985 102.872 14.1423 105.191 14.1423C111.255 14.121 115.404 18.4114 115.404 24.5589ZM100.148 29.0414C100.957 29.6391 102.425 30.0873 103.468 30.0873C106.574 30.0873 108.085 27.9315 108.085 24.9004C108.085 21.8694 106.574 19.7135 103.468 19.7135C102.425 19.7135 100.957 20.1404 100.148 20.7594V29.0414Z" fill="#5C448E"/>
<path d="M126.128 35.9783H119.021V14.1206H126.128V35.9783Z" fill="#5C448E"/>
<path d="M145.852 35.9783H152.852L136.745 14.1206H129.745L145.852 35.9783Z" fill="url(#paint0_linear)"/>
<path d="M134.618 35.9148L134.192 35.3599L133.766 35.9789H134.575L134.618 35.9148Z" fill="#FF4D5E"/>
<path d="M133.618 34.5697L133.171 33.9507L132.724 34.591L133.128 35.146L133.618 34.5697Z" fill="#FF4D5E"/>
<path d="M135.086 34.1221L134.639 34.7624L135.086 35.3814L135.596 34.8051L135.086 34.1221Z" fill="#FF4D5E"/>
<path d="M136.958 31.5176L136.341 32.3927L136.958 33.2466L137.639 32.4781L136.958 31.5176Z" fill="#FF4D5E"/>
<path d="M137.852 30.2583L137.171 31.2188L137.873 32.2007L138.639 31.3469L137.852 30.2583Z" fill="#FF4D5E"/>
<path d="M136.043 32.7773L135.447 33.6312L135.979 34.3569L136.66 33.5885L136.043 32.7773Z" fill="#FF4D5E"/>
<path d="M133.192 32.7987L133.681 32.2011L133.128 31.4326L132.66 32.073L133.192 32.7987Z" fill="#FF4D5E"/>
<path d="M135.001 30.5781L135.681 29.7883L134.979 28.8491L134.958 28.8918L134.362 29.7029L135.001 30.5781Z" fill="#FF4D5E"/>
<path d="M136.937 28.6354L137.788 29.8094L138.596 28.8916L137.66 27.6108L136.937 28.6354Z" fill="#FF4D5E"/>
<path d="M138.405 26.4594L137.575 25.3281L136.852 26.31L137.639 27.3986L138.405 26.4594Z" fill="#FF4D5E"/>
<path d="M132.235 32.6699L131.766 33.2889L132.235 33.9293L132.724 33.353L132.235 32.6699Z" fill="#FF4D5E"/>
<path d="M135.001 31.3472L134.405 32.2223L134.979 33.0121L135.66 32.2437L135.001 31.3472Z" fill="#FF4D5E"/>
<path d="M134.086 34.0363L134.596 33.46L134.043 32.7129L133.596 33.3533L134.086 34.0363Z" fill="#FF4D5E"/>
<path d="M131.341 35.0184L131.681 34.6128L131.256 34.0151L130.937 34.4634L131.341 35.0184Z" fill="#FF4D5E"/>
<path d="M133.469 30.9417L134.043 31.7315L134.703 30.9417L134.086 30.0879L133.469 30.9417Z" fill="#FF4D5E"/>
<path d="M138.703 29.0635L137.979 30.0667L138.788 31.1553L139.596 30.2375L138.703 29.0635Z" fill="#FF4D5E"/>
<path d="M138.788 28.9564L139.66 30.1517L140.469 29.2552L139.511 27.9531L138.788 28.9564Z" fill="#FF4D5E"/>
<path d="M140.49 29.2979L139.788 30.3011L140.341 31.0695L141.086 30.0876L140.49 29.2979Z" fill="#FF4D5E"/>
<path d="M139.703 30.4082L138.979 31.4328L139.533 32.1799L140.277 31.1766L139.703 30.4082Z" fill="#FF4D5E"/>
<path d="M137.724 27.5052L138.682 28.7859L139.469 27.8894L138.447 26.502L137.724 27.5052Z" fill="#FF4D5E"/>
<path d="M137.554 27.4833L136.788 26.416L136.043 27.4193L136.788 28.4438L137.554 27.4833Z" fill="#FF4D5E"/>
<path d="M152.852 14.1211H145.852L137.596 25.3061L138.426 26.4374L138.767 26.0318L138.469 26.4588L139.49 27.8675L139.916 27.3553L139.533 27.9102L140.49 29.2337L140.788 28.8708L140.511 29.2763L141.107 30.0661L152.852 14.1211Z" fill="#FF4D5E"/>
<path d="M136.639 28.6141L135.894 27.6108L135.213 28.55L135.894 29.5106L136.639 28.6141Z" fill="#FF4D5E"/>
<path d="M135.958 31.8809L136.639 31.1125L135.894 30.0879L135.277 30.9631L135.958 31.8809Z" fill="#FF4D5E"/>
<path d="M130.661 35.8512L130.299 35.3389L129.831 35.9792H130.554L130.661 35.8512Z" fill="#FF4D5E"/>
<path d="M132.554 35.787L132.213 35.3174L131.745 35.9791H132.383L132.554 35.787Z" fill="#FF4D5E"/>
<path d="M136.873 30.8346L137.639 29.9808L136.788 28.8281L136.107 29.7887L136.873 30.8346Z" fill="#FF4D5E"/>
<path d="M137.958 32.9058L137.341 33.7596L137.852 34.464L138.49 33.6102L137.958 32.9058Z" fill="#FF4D5E"/>
<path d="M136.107 35.5093L135.788 35.9789H136.447L136.107 35.5093Z" fill="#FF4D5E"/>
<path d="M138.852 31.6245L138.171 32.5851L138.703 33.3108L139.384 32.3716L138.852 31.6245Z" fill="#FF4D5E"/>
<path d="M137.064 34.1646L136.469 35.0184L136.958 35.6801L137.575 34.8476L137.064 34.1646Z" fill="#FF4D5E"/>
<defs>
<linearGradient id="paint0_linear" x1="132.379" y1="12.2732" x2="150.294" y2="37.778" gradientUnits="userSpaceOnUse">
<stop offset="0.2567" stop-color="#FF0019"/>
<stop offset="0.2888" stop-color="#FB0019"/>
<stop offset="0.3198" stop-color="#EF0118"/>
<stop offset="0.3504" stop-color="#DC0217"/>
<stop offset="0.3808" stop-color="#C10416"/>
<stop offset="0.4109" stop-color="#9D0715"/>
<stop offset="0.441" stop-color="#720A13"/>
<stop offset="0.4704" stop-color="#400D10"/>
<stop offset="0.485" stop-color="#240F0F"/>
<stop offset="0.4885" stop-color="#290F0F"/>
<stop offset="0.5328" stop-color="#6A0A12"/>
<stop offset="0.5751" stop-color="#9F0715"/>
<stop offset="0.6142" stop-color="#C80417"/>
<stop offset="0.6495" stop-color="#E60218"/>
<stop offset="0.6797" stop-color="#F90019"/>
<stop offset="0.7012" stop-color="#FF0019"/>
</linearGradient>
</defs>
</svg>
