<svg width="160" height="52" viewBox="0 0 160 52" fill="none" xmlns="http://www.w3.org/2000/svg">
<path fill-rule="evenodd" clip-rule="evenodd" d="M17.49 36.6739C19.5508 36.4079 21.2659 36.2152 23.1804 35.4041C26.4179 34.0281 28.9905 31.6216 30.5661 28.4639C31.1378 27.3205 32.1881 24.3224 31.982 22.7801L17.5365 22.7734C17.4035 23.3186 17.4767 35.9027 17.49 36.6739ZM20.508 27.4136C20.8072 26.915 20.8205 26.6491 21.1994 26.1771C22.2032 24.9207 23.7854 24.4886 25.4473 24.9074C25.4539 25.3328 25.2944 25.7583 25.1947 26.1172C24.3438 26.1239 23.9848 25.8779 23.1538 26.2701C22.7483 26.4629 22.1833 26.9482 22.0968 27.4003C22.7882 27.4401 24.3371 27.2806 24.8756 27.4867C24.8955 27.6662 24.8822 27.8058 24.849 27.9653L24.6496 28.4174L21.7844 28.444L21.8243 29.0223L24.5565 29.0688C24.5964 29.3215 24.5964 29.3281 24.5432 29.594L24.3438 30.0328L22.1101 30.0394C22.2763 30.6311 22.8148 31.0964 23.3333 31.3091C24.2374 31.6881 24.5565 31.3424 25.301 31.3623C25.4672 31.6548 25.6068 32.2265 25.5537 32.5257C24.4235 33.2835 21.1861 32.6653 20.5479 30.0461C20.0094 30.0128 19.7967 30.1657 19.7901 29.5475C19.7701 28.3509 20.4017 29.7336 20.3485 28.444L19.83 28.3309C19.7103 27.3803 19.6904 27.4269 20.508 27.4136Z" fill="#0039A6"/>
<path fill-rule="evenodd" clip-rule="evenodd" d="M1.96745 22.0497L9.24008 21.9965C10.317 22.0696 15.582 22.2026 16.4529 22.0165L16.4595 8.26229C15.7615 8.13598 14.1062 8.55479 13.3683 8.65451C12.3911 8.78746 11.5269 9.14644 10.6826 9.49877C7.70445 10.7419 4.80604 13.4276 3.39007 16.3725C2.73859 17.7287 1.85444 20.2548 1.96745 22.0497ZM10.6428 12.0781C10.6428 11.7058 10.5962 11.3136 10.7159 10.9679C12.2183 10.7286 11.6067 11.4532 11.7396 11.9385C11.7862 12.118 12.0321 12.1379 12.2781 12.1978C12.6969 12.3041 13.488 12.6897 13.5212 12.9489C13.4481 13.2215 13.1556 13.7666 12.9495 13.9328C12.8099 13.8996 10.9685 12.6498 10.2106 13.7533C9.53258 14.7372 11.374 15.2225 12.0587 15.515C12.9828 15.9138 13.827 16.439 13.6941 17.7486C13.5877 18.7857 12.7634 19.5302 11.7396 19.6765C11.7263 19.9955 11.8194 20.554 11.6266 20.7334C11.4072 20.9528 10.7757 20.8531 10.7292 20.7401L10.6295 19.7296C9.4661 19.3308 9.35309 19.3707 8.56201 18.6992C8.60854 18.3934 9.01406 17.8616 9.23343 17.6888C9.47275 17.722 11.1679 19.118 12.1053 18.0943C13.0559 17.0572 11.0483 16.5387 10.4034 16.2462C9.51928 15.854 8.60854 15.3089 8.68832 14.0392C8.78138 12.6764 9.97133 12.3573 10.6428 12.0781Z" fill="#02A702"/>
<path fill-rule="evenodd" clip-rule="evenodd" d="M5.37119 31.4355L7.34557 30.6112C7.89069 30.3985 9.02745 30.1259 9.44626 29.9065L8.7283 26.5694C8.50893 25.2531 8.48233 24.1562 8.40256 22.82L1.94761 22.7935C1.87448 26.1971 3.76909 29.6007 5.37119 31.4355Z" fill="#0039A6"/>
<path fill-rule="evenodd" clip-rule="evenodd" d="M24.4968 14.976C24.6697 16.0197 25.0486 17.1365 25.2281 18.2866C25.4342 19.5696 25.494 20.693 25.5538 22.0292L31.9888 22.0558C31.9822 20.3274 31.4836 18.486 30.892 17.1099C30.4133 16.0064 29.2433 13.9722 28.5519 13.4204C28.0401 13.5667 27.2423 14.0187 26.6308 14.2447C26.1588 14.4242 24.7694 14.8031 24.4968 14.976Z" fill="#02A702"/>
<path fill-rule="evenodd" clip-rule="evenodd" d="M10.4833 29.6606C11.3475 29.5941 12.4111 29.3149 13.3617 29.2085C13.8869 29.1487 16.1405 29.1088 16.3864 28.9493C16.5659 28.6568 16.4729 23.6577 16.4529 22.8533C15.8812 22.6738 10.5165 22.7935 9.4728 22.7935C9.38638 25.4592 9.99797 27.3671 10.4833 29.6606Z" fill="#0039A6"/>
<path fill-rule="evenodd" clip-rule="evenodd" d="M17.5498 15.8667L17.5033 22.0557H24.4834C24.5366 20.5467 23.9848 16.3254 23.4065 15.2285C22.6486 15.2618 21.4853 15.5543 20.641 15.6606C19.6173 15.7803 18.6068 15.8202 17.5498 15.8667Z" fill="#02A702"/>
<path fill-rule="evenodd" clip-rule="evenodd" d="M10.8621 30.6449C11.1147 31.7816 12.3113 33.7028 12.9163 34.4075C13.6276 35.2451 15.1632 36.7209 16.4462 36.6012L16.4595 30.0333C15.6219 29.8471 11.6532 30.3989 10.8621 30.6449Z" fill="#0039A6"/>
<path fill-rule="evenodd" clip-rule="evenodd" d="M17.51 14.844C19.3581 14.8706 21.3989 14.5781 23.0875 14.2258C22.5423 12.145 20.1558 8.45552 17.5167 8.22949L17.51 14.844Z" fill="#02A702"/>
<path fill-rule="evenodd" clip-rule="evenodd" d="M24.1644 13.9396C25.135 13.8266 26.9764 13.0289 27.7941 12.6367C27.4617 11.9852 25.4142 10.6357 24.7029 10.2235C23.8453 9.72496 21.8909 8.82087 20.7807 8.66797C20.9735 9.0203 21.4721 9.38592 21.7779 9.77814C23.8055 12.3442 23.739 13.3413 24.1644 13.9396Z" fill="#02A702"/>
<path fill-rule="evenodd" clip-rule="evenodd" d="M6.16229 32.2604C7.20599 33.5301 10.7825 35.8701 13.189 36.2025C12.8167 35.6108 10.6562 33.9156 9.83184 30.8843C9.0873 31.0106 6.58775 31.8681 6.16229 32.2604Z" fill="#0039A6"/>
<path fill-rule="evenodd" clip-rule="evenodd" d="M77.2397 14.3242V12.4031C76.0896 11.9776 76.2558 12.423 74.0089 12.9881C72.8123 13.2872 71.5958 13.4733 70.2995 13.6063L70.2396 14.3375C72.7126 15.1619 72.2738 14.5569 72.2738 18.5456C72.2738 19.4829 72.3403 20.6994 72.234 21.6035C72.1209 22.6073 71.762 23.2322 70.6784 23.2256C70.4391 22.7602 71.1038 23.4649 70.1931 22.3614C69.7942 22.4877 69.535 22.7602 69.0164 22.6871C68.4846 22.142 68.6841 20.5133 68.6841 19.6225C68.6841 16.0925 69.2824 13.0944 65.6793 12.3299C63.3792 11.838 59.324 12.3565 57.8549 14.3508C57.4161 14.9425 56.9774 16.2787 57.476 17.1097L61.6375 15.4477C61.5112 14.8428 61.2054 14.4904 61.6109 13.7924C61.9565 13.1875 63.6584 12.5427 63.7847 14.4639C63.8246 15.0887 63.8113 15.8399 63.7913 16.4648C62.3687 16.857 60.7134 17.5085 59.2775 18.0204C57.5225 18.6386 56.5253 19.1704 56.3857 21.2778C56.1331 24.8343 60.3146 24.8609 62.0563 24.2826C62.9737 23.9768 63.3326 23.3984 63.8844 23.0261C64.363 23.9768 65.4267 24.5684 66.8559 24.5884C68.3849 24.6083 69.1959 23.9967 70.233 23.4649L70.2529 24.256C71.6157 24.2294 73.0516 24.0233 74.4942 24.0166C75.9434 24.01 77.366 24.2227 78.7288 24.2493L78.7421 23.1591C77.027 23.3452 77.2463 21.8362 77.2463 20.028C77.2463 18.4458 77.2463 16.8637 77.2463 15.2815C77.7915 14.9624 79.008 14.2378 79.8656 14.5702C80.8095 14.9292 80.6832 16.272 80.6832 17.4553C80.6832 18.5722 80.8428 21.8096 80.4107 22.6206C80.1581 23.0926 79.7991 23.1657 79.1609 23.1657V24.2493C81.4677 24.2493 82.3053 23.8837 85.2901 24.0964C85.7754 24.1297 86.8457 24.2826 87.2379 24.2294V23.1591C86.3936 23.1325 86.0347 23.1724 85.7953 22.3547C85.5494 21.5038 85.6092 16.0128 85.6624 15.0821C86.2274 14.6035 87.4772 14.1315 88.2749 14.63C89.5513 15.4278 89.1325 19.2303 89.1126 20.9454C89.0926 22.4744 88.8998 23.0128 87.6633 23.1591L87.6368 24.2427L91.5988 24.0233C92.9882 24.0233 94.2579 24.2028 95.5941 24.2626L95.6074 23.1591C93.4003 23.4117 93.9322 21.2911 93.9853 19.1239C94.0252 17.3623 94.2247 15.3015 93.4003 13.9187C92.0575 11.6519 89.6244 11.7915 87.3509 13.0479L85.5361 14.1514C85.1306 13.5864 85.1505 13.0279 84.0603 12.4629C82.0793 11.4524 79.819 12.5825 78.197 13.6861C77.951 13.8589 77.5056 14.2312 77.2397 14.3242ZM63.8046 17.3024C63.8179 18.632 63.8046 19.9615 63.8046 21.2844C63.8046 22.0157 63.9243 22.501 63.1864 22.6805C60.0287 23.4582 60.8464 17.6016 63.8046 17.3024Z" fill="#02A702"/>
<path fill-rule="evenodd" clip-rule="evenodd" d="M95.3283 8.58102L95.2818 9.26574C96.7376 9.36546 97.1431 10.0169 97.1498 11.4861C97.1564 13.1214 97.0567 23.1329 97.183 23.8243C99.184 24.5024 103.798 24.6685 105.951 24.1833C114.946 22.169 111.383 10.0302 104.981 12.4234C103.811 12.8622 102.86 13.846 102.149 14.4443L102.122 7.50409C101.843 6.88585 101.172 7.19829 100.666 7.36449C100.128 7.54398 99.5696 7.71017 98.9979 7.85642L95.3283 8.58102ZM103.724 14.6238C105.852 14.1518 106.151 16.678 106.297 18.4596C106.789 24.4957 103.1 23.7379 102.428 22.4814C102.016 21.7037 102.116 20.5137 102.116 19.5365C102.116 18.4529 102.122 17.376 102.116 16.2924C102.109 15.5678 102.156 15.5346 102.641 15.1357C102.953 14.8897 103.232 14.7368 103.724 14.6238Z" fill="#02A702"/>
<path fill-rule="evenodd" clip-rule="evenodd" d="M128.52 12.1044C124.366 12.357 121.175 14.3247 121.135 18.5394C121.102 22.8139 124.632 24.755 128.946 24.6354C133.001 24.5224 136.438 22.2555 136.265 18.1206C136.092 14.0057 132.881 11.8451 128.52 12.1044ZM126.147 17.0503C126.021 15.9401 126.021 14.4776 126.586 13.6932C127.211 12.829 128.241 12.8955 129.105 13.8129C131.505 16.359 132.396 23.831 129.524 23.3856C128.986 23.2992 128.607 22.887 128.321 22.5746C127.35 21.5309 126.373 18.9649 126.147 17.0503Z" fill="#02A702"/>
<path fill-rule="evenodd" clip-rule="evenodd" d="M53.9063 24.4963L55.3023 19.7698L54.2453 19.5438C53.8265 20.993 53.0687 21.8904 51.9784 22.5153C48.6213 24.4431 43.3896 22.7679 43.3563 16.7185C43.3031 7.19892 52.6033 8.17614 53.3811 13.594L54.4846 13.5874L54.2586 8.48858H53.2282C52.8692 10.0774 51.7857 8.7146 48.5947 8.40881C46.6802 8.22267 44.7258 8.4354 43.1237 9.09352C36.2034 11.9454 36.0571 21.2855 42.8378 23.9645C46.7467 25.5068 50.5093 23.9645 52.6432 24.2171C53.1086 24.2703 53.5141 24.4498 53.9063 24.4963Z" fill="#02A702"/>
<path fill-rule="evenodd" clip-rule="evenodd" d="M111.821 13.6207L111.801 14.332C114.181 14.5181 113.809 14.9968 113.836 18.7128C113.856 21.1592 114.274 23.2267 111.801 23.1402L111.795 24.2438L116.169 24.0244C117.711 24.0244 119.18 24.1972 120.663 24.2637L120.676 23.1004C118.356 22.994 118.788 21.465 118.788 18.7062C118.788 16.6321 118.828 14.5115 118.782 12.4374C118.09 11.9986 117.977 12.238 117.253 12.4839C115.278 13.1487 113.909 13.3149 111.821 13.6207Z" fill="#02A702"/>
<path fill-rule="evenodd" clip-rule="evenodd" d="M115.252 7.05189C111.396 7.61695 112.287 12.5363 116.535 11.9446C120.264 11.4261 119.46 6.4403 115.252 7.05189Z" fill="#02A702"/>
<path fill-rule="evenodd" clip-rule="evenodd" d="M68.5313 34.381C68.5313 34.8131 69.7611 34.966 70.1268 35.1721C70.7517 35.5244 70.612 36.249 70.612 37.0401L70.6519 42.6109C70.6519 44.3326 71.3499 45.1636 72.5665 45.6755C75.651 46.9851 79.3605 43.7144 79.8059 43.5482V45.6356C80.8163 45.9214 80.3111 46.0544 81.5609 45.8018C82.8638 45.5359 86.1079 44.8046 87.032 44.7249L87.0785 45.5891C92.6692 45.27 90.7414 45.2234 96.4119 45.6024V44.3792C95.6208 44.4058 95.2951 44.4058 95.0292 43.7809C94.617 42.8236 94.7899 36.8938 94.7899 35.4911C94.7899 34.7333 97.07 34.1549 97.8744 35.3648C98.6123 36.475 98.5259 41.3544 98.2533 42.8635C98.1802 43.2756 98.0539 43.7144 97.8345 43.9803C97.0501 44.9176 96.864 43.3155 96.8706 45.5824C102.056 45.27 100.46 45.2234 105.646 45.6024L105.612 44.3459C104.422 44.5919 104.037 44.0601 103.864 43.0164C103.538 41.0553 104.196 37.0401 103.611 35.0989C102.787 32.3667 100.407 31.4693 97.7814 32.4398C97.2096 32.6526 96.7177 32.9052 96.2125 33.1844C95.6873 33.4769 95.3084 33.8359 94.7899 34.0353L94.7699 32.4531C93.9921 31.9545 93.7927 32.2736 92.9817 32.5329C90.9076 33.191 89.2457 33.5434 87.012 33.7627L87.0054 34.5804C89.2124 35.2053 89.2722 35.1787 89.2722 36.7742V41.8331C89.2722 43.1959 88.8734 44.6185 87.3776 44.4124L87.371 43.4684C86.1212 43.7609 85.616 43.7077 85.39 42.345C85.1174 40.683 85.5229 34.9194 85.2836 32.4066C84.2864 32.021 84.5258 32.2072 83.4754 32.5395C80.8296 33.3705 80.1914 33.304 77.5257 33.7694C77.5124 34.7333 77.4592 34.5671 78.1772 34.8131C79.6397 35.2984 79.7926 35.2319 79.7926 36.5149V41.8331C79.7926 42.5112 78.3035 43.382 77.2664 43.2623C75.9169 43.1094 76.1496 41.5938 76.1496 40.3706C76.1496 39.061 76.2161 33.211 76.123 32.4132C75.0993 32.041 75.4117 32.1673 74.3614 32.513C73.7099 32.7257 73.1648 32.8985 72.5133 33.0647C70.4658 33.5965 69.8874 33.4902 68.5247 33.776L68.5313 34.381Z" fill="#0039A6"/>
<path fill-rule="evenodd" clip-rule="evenodd" d="M114.055 28.9495C115.032 29.016 115.684 29.1423 116.023 29.9068C116.328 30.5982 116.348 31.6751 116.355 32.5061C114.773 32.3465 114.075 31.961 112.24 32.2535C110.997 32.4529 109.84 32.9515 109.022 33.5764C107.44 34.7796 106.051 36.867 106.091 39.7853C106.164 45.0437 111.216 47.4169 115.085 45.1301C115.969 44.605 115.923 44.3523 116.355 44.133V45.6154C117.272 45.9943 116.913 46.0076 118.03 45.775C118.695 45.6354 119.247 45.529 119.892 45.396C121.081 45.1501 122.384 44.8243 123.548 44.6714L123.561 45.5822C124.133 45.642 125.349 45.4559 126.021 45.4226C129.185 45.2498 130.375 45.4559 133.426 45.6088V44.3191C132.177 44.2925 131.618 43.9734 131.399 42.8234C131.133 41.4207 131.479 34.3874 131.299 32.4462C130.461 31.9875 130.428 32.2668 129.511 32.5593C128.906 32.752 128.261 32.9382 127.643 33.0911C125.788 33.5365 124.591 33.5697 123.561 33.8024V34.5536C126.101 34.9458 125.808 34.7929 125.821 39.3599C125.821 40.7094 126.353 44.7246 123.933 44.3656L123.927 43.6011C123.056 43.7208 122.398 43.8737 122.072 43.056C121.726 42.1852 121.873 37.3124 121.873 36.1956C121.873 33.1775 121.999 29.8736 121.866 26.8887C121.062 26.3968 121.022 26.563 120.131 26.8688C117.704 27.6998 116.534 27.7463 114.015 28.1651L114.055 28.9495ZM116.335 42.943C115.511 43.415 114.68 43.9734 113.496 43.4084C110.864 42.1386 111.595 35.8565 112.26 34.5802C113.071 33.0179 114.746 32.8584 115.883 33.9885C116.428 34.527 116.368 34.4339 116.362 35.4045C116.348 36.8404 116.428 42.0057 116.335 42.943Z" fill="#0039A6"/>
<path fill-rule="evenodd" clip-rule="evenodd" d="M149.328 28.811C149.414 28.904 149.275 28.9306 149.733 29.1035C151.562 29.8015 151.442 29.9145 151.442 31.6429V41.3287C151.442 42.8643 151.309 44.4199 149.694 44.4132C149.913 43.9146 149.78 44.2138 149.248 43.5025C148.67 43.7086 147.799 44.4598 147.626 43.1302C147.586 42.8178 147.593 42.5053 147.593 42.1862C147.593 41.5547 147.593 40.9232 147.593 40.2983C147.593 36.4093 148.258 33.2317 144.256 32.3542C142.221 31.9088 139.436 32.2811 137.701 33.0256C135.84 33.8234 134.603 35.0466 135.095 37.6857C135.547 37.586 139.642 35.9041 139.788 35.7579C139.243 34.4616 139.788 33.0323 141.351 33.3713C142.454 33.6173 142.221 35.8975 142.155 36.9678C141.371 37.1539 140.393 37.5594 139.596 37.832C136.418 38.9355 134.138 39.1748 133.938 42.2859C133.686 46.2879 138.352 46.2613 140.267 45.6165C141.105 45.3373 141.743 44.6658 142.235 44.247C142.461 44.5129 142.487 44.6725 142.793 44.965C143.478 45.6298 144.581 45.9488 145.572 45.9754C146.33 45.9954 147.061 45.7893 147.673 45.5633C148.251 45.3505 148.962 44.8387 149.335 44.7323L149.341 45.5899C150.923 45.5766 152.552 45.3373 154.234 45.3373L159.007 45.5699V44.4199C158.116 44.3999 157.644 44.3401 157.272 43.6886C156.74 42.7579 156.953 37.8253 156.953 36.6088C156.953 34.1624 157.059 28.9639 156.94 26.8632C156.135 26.3646 156.175 26.5441 155.278 26.8499C152.818 27.6809 151.847 27.6942 149.348 28.1529L149.328 28.811ZM142.148 43.4759C141.59 43.8748 140.533 44.2005 139.828 43.5557C138.771 42.5851 139.183 38.2375 142.182 37.8585L142.148 43.4759Z" fill="#0039A6"/>
<path fill-rule="evenodd" clip-rule="evenodd" d="M68.7638 44.3995C67.0421 44.2865 66.5236 44.4128 66.3507 41.767C66.138 38.5761 66.0981 35.445 65.9053 32.2674C65.8588 31.5428 65.8721 30.7052 66.118 30.0936C66.4172 29.3291 66.8958 29.3424 67.7534 29.3889L67.76 28.1724C66.5235 28.2122 65.3735 28.3984 64.0639 28.3917C62.7942 28.3917 61.6574 28.2122 60.4608 28.1724C59.9822 28.7042 56.7181 37.3861 56.1464 38.0376L52.1578 28.1724C51.5462 28.1857 50.8814 28.3253 50.2565 28.3651C47.4977 28.5513 46.9194 28.312 44.3999 28.1724L44.4265 29.3955C46.5006 29.3357 46.361 30.5988 46.248 32.4203L45.643 41.7603C45.417 44.6521 44.8719 43.9076 43.303 44.4128V45.6027C44.2869 45.5761 45.2774 45.4099 46.3277 45.4166C47.3249 45.4232 48.322 45.5961 49.2461 45.5961V44.3862C47.8301 44.3397 47.1055 44.333 47.0457 42.7774L47.4645 35.6644C47.5443 34.614 47.5243 33.1515 47.737 32.161L53.3411 45.6825L54.2917 45.7024L60.2614 32.0945L60.6204 39.3472C60.7334 43.522 61.4713 44.2266 58.3402 44.3928V45.6027C59.2908 45.616 61.797 45.3501 63.5587 45.3501C64.9148 45.3501 68.345 45.616 68.7705 45.5961L68.7638 44.3995Z" fill="#0039A6"/>
<path fill-rule="evenodd" clip-rule="evenodd" d="M131.459 29.6674C132.13 25.8782 125.429 25.2932 124.744 28.6437C123.967 32.4794 130.827 33.2572 131.459 29.6674Z" fill="#0039A6"/>
</svg>
