<svg width="160" height="38" viewBox="0 0 160 38" fill="none" xmlns="http://www.w3.org/2000/svg">
<path d="M31.2519 26.3446C28.7263 30.6208 24.0821 33.5037 18.7646 33.5037C10.7648 33.5037 4.25715 26.9977 4.25715 19C4.25715 11.0023 10.7648 4.49629 18.7646 4.49629C24.2476 4.49629 29.0283 7.55358 31.4935 12.0534C31.4756 10.0629 33.0886 9.11913 34.7552 9.19964C31.451 3.82981 25.5183 0.240234 18.7646 0.240234C8.41811 0.240234 0 8.65617 0 19C0 29.3438 8.41811 37.7597 18.7646 37.7597C25.6369 37.7597 31.6524 34.0449 34.923 28.523C33.3615 28.646 31.7284 27.8073 31.2519 26.3446Z" fill="#065582"/>
<path d="M70.0897 20.5122C70.0897 19.6131 70.2441 18.7185 70.5506 17.8262C70.857 16.9338 71.3045 16.1376 71.8928 15.4353C72.4789 14.7331 73.2037 14.1605 74.065 13.7177C74.9263 13.2749 75.9017 13.0535 76.9934 13.0535C78.2909 13.0535 79.4004 13.3554 80.3221 13.9592C81.2438 14.5631 81.9239 15.3503 82.3601 16.3188L81.2326 17.0344C81 16.5424 80.7181 16.1287 80.3825 15.7909C80.047 15.4532 79.689 15.1804 79.3065 14.9701C78.924 14.7599 78.528 14.6078 78.1186 14.5161C77.7092 14.4244 77.3065 14.3797 76.9106 14.3797C76.0359 14.3797 75.2641 14.5631 74.5952 14.9277C73.9263 15.2922 73.3626 15.7708 72.9062 16.359C72.4476 16.9494 72.1031 17.6114 71.8727 18.3495C71.64 19.0875 71.5237 19.8345 71.5237 20.5927C71.5237 21.4224 71.6646 22.2142 71.9443 22.9723C72.2239 23.7305 72.6064 24.4015 73.0919 24.9829C73.5773 25.5667 74.15 26.0296 74.8122 26.374C75.4744 26.7185 76.1947 26.8907 76.9732 26.8907C77.3826 26.8907 77.8032 26.837 78.2327 26.7319C78.6622 26.6268 79.0783 26.459 79.4832 26.2264C79.8859 25.9938 80.2573 25.7076 80.5995 25.3632C80.9418 25.0187 81.2281 24.6005 81.4608 24.1107L82.6487 24.7436C82.416 25.305 82.0894 25.8015 81.6644 26.2287C81.2416 26.6581 80.7695 27.0182 80.2505 27.3134C79.7315 27.6086 79.1812 27.8322 78.6018 27.9866C78.0224 28.1409 77.4519 28.2192 76.8904 28.2192C75.8927 28.2192 74.9777 27.9955 74.1455 27.546C73.3134 27.0964 72.5952 26.5105 71.9957 25.7858C71.3939 25.0635 70.9264 24.2404 70.5931 23.3212C70.2575 22.4043 70.0897 21.4672 70.0897 20.5122Z" fill="#0096A6"/>
<path d="M76.8905 28.7557C75.8077 28.7557 74.7988 28.5075 73.8928 28.0177C73.0024 27.5368 72.2262 26.9017 71.5841 26.1301C70.9466 25.3652 70.4455 24.4818 70.0898 23.5067C69.7363 22.5338 69.5551 21.5251 69.5551 20.512C69.5551 19.5593 69.7207 18.5953 70.045 17.6515C70.3716 16.7032 70.8549 15.8422 71.4812 15.093C72.1121 14.3393 72.8995 13.7175 73.819 13.2434C74.7518 12.7648 75.8189 12.521 76.9911 12.521C78.3871 12.521 79.6063 12.8542 80.613 13.514C81.6174 14.1715 82.3668 15.0415 82.8456 16.0994L83.0357 16.5199L81.0089 17.8081L80.7494 17.2601C80.5436 16.8263 80.2931 16.4572 80.0022 16.1642C79.7047 15.8646 79.3826 15.6185 79.047 15.4329C78.7115 15.2495 78.3602 15.1153 78.0001 15.0348C76.8189 14.7709 75.7026 14.9275 74.8503 15.3927C74.2485 15.7214 73.7362 16.1553 73.3268 16.6831C72.9107 17.2199 72.5908 17.8349 72.3805 18.5081C72.1658 19.188 72.0562 19.8903 72.0562 20.5903C72.0562 21.3529 72.1859 22.091 72.4432 22.7865C72.7004 23.4843 73.0561 24.1083 73.4991 24.6406C73.9353 25.1662 74.4588 25.5888 75.0561 25.8975C75.9464 26.3604 76.9867 26.4857 78.1052 26.2106C78.4833 26.1189 78.8569 25.9668 79.2148 25.7611C79.5772 25.5531 79.9128 25.2914 80.217 24.985C80.5145 24.6853 80.7696 24.3118 80.9731 23.8802L81.2125 23.3747L83.3221 24.4974L83.1364 24.9447C82.8791 25.5687 82.51 26.1256 82.0402 26.602C81.5861 27.0627 81.0716 27.4586 80.5123 27.7761C79.9553 28.0915 79.358 28.3375 78.7361 28.503C78.1164 28.6707 77.4945 28.7557 76.8905 28.7557ZM76.9934 13.5878C75.9912 13.5878 75.0896 13.7913 74.3089 14.1917C73.517 14.5987 72.8414 15.131 72.3022 15.7751C71.7586 16.4237 71.3403 17.1729 71.0562 17.9982C70.7698 18.8302 70.6244 19.6755 70.6244 20.5098C70.6244 21.3977 70.7833 22.2833 71.0942 23.1399C71.4074 23.9987 71.8481 24.7748 72.4074 25.4457C72.9622 26.1122 73.6311 26.6624 74.4006 27.0761C75.5751 27.709 76.9911 27.8634 78.4654 27.472C79 27.3311 79.5101 27.1209 79.9888 26.8502C80.4631 26.5796 80.8993 26.2464 81.2863 25.855C81.5458 25.5933 81.7673 25.2981 81.9463 24.976L81.6801 24.8351C81.4765 25.1751 81.2416 25.4793 80.9798 25.7432C80.6085 26.1167 80.1946 26.4387 79.7517 26.6937C79.3065 26.9509 78.839 27.1387 78.3625 27.255C76.9934 27.5883 75.6869 27.434 74.5684 26.8502C73.8458 26.4767 73.2105 25.9623 72.6825 25.3272C72.1613 24.701 71.7452 23.9719 71.4454 23.16C71.1457 22.3459 70.9936 21.4826 70.9936 20.5948C70.9936 19.7851 71.1188 18.9755 71.3671 18.1905C71.6177 17.3966 71.9935 16.6697 72.4902 16.0323C72.989 15.3882 73.6132 14.8581 74.3469 14.4578C75.4297 13.8696 76.8055 13.6773 78.2417 13.9948C78.7003 14.0977 79.1477 14.2677 79.5705 14.5003C79.9955 14.7351 80.3982 15.0415 80.7673 15.4128C81.0156 15.6633 81.2394 15.9495 81.4362 16.2738L81.6711 16.124C81.2796 15.4352 80.7315 14.8581 80.0358 14.4019C79.2014 13.8629 78.179 13.5878 76.9934 13.5878Z" fill="#0096A6"/>
<path d="M87.7246 28.3061C87.2191 28.3061 86.7515 28.2189 86.322 28.0422C85.8925 27.8678 85.5166 27.624 85.1945 27.3154C84.8746 27.0067 84.624 26.6444 84.4473 26.2307C84.2706 25.8169 84.1811 25.3696 84.1811 24.8932C84.1811 24.4169 84.2907 23.974 84.5099 23.567C84.7292 23.16 85.0357 22.8088 85.4316 22.5136C85.8276 22.2184 86.2996 21.9903 86.8455 21.8292C87.3913 21.6682 87.9931 21.5877 88.6485 21.5877C89.1944 21.5877 89.747 21.6369 90.3085 21.7353C90.8677 21.8337 91.3666 21.9746 91.8028 22.158V21.1672C91.8028 20.1988 91.5366 19.4295 91.0042 18.8614C90.4718 18.2933 89.7335 18.0093 88.7917 18.0093C88.2459 18.0093 87.6866 18.1211 87.1117 18.347C86.539 18.5707 85.9573 18.895 85.3712 19.3154L84.8791 18.3671C86.2571 17.4122 87.5971 16.9358 88.8946 16.9358C90.2324 16.9358 91.2838 17.3227 92.0489 18.0943C92.814 18.8659 93.1965 19.9349 93.1965 21.297V26.2463C93.1965 26.6399 93.3665 26.8368 93.7088 26.8368V28.1004C93.4762 28.1429 93.2994 28.163 93.1764 28.163C92.8207 28.163 92.5455 28.0713 92.3464 27.8901C92.1473 27.7068 92.0422 27.454 92.0288 27.132L91.9885 26.2687C91.4963 26.9285 90.8789 27.4339 90.134 27.785C89.389 28.1295 88.5859 28.3061 87.7246 28.3061ZM88.0535 27.2103C88.7783 27.2103 89.4427 27.0694 90.0512 26.7898C90.6597 26.508 91.1205 26.1367 91.4337 25.6738C91.5567 25.5463 91.6485 25.4099 91.7111 25.2623C91.7715 25.1147 91.8028 24.9782 91.8028 24.8507V23.0593C91.3375 22.8782 90.8565 22.7373 90.3577 22.6389C89.8588 22.5404 89.351 22.4912 88.832 22.4912C87.8477 22.4912 87.049 22.7015 86.4361 23.1242C85.8209 23.5446 85.5144 24.0993 85.5144 24.7881C85.5144 25.1258 85.5793 25.4412 85.709 25.7364C85.8388 26.0316 86.0155 26.2888 86.2414 26.5058C86.4674 26.7227 86.7358 26.8949 87.0513 27.0224C87.3645 27.1476 87.6978 27.2103 88.0535 27.2103Z" fill="#0096A6"/>
<path d="M87.7246 28.8382C87.1519 28.8382 86.6128 28.7353 86.1206 28.534C85.6307 28.335 85.1945 28.0532 84.8253 27.6976C84.454 27.3397 84.1632 26.9171 83.9574 26.4384C83.7516 25.9598 83.6487 25.4387 83.6487 24.8908C83.6487 24.3272 83.7806 23.7971 84.0401 23.3118C84.2952 22.8377 84.6553 22.4239 85.1139 22.0817C85.5591 21.7507 86.0915 21.4913 86.6955 21.3124C87.7693 20.9948 89.087 20.9724 90.4001 21.2028C90.7044 21.2565 90.9952 21.3236 91.2704 21.4018V21.1603C91.2704 20.3239 91.0556 19.6887 90.6149 19.219C90.1831 18.7583 89.5858 18.5347 88.7917 18.5347C88.3152 18.5347 87.8163 18.6353 87.3063 18.8343C86.7761 19.0423 86.228 19.3465 85.6821 19.7401L85.181 20.1002L84.19 18.188L84.577 17.9196C86.0401 16.9065 87.4942 16.3921 88.8946 16.3921C90.3733 16.3921 91.5634 16.8349 92.4292 17.7072C93.2927 18.5794 93.7311 19.7826 93.7311 21.2855V26.2349C93.7311 26.2573 93.7311 26.2729 93.7334 26.2886H94.2076L94.2457 26.8254V28.534L93.8094 28.6146C93.5455 28.6638 93.3396 28.6861 93.1808 28.6861C92.6887 28.6861 92.2882 28.5475 91.9885 28.2701C91.767 28.0666 91.6193 27.8072 91.5478 27.503C91.1921 27.8005 90.7961 28.0532 90.3666 28.2567C89.5478 28.6459 88.6619 28.8382 87.7246 28.8382ZM86.0557 22.7393C85.9484 22.8019 85.8455 22.869 85.7515 22.9406C85.4204 23.1866 85.1609 23.4818 84.9797 23.8173C84.803 24.1505 84.7157 24.5016 84.7157 24.893C84.7157 25.2956 84.7918 25.6736 84.9394 26.0202C85.0871 26.3669 85.2996 26.6733 85.5658 26.9305C85.8365 27.1921 86.1586 27.3979 86.5233 27.5477C87.0669 27.7692 87.7268 27.8072 88.351 27.7378C87.8387 27.7624 87.3174 27.7043 86.8521 27.5164C86.4741 27.3644 86.1452 27.1541 85.8701 26.888C85.5971 26.6241 85.3779 26.3087 85.2213 25.9509C85.0625 25.5908 84.9819 25.1994 84.9819 24.7879C84.9797 23.9582 85.3511 23.2514 86.0557 22.7393ZM92.4493 24.7476L92.5612 27.1004C92.5701 27.3397 92.6484 27.4382 92.7066 27.4918C92.8028 27.5791 92.9593 27.6238 93.1741 27.6238V27.2346C92.852 27.0557 92.6618 26.7046 92.6618 26.2394V21.29C92.6618 20.0622 92.3374 19.1385 91.6686 18.4631C91.0019 17.7899 90.0937 17.4634 88.8946 17.4634C88.7693 17.4634 88.6418 17.4678 88.512 17.479C89.7066 17.4052 90.7021 17.7564 91.3934 18.4922C92.0198 19.1609 92.3352 20.0599 92.3352 21.1625V24.8483C92.3352 24.8639 92.3352 24.8818 92.3352 24.8975L92.4493 24.7476ZM88.8319 23.0255C87.9617 23.0255 87.257 23.2067 86.738 23.5645C86.2683 23.8866 86.049 24.2757 86.049 24.7879C86.049 25.054 86.0982 25.2934 86.1989 25.5192C86.3018 25.7541 86.4383 25.9509 86.6128 26.1209C86.7895 26.2931 86.9975 26.425 87.2503 26.5257C87.4986 26.6263 87.7693 26.6777 88.0534 26.6777C88.6955 26.6777 89.2928 26.5525 89.8274 26.3043C90.342 26.0672 90.7335 25.7518 90.993 25.3716L91.0511 25.3001C91.1272 25.2218 91.1831 25.1413 91.2189 25.0563C91.2525 24.9758 91.2704 24.9042 91.2704 24.8505V23.4326C90.9415 23.3208 90.6015 23.2291 90.257 23.162C89.7916 23.0703 89.3129 23.0255 88.8319 23.0255Z" fill="#0096A6"/>
<path d="M112.082 28.0957H110.688V21.9655C110.688 20.6885 110.489 19.7469 110.093 19.143C109.697 18.5392 109.111 18.2373 108.333 18.2373C107.923 18.2373 107.536 18.3133 107.176 18.4699C106.814 18.6242 106.48 18.8411 106.172 19.1229C105.865 19.4047 105.594 19.738 105.362 20.1226C105.129 20.5095 104.952 20.9345 104.829 21.3974V28.0957H103.436V21.9655C103.436 20.6594 103.243 19.7111 102.863 19.1207C102.48 18.5302 101.894 18.235 101.102 18.235C100.297 18.235 99.5789 18.5235 98.9525 19.0983C98.3239 19.6753 97.8742 20.4335 97.6013 21.3728V28.0935H96.2076V17.1213H97.4783V19.606C97.9145 18.7628 98.4894 18.1076 99.1986 17.6356C99.9077 17.166 100.693 16.9312 101.554 16.9312C102.456 16.9312 103.176 17.1906 103.715 17.7095C104.254 18.2283 104.585 18.9105 104.708 19.7536C105.706 17.8727 107.078 16.9312 108.825 16.9312C109.426 16.9312 109.934 17.043 110.35 17.2689C110.766 17.4925 111.102 17.8123 111.355 18.2283C111.608 18.6421 111.791 19.1408 111.907 19.7245C112.024 20.3083 112.082 20.9568 112.082 21.6725V28.0957V28.0957Z" fill="#0096A6"/>
<path d="M112.614 28.6281H110.154V21.9656C110.154 20.8004 109.984 19.9483 109.646 19.4361C109.348 18.9821 108.93 18.7719 108.33 18.7719C107.99 18.7719 107.679 18.8323 107.382 18.9598C107.075 19.0895 106.789 19.2773 106.529 19.5144C106.261 19.7604 106.022 20.0579 105.818 20.3956C105.623 20.7176 105.471 21.0777 105.362 21.4669V28.6281H102.901V21.9656C102.901 20.7713 102.738 19.9103 102.413 19.4115C102.131 18.9754 101.713 18.7719 101.1 18.7719C100.427 18.7719 99.8406 19.009 99.3105 19.4943C98.7736 19.9863 98.3776 20.6461 98.1315 21.4534V28.6281H95.6707V16.5868H98.0085V17.9377C98.2814 17.6536 98.5789 17.4054 98.9011 17.1907C99.6952 16.6629 100.588 16.3967 101.552 16.3967C102.592 16.3967 103.445 16.7098 104.082 17.3249C104.42 17.6492 104.688 18.0316 104.885 18.4633C105.91 17.09 107.23 16.3967 108.822 16.3967C109.509 16.3967 110.107 16.5309 110.601 16.7971C111.1 17.0677 111.507 17.4546 111.807 17.9489C112.091 18.4163 112.301 18.9776 112.426 19.6173C112.549 20.2323 112.612 20.9234 112.612 21.6704V28.6281H112.614ZM111.223 27.5613H111.549V21.6704C111.549 20.9927 111.494 20.3732 111.386 19.8253C111.283 19.3086 111.12 18.8636 110.901 18.5035C110.697 18.168 110.435 17.9175 110.1 17.7364C109.764 17.5552 109.335 17.4635 108.827 17.4635C108.098 17.4635 107.447 17.6469 106.87 18.0204C106.903 18.0048 106.937 17.9914 106.968 17.9757C107.395 17.7945 107.854 17.7006 108.335 17.7006C109.286 17.7006 110.051 18.0965 110.543 18.8479C111.001 19.548 111.225 20.5678 111.225 21.9634V27.5613H111.223ZM103.97 27.5613H104.297L104.315 21.2589C104.33 21.2007 104.346 21.1448 104.364 21.0867L104.181 19.8298C104.073 19.1007 103.8 18.5326 103.344 18.0942C102.903 17.6715 102.319 17.4658 101.554 17.4658C100.798 17.4658 100.129 17.6648 99.5073 18.0741C100.002 17.8281 100.534 17.7051 101.105 17.7051C102.071 17.7051 102.836 18.0942 103.315 18.8323C103.758 19.5189 103.975 20.5432 103.975 21.9656V27.5613H103.97ZM96.7401 27.5613H97.0667V21.5563L96.9436 21.7934V17.6559H96.7401V27.5613V27.5613Z" fill="#0096A6"/>
<path d="M120.254 28.3059C119.406 28.3059 118.632 28.089 117.93 27.6529C117.227 27.2167 116.677 26.6554 116.281 25.9688V28.0957H115.03V12.7175H116.424V19.4158C116.903 18.6711 117.475 18.0717 118.144 17.6155C118.813 17.1592 119.592 16.9311 120.48 16.9311C121.231 16.9311 121.903 17.0921 122.498 17.4164C123.09 17.7385 123.596 18.1701 124.012 18.7113C124.428 19.2526 124.75 19.8631 124.974 20.543C125.2 21.2252 125.312 21.923 125.312 22.6386C125.312 23.4102 125.182 24.1416 124.923 24.8304C124.663 25.5192 124.307 26.1186 123.858 26.6308C123.408 27.1429 122.871 27.55 122.249 27.8519C121.63 28.1538 120.963 28.3059 120.254 28.3059ZM119.927 27.0423C120.513 27.0423 121.05 26.9193 121.536 26.6733C122.021 26.4273 122.437 26.0985 122.786 25.6825C123.135 25.2688 123.408 24.7968 123.605 24.2713C123.802 23.7457 123.903 23.2 123.903 22.6386C123.903 22.0639 123.811 21.5092 123.625 20.9747C123.442 20.4402 123.182 19.9683 122.847 19.5523C122.511 19.1385 122.108 18.8075 121.639 18.5615C121.167 18.3155 120.652 18.1925 120.093 18.1925C119.67 18.1925 119.274 18.2663 118.905 18.4139C118.536 18.5615 118.194 18.7605 117.88 19.0133C117.567 19.266 117.288 19.5567 117.041 19.8877C116.795 20.2187 116.592 20.5654 116.426 20.9299V24.3428C116.48 24.723 116.628 25.0764 116.867 25.4074C117.106 25.7384 117.393 26.0224 117.728 26.2595C118.064 26.4988 118.424 26.6889 118.813 26.8276C119.198 26.9707 119.572 27.0423 119.927 27.0423Z" fill="#0096A6"/>
<path d="M120.254 28.8383C119.31 28.8383 118.433 28.5923 117.648 28.1047C117.346 27.9169 117.066 27.7066 116.813 27.4763V28.6281H114.496V12.1831H116.956V17.9063C117.232 17.6334 117.529 17.3874 117.842 17.1727C118.598 16.6561 119.487 16.3944 120.478 16.3944C121.317 16.3944 122.082 16.5801 122.75 16.9446C123.408 17.3024 123.974 17.7855 124.433 18.3827C124.885 18.9686 125.236 19.6373 125.48 20.3732C125.721 21.1067 125.844 21.8694 125.844 22.6365C125.844 23.4685 125.701 24.2691 125.422 25.0161C125.14 25.7631 124.748 26.4229 124.258 26.982C123.764 27.5456 123.167 27.9974 122.482 28.3306C121.793 28.6683 121.041 28.8383 120.254 28.8383ZM117.974 27.0446C118.05 27.0983 118.129 27.1497 118.209 27.1989C118.833 27.5859 119.5 27.7715 120.254 27.7715C120.878 27.7715 121.473 27.6373 122.017 27.3712C122.572 27.1028 123.057 26.7337 123.457 26.2775C123.862 25.8168 124.189 25.2666 124.424 24.6404C124.659 24.0142 124.78 23.341 124.78 22.6365C124.78 21.9812 124.674 21.3326 124.469 20.7086C124.263 20.0891 123.967 19.5255 123.589 19.0357C123.22 18.5571 122.768 18.1702 122.24 17.8839C121.728 17.6066 121.135 17.4635 120.478 17.4635C119.744 17.4635 119.115 17.6334 118.558 17.9801C118.605 17.96 118.654 17.9398 118.704 17.9197C119.699 17.5216 120.921 17.5887 121.883 18.0897C122.417 18.3693 122.88 18.7472 123.258 19.2169C123.632 19.6798 123.923 20.2121 124.126 20.8003C124.33 21.3863 124.433 22.0058 124.433 22.6387C124.433 23.2605 124.321 23.8733 124.102 24.4592C123.882 25.0407 123.576 25.5663 123.191 26.027C122.797 26.4944 122.321 26.8724 121.775 27.1497C120.871 27.606 119.793 27.7536 118.628 27.3331C118.404 27.2526 118.185 27.1564 117.974 27.0446ZM115.565 27.5613H115.748V23.9694L115.892 24.2177V13.2499H115.565V27.5613ZM116.956 24.3049C117.003 24.5867 117.113 24.8461 117.296 25.0966C117.5 25.3784 117.748 25.6244 118.035 25.828C118.328 26.0382 118.65 26.2059 118.99 26.3289C119.885 26.651 120.648 26.5235 121.292 26.197C121.71 25.9845 122.075 25.696 122.375 25.3404C122.681 24.9736 122.927 24.5532 123.102 24.0857C123.276 23.6205 123.366 23.1352 123.366 22.641C123.366 22.1266 123.283 21.6256 123.117 21.1515C122.954 20.6796 122.724 20.2546 122.428 19.8901C122.142 19.5345 121.791 19.2482 121.388 19.038C120.701 18.6801 119.806 18.6287 119.1 18.9127C118.78 19.0402 118.482 19.2146 118.211 19.4316C117.934 19.6552 117.684 19.9169 117.464 20.2099C117.265 20.476 117.095 20.7601 116.956 21.0508V24.3049V24.3049Z" fill="#0096A6"/>
<path d="M127.67 14.8243V12.7175H129.064V14.8243H127.67ZM127.67 28.0957V17.1212H129.064V28.0957H127.67V28.0957Z" fill="#0096A6"/>
<path d="M129.596 28.6281H127.135V16.5868H129.596V28.6281ZM128.202 27.5613H128.529V17.6536H128.202V27.5613ZM129.596 15.3567H127.135V12.1831H129.596V15.3567ZM128.202 14.2899H128.529V13.2499H128.202V14.2899Z" fill="#0096A6"/>
<path d="M132.88 28.096V26.0317H134.088V28.096H132.88Z" fill="#065582"/>
<path d="M134.62 28.6279H132.345V25.4968H134.62V28.6279ZM133.412 27.5611H133.553V26.5636H133.412V27.5611Z" fill="#065582"/>
<path d="M142.405 28.3062C141.504 28.3062 140.707 28.0714 140.018 27.6017C139.329 27.1321 138.772 26.5371 138.35 25.8215V32.5824H136.956V17.1215H138.206V19.2484C138.643 18.5618 139.211 18.0027 139.907 17.5733C140.602 17.1439 141.361 16.9314 142.179 16.9314C142.918 16.9314 143.593 17.0902 144.206 17.4055C144.821 17.7209 145.354 18.1436 145.804 18.6692C146.253 19.1947 146.607 19.8031 146.859 20.4919C147.112 21.1807 147.237 21.8897 147.237 22.6188C147.237 23.3904 147.121 24.1217 146.889 24.8106C146.656 25.4994 146.325 26.1033 145.895 26.6221C145.466 27.141 144.953 27.5525 144.358 27.8544C143.766 28.1541 143.115 28.3062 142.405 28.3062ZM142.016 27.0426C142.589 27.0426 143.112 26.9174 143.584 26.6624C144.054 26.4097 144.459 26.0764 144.792 25.6627C145.128 25.2489 145.383 24.777 145.56 24.2514C145.736 23.7259 145.826 23.1802 145.826 22.6188C145.826 22.0284 145.723 21.467 145.519 20.9347C145.316 20.4002 145.034 19.9305 144.681 19.5235C144.325 19.1165 143.906 18.7944 143.421 18.5551C142.936 18.3158 142.414 18.1973 141.853 18.1973C141.497 18.1973 141.126 18.2711 140.737 18.4187C140.347 18.5663 139.985 18.7631 139.652 19.0091C139.316 19.2551 139.03 19.5436 138.793 19.8724C138.553 20.2034 138.406 20.55 138.352 20.9146V24.285C138.515 24.6786 138.723 25.0432 138.976 25.3809C139.229 25.7186 139.515 26.0093 139.837 26.2553C140.157 26.5014 140.502 26.6937 140.871 26.8346C141.238 26.971 141.618 27.0426 142.016 27.0426Z" fill="#065582"/>
<path d="M138.882 33.1167H136.421V16.589H138.739V17.7878C139.01 17.5395 139.307 17.3159 139.625 17.1213C140.403 16.6427 141.262 16.3989 142.177 16.3989C142.996 16.3989 143.761 16.5778 144.448 16.9312C145.123 17.2779 145.716 17.7475 146.206 18.3223C146.696 18.8949 147.083 19.5613 147.356 20.3061C147.629 21.0508 147.768 21.8291 147.768 22.6186C147.768 23.4461 147.64 24.2401 147.392 24.9804C147.139 25.7274 146.774 26.3938 146.305 26.9619C145.83 27.5344 145.255 27.9952 144.6 28.3306C143.933 28.6706 143.193 28.8428 142.401 28.8428C141.394 28.8428 140.49 28.5744 139.714 28.0444C139.414 27.8386 139.135 27.6127 138.88 27.3622V33.1167H138.882ZM137.488 32.0477H137.815L137.817 20.8518L137.672 21.0822V17.6536H137.488V32.0477ZM140.401 27.2146C140.985 27.5904 141.64 27.7738 142.405 27.7738C143.027 27.7738 143.604 27.6418 144.119 27.3779C144.645 27.1095 145.106 26.7427 145.486 26.282C145.873 25.8146 146.175 25.2622 146.385 24.6382C146.598 24.0097 146.705 23.3298 146.705 22.6186C146.705 21.9544 146.589 21.3013 146.358 20.6751C146.128 20.0511 145.806 19.492 145.399 19.0179C144.996 18.5482 144.513 18.1658 143.962 17.8817C143.428 17.6066 142.828 17.468 142.179 17.468C141.455 17.468 140.801 17.6514 140.184 18.0316C140.092 18.0875 140.001 18.1479 139.916 18.2105C140.119 18.1009 140.329 18.0025 140.546 17.9197C141.683 17.4903 142.734 17.6245 143.654 18.0763C144.2 18.3447 144.681 18.7137 145.081 19.1744C145.477 19.6284 145.79 20.1562 146.016 20.7444C146.244 21.3371 146.358 21.9678 146.358 22.6209C146.358 23.2381 146.26 23.8465 146.063 24.4235C145.866 25.0072 145.578 25.5395 145.204 26.0002C144.828 26.4676 144.365 26.8501 143.833 27.1363C142.902 27.6351 141.719 27.7313 140.676 27.3332C140.584 27.2951 140.493 27.2549 140.401 27.2146ZM138.882 24.173C139.021 24.4883 139.195 24.7858 139.401 25.0586C139.623 25.3561 139.878 25.6155 140.159 25.8302C140.439 26.0449 140.741 26.2127 141.059 26.3357C141.815 26.6242 142.674 26.5482 143.332 26.1948C143.736 25.9756 144.09 25.6849 144.376 25.3293C144.669 24.9669 144.898 24.5465 145.054 24.0835C145.213 23.6139 145.293 23.1218 145.293 22.6209C145.293 22.0998 145.202 21.5965 145.023 21.1269C144.842 20.655 144.591 20.2345 144.278 19.8744C143.971 19.5233 143.605 19.2393 143.184 19.0335C142.526 18.7092 141.792 18.5885 140.924 18.9172C140.582 19.0469 140.26 19.2214 139.965 19.4383C139.676 19.6486 139.428 19.9013 139.222 20.1853C139.043 20.4336 138.929 20.693 138.882 20.9569V24.173V24.173Z" fill="#065582"/>
<path d="M154.204 28.3056C153.425 28.3056 152.712 28.1535 152.063 27.8516C151.414 27.5496 150.85 27.1359 150.374 26.6081C149.895 26.0825 149.524 25.4742 149.258 24.7853C148.991 24.0965 148.857 23.3607 148.857 22.5734C148.857 21.8018 148.991 21.075 149.258 20.3928C149.524 19.7107 149.893 19.1158 150.363 18.6014C150.835 18.0892 151.398 17.6822 152.054 17.3803C152.709 17.0784 153.419 16.9263 154.184 16.9263C154.962 16.9263 155.676 17.0784 156.324 17.3803C156.973 17.6822 157.53 18.0937 157.993 18.6126C158.456 19.1315 158.819 19.7286 159.078 20.404C159.338 21.0772 159.468 21.7951 159.468 22.5533C159.468 22.6651 159.468 22.7792 159.468 22.891C159.468 23.0028 159.461 23.0811 159.447 23.1236H150.311C150.351 23.714 150.486 24.2575 150.709 24.7562C150.935 25.255 151.224 25.6866 151.58 26.0512C151.935 26.4157 152.34 26.702 152.799 26.9033C153.257 27.1068 153.745 27.2097 154.264 27.2097C154.606 27.2097 154.946 27.1605 155.289 27.0621C155.631 26.9637 155.944 26.8295 156.231 26.6617C156.517 26.494 156.776 26.286 157.009 26.04C157.242 25.794 157.418 25.5234 157.541 25.2281L158.749 25.5659C158.586 25.9729 158.354 26.3419 158.054 26.6707C157.754 27.0017 157.405 27.288 157.009 27.534C156.613 27.78 156.177 27.9701 155.698 28.102C155.219 28.2385 154.723 28.3056 154.204 28.3056ZM158.137 22.0277C158.096 21.4373 157.962 20.9005 157.736 20.4152C157.51 19.9299 157.224 19.5139 156.877 19.1628C156.528 18.8116 156.125 18.5388 155.669 18.342C155.21 18.1452 154.723 18.0468 154.204 18.0468C153.685 18.0468 153.193 18.1452 152.729 18.342C152.264 18.5388 151.859 18.8116 151.51 19.1628C151.161 19.5139 150.882 19.9344 150.669 20.4264C150.457 20.9184 150.331 21.4507 150.291 22.0277H158.137V22.0277Z" fill="#065582"/>
<path d="M154.204 28.8382C153.349 28.8382 152.553 28.6682 151.837 28.335C151.128 28.004 150.501 27.5455 149.978 26.9662C149.457 26.3937 149.047 25.725 148.759 24.978C148.47 24.231 148.322 23.4214 148.322 22.5737C148.322 21.7395 148.47 20.9411 148.759 20.1986C149.047 19.4605 149.454 18.8008 149.969 18.2416C150.486 17.678 151.112 17.2263 151.828 16.8953C153.289 16.2243 155.125 16.2355 156.548 16.8953C157.26 17.2263 157.879 17.6848 158.389 18.2551C158.895 18.8209 159.293 19.4784 159.575 20.2098C159.857 20.9433 160 21.7306 160 22.5491V22.8868C160 23.0635 159.987 23.1821 159.953 23.2827L159.834 23.654H150.917C150.978 23.9648 151.072 24.2578 151.195 24.5329C151.394 24.9735 151.651 25.3582 151.962 25.6758C152.269 25.9911 152.622 26.2394 153.016 26.4138C153.656 26.6978 154.403 26.7582 155.139 26.5458C155.436 26.4608 155.712 26.3445 155.958 26.1991C156.199 26.056 156.423 25.8793 156.62 25.6713C156.805 25.4745 156.951 25.2553 157.047 25.0227L157.228 24.5866L159.468 25.2106L159.246 25.763C159.058 26.2259 158.792 26.6531 158.45 27.0288C158.116 27.3956 157.727 27.7177 157.293 27.9861C156.855 28.2567 156.367 28.4691 155.844 28.6145C155.318 28.7644 154.765 28.8382 154.204 28.8382ZM154.181 17.4633C153.499 17.4633 152.857 17.5998 152.275 17.8681C151.687 18.1388 151.175 18.51 150.754 18.9663C150.329 19.4292 149.994 19.9749 149.752 20.59C149.51 21.2072 149.39 21.8737 149.39 22.576C149.39 23.2917 149.513 23.9715 149.754 24.5955C149.996 25.2173 150.336 25.7764 150.768 26.2505C151.195 26.7224 151.707 27.0982 152.289 27.3665C152.864 27.6349 153.508 27.7714 154.204 27.7714C154.669 27.7714 155.125 27.711 155.557 27.5902C155.982 27.4717 156.378 27.2995 156.729 27.0825C157.081 26.8633 157.394 26.6061 157.66 26.3132C157.776 26.1834 157.884 26.047 157.975 25.9039L157.817 25.8592C157.698 26.0515 157.557 26.2349 157.396 26.4049C157.13 26.6867 156.828 26.9282 156.501 27.1205C156.177 27.3106 155.819 27.4627 155.436 27.5723C154.459 27.8541 153.454 27.7781 152.582 27.3889C152.063 27.1586 151.598 26.832 151.197 26.4205C150.801 26.0135 150.472 25.5259 150.224 24.9735C149.973 24.4211 149.824 23.8105 149.779 23.1575L149.741 22.5872H158.935V22.5514C158.935 21.8625 158.817 21.205 158.582 20.5944C158.347 19.9839 158.016 19.4382 157.595 18.9685C157.181 18.5055 156.678 18.1343 156.099 17.8637C155.524 17.5998 154.879 17.4633 154.181 17.4633ZM158.709 22.5626H149.718L149.759 21.99C149.803 21.3571 149.944 20.7599 150.179 20.2165C150.416 19.6663 150.736 19.1854 151.13 18.7873C151.526 18.387 151.994 18.0717 152.519 17.8503C153.575 17.403 154.832 17.403 155.877 17.8503C156.396 18.0739 156.859 18.3892 157.253 18.7873C157.642 19.1787 157.969 19.6529 158.219 20.1919C158.472 20.7331 158.622 21.3392 158.667 21.99L158.709 22.5626ZM150.897 21.4935H157.528C157.468 21.1893 157.376 20.9053 157.253 20.6392C157.054 20.212 156.801 19.843 156.499 19.5388C156.201 19.2369 155.85 18.9998 155.459 18.8321C154.68 18.4966 153.729 18.4988 152.938 18.8321C152.539 18.9998 152.188 19.2369 151.891 19.5388C151.591 19.8407 151.347 20.2098 151.161 20.6369C151.045 20.9075 150.956 21.1938 150.897 21.4935Z" fill="#065582"/>
<path d="M48.3968 37.7575C38.0503 37.7575 29.6322 29.3415 29.6322 18.9977C29.6322 8.65617 38.0503 0.240234 48.3968 0.240234C58.7433 0.240234 67.1614 8.65617 67.1614 19C67.1614 29.3438 58.7433 37.7575 48.3968 37.7575ZM48.3968 4.49629C40.397 4.49629 33.8894 11.0023 33.8894 19C33.8894 26.9977 40.397 33.5037 48.3968 33.5037C56.3966 33.5037 62.9042 26.9977 62.9042 19C62.9042 11.0023 56.3966 4.49629 48.3968 4.49629Z" fill="#08A2B4"/>
<path d="M42.2986 18.8768C42.2986 18.0046 42.4485 17.1346 42.746 16.269C43.0435 15.4035 43.4775 14.6297 44.048 13.9475C44.6184 13.2654 45.3209 12.7108 46.1575 12.2791C46.992 11.8497 47.9405 11.635 49.0031 11.635C50.2626 11.635 51.3408 11.928 52.2357 12.514C53.1305 13.0999 53.7904 13.8648 54.2155 14.8064L53.1215 15.5019C52.8956 15.0255 52.6204 14.623 52.2961 14.2942C51.9717 13.9677 51.6227 13.7015 51.2513 13.4958C50.88 13.2923 50.4952 13.1446 50.097 13.0552C49.6988 12.9657 49.3073 12.9232 48.9226 12.9232C48.0725 12.9232 47.323 13.0999 46.6743 13.4555C46.0233 13.8111 45.4775 14.2741 45.0323 14.8466C44.5871 15.4192 44.2538 16.0633 44.0278 16.7812C43.8019 17.4969 43.69 18.2237 43.69 18.9595C43.69 19.7647 43.8265 20.534 44.0972 21.2721C44.3679 22.0079 44.7415 22.6609 45.2113 23.2268C45.681 23.7926 46.2381 24.2421 46.8823 24.5776C47.5244 24.9109 48.2246 25.0786 48.9807 25.0786C49.3789 25.0786 49.7861 25.0272 50.2044 24.9243C50.6227 24.8214 51.0254 24.6581 51.4169 24.4322C51.8084 24.2064 52.1685 23.9268 52.5019 23.5936C52.833 23.2603 53.1126 22.8533 53.3363 22.3769L54.4906 22.9897C54.2647 23.5354 53.947 24.0163 53.5354 24.4322C53.1238 24.8482 52.6674 25.1994 52.1618 25.4856C51.6585 25.7719 51.1238 25.9911 50.5601 26.1409C49.9963 26.2908 49.4416 26.3668 48.8979 26.3668C47.9293 26.3668 47.0412 26.1499 46.2314 25.7115C45.4215 25.2754 44.7258 24.7051 44.1419 24.0028C43.5581 23.3006 43.1039 22.5021 42.7796 21.6098C42.4619 20.7152 42.2986 19.8049 42.2986 18.8768Z" fill="#10517D"/>
<path d="M48.9047 27.4005C47.766 27.4005 46.7034 27.1388 45.7459 26.6222C44.822 26.1234 44.0167 25.4659 43.3522 24.663C42.6968 23.8735 42.1778 22.9655 41.8131 21.9613C41.4485 20.9616 41.2628 19.9216 41.2628 18.8749C41.2628 17.8909 41.4328 16.9001 41.7662 15.9295C42.1062 14.9476 42.6051 14.0553 43.2538 13.2792C43.9093 12.4942 44.728 11.8456 45.6855 11.3558C46.6653 10.8526 47.7816 10.5977 49.0031 10.5977C50.4617 10.5977 51.7413 10.951 52.8039 11.6466C53.8642 12.3399 54.6562 13.2591 55.1617 14.3796L55.5309 15.1981L52.6875 17.0075L52.1864 15.9451C52.0119 15.5761 51.8017 15.2675 51.5623 15.0259C51.3073 14.771 51.0366 14.5607 50.7525 14.4042C50.4706 14.2499 50.1753 14.1358 49.8733 14.0687C49.5512 13.9971 49.2335 13.9613 48.927 13.9613C48.2492 13.9613 47.6743 14.0933 47.1754 14.3662C46.6475 14.6547 46.2157 15.0192 45.8578 15.4822C45.4909 15.9541 45.209 16.4953 45.0233 17.0924C44.8309 17.7052 44.7325 18.3337 44.7325 18.9599C44.7325 19.6376 44.8488 20.2951 45.077 20.9146C45.3074 21.5364 45.6229 22.091 46.0166 22.5651C46.3969 23.0214 46.851 23.3904 47.3678 23.6588C48.1284 24.0547 48.9964 24.1575 49.965 23.9205C50.2849 23.8422 50.6026 23.7125 50.9091 23.538C51.2178 23.3591 51.5108 23.1332 51.7726 22.8671C52.0187 22.6188 52.2334 22.3057 52.4079 21.9367L52.8732 20.9549L55.8172 22.5204L55.457 23.3904C55.1796 24.0591 54.7859 24.6563 54.2826 25.164C53.8061 25.647 53.2692 26.0586 52.6853 26.3896C52.1059 26.7183 51.4862 26.9733 50.8375 27.1455C50.1843 27.3132 49.5355 27.4005 48.9047 27.4005Z" fill="#10517D"/>
<path d="M11.9862 18.8768C11.9862 18.0046 12.1384 17.1346 12.4448 16.269C12.7513 15.4035 13.1965 14.6297 13.7826 13.9475C14.3665 13.2654 15.0891 12.7108 15.9459 12.2791C16.8027 11.8497 17.7758 11.635 18.8652 11.635C20.1583 11.635 21.2634 11.928 22.1828 12.514C23.1023 13.0999 23.7779 13.8648 24.2141 14.8064L23.0911 15.5019C22.8607 15.0255 22.5765 14.623 22.2432 14.2942C21.9099 13.9677 21.552 13.7015 21.1717 13.4958C20.7914 13.2923 20.3954 13.1446 19.9882 13.0552C19.5811 12.9657 19.1784 12.9232 18.7847 12.9232C17.9145 12.9232 17.1449 13.0999 16.4783 13.4555C15.8116 13.8111 15.2501 14.2741 14.7938 14.8466C14.3374 15.4192 13.9951 16.0633 13.7625 16.7812C13.5321 17.4969 13.4157 18.2237 13.4157 18.9595C13.4157 19.7647 13.5544 20.534 13.8341 21.2721C14.1137 22.0079 14.494 22.6609 14.9772 23.2268C15.4604 23.7926 16.0309 24.2421 16.6908 24.5776C17.3507 24.9109 18.0688 25.0786 18.8451 25.0786C19.2523 25.0786 19.6728 25.0272 20.1001 24.9243C20.5296 24.8214 20.9435 24.6581 21.3462 24.4322C21.7466 24.2064 22.1179 23.9268 22.458 23.5936C22.798 23.2603 23.0844 22.8533 23.3148 22.3769L24.4982 22.9897C24.2655 23.5354 23.9389 24.0163 23.5184 24.4322C23.0955 24.8482 22.628 25.1994 22.109 25.4856C21.5922 25.7719 21.0441 25.9911 20.467 26.1409C19.8876 26.2908 19.3216 26.3668 18.7623 26.3668C17.7691 26.3668 16.8563 26.1499 16.0264 25.7115C15.1964 25.2754 14.4828 24.7051 13.8833 24.0028C13.2837 23.3006 12.8184 22.5021 12.4851 21.6098C12.1518 20.7152 11.9862 19.8049 11.9862 18.8768Z" fill="#0096A6"/>
<path d="M22.8293 20.9504L22.3528 21.9322C22.1739 22.3012 21.9546 22.6144 21.7019 22.8626C21.4312 23.1287 21.1336 23.3546 20.816 23.5336C20.5028 23.708 20.1762 23.8377 19.8473 23.916C18.8518 24.1553 17.9637 24.0502 17.1807 23.6543C17.004 23.5649 16.8385 23.4597 16.6751 23.3502C16.6349 23.3211 16.5924 23.2942 16.5543 23.2652C16.2769 23.0616 16.0197 22.8291 15.7937 22.5629C15.3911 22.091 15.0667 21.5364 14.8318 20.9146C14.5969 20.2973 14.4783 19.6398 14.4783 18.9599C14.4783 18.3315 14.579 17.703 14.7759 17.0924C14.9683 16.4975 15.2568 15.9563 15.6327 15.4822C16.0018 15.0192 16.4425 14.6547 16.9861 14.3662C17.4984 14.0933 18.0867 13.9613 18.7825 13.9613C18.9793 13.9613 19.1829 13.9815 19.3865 14.0083C20.2366 14.0598 20.8898 14.4019 21.3462 14.9051C21.3931 14.9454 21.4401 14.9812 21.4849 15.0259C21.7309 15.2675 21.9457 15.5761 22.1247 15.9451L22.6392 17.0075L25.5563 15.1981L25.1783 14.3796C24.6593 13.2613 23.8472 12.3421 22.76 11.6466C21.6705 10.951 20.3574 10.5977 18.8608 10.5977C17.6058 10.5977 16.4604 10.8526 15.4559 11.3558C14.4761 11.8479 13.6372 12.4942 12.9616 13.2792C12.295 14.0553 11.7827 14.9476 11.4359 15.9295C11.0914 16.9001 10.9192 17.8909 10.9192 18.8749C10.9192 19.9216 11.1093 20.9593 11.4829 21.9613C11.8565 22.9632 12.3889 23.8735 13.0623 24.663C13.7446 25.4659 14.5723 26.1234 15.5186 26.6222C16.5007 27.1388 17.5923 27.4005 18.7579 27.4005C19.4066 27.4005 20.071 27.3132 20.7354 27.141C21.3998 26.9688 22.0374 26.7138 22.6302 26.3851C23.2298 26.0541 23.7801 25.6403 24.27 25.1595C24.7868 24.6496 25.1917 24.0524 25.4758 23.3837L25.8449 22.5137L22.8293 20.9504Z" fill="#0096A6"/>
<path d="M20.7198 14.4574L23.1179 8.36743L21.8831 7.92236L19.4648 14.0615C19.9569 14.1018 20.373 14.2427 20.7198 14.4574Z" fill="#0096A6"/>
<path d="M16.1338 22.8557L13.9549 28.6393L15.2926 29.1425L17.3463 23.6877C16.8452 23.5177 16.4403 23.2247 16.1338 22.8557Z" fill="#0096A6"/>
</svg>
