<svg width="160" height="47" viewBox="0 0 160 47" fill="none" xmlns="http://www.w3.org/2000/svg">
<path d="M47.872 21.0517C46.9703 21.0517 46.2356 21.7872 46.231 22.6933C45.7893 22.2276 45.2469 21.8241 44.6129 21.4898C43.7822 21.0494 42.798 20.8258 41.6926 20.8258C40.4659 20.8258 39.3284 21.1347 38.3146 21.7457C37.3007 22.3567 36.4859 23.2212 35.9 24.3209C35.3141 25.4161 35.0166 26.6887 35.0166 28.1043C35.0166 29.5199 35.3141 30.804 35.8977 31.9245C36.4859 33.0473 37.2938 33.9349 38.2985 34.562C39.3055 35.1891 40.4316 35.5096 41.6423 35.5096C42.7317 35.5096 43.7181 35.2813 44.5763 34.834C45.2286 34.4928 45.7847 34.0778 46.231 33.6006V33.6306C46.231 34.5435 46.968 35.2836 47.872 35.2836C48.7783 35.2836 49.513 34.5412 49.513 33.6306V22.7048C49.513 21.7918 48.776 21.0517 47.872 21.0517ZM46.231 28.155C46.231 29.0657 46.0434 29.8703 45.6726 30.5458C45.3041 31.2167 44.8166 31.7331 44.2216 32.0813C43.0452 32.766 41.5873 32.7868 40.3675 32.0697C39.7656 31.7147 39.2735 31.1913 38.905 30.5112C38.5343 29.8288 38.3466 29.0196 38.3466 28.1089C38.3466 27.1982 38.5343 26.4028 38.9027 25.7457C39.2712 25.091 39.7587 24.5861 40.3515 24.2472C40.9465 23.9083 41.5988 23.7353 42.2877 23.7353C42.9743 23.7353 43.6265 23.9106 44.2216 24.2587C44.8166 24.6045 45.3041 25.1187 45.6726 25.7826C46.0434 26.4443 46.231 27.2443 46.231 28.155Z" fill="#1E29AE"/>
<path d="M73.1388 21.5265C72.2577 21.0608 71.2507 20.8257 70.143 20.8257C69.0994 20.8257 68.1107 21.0839 67.2044 21.5911C66.4125 22.0338 65.7945 22.6194 65.3643 23.3341C64.8951 22.5755 64.2611 21.9761 63.4784 21.5496C62.5881 21.0677 61.5674 20.8234 60.4437 20.8234C59.606 20.8234 58.8073 20.9894 58.0703 21.3167C57.4936 21.5727 56.9878 21.9139 56.5644 22.3312C56.4065 21.598 55.7542 21.047 54.96 21.047C54.0675 21.047 53.3442 21.7778 53.3442 22.6747V33.6489C53.3442 34.548 54.0697 35.2766 54.9852 35.2766C55.8778 35.2766 56.601 34.5457 56.601 33.6489V27.3479C56.601 26.1744 56.8962 25.2684 57.4753 24.6505C58.052 24.0372 58.8507 23.726 59.8463 23.726C60.8419 23.726 61.6338 24.0372 62.2036 24.6482C62.7758 25.2638 63.0665 26.1721 63.0665 27.3456V33.6466C63.0665 34.5457 63.792 35.2743 64.6822 35.2743C65.5748 35.2743 66.298 34.5434 66.298 33.6466V27.3456C66.298 26.1721 66.5933 25.2661 67.1723 24.6482C67.749 24.0349 68.5478 23.7237 69.5434 23.7237C70.5389 23.7237 71.3308 24.0349 71.9007 24.6459C72.4728 25.2615 72.7635 26.1698 72.7635 27.3433V33.6443C72.7635 34.5434 73.489 35.272 74.3816 35.272C75.2742 35.272 75.9974 34.5411 75.9974 33.6443V26.9168C75.9974 25.6326 75.741 24.5191 75.2375 23.6061C74.7317 22.6977 74.0268 21.9946 73.1388 21.5265Z" fill="#1E29AE"/>
<path d="M90.9171 21.7318C89.9101 21.1301 88.768 20.8257 87.5253 20.8257C86.4679 20.8257 85.4952 21.0494 84.6324 21.4874C83.971 21.824 83.4126 22.239 82.9617 22.7255V17.9577C82.9617 17.0516 82.2316 16.3162 81.3322 16.3162C80.4327 16.3162 79.7026 17.0516 79.7026 17.9577V33.642C79.7026 34.5481 80.4327 35.2835 81.3322 35.2835C82.227 35.2835 82.9571 34.5527 82.9617 33.6512C83.408 34.1262 83.9595 34.5319 84.6072 34.8616C85.454 35.2928 86.4359 35.5118 87.5253 35.5118C88.752 35.5118 89.8895 35.1936 90.9056 34.5665C91.9218 33.9394 92.7297 33.0495 93.3087 31.9267C93.8855 30.8062 94.1784 29.5221 94.1784 28.1088C94.1784 26.6955 93.8855 25.4183 93.3087 24.314C92.7297 23.2027 91.9264 22.3358 90.9171 21.7318ZM90.8713 28.1042C90.8713 29.0149 90.6836 29.8241 90.3129 30.5065C89.9444 31.1867 89.45 31.7123 88.8504 32.0651C87.6603 32.7659 86.2024 32.7775 84.9849 32.0766C84.3829 31.7308 83.8909 31.2143 83.5224 30.5434C83.1516 29.8702 82.964 29.0656 82.964 28.1526C82.964 27.2419 83.1516 26.4419 83.5224 25.7756C83.8909 25.1117 84.3829 24.5998 84.9849 24.254C85.5868 23.9059 86.2345 23.7307 86.9073 23.7307C87.5962 23.7307 88.2531 23.9036 88.855 24.2425C89.4569 24.5814 89.9467 25.084 90.3152 25.7388C90.6836 26.3981 90.8713 27.1935 90.8713 28.1042Z" fill="#1E29AE"/>
<path d="M98.7418 15.5646C98.1719 15.5646 97.6867 15.7628 97.2999 16.1525C96.9131 16.5421 96.7163 17.0332 96.7163 17.6073C96.7163 18.1813 96.9131 18.6701 97.2999 19.062C97.6867 19.4517 98.1742 19.6499 98.7418 19.6499C99.2956 19.6499 99.7717 19.4517 100.161 19.062C100.548 18.6724 100.744 18.1813 100.744 17.6096C100.744 17.0378 100.548 16.5467 100.161 16.1571C99.774 15.7628 99.2956 15.5646 98.7418 15.5646Z" fill="#1E29AE"/>
<path d="M98.7167 21.0516C97.8172 21.0516 97.0872 21.7871 97.0872 22.6932V33.642C97.0872 34.5481 97.8172 35.2835 98.7167 35.2835C99.6161 35.2835 100.346 34.5481 100.346 33.642V22.6908C100.346 21.7871 99.6161 21.0516 98.7167 21.0516Z" fill="#1E29AE"/>
<path d="M116.708 24.3163C116.079 23.2028 115.204 22.3313 114.113 21.7296C113.026 21.1301 111.794 20.8258 110.455 20.8258C109.117 20.8258 107.885 21.1301 106.796 21.7296C105.704 22.3313 104.832 23.2005 104.203 24.3163C103.573 25.4299 103.255 26.721 103.255 28.155C103.255 29.6052 103.567 30.9009 104.178 32.0052C104.791 33.1118 105.647 33.9833 106.72 34.592C107.791 35.2006 109.007 35.5096 110.332 35.5096C111.671 35.5096 112.913 35.2006 114.026 34.5943C115.14 33.9856 116.035 33.1118 116.683 31.996C117.328 30.8824 117.656 29.5913 117.656 28.155C117.656 26.721 117.337 25.4299 116.708 24.3163ZM112.282 32.0997C111.678 32.4317 111.021 32.6 110.332 32.6C109.254 32.6 108.348 32.215 107.638 31.4519C106.924 30.6864 106.565 29.5775 106.565 28.1527C106.565 27.1913 106.741 26.3682 107.087 25.7089C107.43 25.0564 107.899 24.5584 108.483 24.2287C109.071 23.8967 109.716 23.7284 110.405 23.7284C111.094 23.7284 111.746 23.8967 112.341 24.2287C112.932 24.5584 113.415 25.0564 113.776 25.7112C114.138 26.3705 114.321 27.1913 114.321 28.1504C114.321 29.1095 114.129 29.9348 113.751 30.6011C113.378 31.2674 112.884 31.77 112.282 32.0997Z" fill="#1E29AE"/>
<path d="M132.072 25.0148C131.326 24.6436 130.339 24.2471 129.142 23.839C127.973 23.4586 127.105 23.099 126.561 22.7739C126.066 22.4788 125.824 22.0799 125.824 21.5566C125.824 21.0701 125.963 20.7128 126.249 20.4615C126.545 20.2032 126.929 20.0788 127.424 20.0788C128.007 20.0788 128.469 20.2309 128.836 20.5445C128.945 20.639 129.042 20.745 129.122 20.8626C129.609 21.5819 130.38 22.0108 131.186 22.0108C132.23 22.0108 133.134 21.3698 133.491 20.3808C133.85 19.3802 133.571 18.3381 132.763 17.6603C132.717 17.6211 132.669 17.5842 132.623 17.545C131.349 16.5421 129.653 16.0326 127.584 16.0326C125.549 16.0326 123.872 16.5421 122.597 17.545C121.306 18.5617 120.651 19.9842 120.651 21.771C120.651 22.9768 120.94 23.9727 121.507 24.729C122.066 25.4759 122.745 26.0477 123.526 26.4304C124.283 26.8039 125.274 27.182 126.471 27.5532C127.282 27.7976 127.913 28.0166 128.35 28.2057C128.772 28.3878 129.129 28.6229 129.415 28.9042C129.68 29.1647 129.811 29.4875 129.811 29.8887C129.811 30.3705 129.648 30.7371 129.314 31.0045C128.971 31.2812 128.483 31.4218 127.872 31.4218C127.272 31.4218 126.803 31.2627 126.437 30.9331C126.284 30.797 126.158 30.631 126.057 30.4397C125.696 29.7411 124.94 29.3054 124.087 29.3054H123.423C122.592 29.3054 121.839 29.7734 121.462 30.5296C121.093 31.2627 121.157 32.0881 121.652 32.7659C122.311 33.6582 123.201 34.3383 124.299 34.7925C125.387 35.242 126.632 35.4703 128.003 35.4703C129.412 35.4703 130.653 35.2052 131.694 34.6818C132.74 34.1538 133.55 33.4345 134.102 32.54C134.653 31.6455 134.935 30.638 134.935 29.5451C134.935 28.3924 134.647 27.431 134.077 26.6909C133.514 25.9601 132.841 25.3975 132.072 25.0148Z" fill="#F47502"/>
<path d="M148.731 20.8395C147.55 20.2101 146.211 19.8896 144.746 19.8896C143.281 19.8896 141.943 20.2101 140.762 20.8395C139.576 21.4735 138.631 22.3934 137.949 23.5785C137.269 24.7589 136.924 26.1445 136.924 27.6915C136.924 29.2569 137.265 30.6448 137.935 31.816C138.608 32.9918 139.546 33.9094 140.723 34.5411C141.895 35.1728 143.229 35.491 144.694 35.491C146.156 35.491 147.502 35.1705 148.69 34.5411C149.884 33.9094 150.839 32.9872 151.53 31.8045C152.219 30.6218 152.569 29.2385 152.569 27.6915C152.569 26.1445 152.223 24.7612 151.544 23.5785C150.861 22.3934 149.916 21.4735 148.731 20.8395ZM146.733 30.2667C146.165 30.8638 145.499 31.152 144.694 31.152C143.89 31.152 143.243 30.8639 142.712 30.2713C142.183 29.6811 141.913 28.812 141.913 27.6915C141.913 26.5549 142.185 25.6811 142.723 25.1001C143.263 24.5145 143.925 24.2286 144.746 24.2286C145.55 24.2286 146.206 24.5168 146.756 25.1139C147.303 25.7041 147.577 26.5733 147.577 27.6915C147.58 28.8096 147.296 29.6765 146.733 30.2667Z" fill="#F47502"/>
<path d="M157.542 15.2878C156.187 15.2878 155.086 16.3968 155.086 17.7616V32.8074C155.086 34.1722 156.187 35.2812 157.542 35.2812C158.897 35.2812 159.998 34.1722 159.998 32.8074V17.764C160 16.3991 158.897 15.2878 157.542 15.2878Z" fill="#F47502"/>
<path d="M23.9121 27.092C22.9943 27.092 22.207 26.843 21.509 26.3289C21.1794 26.0661 20.7262 26.0107 20.344 26.1882C19.9595 26.3681 19.7192 26.7439 19.7192 27.1658C19.7192 27.5324 19.8978 27.862 20.225 28.0995C20.9711 28.6275 21.8019 28.9756 22.7036 29.1416V29.6442C22.7036 30.2344 23.1774 30.7163 23.7633 30.7186C23.7724 30.7186 23.7816 30.7186 23.793 30.7186C24.3835 30.7209 24.8664 30.239 24.8664 29.6442V29.2154C25.5759 29.107 26.2144 28.8327 26.7706 28.3923C27.5647 27.7491 27.9836 26.8684 27.9836 25.847C27.9836 24.8257 27.5991 24.0257 26.8507 23.477C26.1938 22.9813 25.1548 22.6078 23.6786 22.3357C22.5045 22.1098 21.9095 21.7202 21.9095 21.1807C21.9095 20.8326 22.0148 20.5743 22.2505 20.3461C22.4153 20.187 22.7998 19.9957 23.7038 19.9957C24.3149 19.9957 24.8618 20.1617 25.3264 20.489C25.5347 20.6504 25.7888 20.738 26.0428 20.738C26.6562 20.738 27.1024 20.2839 27.1024 19.6568C27.1024 19.3363 26.9491 19.0297 26.6836 18.8152C26.1916 18.4164 25.5828 18.1328 24.8664 17.9645V17.3927C24.8664 16.7495 24.4156 16.2815 23.793 16.2815C23.182 16.2815 22.7036 16.7703 22.7036 17.3927V17.9138C20.8361 18.2273 19.7467 19.4055 19.7467 21.1692C19.7467 23.8067 22.4427 24.33 23.3376 24.5052C24.7978 24.7704 25.3379 25.0701 25.5027 25.1854C25.7247 25.3421 25.8208 25.5335 25.8208 25.8217C25.8231 26.1329 25.8231 27.092 23.9121 27.092Z" fill="#1E29AE"/>
<path d="M22.7058 17.9115V29.1439L24.8663 29.2177V17.9622L22.7058 17.9115Z" fill="#1E29AE"/>
<path d="M30.881 31.1312C28.9631 32.9479 26.4547 33.9485 23.8205 33.9485C18.1355 33.9485 13.5101 29.2891 13.5101 23.5622C13.5101 17.8354 18.1355 13.1759 23.8205 13.1759C25.6217 13.1759 27.3611 13.6532 28.8945 14.5316C28.0705 14.6561 27.4778 15.4123 27.567 16.2538C27.6517 17.0607 28.3223 17.6671 29.1256 17.6671C29.1805 17.6671 29.2355 17.6647 29.2927 17.6578L34.8312 17.0676L34.8129 11.6958C34.8106 10.8266 34.1057 10.1211 33.2383 10.1211C32.4007 10.1234 31.7232 10.792 31.682 11.6243C29.3682 10.0727 26.6493 9.23352 23.8205 9.23352C15.9796 9.23352 9.60107 15.659 9.60107 23.5576C9.60107 31.4563 15.9796 37.8817 23.8205 37.8817C27.4549 37.8817 30.913 36.5007 33.561 33.9946C34.346 33.2499 34.3849 32.0027 33.6457 31.2119C32.9042 30.4257 31.666 30.3865 30.881 31.1312Z" fill="#1E29AE"/>
<path d="M27.4823 6.49696L23.9028 0.196017C23.7563 -0.062199 23.3878 -0.0645045 23.2368 0.189101L19.4651 6.54307C20.7834 6.21799 22.1588 6.04047 23.5755 6.04047C24.919 6.04047 26.2258 6.20185 27.4823 6.49696Z" fill="#F47502"/>
<path d="M19.3665 40.1643L23.1405 46.8042C23.2869 47.0624 23.6554 47.0647 23.8064 46.8111L27.7475 40.1735C26.4109 40.5078 25.0149 40.69 23.5753 40.69C22.122 40.6877 20.7145 40.5055 19.3665 40.1643Z" fill="#F47502"/>
<path d="M8.84331 32.3025L6.79953 39.8207C6.71943 40.1112 6.98721 40.3787 7.27558 40.298L14.6931 38.2C12.2992 36.7429 10.2874 34.7164 8.84331 32.3025Z" fill="#F47502"/>
<path d="M14.7527 8.49341L7.29854 6.61673C7.01245 6.54526 6.75612 6.80808 6.83394 7.09627L8.82049 14.4693C10.2784 12.0185 12.3198 9.96201 14.7527 8.49341Z" fill="#F47502"/>
<path d="M6.84304 19.3708L0.201361 23.0274C-0.0664121 23.1749 -0.0664121 23.56 0.199072 23.7075L6.86135 27.4332C6.5501 26.1283 6.38073 24.768 6.38073 23.3663C6.37845 21.9899 6.54323 20.6527 6.84304 19.3708Z" fill="#F47502"/>
</svg>
