<svg width="155" height="21" viewBox="0 0 155 21" fill="none" xmlns="http://www.w3.org/2000/svg">
<g clip-path="url(#clip0)">
<path d="M0 10.895V10.8384C0 5.25218 4.25463 0.675293 10.3534 0.675293C13.3316 0.675293 15.3459 1.46487 16.9906 2.66897C17.2553 2.87063 17.4696 3.12974 17.6172 3.42634C17.7647 3.72294 17.8414 4.04911 17.8415 4.37971C17.8415 4.65855 17.7856 4.93462 17.6769 5.19189C17.5683 5.44916 17.4091 5.68251 17.2086 5.87839C17.0081 6.07428 16.7703 6.22879 16.5089 6.33296C16.2476 6.43714 15.968 6.48889 15.6863 6.48523C15.2178 6.48031 14.7621 6.33333 14.3806 6.06413C13.1614 5.16665 11.885 4.66132 10.3254 4.66132C6.97759 4.66132 4.56708 7.41167 4.56708 10.7805V10.8371C4.56708 14.2059 6.92174 17.0129 10.3254 17.0129C12.1682 17.0129 13.3835 16.4523 14.6359 15.4693C14.8372 15.2885 15.0732 15.1498 15.3298 15.0613C15.5865 14.9728 15.8585 14.9364 16.1297 14.9542C16.4008 14.972 16.6656 15.0437 16.9082 15.165C17.1507 15.2864 17.3661 15.4548 17.5415 15.6603C17.7169 15.8658 17.8486 16.1041 17.9289 16.3611C18.0092 16.6181 18.0363 16.8884 18.0087 17.156C17.9811 17.4236 17.8994 17.683 17.7683 17.9186C17.6372 18.1542 17.4595 18.3613 17.2459 18.5275C15.4589 20.0725 13.3595 20.9989 10.1832 20.9989C4.33972 21.0002 0 16.5365 0 10.895Z" fill="#6362FB"/>
<path d="M20.4488 16.3387V16.2901C20.4488 13.0002 22.975 11.4894 26.5754 11.4894C27.8411 11.4783 29.0989 11.6872 30.2916 12.1066V11.854C30.2916 10.0853 29.1854 9.10231 27.0302 9.10231C26.0215 9.09142 25.0171 9.23343 24.0519 9.52341C23.8523 9.59682 23.6413 9.63512 23.4284 9.63659C23.1948 9.64079 22.9628 9.59884 22.7458 9.51319C22.5288 9.42755 22.3313 9.29993 22.1648 9.13781C21.9983 8.97569 21.8661 8.78231 21.776 8.56901C21.6859 8.35571 21.6397 8.12677 21.6401 7.89558C21.6404 7.53501 21.752 7.18314 21.9599 6.88705C22.1678 6.59097 22.4621 6.36479 22.8035 6.23879C24.1649 5.73346 25.6394 5.44922 27.6537 5.44922C30.0084 5.44922 31.7103 6.0664 32.7885 7.13364C33.9227 8.25615 34.4332 9.91294 34.4332 11.9342V18.7838C34.4332 19.0554 34.3787 19.3243 34.2729 19.5748C34.1671 19.8254 34.012 20.0526 33.8167 20.2434C33.6213 20.4341 33.3897 20.5846 33.1351 20.686C32.8806 20.7874 32.6082 20.8377 32.3338 20.834C31.0867 20.834 30.2637 19.9629 30.2637 19.0654V19.0364C29.2133 20.1879 27.7667 20.9459 25.6687 20.9459C22.8035 20.9433 20.4488 19.3167 20.4488 16.3387ZM30.3488 15.357V14.599C29.4823 14.2211 28.5447 14.0296 27.5979 14.0371C25.7538 14.0371 24.6183 14.7675 24.6183 16.115V16.1703C24.6183 17.3218 25.5836 17.9955 26.973 17.9955C28.9873 18.0008 30.3488 16.9007 30.3488 15.357Z" fill="#6362FB"/>
<path d="M38.148 7.57998C38.148 7.01423 38.3751 6.47165 38.7793 6.0716C39.1835 5.67156 39.7317 5.44682 40.3033 5.44682C40.8749 5.44682 41.4231 5.67156 41.8272 6.0716C42.2314 6.47165 42.4585 7.01423 42.4585 7.57998V7.74842C43.4517 6.4851 44.756 5.33496 46.9405 5.33496C48.9255 5.33496 50.4293 6.20481 51.223 7.72079C52.5526 6.17717 54.1481 5.33496 56.2156 5.33496C59.4211 5.33496 61.3504 7.24309 61.3504 10.862V18.6945C61.3575 18.9792 61.307 19.2624 61.2019 19.5275C61.0967 19.7926 60.9391 20.0341 60.7382 20.238C60.5373 20.4418 60.2972 20.6038 60.0321 20.7144C59.767 20.825 59.4822 20.882 59.1945 20.882C58.9067 20.882 58.6219 20.825 58.3568 20.7144C58.0917 20.6038 57.8516 20.4418 57.6507 20.238C57.4498 20.0341 57.2922 19.7926 57.187 19.5275C57.0819 19.2624 57.0314 18.9792 57.0386 18.6945V12.2687C57.0386 10.2474 56.1305 9.20913 54.5124 9.20913C52.8943 9.20913 51.9024 10.2474 51.9024 12.2687V18.6972C51.9024 19.2629 51.6754 19.8055 51.2712 20.2055C50.867 20.6056 50.3188 20.8303 49.7472 20.8303C49.1756 20.8303 48.6274 20.6056 48.2232 20.2055C47.819 19.8055 47.592 19.2629 47.592 18.6972V12.2687C47.592 10.2474 46.6839 9.20913 45.0658 9.20913C43.4477 9.20913 42.4558 10.2474 42.4558 12.2687V18.6972C42.4558 19.2629 42.2288 19.8055 41.8246 20.2055C41.4204 20.6056 40.8722 20.8303 40.3006 20.8303C39.729 20.8303 39.1808 20.6056 38.7766 20.2055C38.3724 19.8055 38.1454 19.2629 38.1454 18.6972L38.148 7.57998Z" fill="#6362FB"/>
<path d="M65.0918 2.13425C65.0846 1.84957 65.1351 1.56636 65.2403 1.30129C65.3454 1.03622 65.5031 0.794648 65.704 0.590805C65.9049 0.386962 66.1449 0.224967 66.4101 0.114362C66.6752 0.00375647 66.96 -0.0532227 67.2477 -0.0532227C67.5354 -0.0532227 67.8202 0.00375647 68.0853 0.114362C68.3504 0.224967 68.5905 0.386962 68.7914 0.590805C68.9923 0.794648 69.15 1.03622 69.2551 1.30129C69.3602 1.56636 69.4107 1.84957 69.4036 2.13425V7.77706C70.4526 6.37294 71.8992 5.33465 74.1395 5.33465C77.6855 5.33465 81.0613 8.08499 81.0613 13.1106V13.1672C81.0613 18.1915 77.7373 20.9432 74.1395 20.9432C71.842 20.9432 70.4247 19.9049 69.4036 18.6968V18.7258C69.3863 19.2828 69.1497 19.811 68.7441 20.1976C68.3386 20.5842 67.7964 20.7986 67.2334 20.7948C66.6704 20.791 66.1312 20.5694 65.731 20.1774C65.3308 19.7854 65.1014 19.254 65.0918 18.6968V2.13425ZM76.7495 13.1672V13.1106C76.7495 10.6103 75.0476 8.95615 73.0333 8.95615C71.019 8.95615 69.3464 10.6116 69.3464 13.1106V13.1672C69.3464 15.6675 71.0203 17.3217 73.0333 17.3217C75.0463 17.3217 76.7495 15.6938 76.7495 13.1672Z" fill="#6362FB"/>
<path d="M84.1791 2.0215C84.1791 0.787139 85.2281 0.027832 86.5896 0.027832C87.9511 0.027832 89.0081 0.787139 89.0081 2.0215V2.07809C89.0081 3.31377 87.9577 4.0994 86.5963 4.0994C85.2348 4.0994 84.1858 3.30982 84.1858 2.07809L84.1791 2.0215ZM84.4344 7.58009C84.4484 7.02334 84.6816 6.49405 85.0844 6.10516C85.4872 5.71628 86.0276 5.49861 86.5903 5.49861C87.153 5.49861 87.6934 5.71628 88.0962 6.10516C88.4989 6.49405 88.7322 7.02334 88.7462 7.58009V18.6973C88.7533 18.982 88.7028 19.2652 88.5977 19.5302C88.4926 19.7953 88.3349 20.0369 88.134 20.2407C87.9331 20.4446 87.693 20.6066 87.4279 20.7172C87.1628 20.8278 86.878 20.8848 86.5903 20.8848C86.3026 20.8848 86.0178 20.8278 85.7527 20.7172C85.4875 20.6066 85.2475 20.4446 85.0466 20.2407C84.8457 20.0369 84.688 19.7953 84.5829 19.5302C84.4777 19.2652 84.4272 18.982 84.4344 18.6973V7.58009Z" fill="#6362FB"/>
<path d="M91.8932 16.3387V16.2901C91.8932 13.0002 94.4194 11.4894 98.0199 11.4894C99.2878 11.4777 100.548 11.6866 101.743 12.1066V11.854C101.743 10.0853 100.637 9.10231 98.4799 9.10231C97.4713 9.09152 96.4669 9.23354 95.5017 9.52341C95.3021 9.59682 95.0911 9.63512 94.8781 9.63659C94.6447 9.64079 94.4127 9.59883 94.1958 9.51317C93.9789 9.42751 93.7815 9.29987 93.615 9.13773C93.4486 8.97559 93.3166 8.78221 93.2266 8.56892C93.1367 8.35562 93.0906 8.12671 93.0912 7.89558C93.0914 7.53516 93.2028 7.18341 93.4105 6.88734C93.6181 6.59127 93.9122 6.365 94.2532 6.23879C95.6161 5.73346 97.0905 5.44922 99.1048 5.44922C101.458 5.44922 103.16 6.0664 104.238 7.13364C105.372 8.25615 105.883 9.91294 105.883 11.9342V18.7838C105.883 19.0553 105.829 19.3242 105.723 19.5747C105.617 19.8253 105.463 20.0525 105.267 20.2433C105.072 20.4341 104.841 20.5845 104.586 20.686C104.332 20.7874 104.059 20.8377 103.785 20.834C102.536 20.834 101.713 19.9629 101.713 19.0654V19.0364C100.664 20.1879 99.2179 20.9459 97.1185 20.9459C94.2466 20.9433 91.8932 19.3167 91.8932 16.3387ZM101.792 15.357V14.599C100.926 14.2209 99.9879 14.0294 99.041 14.0371C97.1969 14.0371 96.0628 14.7675 96.0628 16.115V16.1703C96.0628 17.3218 97.0267 17.9955 98.4161 17.9955C100.43 18.0008 101.792 16.9007 101.792 15.357V15.357Z" fill="#6362FB"/>
<path d="M117.929 1.01074H133.815V5.78371H123.432V9.12492H132.82V13.6439H123.432V20.6632H117.929V1.01074Z" fill="#7BD5C1"/>
<path d="M141.668 10.6685L135.144 1.01074H141.469L144.986 6.53775L148.532 1.01074H154.715L148.191 10.6172L154.999 20.6685H148.674L144.873 14.7467L141.043 20.6685H134.86L141.668 10.6685Z" fill="#7BD5C1"/>
</g>
<defs>
<clipPath id="clip0">
<rect width="155" height="21" fill="white"/>
</clipPath>
</defs>
</svg>
