<?xml version="1.0" encoding="utf-8"?>
<svg version="1.1" id="Layer_1" x="0px" y="0px" viewBox="120.265 178.324 260.091 73.265" style="enable-background:new 0 0 3251.3 1356.1;" xmlns="http://www.w3.org/2000/svg">
  <style type="text/css">
	.st0{fill:#F19023;}
	.st1{fill:url(#SVGID_1_);}
	.st2{fill:url(#SVGID_2_);}
	.st3{fill:url(#SVGID_3_);}
	.st4{fill:#414141;}
</style>
  <g style="" transform="matrix(0.09036, 0, 0, 0.09036, 114.705696, 174.741852)">
    <g>
      <g>
        <linearGradient id="SVGID_1_" gradientUnits="userSpaceOnUse" x1="568.9121" y1="643.0627" x2="862.7029" y2="643.0627">
          <stop offset="0.1295" style="stop-color:#037BBA"/>
          <stop offset="0.3958" style="stop-color:#0070A9"/>
          <stop offset="0.6669" style="stop-color:#006495"/>
          <stop offset="0.9095" style="stop-color:#005896"/>
        </linearGradient>
        <path class="st1" d="M705.9,504.1h-137V782h137c92.9,0,156.8-52.8,156.8-139C862.7,556.9,798.8,504.1,705.9,504.1z M701.9,709 h-39.3V577.2h39.3c39.3,0,66.3,23.4,66.3,65.9C768.2,685.5,741.2,709,701.9,709z"/>
      </g>
      <g>
        <linearGradient id="SVGID_2_" gradientUnits="userSpaceOnUse" x1="894.8835" y1="643.0627" x2="1114.0378" y2="643.0627">
          <stop offset="0.1295" style="stop-color:#037BBA"/>
          <stop offset="0.3958" style="stop-color:#0070A9"/>
          <stop offset="0.6669" style="stop-color:#006495"/>
          <stop offset="0.9095" style="stop-color:#005896"/>
        </linearGradient>
        <polygon class="st2" points="988.6,504.1 894.9,504.1 894.9,782 1077,782 1114,709.4 988.6,709.4 &#9;&#9;&#9;"/>
      </g>
      <g>
        <linearGradient id="SVGID_3_" gradientUnits="userSpaceOnUse" x1="1120.3982" y1="643.0624" x2="1370.9191" y2="643.0624">
          <stop offset="0.1295" style="stop-color:#037BBA"/>
          <stop offset="0.3958" style="stop-color:#0070A9"/>
          <stop offset="0.6669" style="stop-color:#006495"/>
          <stop offset="0.9095" style="stop-color:#005896"/>
        </linearGradient>
        <path class="st3" d="M1217.3,586.7c0-9.5,8.7-17.5,36.1-17.5c24.2,0,50,6.8,77.4,20.6L1359,522c-22.6-12.7-51.2-20.2-80.6-23 v-42.5h-56v43.3c-65.1,9.1-97.7,46.8-97.7,91.7c0,103.6,153.6,75.4,153.6,110.4c0,9.5-9.5,15.1-36.1,15.1 c-30.6,0-65.5-9.9-91.7-25.4l-30.2,68.3c23.8,14.7,62.3,25.4,102,27.8v42.1h56v-44.1c61.5-10.7,92.5-48,92.5-90.9 C1370.9,592.2,1217.3,620,1217.3,586.7z"/>
      </g>
      <g>
        <path class="st0" d="M1679.6,776.2l-0.8-141.9L1610,749.8h-33.6l-68.4-111.7v138h-70V508.6h62.3l94.1,154.5l91.8-154.5h62.3 l0.8,267.7H1679.6z"/>
        <path class="st0" d="M1787,642.4c0-80.3,63.1-139.2,148.7-139.2c85.7,0,148.7,58.9,148.7,139.2c0,80.3-63.1,139.2-148.7,139.2 C1850.1,781.6,1787,722.7,1787,642.4z M2008,642.4c0-46.3-31.7-76.5-72.3-76.5c-40.5,0-72.3,30.2-72.3,76.5 c0,46.3,31.7,76.5,72.3,76.5C1976.3,718.9,2008,688.7,2008,642.4z"/>
        <path class="st0" d="M2377,508.6v267.7h-62.3l-118.2-142.6v142.6h-74.2V508.6h62.3l118.2,142.6V508.6H2377z"/>
        <path class="st0" d="M2643.5,717.7v58.5h-214.9V508.6h209.9v58.5h-135v45.1h118.9v56.6h-118.9v48.9H2643.5z"/>
        <path class="st0" d="M2824.8,680.3v96H2749v-97.1l-102.1-170.5h79.9l63.5,106.3l63.5-106.3h73.4L2824.8,680.3z"/>
      </g>
      <g>
        <path class="st0" d="M458.2,813.4c-0.4,0.1-0.8,0.2-1.3,0.3V671.3c9.3,0.1,18.4,0.6,27.6,1.2c2-6.4,4-12.9,6-19.3 c-11.1-0.7-22.3-1.3-33.5-1.4V522.9h65.4c2.2-6.7,4.7-13.2,7.6-19.5h-73V374.5c19.8-0.3,39.5-1.5,58.8-3.5 c8.2,19.5,27.5,33.3,50,33.3c3.5,0,6.9-0.4,10.2-1c2.6,14.2,4.6,28.7,6.1,43.4c3.9-1.6,7.8-3.1,11.8-4.2c2.2-0.6,4.6-1.2,7.2-1.7 c-1.7-15.2-3.8-30.2-6.6-44.8c15.3-9.6,25.5-26.5,25.5-45.8c23-7.1,43.9-15.6,62.4-25.4c25,31.1,43.9,67.3,54.9,106.8 c6.9,0.3,13.8,0.7,20.7,1.3c-35.7-138.3-161.6-240.8-310.9-240.8c-177,0-321,144-321,321c0,177,144,321,321,321 c3.8,0,7.6-0.2,11.4-0.3C458.4,827,458.3,820.2,458.2,813.4z M565.8,384.8c-19.1,0-34.7-15.6-34.7-34.7 c0-19.1,15.6-34.7,34.7-34.7c19.1,0,34.7,15.6,34.7,34.7C600.5,369.2,584.9,384.8,565.8,384.8z M669.3,309.6 c-15.9,8-33.6,15.2-52.9,21.3c-7.8-20.4-27.5-35-50.7-35c-0.6,0-1.2,0.1-1.7,0.1c-15.1-33.6-33.5-59.9-53.8-77.6 C572.5,231.6,627.8,264.2,669.3,309.6z M457,212.5c32.6,5.2,63.8,36.4,87.6,87.7c-19.4,8.3-33,27.5-33,49.9 c0,0.6,0.1,1.2,0.1,1.7c-17.9,1.8-36.2,2.9-54.7,3.2V212.5z M383.7,218.4c-29,25.4-53.4,67.9-70.2,122 c-32.9-7.6-62.9-18-88.4-30.9C266.5,264.3,321.6,231.8,383.7,218.4z M212,324.8c27.5,14.5,60.2,26.1,96.1,34.5 c-8.1,30.5-13.8,64.2-16.7,100.2c-23.1,3.3-41.6,21.1-45.7,43.9h-99.7C148.1,435.9,172.5,374,212,324.8z M333.7,513.1 c0,19.1-15.6,34.7-34.7,34.7c-19.1,0-34.7-15.6-34.7-34.7c0-19.1,15.6-34.7,34.7-34.7C318.1,478.4,333.7,494,333.7,513.1z M212,701.4c-39.5-49.3-63.9-111.1-66.1-178.6h99.7c4.2,22.8,22.6,40.6,45.7,43.9c2.9,36,8.6,69.7,16.7,100.2 C272.2,675.3,239.5,687,212,701.4z M225,716.7c25.5-12.9,55.5-23.3,88.5-30.9c16.8,54.2,41.2,96.7,70.2,122.1 C321.5,794.4,266.5,761.9,225,716.7z M437.4,813.7c-42.9-6.7-81.3-57.2-104.7-132.1c33-6.3,68.4-9.9,104.7-10.4V813.7z M437.4,651.7c-38.2,0.6-75.4,4.4-110.1,11.2c-7.8-29.4-13.5-62.1-16.3-96.9c21-4.8,37.4-21.8,41.3-43.1h85.1V651.7z M437.4,503.3h-85.1c-3.9-21.3-20.3-38.3-41.3-43.1c2.9-34.8,8.5-67.4,16.3-96.9c34.7,6.8,71.9,10.6,110.1,11.2V503.3z M437.4,355c-36.4-0.6-71.8-4.1-104.7-10.4c23.4-74.9,61.8-125.4,104.7-132.1V355z"/>
      </g>
    </g>
  </g>
</svg>