<svg width="160" height="52" viewBox="0 0 160 52" fill="none" xmlns="http://www.w3.org/2000/svg">
<g clip-path="url(#clip0_1225:223)">
<path d="M65.3602 0.000126262H34.0453C33.9054 0.000126262 33.7655 0.000126262 33.6256 0.000126262C29.0317 0.00133972 24.5184 1.19463 20.5359 3.46097C16.5534 5.72731 13.2409 8.98747 10.9289 12.9163C8.61693 16.845 7.3862 21.3051 7.3595 25.8516C7.3328 30.398 8.51107 34.8719 10.7768 38.8271V38.8271C10.9028 39.0057 10.9907 39.2078 11.0353 39.4211C11.0798 39.6345 11.08 39.8546 11.0358 40.068C10.9507 40.3001 10.7969 40.5015 10.5946 40.646C10.3922 40.7905 10.1506 40.8714 9.90116 40.8781H6.35726C5.85708 40.8781 5.37739 41.0748 5.0237 41.4248C4.67002 41.7749 4.47133 42.2496 4.47133 42.7446C4.47133 43.2396 4.67002 43.7144 5.0237 44.0644C5.37739 44.4145 5.85708 44.6111 6.35726 44.6111H14.5901V43.7548C14.5908 43.663 14.6188 43.5735 14.6707 43.4974C14.7225 43.4213 14.7959 43.362 14.8816 43.327C14.9674 43.292 15.0616 43.2828 15.1526 43.3005C15.2436 43.3182 15.3273 43.3621 15.3932 43.4266L18.0977 46.1033C18.1851 46.1906 18.234 46.3086 18.234 46.4314C18.234 46.5543 18.1851 46.6723 18.0977 46.7596L17.0615 47.7595C16.9831 47.8669 16.8888 47.962 16.7817 48.0415L15.3932 49.4363C15.3273 49.5008 15.2436 49.5447 15.1526 49.5624C15.0616 49.5801 14.9674 49.5709 14.8816 49.5359C14.7959 49.5008 14.7225 49.4416 14.6707 49.3655C14.6188 49.2894 14.5908 49.1999 14.5901 49.1081V48.2672H1.88593C1.40217 48.2922 0.946587 48.5001 0.613129 48.8479C0.27967 49.1956 0.0937653 49.6568 0.0937653 50.1362C0.0937653 50.6156 0.27967 51.0768 0.613129 51.4245C0.946587 51.7723 1.40217 51.9802 1.88593 52.0052H33.2578H33.6464C38.2703 52.007 42.8128 50.8005 46.8146 48.5078C50.8163 46.215 54.1355 42.9172 56.4366 38.9479C58.7377 34.9785 59.9391 30.4782 59.9194 25.902C59.8997 21.3258 58.6595 16.8358 56.3242 12.886C56.188 12.5836 56.15 12.2468 56.2154 11.922C56.3 11.6895 56.4536 11.4877 56.6561 11.3431C56.8586 11.1986 57.1005 11.1179 57.3501 11.1119H60.8992C61.3829 11.0868 61.8385 10.8789 62.172 10.5311C62.5055 10.1834 62.6913 9.72223 62.6913 9.2428C62.6913 8.76337 62.5055 8.30223 62.172 7.95446C61.8385 7.6067 61.3829 7.39884 60.8992 7.37376H52.6663V8.19932C52.6661 8.29069 52.6384 8.37993 52.5868 8.45572C52.5352 8.53151 52.4621 8.59043 52.3766 8.62503C52.2911 8.65963 52.1972 8.66834 52.1068 8.65006C52.0163 8.63179 51.9334 8.58734 51.8684 8.52236L49.1639 5.8457C49.1195 5.80359 49.0843 5.75303 49.0601 5.69708C49.036 5.64112 49.0236 5.58092 49.0236 5.52009C49.0236 5.45926 49.036 5.39906 49.0601 5.34311C49.0843 5.28715 49.1195 5.2366 49.1639 5.19448L51.8684 2.5127C51.9346 2.44985 52.0178 2.40746 52.108 2.39072C52.1981 2.37398 52.2912 2.38362 52.3759 2.41844C52.4605 2.45327 52.5331 2.51179 52.5847 2.58681C52.6363 2.66184 52.6647 2.75013 52.6663 2.84087V3.72796H65.3602C65.6165 3.74125 65.8729 3.70277 66.1137 3.61484C66.3545 3.52691 66.5747 3.39139 66.7609 3.21653C66.9471 3.04166 67.0953 2.83112 67.1967 2.59772C67.298 2.36432 67.3502 2.11295 67.3502 1.85892C67.3502 1.60489 67.298 1.35351 67.1967 1.12011C67.0953 0.886712 66.9471 0.676168 66.7609 0.501305C66.5747 0.326441 66.3545 0.190918 66.1137 0.102992C65.8729 0.0150655 65.6165 -0.0234233 65.3602 -0.0101313V0.000126262Z" fill="#8400FF"/>
<path d="M11.3571 33.325L13.1083 20.9468H16.8335L15.0823 33.325H11.3571Z" fill="#FFBB00"/>
<path d="M29.9004 24.1104L28.5792 33.3402H24.8488L25.9834 25.1923C26.1337 24.013 25.9575 23.6899 25.1441 23.7104C24.0043 23.7104 22.8644 24.3924 21.2375 25.6692L20.1702 33.3043H16.4294L18.1806 20.9261H21.0924V23.3874C22.968 21.5517 24.9213 20.5723 26.7917 20.5723C28.8642 20.5774 30.2475 21.7978 29.9004 24.1104Z" fill="#FFBB00"/>
<path d="M56.0185 21.3465L54.3191 33.3249H51.4021L51.454 31.0892C50.8382 31.8624 50.057 32.491 49.1665 32.9299C48.2761 33.3687 47.2984 33.6069 46.3039 33.6274C43.133 33.7248 42.1175 31.6942 42.8273 26.8998C43.6615 21.1209 46.0759 20.5928 49.8064 20.5928C51.8975 20.6361 53.9788 20.8886 56.0185 21.3465V21.3465ZM51.2778 28.2689L52.0135 23.3207H50.1069C47.7753 23.3207 47.0914 23.6745 46.6355 26.9101C46.1795 30.1457 46.3557 30.6277 47.5733 30.5764C48.7908 30.5251 50.0343 29.6842 51.2778 28.2689Z" fill="#FFBB00"/>
<path d="M39.2265 26.6486C41.2474 25.302 42.707 23.2763 43.3351 20.9466H39.5062C38.9881 23.1823 36.6152 25.1411 34.2267 26.3717C34.6743 25.3934 34.9812 24.3578 35.1385 23.2951L35.9986 16.9316H30.9884L30.5377 20.1467H31.7915L29.9004 33.3249H33.6515L34.2629 29.1048C34.9727 28.833 35.7085 28.5305 36.4183 28.2023L38.6254 33.33H42.532L40.2264 28.2023C39.9981 27.6251 39.6584 27.0974 39.2265 26.6486Z" fill="#FFBB00"/>
<path d="M81.1471 23.8592L79.9451 33.0275H76.4737L77.5617 24.8591C77.7016 23.7617 77.3493 23.4848 76.712 23.4848C75.9349 23.4848 75.1991 23.8848 73.6655 25.3359L72.6293 33.0275H69.2823L70.3444 24.8591C70.4843 23.8592 70.2978 23.4848 69.5154 23.4848C68.7331 23.4848 67.9352 23.9104 66.4741 25.259L65.4379 33.0275H62.0235L63.6504 20.721H66.3446V22.967C68.0233 21.1466 69.3911 20.3672 71.0076 20.3672C72.6241 20.3672 73.6966 21.2184 73.8624 22.6695C75.4167 21.0441 76.7224 20.3672 78.256 20.3672C80.4424 20.3621 81.4321 21.7158 81.1471 23.8592Z" fill="#8400FF"/>
<path d="M93.9756 27.0334C93.3591 31.6791 91.5923 33.3508 87.3645 33.3508C83.1367 33.3508 81.3699 31.5304 82.0072 26.736C82.6237 22.0903 84.3698 20.3623 88.6649 20.3623C92.9601 20.3623 94.6129 22.2134 93.9756 27.0334ZM85.6443 27.0334C85.2661 29.8793 85.5977 30.5818 87.437 30.5818C89.2763 30.5818 89.9602 29.7819 90.3851 26.736C90.7892 23.8594 90.411 23.1466 88.639 23.1466C86.7531 23.1415 86.0692 23.8389 85.6443 27.0334V27.0334Z" fill="#8400FF"/>
<path d="M106.944 23.8594L105.716 33.0277H102.245L103.307 24.9619C103.452 23.7876 103.307 23.4646 102.53 23.4851C101.468 23.4851 100.405 24.1619 98.9029 25.4336L97.9081 33.0277H94.416L96.0429 20.7212H98.7837V23.1415C100.53 21.3161 102.348 20.3418 104.094 20.3418C106.001 20.3623 107.276 21.5622 106.944 23.8594Z" fill="#8400FF"/>
<path d="M119.534 24.608C119.203 27.0078 117.767 27.8077 114.768 28.0333L111.348 28.3307C111.395 30.0537 112.198 30.3818 113.659 30.3818C115.157 30.3687 116.653 30.2763 118.14 30.1049L118.379 32.4534C116.744 33.0649 115.007 33.3608 113.26 33.3251C108.7 33.3251 107.312 31.0536 107.804 26.6078C108.374 21.6647 110.286 20.3623 114.54 20.3623C118.793 20.3623 119.902 21.9878 119.534 24.608ZM114.317 23.0697C112.524 23.0697 111.933 23.644 111.535 26.1463L114.249 25.8695C115.431 25.772 116.016 25.4951 116.161 24.2696C116.306 23.0441 115.799 23.039 114.353 23.0646L114.317 23.0697Z" fill="#8400FF"/>
<path d="M127.969 20.7158L127.549 23.9155H128.726C128.256 26.1201 127.546 28.2676 126.606 30.32L126.508 30.5456H125.565C125.46 30.5406 125.361 30.4966 125.287 30.4226C125.213 30.3485 125.17 30.2497 125.166 30.1457L124.057 20.7312H120.301L122.213 31.7917C122.266 32.1391 122.443 32.4563 122.712 32.6857C122.981 32.9152 123.324 33.0419 123.679 33.0428H125.068C123.679 34.9144 122.192 35.3913 120.446 35.8887L120.871 38.1603C124.41 37.8885 127.005 36.3399 129.461 31.6173C131.142 28.1613 132.334 24.4932 133.005 20.7158H127.969Z" fill="#8400FF"/>
</g>
<defs>
<clipPath id="clip0_1225:223">
<rect width="133" height="52" fill="white"/>
</clipPath>
</defs>
</svg>
