<svg width="800" height="150" xmlns="http://www.w3.org/2000/svg">
 <style type="text/css">.st0{fill:#0D4747;}
	.st1{fill:url(#SVGID_1_);}
	.st2{fill:#2F705A;}
	.st3{fill:#496E84;}
	.st4{opacity:0.8;fill:#2F705A;}
	.st5{fill:#FFFFFF;}
	.st6{opacity:0.8;fill:#FFFFFF;}
	.st7{fill:#67BD9E;}
	.st8{fill:#22A1A4;}
	.st9{fill:#FEFEFE;}
	.st10{fill:#20A2A5;}
	.st11{fill:#67BE9F;}
	.st12{fill:#115656;}
	.st13{fill:#6B6B6B;}
	.st14{fill:#FBE116;}
	.st15{fill:#EA8717;}
	.st16{fill:#E95B50;}
	.st17{fill:#FFFFFF;stroke:#000000;stroke-width:0.5;stroke-miterlimit:10;}</style>

 <g>
  <title>Layer 1</title>
  <g id="svg_1">
   <path class="st10" d="m34.94002,31.54911l0,96.02c0,8.54 -6.93,15.47 -15.47,15.47l0,0c-8.54,0 -15.47,-6.93 -15.47,-15.47l0,-96.02c0,-8.54 6.93,-15.47 15.47,-15.47l0,0c8.55,0 15.47,6.93 15.47,15.47z" id="svg_2"/>
   <path class="st10" d="m110.33002,84.52911c0,-8.63 -1.69,-14.63 -7.5,-14.63c-6.94,0 -14.25,9.75 -14.25,26.07l0,34.34c0,7.03 -5.7,12.73 -12.73,12.73l-4.17,0c-7.03,0 -12.73,-5.7 -12.73,-12.73l0,-36.03c0,-12.39 -1.8,-21.27 -3.9,-27.41c-2.33,-6.82 1.31,-14.22 8.18,-16.38l0.01,0c6.12,-1.93 12.81,0.96 15.39,6.83c0.93,2.12 1.8,4.57 2.46,7.33c6.56,-11.63 18.75,-17.06 32.07,-17.06c19.5,0 27,12.94 27,32.63l0,50.1c0,7.03 -5.7,12.73 -12.73,12.73l-4.36,0c-7.03,0 -12.73,-5.7 -12.73,-12.73l0,-45.79l-0.01,0z" id="svg_3"/>
   <path class="st10" d="m156.46002,75.15911c0,-15.94 12.38,-27.94 33.19,-27.94c8.45,0 16.18,1.6 22.12,3.36c6.47,1.92 9.78,9.08 7.03,15.24l0,0c-2.41,5.4 -8.61,7.97 -14.13,5.87c-3.46,-1.31 -7.28,-2.35 -10.9,-2.35c-3.94,0 -7.13,1.69 -7.13,5.44c0,3.94 5.63,7.88 14.07,11.44c14.81,6.19 23.44,14.06 23.44,28.51c0,16.13 -11.63,30.19 -33.76,30.19c-9.93,0 -18.75,-1.93 -25.62,-4.1c-6.39,-2.02 -9.61,-9.13 -6.85,-15.24l0.21,-0.46c2.49,-5.5 8.89,-7.98 14.47,-5.68c3.89,1.6 8.3,2.98 12.17,2.98c5.25,0 9,-2.06 9,-6c0,-4.69 -4.69,-8.63 -11.06,-11.06c-18.75,-7.51 -26.25,-16.14 -26.25,-30.2z" id="svg_4"/>
   <path class="st10" d="m246.47002,49.64911l2.01,-12.17c0.71,-4.31 3.98,-7.75 8.25,-8.69l5.66,-1.24c6.66,-1.46 12.96,3.61 12.96,10.43l0,11.68l22.13,0l-3.56,21.75l-18.57,0l0,41.82c0,5.44 3,8.25 8.63,8.25c1.43,0 2.95,-0.12 4.44,-0.3c5.29,-0.64 10.23,2.8 11.54,7.97l0,0c1.51,5.94 -2.27,11.91 -8.29,13.11c-4.35,0.87 -9.59,1.53 -15.76,1.53c-18.75,0 -30.01,-6.94 -30.01,-25.5l0,-46.88l-14.81,0l0,-21.75l15.38,0l0,-0.01z" id="svg_5"/>
   <path class="st10" d="m392.92002,140.05911l-9.05,2.85c-3.44,1.08 -7.15,-0.33 -9.04,-3.4c-1.92,-3.14 -4.07,-7.72 -5.16,-13.72c-4.12,11.63 -12.19,18.38 -25.69,18.38c-24.57,0 -36.19,-18.57 -36.19,-46.69c0,-28.69 19.13,-49.88 47.07,-49.88c10.47,0 23.57,2.46 31.14,4.07c3.61,0.77 6.18,3.95 6.18,7.65l0,38.54c0,15.57 2.85,25.6 5.55,31.62c1.91,4.23 -0.37,9.18 -4.81,10.58zm-30.37,-62.9c0,-4.24 -3.38,-7.79 -7.62,-7.82c-0.02,0 -0.05,0 -0.07,0c-12.19,0 -15.57,11.06 -15.57,26.25c0,13.88 0.56,26.82 9.56,26.82c7.69,0 13.69,-14.06 13.69,-29.82l0,-15.43l0.01,0z" id="svg_6"/>
   <path class="st11" d="m447.31002,16.07911l0,126.96l-30.94,0l0,-126.96l30.94,0zm79.7,126.96l-34.51,0l-43.13,-69.57l0,-2.25c22.13,-10.69 29.26,-28.13 35.26,-55.14l30.76,0c-7.13,35.44 -18.75,49.7 -32.26,60.2l43.88,66.76z" id="svg_7"/>
   <path class="st11" d="m624.15002,137.03911l-23.82,7.5c0,0 -6.75,-6.38 -9,-18.75c-4.12,11.63 -12.19,18.38 -25.69,18.38c-24.57,0 -36.19,-18.57 -36.19,-46.69c0,-28.69 19.13,-49.88 47.07,-49.88c15.57,0 36.94,5.44 37.32,5.44l0,44.82c-0.01,29.62 10.31,39.18 10.31,39.18zm-39.95,-66.2c-1.69,-0.75 -5.44,-1.5 -7.69,-1.5c-12.19,0 -15.57,11.06 -15.57,26.25c0,13.88 0.56,26.82 9.56,26.82c7.69,0 13.69,-14.06 13.69,-29.82l0,-21.75l0.01,0z" id="svg_8"/>
   <path class="st11" d="m632.96002,75.15911c0,-15.94 12.38,-27.94 33.19,-27.94c18.75,0 33.94,7.88 33.94,7.88l-9.38,21c-4.12,-2.06 -12.75,-6.75 -20.44,-6.75c-3.94,0 -7.13,1.69 -7.13,5.44c0,3.94 5.63,7.88 14.07,11.44c14.81,6.19 23.44,14.06 23.44,28.51c0,16.13 -11.63,30.19 -33.76,30.19c-17.25,0 -31.13,-5.81 -37.32,-8.63l9.75,-21.57c2.44,1.12 13.5,7.69 21.94,7.69c5.25,0 9,-2.06 9,-6c0,-4.69 -4.69,-8.63 -11.06,-11.06c-18.74,-7.51 -26.24,-16.14 -26.24,-30.2z" id="svg_9"/>
   <path class="st11" d="m770.60002,47.58911c19.5,0 27,12.75 27,32.63l0,62.82l-29.82,0l0,-58.51c0,-8.82 -1.69,-14.63 -7.5,-14.63c-6.56,0 -14.25,9 -14.25,23.63l0,49.51l-29.63,0l0,-130.9l29.63,-5.06l0,48.95c6.57,-5.82 15.38,-8.44 24.57,-8.44z" id="svg_10"/>
  </g>
  <path fill="#fff" stroke="#000" opacity="NaN" d="m466,317" id="svg_12"/>
 </g>
</svg>