<svg xmlns="http://www.w3.org/2000/svg" id="Capa_1" data-name="Capa 1" viewBox="0 0 600 226.32"><defs><style>.cls-1{fill:#2d2e82;}.cls-2{fill:#76b72a;}.cls-3{fill:#e42320;}.cls-4{fill:#e5332a;}</style></defs><path class="cls-1" d="M34.68,41.8H72.42L60.92,96.49C71,74.49,78.68,56.73,85.54,41.8h43.6L94,98.1l5.65,79.72H61.53l.2-51.06L51.23,141.9l-7.67,35.92H5.82Z"></path><path class="cls-1" d="M147.1,151l-7.67,26.84H99.27l48.44-136H206l-9.09,136H157.6L160.42,151Zm16-29.06c2.82-16.55,6-40.77,7.46-51.06H169.3c-2.82,11.5-8.47,33.9-12.51,51.06Z"></path><path class="cls-1" d="M247.41,133.62c-3,13.93-2.22,20.39,2.42,20.39,4.85,0,6.26-4.24,7.27-10.09,1.61-8.88-1.42-14.53-13.12-24.62-15.94-13.73-24.22-23.62-19.58-47,3.63-18,15.34-33.1,43-33.1,29.87,0,43.8,15.14,37.94,44.61H270.82c2.63-12.72,2-18.17-2.62-18.17-3.23,0-5.45,2-6.46,8.48-1,6.25,1.21,10.29,12.71,20.38,19.58,17.16,26.24,29.06,21.2,52.27-4.64,21.4-18.37,33.71-47.63,33.71-32.7,0-43.8-18.17-37.54-46.83Z"></path><path class="cls-1" d="M329,41.8h41c29.87,0,43.79,17.76,37.33,49.44-6.45,31.49-23.81,40.57-51.06,40.57h-7.87l-9.68,46H300.09Zm25.23,62h3.43c7.46,0,9.48-4.65,12.11-18.17,2.82-14.12,1.41-17.35-5.05-17.35h-2.83Z"></path><path class="cls-1" d="M428.65,177.82H388.49l48.44-136h58.32l-9.08,136H428.65Z"></path><path class="cls-1" d="M503.12,177.82l8.48-40.76a28,28,0,0,0,.81-9.29l-8.68-86H600l-46.62,88.59a24.47,24.47,0,0,0-2.22,6.46l-8.88,41Z"></path><path class="cls-2" d="M485.44,223.17c-.44-.79-1-1.56-1.33-2.39q-17.19-39.6-34.35-79.22c-.44-1-.91-2-1.51-3.32-16.71,9.67-33.21,19.43-50,29.16.85-2,53.86-71.83,56.11-74a5.49,5.49,0,0,1,.88,2.59q8.56,35.58,17.12,71.16,6.4,26.63,12.79,53.25a25.47,25.47,0,0,1,.33,2.75Z"></path><path class="cls-3" d="M503.61,4c1.91,3.78,3.85,7.54,5.72,11.33Q524,45.13,538.72,74.93c.33.66.67,1.32,1.14,2.23,14.08-9.08,28-18.27,42-27.29l.35.34-45.53,66.33a3.1,3.1,0,0,1-1-2q-7.44-25.32-14.85-50.64-8.28-28.32-16.55-56.65a31.18,31.18,0,0,1-.6-3.23Z"></path><path class="cls-4" d="M17.52,188l-.47,2.18h-10L5.78,196.4H16l-.46,2.18H5.32L3.5,207.36H.92l4-19.32Z"></path><path class="cls-4" d="M49.39,207.36h-2.5l-.9-5.55H38.13L35,207.36H32.18l11-19.32h3.06Zm-3.73-7.55L44.88,195c-.29-1.83-.47-3.44-.55-4.82a32.75,32.75,0,0,1-1.92,4l-3.17,5.71ZM43.05,186.3l2.54-3.7H48.7L45,186.3Z"></path><path class="cls-4" d="M87,193.79l-2.43.23c-.49-2.79-2-4.19-4.63-4.19a6.43,6.43,0,0,0-3.89,1.22,8.76,8.76,0,0,0-2.7,3.41,11.6,11.6,0,0,0-1,5,6.63,6.63,0,0,0,1.41,4.48,4.81,4.81,0,0,0,3.86,1.64,5.69,5.69,0,0,0,2.34-.5,6.1,6.1,0,0,0,2.1-1.61,7.89,7.89,0,0,0,1.52-2.9l2.57.36a10.93,10.93,0,0,1-3.47,5,8.36,8.36,0,0,1-5.27,1.77,8.62,8.62,0,0,1-3.85-.83,6.39,6.39,0,0,1-2.73-2.7,9.54,9.54,0,0,1-1.06-4.77,12.38,12.38,0,0,1,2.85-8.32,9.1,9.1,0,0,1,7.24-3.36,7.39,7.39,0,0,1,5,1.62A6.61,6.61,0,0,1,87,193.79Z"></path><path class="cls-4" d="M111.47,188l-4,19.32h-2.58L108.91,188Z"></path><path class="cls-4" d="M141.51,205.18l-.47,2.18h-12.6l4-19.32H135l-3.56,17.14Z"></path><path class="cls-4" d="M203.82,188l-9.25,12.11-1.5,7.21h-2.58l1.55-7.47L186.11,188h2.78l2.84,5.63c.67,1.33,1.28,2.65,1.81,4a29,29,0,0,1,2.66-3.92l4.54-5.67Z"></path><path class="cls-4" d="M259.66,193.53l-2.48.18a3.34,3.34,0,0,0-1.32-2.92,6.42,6.42,0,0,0-6.3-.22,2.32,2.32,0,0,0-1.22,2.15,2.18,2.18,0,0,0,.46,1.37,4,4,0,0,0,1.28,1c.55.29,1.62.78,3.22,1.49a28,28,0,0,1,2.82,1.41,4.8,4.8,0,0,1,1.62,1.64,4.49,4.49,0,0,1,.61,2.36,4.85,4.85,0,0,1-.85,2.86,6.16,6.16,0,0,1-2.59,2,9.76,9.76,0,0,1-4,.79q-7.43,0-7.45-6.57l2.52-.24,0,.67a4.93,4.93,0,0,0,.2,1.4,3.57,3.57,0,0,0,.75,1.27,3.61,3.61,0,0,0,1.58,1,7.59,7.59,0,0,0,2.5.36,6.35,6.35,0,0,0,3.33-.86,2.72,2.72,0,0,0,1.44-2.47,2.37,2.37,0,0,0-.47-1.41,3.67,3.67,0,0,0-1.23-1.07c-.51-.29-1.36-.68-2.55-1.2a26.81,26.81,0,0,1-3.11-1.52,5.54,5.54,0,0,1-1.81-1.73,4.26,4.26,0,0,1-.73-2.43,4.35,4.35,0,0,1,1.92-3.82,8.36,8.36,0,0,1,4.85-1.33,9.47,9.47,0,0,1,3.9.71,5.36,5.36,0,0,1,3.14,5.11Z"></path><path class="cls-4" d="M295.31,188l-.46,2.18H283.52l-1.27,6h11l-.46,2.18h-11l-1.42,6.74h12.15l-.44,2.18H277.32l4-19.32Z"></path><path class="cls-4" d="M331.34,193.69l-2.52.28a4.65,4.65,0,0,0-5-4.12,6.79,6.79,0,0,0-5.8,2.88,11.45,11.45,0,0,0-2.1,6.94q0,5.9,5.39,5.9a10.91,10.91,0,0,0,5.42-1.68l.88-4.16h-5.87l.47-2.18h8.46L329,205.42a14.18,14.18,0,0,1-7.65,2.27,7.35,7.35,0,0,1-8.06-8.06,13.62,13.62,0,0,1,1.43-6.17,9.88,9.88,0,0,1,9.17-5.75,8,8,0,0,1,5,1.45A7.15,7.15,0,0,1,331.34,193.69Z"></path><path class="cls-4" d="M368.58,188l-2.36,11.32q-1.74,8.35-8.42,8.35a7.46,7.46,0,0,1-5.24-1.62,5.28,5.28,0,0,1-1.75-4,22.09,22.09,0,0,1,.55-3.49l2.2-10.54h2.58l-2.48,11.87a11.26,11.26,0,0,0-.31,2.2,3,3,0,0,0,1.23,2.5,4.86,4.86,0,0,0,3.1,1,5.4,5.4,0,0,0,3.11-.86,5.29,5.29,0,0,0,1.87-2.28,19.77,19.77,0,0,0,1.1-3.75L366,188Z"></path><path class="cls-4" d="M397.43,198.68a11.07,11.07,0,0,1,3.53,5l1.49,3.63h-2.88l-1.39-3.59a15.49,15.49,0,0,0-1.67-3.31A3.83,3.83,0,0,0,395,199a6.79,6.79,0,0,0-2.09-.25h-3l-1.79,8.58h-2.58l4-19.32h8.12a19.67,19.67,0,0,1,2.5.13,5.13,5.13,0,0,1,1.92.64,3.47,3.47,0,0,1,1.37,1.51,5.38,5.38,0,0,1,.49,2.42Q404,197.8,397.43,198.68Zm-5.74-8.52-1.37,6.52h3.58c1.41,0,2.47,0,3.18-.05a5.85,5.85,0,0,0,2.15-.53,3.68,3.68,0,0,0,1.66-1.4,3.61,3.61,0,0,0,.6-2,2.71,2.71,0,0,0-.43-1.6,1.86,1.86,0,0,0-1.13-.77,8.89,8.89,0,0,0-1.94-.17Z"></path><path class="cls-4" d="M441.13,196.38a11.71,11.71,0,0,1-1.36,5.72,11.14,11.14,0,0,1-3.7,4,9.27,9.27,0,0,1-5.24,1.55,8.92,8.92,0,0,1-3.3-.57,6.59,6.59,0,0,1-2.49-1.7,8.49,8.49,0,0,1-1.68-2.75,9.36,9.36,0,0,1-.63-3.4,12.07,12.07,0,0,1,2.88-8.26,9.33,9.33,0,0,1,7.36-3.3,7.76,7.76,0,0,1,5.92,2.39A8.81,8.81,0,0,1,441.13,196.38Zm-2.59-.2a6.68,6.68,0,0,0-1.54-4.56,5.14,5.14,0,0,0-4.06-1.77,6.52,6.52,0,0,0-3.91,1.2,8.61,8.61,0,0,0-2.72,3.38,11.38,11.38,0,0,0-1.05,5,5.74,5.74,0,0,0,5.76,6.16,6.33,6.33,0,0,0,3.41-1,8.8,8.8,0,0,0,2.87-3.18A10.25,10.25,0,0,0,438.54,196.18Z"></path></svg>