<svg width="160" height="52" viewBox="0 0 160 52" fill="none" xmlns="http://www.w3.org/2000/svg">
<g clip-path="url(#clip0_1222:190)">
<path d="M7.63989 3.5625H0V31.2851H17.2207V25.0959H7.63989V3.5625Z" fill="#2C0049"/>
<path d="M51.8333 24.9531C51.5323 24.6729 51.2975 24.3289 51.146 23.9461C50.9946 23.5633 50.9303 23.1515 50.958 22.7406V16.0651H55.9149V10.6484H50.958V3.57227L43.594 5.93732V10.6484H40.8444V16.0651H43.594V22.7406C43.4527 25.127 44.2328 27.4763 45.7727 29.3018C47.2189 30.853 49.3374 31.6287 52.1282 31.6287C53.4238 31.6555 54.7134 31.4454 55.9339 31.0088V25.4299C55.3085 25.5691 54.6714 25.6489 54.0311 25.6684C53.235 25.7139 52.4508 25.4587 51.8333 24.9531Z" fill="#2C0049"/>
<path d="M102.877 16.6373C104.191 16.1983 105.331 15.3495 106.131 14.2151C106.894 13.0917 107.293 11.7595 107.272 10.4005C107.305 9.36102 107.084 8.32933 106.628 7.39522C106.172 6.46111 105.495 5.65289 104.656 5.04094C102.592 3.60833 100.114 2.89775 97.606 3.0192H83.8961V31.2759H97.977C99.8107 31.313 101.634 30.989 103.343 30.3222C104.742 29.7783 105.954 28.8412 106.835 27.6234C107.662 26.4261 108.091 24.9978 108.062 23.5418C108.136 21.9656 107.658 20.4132 106.711 19.1525C105.765 17.8919 104.408 17.0023 102.877 16.6373ZM91.1459 8.67435H96.3406C97.3812 8.60039 98.4204 8.83592 99.3281 9.35144C99.6493 9.59324 99.9048 9.91209 100.071 10.2787C100.237 10.6453 100.309 11.0479 100.279 11.4495C100.309 11.8416 100.237 12.2347 100.07 12.5906C99.9037 12.9465 99.648 13.2532 99.3281 13.4807C98.4041 13.9676 97.3627 14.1856 96.3216 14.1102H91.1459V8.67435ZM100.156 24.9532C99.2277 25.4876 98.1585 25.7239 97.0922 25.6303H91.1459V19.7176H97.0827C98.1581 19.6236 99.2366 19.8597 100.175 20.3947C100.504 20.6786 100.762 21.0365 100.927 21.4392C101.093 21.8419 101.161 22.278 101.126 22.7121C101.165 23.1382 101.099 23.5673 100.933 23.9615C100.767 24.3557 100.506 24.7029 100.175 24.9722L100.156 24.9532Z" fill="#2C0049"/>
<path d="M118.214 10.6006H110.859V31.2853H118.214V10.6006Z" fill="#2C0049"/>
<path d="M78.7679 21.0242C77.4256 19.8361 75.7773 19.0496 74.0108 18.7545L70.5572 17.9821C70.02 17.8711 69.5012 17.6849 69.0159 17.429C68.8901 17.3573 68.7858 17.2532 68.7138 17.1274C68.6419 17.0016 68.6049 16.8587 68.6068 16.7137C68.6063 16.4762 68.6755 16.2438 68.8057 16.0455C68.936 15.8471 69.1216 15.6914 69.3394 15.5979C69.9325 15.3146 70.5856 15.1804 71.2422 15.2069C72.3346 15.2243 73.4172 15.4175 74.4485 15.7791C75.5151 16.1485 76.5365 16.638 77.493 17.2382V11.3542C76.9114 11.0968 76.314 10.877 75.7043 10.6962C74.2877 10.2679 72.817 10.0463 71.3373 10.0382C69.6905 10.0084 68.0541 10.3066 66.5232 10.9155C65.2405 11.4188 64.1142 12.2548 63.2598 13.3378C62.4752 14.3513 62.059 15.6027 62.08 16.8854C62.0375 17.5937 62.1396 18.3032 62.3801 18.9706C62.6206 19.6379 62.9944 20.2491 63.4786 20.7667C64.7735 21.8746 66.3586 22.5862 68.0454 22.8171L71.3754 23.58C72.041 23.6843 72.6843 23.9003 73.2782 24.2189C73.4413 24.3164 73.5746 24.4569 73.6635 24.625C73.7524 24.7932 73.7936 24.9826 73.7825 25.1726C73.7748 25.3776 73.7113 25.5765 73.5989 25.748C73.4866 25.9194 73.3296 26.0568 73.145 26.1453C72.5484 26.4165 71.8967 26.5439 71.2422 26.5172C69.8179 26.5253 68.4004 26.3196 67.0369 25.9069C65.7526 25.5341 64.5309 24.9717 63.412 24.238V30.2746C65.8647 31.2496 68.4907 31.7105 71.128 31.6288C73.4765 31.757 75.8059 31.1433 77.7879 29.8741C78.5551 29.3439 79.1779 28.6301 79.5999 27.7974C80.022 26.9647 80.2298 26.0395 80.2046 25.1058C80.2545 24.3633 80.1528 23.6184 79.9058 22.9167C79.6588 22.2149 79.2716 21.5709 78.7679 21.0242V21.0242Z" fill="#2C0049"/>
<path d="M34.7458 11.3445C33.1897 10.4508 31.4201 9.99907 29.6271 10.038C27.7547 10.0063 25.9092 10.4878 24.2897 11.4303C22.7375 12.3343 21.4687 13.6557 20.6267 15.2449C19.7287 16.9679 19.2772 18.8896 19.3138 20.8333C19.2562 22.8298 19.7325 24.8054 20.6933 26.5552C21.6171 28.1665 23.0026 29.4623 24.6703 30.2744C26.5765 31.197 28.6713 31.6607 30.7879 31.6286C32.0462 31.6196 33.2987 31.4563 34.5174 31.1422V25.592L34.251 25.6969C33.2544 26.0321 32.2101 26.2028 31.1589 26.2023C29.9167 26.2899 28.6862 25.9127 27.7053 25.1438C26.8265 24.2062 26.3366 22.9685 26.3352 21.682H39.2936V20.7284C39.3407 18.7814 38.9403 16.8497 38.1233 15.0828C37.3964 13.5257 36.2197 12.2234 34.7458 11.3445V11.3445ZM26.4209 18.2775C26.8775 16.1477 28.0129 15.0891 29.8269 15.1018C31.641 15.1146 32.6971 16.1731 32.9952 18.2775H26.4209Z" fill="#2C0049"/>
<path d="M134.825 25.6683C134.03 25.7012 133.252 25.4322 132.647 24.915C132.346 24.6348 132.111 24.2907 131.959 23.9079C131.808 23.5252 131.744 23.1133 131.771 22.7025V16.0269H136.728V10.6484H131.771V3.57227L124.426 5.93732V10.6484H121.667V16.0651H124.417V22.7406C124.271 25.1231 125.048 27.4702 126.586 29.2922C128.039 30.8499 130.16 31.6287 132.951 31.6287C134.247 31.6619 135.538 31.4516 136.757 31.0088V25.4299C136.122 25.5709 135.475 25.6507 134.825 25.6683Z" fill="#2C0049"/>
<path d="M62.375 5.19345C62.2236 4.8948 62.0112 4.63148 61.7515 4.42065C61.4918 4.20981 61.1907 4.05619 60.8678 3.96981C60.5449 3.88342 60.2075 3.8662 59.8775 3.91928C59.5475 3.97235 59.2324 4.09453 58.9527 4.27785C58.673 4.46116 58.435 4.7015 58.2542 4.98319C58.0733 5.26489 57.9537 5.58162 57.9032 5.91274C57.8527 6.24386 57.8723 6.58194 57.9608 6.90495C58.0494 7.22795 58.2048 7.52863 58.4171 7.78738C58.6244 8.10169 58.9053 8.36035 59.2353 8.54076C59.115 9.03886 58.8741 9.49957 58.534 9.88214C58.1938 10.2647 57.7648 10.5573 57.2849 10.7342C57.2849 10.7342 61.8327 11.5638 62.7841 7.95904C62.9188 7.49574 62.952 7.00873 62.8814 6.53138C62.8108 6.05403 62.638 5.59762 62.375 5.19345V5.19345Z" fill="#2C0049"/>
<path d="M145.909 17.3812L146.966 18.6687C147.496 19.4224 148.193 20.044 149.001 20.4855C149.809 20.9269 150.708 21.1765 151.628 21.2149C154.824 21.2149 157.698 18.2586 157.983 17.7436C157.983 17.7436 157.983 17.7436 158.069 17.6292L146.518 10.3052C146.26 10.075 145.933 9.93784 145.588 9.91538C145.244 9.89293 144.901 9.98647 144.616 10.1812C144.358 10.3987 144.182 10.6974 144.116 11.0284C144.051 11.3594 144.099 11.703 144.254 12.0027C144.796 13.7955 145.377 15.5884 145.909 17.3812Z" fill="#2C0049"/>
<path d="M160 20.9289C159.995 21.4042 159.865 21.8699 159.625 22.2797C159.385 22.6896 159.042 23.0293 158.63 23.2653C154.691 25.7639 150.759 28.2688 146.832 30.7801L146.262 31.1329C146.019 31.3117 145.725 31.4077 145.423 31.4067C145.122 31.4057 144.829 31.3078 144.587 31.1274C144.346 30.947 144.168 30.6936 144.081 30.4045C143.993 30.1154 144.001 29.8058 144.102 29.5213C144.397 28.4722 144.73 27.4232 145.053 26.3837C145.519 24.8865 146.005 23.4084 146.404 21.892C146.594 21.1023 146.594 20.2786 146.404 19.4888C152.018 26.3361 158.896 18.5352 158.639 18.354C159.082 18.6146 159.444 18.9934 159.684 19.4481C159.924 19.9028 160.034 20.4154 160 20.9289Z" fill="#2C0049"/>
</g>
<defs>
<clipPath id="clip0_1222:190">
<rect width="160" height="28.6381" fill="white" transform="translate(0 3)"/>
</clipPath>
</defs>
</svg>
