<svg width="160" height="52" viewBox="0 0 160 52" fill="none" xmlns="http://www.w3.org/2000/svg">
<g clip-path="url(#clip0)">
<path d="M3.31636 7.18964H4.68461C4.68461 7.18964 5.45574 7.18964 5.66532 8.34461C5.87491 9.49958 5.66532 24.1186 5.66532 24.1186C5.66532 24.1186 5.7365 24.8899 6.15568 24.5379C6.57485 24.1859 8.1171 22.7501 10.0113 22.0144C11.9055 21.2787 12.989 20.8911 13.6217 20.7882C14.2545 20.6814 14.3929 20.543 14.3929 20.1554C14.3929 19.7677 14.3929 11.6038 14.3929 11.6038C14.3929 11.6038 14.3573 10.8325 15.0256 10.6229C15.6899 10.4133 18.8931 10.3777 20.4551 10.8128C23.1956 11.5761 23.9944 14.7919 24.0655 16.0536C24.1367 17.3154 24.0655 17.9285 24.0655 17.9285C24.0655 17.9285 24.6034 17.8177 24.9632 17.5527C25.1688 17.4024 29.1431 14.1709 26.1377 9.34136C23.9706 5.87645 18.6954 5.99907 18.6954 5.99907H3.31636C3.31636 5.99907 3 6.14542 3 6.60029C3 7.158 3.31636 7.18964 3.31636 7.18964Z" fill="#0101FF"/>
<path d="M14.0093 33.4584C14.0093 33.4584 10.3158 34.4235 8.65887 35.9701C7.00195 37.5166 5.9461 39.7198 5.91051 40.0283C5.87492 40.3368 5.97378 42.6507 5.56647 43.2519C5.38456 43.5169 5.07611 43.6514 5.07611 43.6514H3.45477C3.45477 43.6514 3.16214 43.8175 3.16214 44.1419C3.16214 44.5928 3.41523 44.6877 3.41523 44.6877H16.9752C16.9752 44.6877 17.2164 44.6205 17.2164 44.1814C17.2164 43.6751 16.9198 43.6475 16.9198 43.6475H15.2826C15.2826 43.6475 14.3177 43.4457 14.3375 41.9743C14.3573 40.499 14.3375 33.6522 14.3375 33.6522C14.3375 33.6522 14.3415 33.5533 14.2268 33.4624C14.1872 33.4386 14.0093 33.4584 14.0093 33.4584Z" fill="#0101FF"/>
<path d="M24.3819 6.7002C24.3819 6.7002 30.717 10.1058 29.2855 14.698C28.4511 17.3718 25.6117 19.3178 21.6533 20.4412C17.6949 21.5645 13.4438 22.1736 10.1892 23.7597C7.21152 25.2114 3.90161 27.7705 3.7553 32.509C3.60898 37.2476 5.02469 39.067 5.02469 39.067C5.02469 39.067 4.09538 32.9362 16.2673 30.8003C19.2094 30.2861 25.3151 29.0362 27.6562 27.7191C30.2859 26.2437 33.1885 23.3681 33.58 19.6501C33.9715 15.936 33.4021 13.0644 31.322 10.703C28.7437 7.78001 24.3819 6.7002 24.3819 6.7002Z" fill="#14B004"/>
<path d="M39.5276 30.0015C41.0777 30.0015 42.8375 30.0015 44.0792 30.7253C45.7954 31.6983 46.0011 33.6641 46.0011 34.5541C46.0011 36.0018 45.5028 37.1805 44.9255 37.8845C43.4346 39.704 40.9551 39.704 38.6378 39.6842C38.6378 41.7964 38.6378 42.3106 38.7209 44.5652L38.618 44.6878C36.9651 44.668 36.6329 44.6878 35.1025 44.7511L34.9799 44.6284C35.0432 42.1049 35.1025 39.6012 35.1025 37.0776C35.1025 34.7004 35.0392 32.8968 34.9562 30.2071L35.0788 30.0845L37.7046 30.045L39.5276 30.0015ZM38.6378 37.1409C39.8795 37.1409 40.6427 37.1014 41.2043 36.7889C42.2997 36.1877 42.2997 34.9892 42.2997 34.7004C42.2997 33.502 41.8014 32.5685 39.9823 32.5289C39.5276 32.5289 39.0926 32.529 38.6378 32.5487V37.1409Z" fill="#0101FF"/>
<path d="M57.481 42.0411L57.3346 44.5647L57.1685 44.6873H48.0653L47.9625 44.6042C48.0258 42.4327 48.0653 41.1274 48.0653 38.5208C48.0653 32.9754 48.0258 32.212 47.8992 30.2027L48.0218 30.0801H57.1013L57.2041 30.1631L57.0578 32.5641L56.955 32.6867C54.4518 32.6234 53.9773 32.6234 51.6402 32.6234V35.9143L56.6466 35.8312L56.7494 35.9538L56.6268 38.2914L56.4805 38.4141H51.6402L51.6797 42.0332C54.3292 42.0332 54.9066 42.0134 57.3465 41.8869L57.481 42.0411Z" fill="#0101FF"/>
<path d="M63.1477 39.0435C63.1675 41.5037 63.1873 42.1682 63.3533 44.5692L63.2308 44.6918C61.5343 44.672 61.2021 44.6918 59.6955 44.7551L59.5729 44.6324C59.6361 42.9158 59.6559 41.9823 59.6559 40.06C59.6559 34.4315 59.5729 32.2798 59.4898 30.1914L59.5926 30.0687H62.1156L63.5629 30.049C65.9831 30.0094 67.0982 30.0292 68.1739 30.5869C69.8703 31.4769 70.1195 33.3596 70.1195 34.2694C70.1195 36.8957 68.2371 37.7659 67.3078 38.1812C67.8259 39.091 68.1541 39.6487 68.8184 40.7048C70.3093 43.0819 70.5347 43.3944 71.3216 44.407L71.199 44.6562C70.5584 44.6562 69.8941 44.676 69.2534 44.6957C68.6128 44.7155 67.992 44.759 67.3513 44.7986L67.1852 44.6957C65.8605 41.9863 65.552 41.3653 64.164 39.0079L63.1477 39.0435ZM63.1873 36.603C64.2233 36.5833 64.9668 36.5397 65.5441 36.1877C66.3113 35.7131 66.4537 34.9457 66.4537 34.3682C66.4537 32.5488 64.86 32.5488 64.0533 32.5488C63.7646 32.5488 63.4759 32.5488 63.1833 32.5685V36.603H63.1873Z" fill="#0101FF"/>
<path d="M84.3082 30.1476L84.2449 36.2942V38.4024C84.2054 41.0288 84.1223 42.2313 83.023 43.3902C81.4926 45.004 79.2187 45.004 78.4714 45.004C75.6993 45.004 74.1056 43.9677 73.3226 42.8522C72.5989 41.8594 72.4763 40.744 72.4131 38.5092V36.9785C72.3933 33.7509 72.3933 33.1734 72.3103 30.2148L72.4328 30.0922C73.8406 30.112 74.3152 30.112 76.0749 30.0289L76.1777 30.1515C76.1382 32.2004 76.1145 33.7944 76.1145 35.4676C76.1145 36.5632 76.1145 37.6588 76.154 38.7584C76.1936 40.0598 76.3201 40.7875 76.6286 41.3255C77.0833 42.0493 77.89 42.4211 78.7403 42.4211C79.4244 42.4211 80.1046 42.1917 80.5593 41.6775C81.1169 41.017 81.1802 40.0242 81.1802 37.8487C81.1802 35.3054 81.0774 32.7581 80.9745 30.2148L81.0971 30.0922C82.2756 30.112 82.6908 30.112 84.2014 30.0289L84.3082 30.1476ZM81.5558 26.0498C80.8322 26.9793 80.2746 27.7032 79.1752 29.1548L79.0527 29.2378H76.9647L76.8816 29.1152C77.5223 27.5845 77.6251 27.2325 77.977 26.034L78.0799 25.9312H81.5123L81.5558 26.0498Z" fill="#0101FF"/>
<path d="M91.2127 44.6909L91.0901 44.6079C91.1297 42.911 91.1534 41.6888 91.1534 39.6637C91.1534 33.9323 91.0703 32.1959 90.9873 30.2103L91.1099 30.0877L93.3007 30.0679C94.2537 30.0244 95.2028 29.9849 96.1558 29.9849C98.5127 29.9849 101.182 30.0679 102.59 32.635C103.108 33.5645 103.543 35.0557 103.543 37.0017C103.543 37.9312 103.42 39.5885 102.859 40.9531C101.348 44.6356 97.6032 44.7186 95.2898 44.7186C94.752 44.7186 94.1944 44.7186 93.6566 44.6989H91.2127V44.6909ZM98.2635 41.2577C98.7579 40.8424 99.7307 39.6834 99.7307 37.1006C99.7307 32.6943 97.271 32.6943 96.0055 32.6943C95.5903 32.6943 95.1593 32.7141 94.7441 32.7338C94.7243 33.8532 94.7243 34.9686 94.7243 36.0841C94.7243 38.0697 94.7441 39.9959 94.7876 42.0211C95.9067 42.0211 97.3342 42.0211 98.2635 41.2577Z" fill="#14B004"/>
<path d="M119.052 37.346C119.052 39.1062 118.637 41.9184 116.593 43.6153C115.371 44.6279 113.757 44.9997 112.168 44.9997C111.112 44.9997 108.96 44.794 107.391 43.3226C105.445 41.5229 105.283 38.8728 105.283 37.4686C105.283 36.7646 105.346 36.0605 105.469 35.3604C105.635 34.4902 106.089 32.0933 108.612 30.6417C109.732 30.0009 111.033 29.7715 112.314 29.7715C113.761 29.7715 115.209 30.1235 116.264 30.8276C116.739 31.14 117.154 31.5316 117.506 31.9865C118.016 32.6273 119.052 34.0987 119.052 37.346ZM112.227 32.3583C111.835 32.3583 111.274 32.4414 110.716 32.7736C109.743 33.3946 109.142 34.6762 109.142 37.1601C109.142 39.0231 109.328 42.3733 112.203 42.3733C114.603 42.3733 115.264 40.1385 115.181 37.0336C115.161 36.5154 115.118 35.7718 114.951 34.9847C114.829 34.3835 114.643 33.7862 114.228 33.3076C113.737 32.7103 113.014 32.3583 112.227 32.3583Z" fill="#14B004"/>
<path d="M130.16 41.9578L129.994 44.5644L129.892 44.687C126.166 44.687 125.423 44.687 121.37 44.7503L121.267 44.6277C121.267 41.3605 121.287 38.0894 121.287 34.8223C121.287 32.362 121.267 31.8637 121.184 30.2103L121.306 30.0877C122.734 30.1075 123.208 30.1075 124.988 30.0244L125.111 30.147C124.944 35.0912 124.925 36.4994 124.964 42.0211H125.379C126 42.0211 127.8 41.9815 130.054 41.8549L130.16 41.9578Z" fill="#14B004"/>
<path d="M140.873 30.1476C142.052 34.7002 142.34 35.6732 144.843 44.5254L144.741 44.6915C143.064 44.6717 142.653 44.6915 141.142 44.7548L140.996 44.6321L140.106 40.8033H135.637L134.625 44.5689L134.479 44.6915H131.252L131.169 44.5451C134.21 35.8156 134.87 33.7232 135.966 30.2069L136.112 30.0843C138.326 30.0843 138.738 30.0843 140.727 30.021L140.873 30.1476ZM139.509 38.2956L138.742 35.0681L138.121 32.3784L137.397 34.7991L136.361 38.2956H139.509Z" fill="#14B004"/>
<path d="M149.826 39.043C149.846 41.5032 149.866 42.1678 150.032 44.5687L149.909 44.6913C148.213 44.6715 147.88 44.6913 146.374 44.7546L146.251 44.6319C146.314 42.9153 146.334 41.9818 146.334 40.0595C146.334 34.431 146.251 32.2793 146.168 30.1909L146.271 30.0683H148.794L150.241 30.0485C152.661 30.0089 153.777 30.0287 154.852 30.5864C156.549 31.4764 156.798 33.3591 156.798 34.2689C156.798 36.8952 154.916 37.7654 153.986 38.1807C154.504 39.0905 154.832 39.6482 155.497 40.7043C156.988 43.0814 157.213 43.3939 158 44.4065L157.877 44.6557C157.237 44.6557 156.572 44.6755 155.932 44.6952C155.291 44.715 154.67 44.7585 154.03 44.7981L153.864 44.6952C152.539 41.9858 152.23 41.3648 150.842 39.0074L149.826 39.043ZM149.87 36.6025C150.906 36.5828 151.649 36.5393 152.226 36.1872C152.994 35.7126 153.136 34.9452 153.136 34.3678C153.136 32.5483 151.542 32.5483 150.736 32.5483C150.447 32.5483 150.158 32.5483 149.866 32.5681V36.6025H149.87Z" fill="#14B004"/>
</g>
<defs>
<clipPath id="clip0">
<rect width="155" height="39" fill="white" transform="translate(3 6)"/>
</clipPath>
</defs>
</svg>
