<svg width="160" height="52" viewBox="0 0 160 52" fill="none" xmlns="http://www.w3.org/2000/svg">
<g clip-path="url(#clip0_1620_115)">
<path d="M17.0392 31.2091L18.5146 34.0491H15.2879L13.8152 31.2091L12.2708 28.2169L12.2019 28.0809C11.9478 27.6658 11.5893 27.3225 11.1613 27.0842C10.7332 26.8459 10.25 26.7207 9.75841 26.7207H6.87921V34.0382H4V18.1411H14.182C14.7514 18.1399 15.3153 18.2495 15.8416 18.4638C16.3679 18.6781 16.8461 18.9927 17.2488 19.3897C18.0589 20.2026 18.5134 21.2965 18.5146 22.4364C18.5143 23.2585 18.2755 24.0635 17.8264 24.7561C17.3773 25.4487 16.7367 26.0002 15.9801 26.3454C15.5878 26.5267 15.1674 26.6417 14.7363 26.6854L17.0392 31.2091ZM14.182 23.8917C14.3903 23.8923 14.596 23.8458 14.7832 23.7557C15.0428 23.6429 15.2637 23.4582 15.4189 23.224C15.5741 22.9898 15.657 22.7162 15.6575 22.4364C15.6563 22.0448 15.4988 21.6695 15.219 21.3918C15.0822 21.2591 14.9202 21.1545 14.7422 21.084C14.5642 21.0135 14.3738 20.9785 14.182 20.981H6.87921V23.9216L14.182 23.8917Z" fill="#1D5527"/>
<path d="M37.3966 34.0272H34.1699L32.6944 31.1846L29.1699 24.3677L25.6453 31.1846L19.8842 42.3375H16.6575L22.4186 31.1846L29.1699 18.1274L35.9211 31.1846L37.3966 34.0272Z" fill="#1D5527"/>
<path d="M54.0491 19.4145C54.4519 19.811 54.7713 20.2821 54.989 20.8008C55.2067 21.3194 55.3184 21.8753 55.3177 22.4367C55.3174 23.2588 55.0786 24.0637 54.6295 24.7564C54.1804 25.449 53.5398 26.0005 52.7832 26.3456C52.3909 26.527 51.9705 26.642 51.5395 26.6857H51.4016V26.7101H43.6796V34.0276H40.8031V18.1196H50.9631C51.532 18.1184 52.0955 18.2281 52.6213 18.4424C53.1472 18.6567 53.6249 18.9713 54.027 19.3682L54.0491 19.4145ZM51.5836 23.7668C51.8437 23.6545 52.0651 23.47 52.2208 23.2357C52.3765 23.0015 52.4598 22.7276 52.4606 22.4475C52.4594 22.056 52.3019 21.6807 52.0221 21.403C51.8853 21.2703 51.7233 21.1657 51.5453 21.0951C51.3673 21.0246 51.1769 20.9897 50.9851 20.9922H43.6823V23.9219H50.9851C51.1925 23.9225 51.3973 23.8759 51.5836 23.7859V23.7668Z" fill="#1D5527"/>
<path d="M58.5984 34.0276V18.1196H61.4804V34.0276H58.5984Z" fill="#1D5527"/>
<path d="M75.8251 18.1414C77.3597 18.1397 78.8627 18.571 80.1568 19.3844C81.451 20.1978 82.4823 21.3592 83.1291 22.7318C83.7759 24.1044 84.0111 25.6308 83.8072 27.131C83.6032 28.6312 82.9685 30.0425 81.9779 31.1985C81.8373 31.3563 81.6773 31.5168 81.5146 31.6745C80.776 32.418 79.8941 33.0082 78.9208 33.4104C77.9475 33.8127 76.9025 34.0188 75.8472 34.0167H67.7832V18.1196L75.8251 18.1414ZM70.6404 31.1985H75.8251C77.2002 31.1985 78.519 30.6597 79.4913 29.7006C80.4637 28.7416 81.0099 27.4408 81.0099 26.0845C81.0099 24.7281 80.4637 23.4274 79.4913 22.4683C78.519 21.5092 77.2002 20.9704 75.8251 20.9704H70.6404V31.1985Z" fill="#1D5527"/>
<path d="M91.0988 22.4149V23.892H101.474V26.7319H91.0988V29.7241C91.1016 30.1085 91.2577 30.4763 91.5333 30.7481C91.8089 31.0199 92.1818 31.1739 92.5715 31.1768H104.345V34.0194H92.5715C91.4204 34.0172 90.3173 33.5645 89.5044 32.7607C88.6915 31.9569 88.2354 30.8676 88.2361 29.7323V22.4149C88.2332 21.2791 88.6876 20.1886 89.4995 19.3831C90.3115 18.5777 91.4144 18.1232 92.5659 18.1196H104.339V20.9595H92.5715C92.1813 20.9624 91.808 21.1167 91.5323 21.3891C91.2567 21.6615 91.1009 22.03 91.0988 22.4149V22.4149Z" fill="#1D5527"/>
<path d="M110.074 34.0492H110.121L110.074 34.0955V34.0492ZM129.914 12.9185L120.005 26.117L130.854 39.7182H127.214L118.185 28.4374L113.786 34.0492H110.143L116.343 26.117L110.099 18.1413H113.747L118.16 23.7994L126.246 12.9185H129.911H129.914ZM130.846 39.7644L130.824 39.7209H130.846V39.7644Z" fill="#1D5527"/>
<path d="M111.944 11.8142H117.052V7.53795C117.052 7.53795 117.074 6.06358 119.035 5.19039C120.03 4.74699 121.657 5.00541 121.657 5.00541L152.022 22.1919C152.022 22.1919 154.995 23.6499 154.995 26.0981C154.995 28.1328 152.022 29.6045 152.022 29.6045L122.623 46.4699C122.623 46.4699 120.99 47.4547 119.22 46.8453C117.763 46.3448 116.897 44.2584 116.897 44.2584V40.1264H111.933V45.3764C111.933 45.3764 112.273 48.7441 116.225 50.9991C119.335 52.7727 123.307 51.6493 123.307 51.6493L155.891 33.1707C155.891 33.1707 160 31.0326 160 26.4463C160 20.6957 155.891 18.593 155.891 18.593L122.7 0.13619C122.7 0.13619 118.913 -0.546588 115.902 1.13996C112.121 3.25902 111.944 6.62395 111.944 6.62395V11.8142Z" fill="#FFE000"/>
</g>
<defs>
<clipPath id="clip0_1620_115">
<rect width="160" height="52" fill="white"/>
</clipPath>
</defs>
</svg>
