<svg width="125" height="49" viewBox="0 0 125 49" fill="none" xmlns="http://www.w3.org/2000/svg">
<path d="M51.2606 35.4464C49.3961 37.2998 47.1902 38.2134 44.6429 38.2134C42.0694 38.2134 39.8898 37.2998 38.0516 35.4464C36.1871 33.6192 35.2679 31.4265 35.2679 28.8944C35.2679 26.3363 36.1871 24.1436 38.0516 22.2903C39.8898 20.4369 42.0957 19.5233 44.6429 19.5233C47.2165 19.5233 49.4223 20.4369 51.2606 22.2903C53.1251 24.1436 54.0442 26.3363 54.0442 28.8944C54.0442 31.4265 53.0988 33.6192 51.2606 35.4464ZM48.7921 24.744C47.6629 23.6215 46.2711 23.0473 44.6167 23.0473C42.9885 23.0473 41.5967 23.6215 40.4413 24.744C39.2858 25.8925 38.7343 27.276 38.7343 28.8944C38.7343 30.5129 39.3121 31.8964 40.4413 33.0449C41.5967 34.1674 42.9623 34.7416 44.6167 34.7416C46.2448 34.7416 47.6366 34.1674 48.7921 33.0449C49.9213 31.8964 50.499 30.539 50.499 28.8944C50.499 27.2499 49.9476 25.8664 48.7921 24.744Z" fill="#041990"/>
<path d="M73.8183 35.3681C72.1113 37.2475 70.0105 38.1873 67.4895 38.1873C66.1502 38.1873 64.9685 37.9523 63.8918 37.4564C62.8414 36.9604 61.8697 36.2295 61.0031 35.2376V37.6391H57.5105V9.78665H61.0031V22.4991C61.8697 21.5332 62.8151 20.8023 63.8918 20.3064C64.9422 19.8104 66.1502 19.5494 67.4895 19.5494C69.9842 19.5494 72.0851 20.4891 73.792 22.3685C75.4727 24.2219 76.313 26.3885 76.313 28.8944C76.313 31.3743 75.4989 33.5408 73.8183 35.3681ZM71.0872 24.744C69.958 23.6215 68.5662 23.0472 66.9118 23.0472C65.2836 23.0472 63.8918 23.6215 62.7363 24.744C61.5809 25.8925 61.0294 27.276 61.0294 28.8944C61.0294 30.5128 61.6071 31.8963 62.7363 33.0449C63.8918 34.1673 65.2574 34.7416 66.9118 34.7416C68.5399 34.7416 69.9317 34.1673 71.0872 33.0449C72.2164 31.8963 72.7941 30.5389 72.7941 28.8944C72.7941 27.2499 72.2164 25.8664 71.0872 24.744Z" fill="#041990"/>
<path d="M83.2983 9.78665H79.8057V38.2395H83.2983V9.78665Z" fill="#041990"/>
<path d="M105.541 29.6514C105.515 29.9386 105.462 30.2518 105.436 30.6173H90.5988C90.9402 31.7658 91.5967 32.7055 92.5421 33.4364C93.645 34.2979 94.853 34.7155 96.1923 34.7155C98.0568 34.7155 99.6324 33.9324 100.919 32.3401L103.86 34.2456C102.915 35.4986 101.759 36.4644 100.42 37.1431C99.0809 37.8479 97.6628 38.1873 96.1923 38.1873C93.6187 38.1873 91.4391 37.2737 89.6009 35.4203C87.7364 33.5931 86.8173 31.4004 86.8173 28.8683C86.8173 26.3102 87.7364 24.1175 89.6009 22.2641C91.4391 20.4108 93.645 19.4972 96.1923 19.4972C98.7658 19.4972 100.972 20.4108 102.81 22.2641C104.674 24.1175 105.594 26.3102 105.594 28.8683C105.594 29.1294 105.567 29.3643 105.541 29.6514ZM90.5725 27.1194H101.812C101.418 25.9447 100.762 25.005 99.8425 24.3002C98.8183 23.4649 97.5841 23.0472 96.1923 23.0472C94.853 23.0472 93.645 23.4649 92.5421 24.3002C91.5704 25.0572 90.9139 25.9969 90.5725 27.1194Z" fill="#041990"/>
<path d="M120.641 38.2134L116.229 31.9746L104.858 48.2371H100.525L114.023 28.9205L107.458 19.5494H111.791L116.229 25.8142L120.641 19.5494H125L118.382 28.9205L125 38.2134H120.641Z" fill="#041990"/>
<path d="M20.9035 21.2983H9.42761L23.7921 38.2134H35.2417L20.9035 21.2983Z" fill="url(#paint0_linear)"/>
<path d="M25.3676 0.441589H0V38.2134H8.74474V9.13406H16.7279C17.9359 9.13406 18.5662 10.5175 17.8046 11.4312L9.42752 21.2983L15.2048 28.0852L30.1733 10.4131C31.1187 9.34289 31.6964 7.9072 31.6702 6.34098C31.6176 3.05194 28.729 0.441589 25.3676 0.441589Z" fill="#041990"/>
<path d="M2.10084 44.3224C1.60189 44.2441 1.18172 44.0352 0.840335 43.722C0.525209 43.3827 0.341386 42.9911 0.341386 42.5212C0.341386 41.947 0.55147 41.5032 1.02416 41.1639C1.47059 40.8245 2.02206 40.6418 2.65231 40.6418C3.59769 40.6418 4.35924 40.9811 4.96323 41.6859L3.9916 42.7301C3.57143 42.2341 3.09874 41.9731 2.59979 41.9731C2.17962 41.9731 1.91702 42.1297 1.91702 42.3907C1.91702 42.5996 2.10084 42.7301 2.44223 42.8084L3.2563 42.965C4.54307 43.1738 5.17332 43.8264 5.17332 44.9228C5.17332 45.4709 4.93697 45.9147 4.46429 46.2802C3.9916 46.6195 3.41386 46.8022 2.73109 46.8022C1.65441 46.8022 0.709033 46.3063 0.210083 45.5493L1.18172 44.5573C1.62815 45.1316 2.17962 45.4448 2.86239 45.4448C3.36134 45.4448 3.62395 45.2621 3.62395 44.975C3.62395 44.74 3.44013 44.5834 3.01996 44.5051L2.10084 44.3224Z" fill="#041990"/>
<path d="M9.97892 44.922H7.27409C7.35287 45.2613 7.668 45.444 8.00938 45.444C8.40329 45.444 8.71841 45.2874 8.90224 45.0003L9.87388 45.9139C9.55875 46.4099 8.84972 46.7492 8.00938 46.7492C7.35287 46.7492 6.82766 46.5665 6.38123 46.1749C5.9348 45.7834 5.75098 45.2613 5.75098 44.6087C5.75098 43.9561 5.9348 43.4341 6.35497 43.0164C6.74888 42.5987 7.27409 42.3899 7.90434 42.3899C8.56085 42.3899 9.08606 42.5987 9.42745 43.0164C9.7951 43.4341 9.97892 43.93 9.97892 44.5304V44.922ZM7.30035 44.0867H8.48207C8.45581 43.8256 8.27199 43.6168 7.90434 43.6168C7.58921 43.6168 7.35287 43.7995 7.30035 44.0867Z" fill="#041990"/>
<path d="M13.5505 46.2532C13.3141 46.4621 12.9727 46.5665 12.5263 46.5665C11.9486 46.5665 11.4759 46.3577 11.1082 45.9922C10.7143 45.6007 10.5305 45.1047 10.5305 44.4782C10.5305 43.8517 10.7143 43.3558 11.1082 42.9642C11.5022 42.5726 11.9748 42.3899 12.5263 42.3899C12.9727 42.3899 13.3141 42.5204 13.5767 42.7815V42.4943H15.0211V46.1488C15.0211 46.8014 14.811 47.3496 14.3908 47.7672C13.9706 48.1849 13.3929 48.3937 12.6576 48.3937C11.686 48.3937 11.0557 47.9761 10.6881 47.5323L11.6597 46.5665C11.9486 46.9058 12.2637 47.0625 12.6576 47.0625C13.1303 47.0625 13.5505 46.8014 13.5505 46.2532ZM12.7889 45.2874C13.2616 45.2874 13.5767 44.922 13.5767 44.5043C13.5767 44.0867 13.2879 43.6951 12.7889 43.6951C11.7648 43.669 11.7648 45.3396 12.7889 45.2874Z" fill="#041990"/>
<path d="M18.4348 46.6709V46.3838C18.1985 46.6448 17.8571 46.7753 17.4632 46.7753C16.4653 46.7753 15.9138 46.1489 15.9138 44.9481V42.5205H17.3844V44.7915C17.3844 45.2352 17.542 45.4441 17.8834 45.4441C18.2773 45.4441 18.4348 45.2091 18.4348 44.5565V42.4944H19.9054V46.6709H18.4348V46.6709Z" fill="#041990"/>
<path d="M23.5819 43.9039C23.5294 43.9039 23.4506 43.9039 23.3455 43.9039C22.7678 43.9039 22.3739 44.2955 22.3739 44.9742V46.6709H20.9033V42.4943H22.3739V42.8859C22.6102 42.5988 22.9516 42.4421 23.3981 42.4421C23.5031 42.4421 23.5556 42.4421 23.6081 42.4421V43.9039H23.5819Z" fill="#041990"/>
<path d="M24.9738 42.3116C24.5011 42.3116 24.1334 41.9462 24.1334 41.4502C24.1334 40.9803 24.5011 40.6149 24.9738 40.6149C25.4465 40.6149 25.8141 40.9803 25.8141 41.4502C25.8141 41.9201 25.4465 42.3116 24.9738 42.3116ZM24.2122 46.6709V42.4943H25.7091V46.6709H24.2122Z" fill="#041990"/>
<path d="M29.5956 42.7032V40.6932H31.0662V46.6448H29.6218V46.3577C29.3592 46.5926 29.0178 46.7231 28.5714 46.7231C27.9674 46.7231 27.4685 46.5143 27.0746 46.0966C26.6806 45.679 26.4968 45.1569 26.4968 44.5304C26.4968 43.9039 26.6806 43.3819 27.0746 42.9642C27.4685 42.5466 27.9674 42.3377 28.5452 42.3377C28.9391 42.3899 29.3067 42.4944 29.5956 42.7032ZM29.6218 44.5826C29.6218 44.0867 29.2542 43.6951 28.7815 43.6951C28.3088 43.6951 27.9412 44.0606 27.9412 44.5826C27.9412 45.1047 28.3088 45.4441 28.7815 45.4441C29.2804 45.4441 29.6218 45.0786 29.6218 44.5826Z" fill="#041990"/>
<path d="M32.1954 46.3838C31.9328 46.1488 31.8015 45.8356 31.8015 45.4701C31.8015 45.0264 31.9853 44.6609 32.3005 44.426C32.6419 44.1911 33.0358 44.0605 33.5085 44.0605C33.7711 44.0605 34.0599 44.1128 34.165 44.165L34.2437 44.2172V44.1128C34.2437 43.8256 34.0074 43.669 33.666 43.669C33.3246 43.669 33.062 43.7995 32.8519 44.0605L31.9591 43.1991C32.4055 42.651 33.0095 42.3899 33.7711 42.3899C35.0841 42.3899 35.7406 43.0686 35.7406 44.165V46.6709H34.27V46.4099C34.0862 46.6187 33.666 46.7753 33.1933 46.7753C32.8257 46.7492 32.458 46.6448 32.1954 46.3838ZM33.6923 45.6268C33.9024 45.6268 34.0862 45.5746 34.27 45.4701V45.0264C34.1387 44.9481 33.9811 44.922 33.7711 44.922C33.5085 44.922 33.2721 45.0525 33.2721 45.2874C33.2721 45.4701 33.4297 45.6268 33.6923 45.6268Z" fill="#041990"/>
<path d="M39.5745 42.7032V40.6932H41.0451V46.6448H39.5745V46.3577C39.3119 46.5926 38.9705 46.7231 38.524 46.7231C37.9201 46.7231 37.4211 46.5143 37.0272 46.0966C36.6333 45.679 36.4495 45.1569 36.4495 44.5304C36.4495 43.9039 36.6333 43.3819 37.0272 42.9642C37.4211 42.5466 37.92 42.3377 38.4978 42.3377C38.918 42.3899 39.2593 42.4944 39.5745 42.7032ZM39.5745 44.5826C39.5745 44.0867 39.2068 43.6951 38.7341 43.6951C38.2614 43.6951 37.8938 44.0606 37.8938 44.5826C37.8938 45.1047 38.2614 45.4441 38.7341 45.4441C39.2331 45.4441 39.5745 45.0786 39.5745 44.5826Z" fill="#041990"/>
<path d="M48.6344 42.4944L46.5336 48.3154H45.0105L45.6145 46.6709L44.1964 42.4944H45.772L46.4023 44.5304L47.0325 42.4944H48.6344Z" fill="#041990"/>
<path d="M51.7856 46.6709V40.7193H54.5693C55.856 40.7193 56.6438 41.2414 56.6438 42.3116C56.6438 42.8337 56.4075 43.2514 55.9611 43.5907C56.5125 43.9301 56.8014 44.3999 56.8014 45.0003C56.8014 45.5224 56.6176 45.94 56.2237 46.2533C55.856 46.5404 55.3308 46.697 54.7268 46.697H51.7856V46.6709ZM53.3613 42.0506V42.9642H54.3592C54.8581 42.9642 55.0945 42.8076 55.0945 42.4944C55.0945 42.155 54.8844 42.0245 54.3592 42.0245H53.3613V42.0506ZM53.3613 45.2874H54.438C54.9632 45.2874 55.2258 45.1047 55.2258 44.7654C55.2258 44.426 54.9632 44.2433 54.438 44.2433H53.3613V45.2874Z" fill="#041990"/>
<path d="M60.0315 46.6709V46.3838C59.7952 46.6448 59.4538 46.7753 59.0599 46.7753C58.062 46.7753 57.5105 46.1489 57.5105 44.9481V42.5205H58.9811V44.7915C58.9811 45.2352 59.1386 45.4441 59.48 45.4441C59.8739 45.4441 60.0315 45.2091 60.0315 44.5565V42.4944H61.5021V46.6709H60.0315V46.6709Z" fill="#041990"/>
<path d="M66.4916 44.922H63.7605C63.8393 45.2613 64.1544 45.444 64.4958 45.444C64.8897 45.444 65.2049 45.2874 65.3887 45.0003L66.3603 45.9139C66.0452 46.4099 65.3362 46.7492 64.4958 46.7492C63.8393 46.7492 63.3141 46.5665 62.8677 46.1749C62.4213 45.7834 62.2374 45.2613 62.2374 44.6087C62.2374 43.9561 62.4213 43.4341 62.8414 43.0164C63.2353 42.5987 63.7605 42.3899 64.3908 42.3899C65.0473 42.3899 65.5725 42.5987 65.9139 43.0164C66.2816 43.4341 66.4654 43.93 66.4654 44.5304L66.4916 44.922ZM63.7868 44.0867H64.9685C64.9423 43.8256 64.7584 43.6168 64.3908 43.6168C64.0757 43.6168 63.8393 43.7995 63.7868 44.0867Z" fill="#041990"/>
<path d="M68.6713 42.4943V42.7815C68.9076 42.5204 69.2227 42.3899 69.6429 42.3899C70.6408 42.3899 71.2973 43.0425 71.2973 44.2433V46.6709H69.8267V44.3999C69.8267 43.9561 69.6429 43.7473 69.2753 43.7473C68.8551 43.7473 68.6713 43.9561 68.6713 44.687V46.697H67.2007V42.5204H68.6713V42.4943Z" fill="#041990"/>
<path d="M76.418 44.922V46.6709H74.8687V40.7193H77.2584C78.8865 40.7193 79.7531 41.4763 79.7531 42.8337C79.7531 44.165 78.8602 44.9481 77.2584 44.9481H76.418V44.922ZM76.418 42.0506V43.5385H77.1008C77.8098 43.5385 78.1775 43.2775 78.1775 42.7815C78.1775 42.2594 77.8361 42.0506 77.1008 42.0506H76.418V42.0506Z" fill="#041990"/>
<path d="M83.1407 43.9039C83.0882 43.9039 83.0094 43.9039 82.9044 43.9039C82.3266 43.9039 81.9327 44.2955 81.9327 44.9742V46.6709H80.4622V42.4943H81.9327V42.8859C82.1691 42.5988 82.5105 42.4421 82.9569 42.4421C83.0619 42.4421 83.1145 42.4421 83.167 42.4421V43.9039H83.1407Z" fill="#041990"/>
<path d="M87.7889 44.922H85.0578C85.1366 45.2613 85.4517 45.444 85.7931 45.444C86.187 45.444 86.5021 45.2874 86.6859 45.0003L87.6576 45.9139C87.3424 46.4099 86.6334 46.7492 85.7931 46.7492C85.1366 46.7492 84.6113 46.5665 84.1649 46.1749C83.7185 45.7834 83.5347 45.2613 83.5347 44.6087C83.5347 43.9561 83.7185 43.4341 84.1387 43.0164C84.5326 42.5987 85.0578 42.3899 85.688 42.3899C86.3445 42.3899 86.8697 42.5987 87.2111 43.0164C87.5788 43.4341 87.7626 43.93 87.7626 44.5304L87.7889 44.922ZM85.1103 44.0867H86.292C86.2658 43.8256 86.0819 43.6168 85.7143 43.6168C85.3729 43.6168 85.1628 43.7995 85.1103 44.0867Z" fill="#041990"/>
<path d="M92.437 45.8878C92.0168 46.4621 91.4128 46.7492 90.5987 46.7492C89.9685 46.7492 89.4433 46.5404 88.9968 46.1488C88.5504 45.7312 88.3403 45.2091 88.3403 44.5826C88.3403 43.9561 88.5504 43.4341 88.9968 43.0164C89.4433 42.5987 89.9685 42.3899 90.5987 42.3899C91.3865 42.3899 91.9905 42.651 92.4107 43.1991L91.4391 44.1128C91.229 43.8517 90.9664 43.7212 90.6513 43.7212C90.2048 43.7212 89.8109 44.0867 89.8109 44.5826C89.8109 45.0786 90.1786 45.444 90.625 45.444C90.9926 45.444 91.2552 45.2874 91.4653 45.0003L92.437 45.8878Z" fill="#041990"/>
<path d="M93.8287 42.3116C93.3561 42.3116 92.9884 41.9462 92.9884 41.4502C92.9884 40.9803 93.3561 40.6149 93.8287 40.6149C94.3014 40.6149 94.6691 40.9803 94.6691 41.4502C94.6691 41.9201 94.3014 42.3116 93.8287 42.3116ZM93.0672 46.6709V42.4943H94.564V46.6709H93.0672Z" fill="#041990"/>
<path d="M95.1681 44.5826C95.1681 43.9561 95.3782 43.4341 95.8246 43.0164C96.271 42.5987 96.7962 42.3899 97.4265 42.3899C98.0567 42.3899 98.582 42.5987 99.0284 43.0164C99.4748 43.4341 99.6849 43.9561 99.6849 44.5826C99.6849 45.2091 99.4748 45.7312 99.0284 46.1488C98.582 46.5665 98.0567 46.7492 97.4265 46.7492C96.7962 46.7492 96.271 46.5404 95.8246 46.1488C95.3782 45.7312 95.1681 45.2091 95.1681 44.5826ZM97.4265 45.444C97.8729 45.444 98.2143 45.1047 98.2143 44.5826C98.2143 44.0605 97.8992 43.7212 97.4265 43.7212C96.9801 43.7212 96.6387 44.0867 96.6387 44.5826C96.6387 45.0786 96.9801 45.444 97.4265 45.444Z" fill="#041990"/>
<defs>
<linearGradient id="paint0_linear" x1="17.8019" y1="23.5866" x2="27.938" y2="37.5604" gradientUnits="userSpaceOnUse">
<stop offset="0.1035" stop-color="#04193A"/>
<stop offset="0.1179" stop-color="#04193D"/>
<stop offset="0.264" stop-color="#04195B"/>
<stop offset="0.4186" stop-color="#041973"/>
<stop offset="0.5835" stop-color="#041983"/>
<stop offset="0.7659" stop-color="#04198D"/>
<stop offset="1" stop-color="#041990"/>
</linearGradient>
</defs>
</svg>
