<svg width="160" height="52" viewBox="0 0 160 52" fill="none" xmlns="http://www.w3.org/2000/svg">
<g clip-path="url(#clip0_1620_278)">
<g clip-path="url(#clip1_1620_278)">
<path d="M132.227 27.6339H120.507V35.0727H133.432V40.3317H115.089V10.6704H133.444V15.9294H120.507V22.3749H132.22L132.227 27.6339Z" fill="url(#paint0_linear_1620_278)"/>
<path d="M141.736 40.3262H135.198L142.752 29.6547L135.571 19.5269H142.068L145.926 25.6292L149.742 19.5269H156.28L149.085 29.6547L156.639 40.3226H150.06L145.918 33.8482L141.736 40.3262Z" fill="url(#paint1_linear_1620_278)"/>
<path d="M42.2161 28.3237C37.9634 27.8126 37.5613 27.3377 37.5613 25.3475C37.5613 23.7456 37.9437 22.0372 42.5069 22.0372C44.8513 22.0372 46.2192 22.4092 47.5332 22.7595L48.4541 23.0106V20.5039L47.9497 20.3377C46.4777 19.8573 44.3379 19.5449 42.4997 19.5449C36.2724 19.5449 34.9602 22.7 34.9602 25.3475C34.9602 28.8764 36.6692 30.211 41.9953 30.8431C46.4598 31.3614 46.6859 32.138 46.6859 34.3087C46.6859 35.8113 46.1151 37.8087 41.1785 37.8087C38.8323 37.8087 37.4662 37.4367 36.1522 37.0863L35.2384 36.8262V39.342L35.7447 39.5081C37.2167 39.9885 39.3565 40.2991 41.1947 40.2991C48.2405 40.2991 49.2925 36.5228 49.2925 34.2708C49.2889 29.9618 46.9067 28.8854 42.2161 28.3237Z" fill="#000736"/>
<path d="M59.5516 19.541C51.9331 19.541 51.0355 25.4682 51.0355 29.9235C51.0355 34.3789 51.9187 40.2988 59.5462 40.2988C61.7003 40.2988 64.2727 39.8907 65.7842 39.3055L66.2528 39.125V36.5966L65.2978 36.909C63.4472 37.5333 61.5051 37.8386 59.5534 37.812C55.7208 37.812 53.9418 35.8254 53.6959 31.1913H67.1916V29.9271C67.1916 24.6718 66.6082 19.541 59.5516 19.541ZM53.6941 28.6539C53.94 24.0234 55.719 22.0333 59.5516 22.0333C63.6068 22.0333 64.5187 24.2618 64.6031 28.6539H53.6941Z" fill="#000736"/>
<path d="M77.4615 19.541C69.834 19.541 68.9508 25.4646 68.9508 29.9199C68.9508 34.3752 69.834 40.2952 77.4615 40.2952C79.3284 40.2952 81.4107 39.9918 82.9115 39.5042L83.4177 39.3381V36.826L82.495 37.077C81.1738 37.4382 79.8023 37.7994 77.4687 37.7994C73.3399 37.7994 71.586 35.4408 71.586 29.9145C71.586 24.3882 73.3453 22.0278 77.4687 22.0278C79.8149 22.0278 81.181 22.3999 82.495 22.7502L83.4177 23.0012V20.5036L82.9115 20.3374C81.4179 19.8498 79.3284 19.541 77.4615 19.541Z" fill="#000736"/>
<path d="M100.581 19.541H97.9115V36.5713C96.4216 37.393 94.4577 37.8084 92.0648 37.8084C88.9018 37.8084 87.8337 36.9433 87.8337 34.3771V19.541H85.1698V34.2669C85.1698 38.4369 87.297 40.2952 92.0648 40.2952C93.8707 40.2952 96.4575 39.8726 98.3567 38.957L98.766 40.1074H100.581V19.541Z" fill="#000736"/>
<path d="M113.337 19.7559L112.709 19.6656C112.089 19.5817 111.465 19.5413 110.84 19.5446C109.032 19.5446 106.446 19.9672 104.557 20.8847L104.137 19.541H102.328V40.111H104.993V23.274C106.481 22.4522 108.447 22.0369 110.84 22.0369C111.396 22.0333 111.951 22.0689 112.502 22.1434L113.337 22.2626V19.7559Z" fill="#000736"/>
<path d="M26.7062 28.5711C30.7309 28.553 30.7309 22.3965 26.7062 22.3784C22.6816 22.3874 22.6816 28.544 26.7062 28.5711Z" fill="url(#paint2_linear_1620_278)"/>
<path d="M15.0505 16.8323C19.0752 16.8143 19.0752 10.6577 15.0505 10.6396C11.0258 10.6487 11.0258 16.8052 15.0505 16.8323Z" fill="url(#paint3_linear_1620_278)"/>
<path d="M15.0505 40.2993C19.0752 40.2812 19.0752 34.1247 15.0505 34.1084C11.0258 34.1265 11.0258 40.283 15.0505 40.2993Z" fill="url(#paint4_linear_1620_278)"/>
<path d="M5.41793 27.7728C5.3613 27.8373 5.29675 27.8944 5.22586 27.9426C0.73805 30.9224 -2.11799 22.7992 3.39483 22.3693C4.75553 22.2844 5.47717 23.3446 6.47346 24.0128C8.39784 25.2661 11.2036 24.9374 12.83 23.303C13.1695 22.9512 13.5794 22.676 14.0327 22.4957C17.5637 21.1575 20.2187 26.803 16.0361 28.4555C14.2284 29.0966 13.1944 27.9137 11.9073 26.9204C9.90215 25.6201 7.01559 26.0192 5.41793 27.7728Z" fill="url(#paint5_linear_1620_278)"/>
<path d="M11.5608 17.609C11.4244 17.4844 11.2951 17.3526 11.1713 17.2153C11.313 17.3341 11.4434 17.4659 11.5608 17.609Z" fill="url(#paint6_linear_1620_278)"/>
<path d="M11.2772 21.8618C11.3367 21.7985 11.3999 21.7371 11.4576 21.6812C11.4005 21.7443 11.3403 21.8046 11.2772 21.8618Z" fill="url(#paint7_linear_1620_278)"/>
<path d="M11.4997 29.2935C11.4082 29.2068 11.3202 29.1129 11.2358 29.0244C11.3291 29.1086 11.4173 29.1985 11.4997 29.2935V29.2935Z" fill="url(#paint8_linear_1620_278)"/>
<path d="M11.2 33.6854C11.3059 33.568 11.4172 33.4542 11.5338 33.3477C11.4303 33.4677 11.3188 33.5806 11.2 33.6854V33.6854Z" fill="url(#paint9_linear_1620_278)"/>
<path d="M18.5151 17.6305C18.6458 17.4689 18.7919 17.3207 18.9514 17.188C18.8146 17.3439 18.669 17.4916 18.5151 17.6305V17.6305Z" fill="url(#paint10_linear_1620_278)"/>
<path d="M18.8302 21.8693C18.7598 21.8042 18.6931 21.7374 18.6282 21.667C18.6967 21.732 18.7653 21.7988 18.8302 21.8693Z" fill="url(#paint11_linear_1620_278)"/>
<path d="M18.9351 33.7234C18.7871 33.6002 18.6513 33.4629 18.5294 33.3135C18.6726 33.4419 18.8081 33.5788 18.9351 33.7234Z" fill="url(#paint12_linear_1620_278)"/>
<path d="M9.19125 22.6816C5.19351 22.6816 5.14684 16.5088 9.19125 16.489C10.5627 16.4059 11.2879 17.4696 12.2807 18.1595C14.345 19.5284 17.3698 19.0787 18.9495 17.1879C20.829 15.53 24.0656 17.0253 23.9759 19.5826C24.01 21.6775 21.8487 23.1945 19.9351 22.5227C19.0375 22.2717 18.5367 21.4391 17.7486 20.9931C16.1797 19.9853 13.8945 19.9817 12.313 21.0111C11.3274 21.6902 10.5304 22.7683 9.19125 22.6816Z" fill="url(#paint13_linear_1620_278)"/>
<path d="M11.2844 33.5881C7.60797 36.8389 3.55099 30.229 8.21472 28.4014C8.72837 28.2304 9.27758 28.1978 9.80765 28.3068C10.3377 28.4158 10.8302 28.6626 11.2359 29.0226C12.4261 30.3807 14.3917 30.9442 16.142 30.5866C16.901 30.4243 17.6021 30.0579 18.1705 29.5265C22.9886 25.1109 27.0204 33.4996 20.9045 34.4405C19.5204 34.5254 18.797 33.4364 17.7899 32.7538C15.8135 31.4607 12.8892 31.8219 11.2844 33.5881Z" fill="url(#paint14_linear_1620_278)"/>
</g>
</g>
<defs>
<linearGradient id="paint0_linear_1620_278" x1="124.268" y1="40.8951" x2="124.268" y2="-6.67593" gradientUnits="userSpaceOnUse">
<stop stop-color="#0076EB"/>
<stop offset="1" stop-color="#00E7EA"/>
</linearGradient>
<linearGradient id="paint1_linear_1620_278" x1="145.918" y1="42.609" x2="145.918" y2="-4.96211" gradientUnits="userSpaceOnUse">
<stop stop-color="#0076EB"/>
<stop offset="1" stop-color="#00E7EA"/>
</linearGradient>
<linearGradient id="paint2_linear_1620_278" x1="36.5561" y1="39.4557" x2="0.0700556" y2="-11.7457" gradientUnits="userSpaceOnUse">
<stop stop-color="#0076EB"/>
<stop offset="1" stop-color="#00E7EA"/>
</linearGradient>
<linearGradient id="paint3_linear_1620_278" x1="34.2978" y1="41.0648" x2="-2.1882" y2="-10.1366" gradientUnits="userSpaceOnUse">
<stop stop-color="#0076EB"/>
<stop offset="1" stop-color="#00E7EA"/>
</linearGradient>
<linearGradient id="paint4_linear_1620_278" x1="23.2901" y1="48.9083" x2="-13.196" y2="-2.29309" gradientUnits="userSpaceOnUse">
<stop stop-color="#0076EB"/>
<stop offset="1" stop-color="#00E7EA"/>
</linearGradient>
<linearGradient id="paint5_linear_1620_278" x1="24.9399" y1="47.7324" x2="-11.548" y2="-3.46898" gradientUnits="userSpaceOnUse">
<stop stop-color="#0076EB"/>
<stop offset="1" stop-color="#00E7EA"/>
</linearGradient>
<linearGradient id="paint6_linear_1620_278" x1="30.1177" y1="44.0432" x2="-6.36809" y2="-7.15967" gradientUnits="userSpaceOnUse">
<stop stop-color="#0076EB"/>
<stop offset="1" stop-color="#00E7EA"/>
</linearGradient>
<linearGradient id="paint7_linear_1620_278" x1="28.1566" y1="45.4986" x2="-8.27263" y2="-5.86794" gradientUnits="userSpaceOnUse">
<stop stop-color="#0076EB"/>
<stop offset="1" stop-color="#00E7EA"/>
</linearGradient>
<linearGradient id="paint8_linear_1620_278" x1="24.6114" y1="47.9672" x2="-11.8744" y2="-3.23448" gradientUnits="userSpaceOnUse">
<stop stop-color="#0076EB"/>
<stop offset="1" stop-color="#00E7EA"/>
</linearGradient>
<linearGradient id="paint9_linear_1620_278" x1="22.5667" y1="49.4243" x2="-13.921" y2="-1.77697" gradientUnits="userSpaceOnUse">
<stop stop-color="#0076EB"/>
<stop offset="1" stop-color="#00E7EA"/>
</linearGradient>
<linearGradient id="paint10_linear_1620_278" x1="35.025" y1="40.5466" x2="-1.46319" y2="-10.6552" gradientUnits="userSpaceOnUse">
<stop stop-color="#0076EB"/>
<stop offset="1" stop-color="#00E7EA"/>
</linearGradient>
<linearGradient id="paint11_linear_1620_278" x1="33.0467" y1="42.006" x2="-3.38468" y2="-9.3591" gradientUnits="userSpaceOnUse">
<stop stop-color="#0076EB"/>
<stop offset="1" stop-color="#00E7EA"/>
</linearGradient>
<linearGradient id="paint12_linear_1620_278" x1="27.4707" y1="45.9302" x2="-9.01832" y2="-5.27041" gradientUnits="userSpaceOnUse">
<stop stop-color="#0076EB"/>
<stop offset="1" stop-color="#00E7EA"/>
</linearGradient>
<linearGradient id="paint13_linear_1620_278" x1="31.5531" y1="43.0205" x2="-4.9348" y2="-8.18089" gradientUnits="userSpaceOnUse">
<stop stop-color="#0076EB"/>
<stop offset="1" stop-color="#00E7EA"/>
</linearGradient>
<linearGradient id="paint14_linear_1620_278" x1="26.0583" y1="46.9361" x2="-10.4278" y2="-4.26536" gradientUnits="userSpaceOnUse">
<stop stop-color="#0076EB"/>
<stop offset="1" stop-color="#00E7EA"/>
</linearGradient>
<clipPath id="clip0_1620_278">
<rect width="160" height="52" fill="white"/>
</clipPath>
<clipPath id="clip1_1620_278">
<rect width="215" height="89" fill="white" transform="translate(-29 -19)"/>
</clipPath>
</defs>
</svg>
