<svg width="160" height="52" viewBox="0 0 160 52" fill="none" xmlns="http://www.w3.org/2000/svg">
<path d="M28.469 17.5517C30.2265 18.5443 31.7486 19.9433 33.038 21.6368L40.0654 13.2921C38.015 11.075 35.4389 9.32431 32.3344 7.9826C29.2326 6.64089 26.1858 6 23.0814 6C18.923 6 15.115 6.93268 11.7778 8.74334C8.43804 10.5514 5.80177 13.0603 3.86903 16.2699C1.93629 19.477 1 23.0957 1 27.0635C1 31.0886 1.93629 34.7647 3.8115 38.0317C5.6867 41.2987 8.26281 43.8674 11.6026 45.6755C14.8822 47.5435 18.5725 48.4761 22.6734 48.4761C25.7778 48.4761 28.8822 47.7753 32.0441 46.3164C35.1486 44.8574 37.8424 42.9322 40.068 40.5405L33.0406 33.0713C31.6335 34.5302 30.0539 35.6974 28.2964 36.5727C26.4813 37.4481 24.8415 37.8571 23.2592 37.8571C21.4441 37.8571 19.7442 37.3908 18.2796 36.3982C16.815 35.4655 15.6433 34.1811 14.7646 32.4903C13.8858 30.8542 13.4752 28.9888 13.4752 26.9463C13.4752 24.9038 13.8858 23.0384 14.7646 21.345C15.6433 19.7115 16.815 18.4271 18.2796 17.4944C19.7442 16.5617 21.4415 16.0954 23.2592 16.0954C24.9566 16.0928 26.6539 16.5617 28.469 17.5517Z" fill="#C01616"/>
<path fill-rule="evenodd" clip-rule="evenodd" d="M35.7501 28.9263L35.6716 29.3379C35.6219 29.6037 35.5592 30.354 35.6612 30.6458L36.1895 31.0887L36.0822 31.8624C35.9645 32.7143 35.227 33.1755 34.4529 33.3657C33.3047 33.6496 31.6989 33.548 30.4985 33.4412C30.5272 33.5324 30.5534 33.6288 30.5795 33.7252L30.7966 34.5302C31.8061 35.6557 32.4757 36.9765 32.2691 38.3912C32.1331 39.3317 31.9788 40.2722 31.6361 41.1632C30.9431 42.9608 29.4 44.4927 28.0557 45.8318L24.7369 49.1379L25.6575 44.5526C25.7856 43.9143 25.7228 42.9634 25.6052 42.3356C25.2887 40.6447 24.389 39.2874 22.9741 38.2974C22.8224 38.1906 22.6707 38.089 22.5164 37.99C23.9836 40.5067 23.9941 43.3334 22.6707 46.1314L20.9551 49.7605L20.0057 45.8631C19.9063 45.4541 19.5297 44.8027 19.2786 44.4406C18.392 43.1718 17.1079 42.2496 15.7008 41.6295C13.9904 40.8766 12.3271 39.9257 11.0403 38.5527C9.71955 37.1459 9.03695 35.5541 8.80157 33.8919L8.09804 36.69L6.77991 30.9063C6.29607 28.7882 6.42684 26.0006 6.9656 23.9268C7.6822 21.1678 9.12587 19.0341 11.0874 17.4632L7.79205 17.7784L12.4604 14.6573C13.6713 13.8471 15.013 13.1749 16.4227 12.6851L13.9643 11.8592L19.242 10.838C21.9855 10.3065 24.9879 10.2544 27.619 11.3043C28.5605 11.6795 29.7714 12.3595 30.4435 13.1462L30.9562 13.7454L29.7688 17.4215L30.7548 18.388C30.7731 18.3932 30.7914 18.3958 30.8097 18.401L31.4374 18.5469L32.1017 19.7844L33.0798 21.4258L37.4919 25.094L36.6916 26.1673C36.5739 26.3236 36.4405 26.4565 36.2915 26.5685C36.485 27.2928 36.3751 28.0848 35.8155 28.8377C35.7945 28.869 35.7736 28.8976 35.7501 28.9263ZM29.3503 30.6171C29.3006 30.6015 29.2536 30.5832 29.2065 30.565C27.3627 29.872 26.565 28.2489 26.3453 26.4773C25.7647 26.42 25.171 26.308 24.6113 26.1282C24.6427 26.1543 24.6741 26.1803 24.7029 26.2064L26.361 27.5742L24.8755 28.3349C26.5938 29.0956 28.0897 29.7652 29.1725 30.9871C29.2222 30.862 29.2823 30.7369 29.3503 30.6171Z" fill="#213E67"/>
<path fill-rule="evenodd" clip-rule="evenodd" d="M8.16343 30.5934C8.16343 30.5934 5.45655 18.7316 17.7382 15.9336L16.7575 15.4959L13.2503 15.832C17.3407 13.099 21.18 13.1303 22.5897 13.2606L19.5088 12.2263C26.6121 10.8507 29.3556 14.063 29.3556 14.063L28.142 17.8198L30.0356 19.6747C30.1794 19.7086 30.3285 19.7451 30.4802 19.7789L30.8568 20.4771L31.9761 22.3555L35.5435 25.3229C35.5435 25.3229 35.1172 25.8987 33.7127 25.5991C33.7127 25.5991 35.669 26.649 34.6647 27.9959C33.663 29.3454 27.4961 31.4922 27.6948 25.0989C27.6948 25.0989 23.6332 25.2995 23.1337 23.1006C23.1337 23.1006 22.5321 21.7511 23.5338 20.1046C23.5338 20.1046 20.8766 21.9517 21.9306 24.8983C21.9306 24.8983 22.3308 26.0967 23.7849 27.2951C23.7849 27.2951 22.03 28.1939 20.2254 25.448C20.2254 25.448 20.4268 27.8943 23.5338 29.2933C26.6435 30.6924 28.448 31.2916 29.1986 34.087C29.1986 34.087 27.7184 33.0136 26.2904 32.9381C26.2904 32.9381 31.2543 35.4365 30.8515 38.1825C30.4514 40.9284 30.1506 41.7282 27.041 44.8259C27.041 44.8259 27.993 40.0817 23.7823 37.1352C19.5716 34.1886 14.5579 34.0375 14.4063 29.3428C14.4063 29.3428 13.2529 32.2894 15.1072 34.4882C16.9614 36.6871 17.6153 36.8356 17.6153 36.8356L17.1131 34.8868C17.1131 34.8868 24.6846 38.5316 21.3735 45.5241C21.3735 45.5241 20.5706 42.2284 16.2605 40.3292C11.9504 38.43 8.03789 35.2359 11.3463 26.9434L12.1492 28.0168C12.1492 28.0168 12.9757 23.1475 16.6868 20.3495C16.6868 20.3495 14.0793 20.6491 12.2251 23.5461L11.9504 22.6734C11.9635 22.6786 9.45541 25.4506 8.16343 30.5934ZM34.275 29.0719C34.275 29.0719 33.8984 31.0206 34.6752 31.6693C34.6752 31.6693 34.5758 32.3936 30.488 32.0184C30.488 32.0184 29.7113 30.82 34.275 29.0719ZM19.1322 20.3547C19.1322 20.3547 14.8195 24.1505 15.8238 28.345C16.8281 32.5395 24.6479 32.5864 27.1534 37.2368C27.1534 37.2368 27.3548 33.5399 22.54 31.5443C22.54 31.5443 17.8768 29.546 17.7277 28.3476C17.7277 28.3476 18.8314 28.8478 19.7834 29.0458C19.7834 29.0458 15.7584 26.3885 18.923 20.5501L19.1322 20.3547ZM26.327 21.0321L30.012 20.9565L30.4697 22.4519C30.4697 22.4519 29.1856 21.7798 26.327 21.0321Z" fill="white"/>
<path d="M48.6987 36.7003L49.8625 21.9103H44.1637L44.3624 19.292H58.9587L58.7625 21.9103H53.0611L51.8972 36.7003H48.6987Z" fill="#213E67"/>
<path d="M63.4701 24.3306C65.089 24.3306 66.3705 24.8125 67.3121 25.7739C68.2536 26.7378 68.7243 28.1395 68.7243 29.984C68.7243 30.3617 68.7008 30.7734 68.6511 31.2189H60.3736C60.4232 32.3053 60.7292 33.1285 61.2915 33.6887C61.8538 34.2488 62.662 34.5276 63.7212 34.5276C65.0759 34.5276 66.3078 34.1081 67.4141 33.2692L68.1333 35.3691C67.6207 35.8302 66.9433 36.2001 66.1012 36.4789C65.259 36.7577 64.3986 36.8983 63.5224 36.8983C62.2828 36.8983 61.2 36.656 60.2768 36.1689C59.3509 35.6843 58.637 34.9965 58.1322 34.1081C57.6274 33.2197 57.3764 32.1828 57.3764 30.9974C57.3764 29.6974 57.6379 28.5407 58.1584 27.5298C58.6788 26.5164 59.4006 25.7322 60.3265 25.1721C61.2497 24.6093 62.2984 24.3306 63.4701 24.3306ZM63.5957 26.5034C62.7352 26.5034 62.0421 26.7587 61.5138 27.2693C60.9855 27.7799 60.6377 28.5459 60.4729 29.5645H66.1221C66.1378 28.5433 65.9207 27.7799 65.4656 27.2693C65.0106 26.7587 64.3881 26.5034 63.5957 26.5034Z" fill="#213E67"/>
<path d="M79.5074 24.3047V26.8969L77.5485 27.0949C76.4736 27.1939 75.6943 27.4857 75.2052 27.9703C74.7187 28.4549 74.4337 29.1922 74.35 30.1795L73.8295 36.6979H70.7303L71.6719 24.6486H74.6455L74.4964 26.4019C75.3569 25.1827 76.7613 24.5001 78.7098 24.3516L79.5074 24.3047Z" fill="#213E67"/>
<path d="M88.9985 24.3047V26.8969L87.0396 27.0949C85.9647 27.1939 85.1853 27.4857 84.6963 27.9703C84.2098 28.4549 83.9247 29.1922 83.841 30.1795L83.3206 36.6979H80.2214L81.1629 24.6486H84.1366L83.9875 26.4019C84.8479 25.1827 86.2524 24.5001 88.2008 24.3516L88.9985 24.3047Z" fill="#213E67"/>
<path d="M95.7906 24.3306C97.3781 24.3306 98.5576 24.6979 99.3343 25.43C100.111 26.1621 100.498 27.2693 100.498 28.7517C100.498 29.08 100.49 29.3353 100.475 29.5176L99.9045 36.7029H96.9544L97.1035 34.9757C96.7556 35.6009 96.2849 36.0777 95.6912 36.4085C95.0975 36.7368 94.428 36.9035 93.6826 36.9035C92.8718 36.9035 92.15 36.7524 91.5145 36.4476C90.8789 36.1428 90.382 35.7234 90.0263 35.1893C89.6706 34.6552 89.4928 34.0508 89.4928 33.3734C89.4928 32.4512 89.7282 31.7139 90.1989 31.1642C90.6697 30.6118 91.4255 30.2106 92.4665 29.9553C93.5074 29.7 94.8961 29.5723 96.6301 29.5723H97.5219L97.5454 29.1034C97.6108 28.2801 97.4618 27.6705 97.0982 27.2771C96.7347 26.8811 96.1227 26.6857 95.2649 26.6857C94.6529 26.6857 93.9964 26.7977 93.2955 27.0192C92.592 27.2406 91.912 27.5507 91.2503 27.9441L90.5572 25.8208C91.2006 25.3753 92.0035 25.0184 92.9607 24.7474C93.9232 24.466 94.8647 24.3306 95.7906 24.3306ZM94.4777 34.6734C95.2544 34.6734 95.9109 34.4025 96.447 33.858C96.9832 33.3161 97.2865 32.6075 97.3519 31.7347L97.4016 31.1928H96.7085C95.6179 31.1928 94.7706 31.2553 94.169 31.3778C93.5649 31.5002 93.1412 31.6956 92.8927 31.9588C92.6443 32.2219 92.5214 32.584 92.5214 33.0452C92.5214 33.5402 92.6992 33.9336 93.0549 34.2306C93.408 34.5276 93.8814 34.6734 94.4777 34.6734Z" fill="#213E67"/>
<path d="M111.603 36.9217C109.919 36.9217 108.454 36.583 107.217 35.9083C105.977 35.2335 105.023 34.267 104.353 33.006C103.684 31.7477 103.349 30.2705 103.349 28.5745C103.349 26.6648 103.726 24.9948 104.476 23.5619C105.227 22.1291 106.289 21.0218 107.662 20.2402C109.032 19.4587 110.635 19.0679 112.469 19.0679C113.659 19.0679 114.773 19.2372 115.814 19.5733C116.855 19.912 117.762 20.4096 118.539 21.0661L117.1 23.8068C116.358 23.2311 115.631 22.8116 114.919 22.5485C114.208 22.2854 113.442 22.1525 112.615 22.1525C110.931 22.1525 109.62 22.7257 108.687 23.8694C107.753 25.0131 107.288 26.5814 107.288 28.5719C107.288 30.2835 107.667 31.5887 108.428 32.485C109.189 33.3812 110.295 33.8293 111.749 33.8293C113.204 33.8293 114.765 33.277 116.433 32.1749L117.451 34.9157C116.807 35.5253 115.96 36.0099 114.911 36.372C113.863 36.7393 112.759 36.9217 111.603 36.9217Z" fill="#213E67"/>
<path d="M125.781 24.2812C127.449 24.2812 128.694 24.6642 129.51 25.4302C130.329 26.1961 130.737 27.3529 130.737 28.8978C130.737 29.2599 130.729 29.5308 130.713 29.7132L130.169 36.7005H126.625L126.748 35.0462C126.435 35.6376 125.998 36.0961 125.435 36.4165C124.873 36.737 124.222 36.8985 123.477 36.8985C122.666 36.8985 121.939 36.7422 121.295 36.4296C120.652 36.1169 120.147 35.6897 119.784 35.1452C119.42 34.6033 119.24 33.9937 119.24 33.3189C119.24 32.3966 119.475 31.6567 119.946 31.0966C120.417 30.5365 121.165 30.1301 122.19 29.8747C123.215 29.6194 124.578 29.4918 126.28 29.4918H127.172L127.196 29.1713C127.245 28.4471 127.101 27.9156 126.761 27.5795C126.421 27.2408 125.864 27.0741 125.088 27.0741C124.476 27.0741 123.819 27.1809 123.118 27.3945C122.417 27.6082 121.75 27.9052 121.123 28.2829L120.304 25.7897C120.982 25.3442 121.824 24.9821 122.833 24.7033C123.84 24.4193 124.821 24.2812 125.781 24.2812ZM124.517 34.3297C125.195 34.3297 125.76 34.0874 126.215 33.6003C126.67 33.1157 126.929 32.4852 126.997 31.7115L127.02 31.292H126.351C125.061 31.292 124.162 31.4145 123.649 31.6619C123.137 31.9094 122.88 32.3289 122.88 32.9203C122.88 33.3476 123.029 33.6888 123.328 33.9442C123.623 34.2021 124.021 34.3297 124.517 34.3297Z" fill="#213E67"/>
<path d="M137.877 36.8958C135.811 36.8958 133.935 36.4008 132.251 35.4134L133.465 32.8446C134.142 33.2901 134.869 33.634 135.646 33.8815C136.423 34.129 137.191 34.2514 137.95 34.2514C138.593 34.2514 139.069 34.1602 139.375 33.9805C139.681 33.7981 139.833 33.561 139.833 33.264C139.833 32.9175 139.647 32.6544 139.276 32.4746C138.905 32.2949 138.306 32.0786 137.479 31.8337C136.603 31.6045 135.881 31.3648 135.311 31.1173C134.741 30.8698 134.249 30.5077 133.836 30.0309C133.423 29.5541 133.216 28.9367 133.216 28.1786C133.216 27.4204 133.444 26.7457 133.899 26.1543C134.354 25.5629 134.984 25.1017 135.795 24.7709C136.606 24.4426 137.529 24.2759 138.57 24.2759C139.496 24.2759 140.395 24.4114 141.271 24.6823C142.148 24.9532 142.882 25.3206 143.476 25.7817L142.286 28.2515C141.692 27.806 141.073 27.4725 140.427 27.2511C139.783 27.0296 139.137 26.9176 138.494 26.9176C137.866 26.9176 137.388 27.0088 137.055 27.1886C136.726 27.3683 136.559 27.6236 136.559 27.9545C136.559 28.301 136.744 28.5667 137.116 28.7569C137.487 28.9471 138.086 29.1555 138.912 29.3874C139.788 29.6167 140.51 29.8563 141.08 30.1038C141.651 30.3513 142.142 30.7135 142.556 31.1902C142.969 31.667 143.175 32.2844 143.175 33.0426C143.175 34.2436 142.699 35.1867 141.75 35.8693C140.803 36.5545 139.511 36.8958 137.877 36.8958Z" fill="#213E67"/>
<path d="M153.464 24.2809C154.819 24.2809 155.844 24.6561 156.537 25.4038C157.23 26.1515 157.578 27.2509 157.578 28.6994C157.578 29.0459 157.57 29.3091 157.555 29.4888L156.984 36.6976H153.242L153.812 29.6373C153.877 28.8297 153.749 28.2227 153.428 27.811C153.106 27.3994 152.606 27.1936 151.929 27.1936C151.152 27.1936 150.54 27.4359 150.096 27.9231C149.648 28.4076 149.392 29.072 149.327 29.9109L148.783 36.7002H145.04L146.403 19.2944H150.145L149.625 25.9118C150.054 25.4012 150.6 25.0026 151.259 24.7134C151.921 24.4242 152.656 24.2809 153.464 24.2809Z" fill="#213E67"/>
</svg>
