<svg width="160" height="52" viewBox="0 0 160 52" fill="none" xmlns="http://www.w3.org/2000/svg">
<path d="M15.0446 33.3141C14.0529 33.466 13.188 33.6551 12.3165 33.7158C11.3915 33.7833 10.6636 33.3546 10.6235 32.3589C10.5534 30.4821 10.6035 28.602 10.6035 26.6139C12.3332 26.6139 15.6356 26.6139 17.2952 26.6139C17.2952 24.3524 17.3319 22.2022 17.3319 19.944C15.6056 19.944 12.2731 19.944 10.5233 19.944C10.5233 17.9255 10.5267 14.3712 10.5267 12.4236C7.93214 12.4337 6.98047 12.3763 3.56115 12.4269C3.50772 14.4995 3.61124 18.0065 3.50438 20.0082C2.58945 20.0082 1.82144 20.0082 1 20.0082C1 22.236 1 24.3895 1 26.6679C1.77469 26.6679 2.49261 26.6679 3.29736 26.6679C3.29736 28.997 3.22723 31.2079 3.31405 33.412C3.43092 36.3419 4.41932 38.833 7.36448 39.9671C10.3096 41.1013 13.2348 40.6456 16.1899 39.6802C15.7992 37.5199 15.4319 35.4609 15.0446 33.3141Z" fill="#FFBE12"/>
<path fill-rule="evenodd" clip-rule="evenodd" d="M40.7963 20.0383C39.3839 22.121 37.9814 24.3285 36.5689 26.4044C35.9512 27.3158 35.3702 28.2643 34.6923 29.125C34.1614 29.7967 34.1647 30.249 34.7324 30.9477C37.003 33.7257 39.1935 36.5712 41.4107 39.3931C41.5577 39.5821 41.6846 39.788 41.9484 40.1728C40.9266 40.1728 40.0684 40.1728 39.2069 40.1728C37.4772 40.1728 35.7442 40.2234 34.0178 40.139C33.5403 40.1154 32.9426 39.8184 32.6421 39.4471C31.076 37.5163 29.5867 35.5214 28.0707 33.5502C27.8837 33.3072 27.6734 33.0776 27.4763 32.8413C27.3995 32.8684 27.3227 32.8954 27.2426 32.9224C27.2426 35.2987 27.2426 37.6783 27.2426 40.112C24.8417 40.112 22.5243 40.112 20.1235 40.112C20.1235 30.0836 20.1235 22.5226 20.1235 12.4233C23.3291 12.4233 25.2024 12.4233 27.256 12.4233C27.256 18.0333 27.256 21.1961 27.256 26.8094C27.3328 26.8331 27.4096 26.8601 27.4864 26.8837C28.3813 25.5437 31.8407 19.9944 31.8407 19.9944L40.7963 20.0383Z" fill="#FFBE12"/>
<path d="M132.246 13.6185L135.88 10C135.88 10 138.067 12.5316 135.783 14.2936C134.577 15.1577 132.36 14.2632 132.393 13.8784C132.427 13.4936 132.246 13.6185 132.246 13.6185Z" fill="#FFBE12"/>
<path d="M63.8935 20.5179V40.3283H58.6743L58.0967 38.9275C56.4938 40.2405 54.4603 41 52.183 41C46.1891 41 41.905 36.5816 41.905 30.4248C41.905 24.2882 46.1891 19.9204 52.183 19.9204C54.4903 19.9204 56.5506 20.7001 58.1701 22.0503L58.8613 20.5179H63.8935ZM57.4722 30.4383C57.4722 27.8662 55.6123 25.9354 53.0845 25.9354C50.5401 25.9354 48.6969 27.8662 48.6969 30.4383C48.6969 33.0239 50.5534 34.958 53.0845 34.958C55.6156 34.958 57.4722 33.0272 57.4722 30.4383Z" fill="url(#paint0_linear)"/>
<path d="M98.2136 27.9235V40.3484H91.4617V28.7673C91.4617 26.6982 90.7071 25.699 89.2746 25.699C87.418 25.699 86.4697 26.9918 86.4697 29.4863V40.3484H79.8948V28.7673C79.8948 26.7623 79.1468 25.699 77.7344 25.699C75.9045 25.699 74.8994 27.0222 74.8994 29.4863V40.3484H68.1509V20.5346H72.8992L73.8609 22.6645C75.2767 20.9971 77.3337 19.9507 79.591 19.9507C81.9818 19.9507 83.992 21.0342 85.2108 22.8671C86.6199 21.0747 88.7904 19.9507 91.228 19.9507C95.4253 19.9541 98.2136 23.2586 98.2136 27.9235Z" fill="url(#paint1_linear)"/>
<path d="M113.774 19.9205C119.808 19.9205 124.072 24.3019 124.072 30.4587C124.072 36.6154 119.808 41.0001 113.774 41.0001C111.487 41.0001 108.916 39.7006 107.323 38.3572L107.226 40.3521H102.231V13.3823H108.906V21.2842C110.308 20.41 111.961 19.9205 113.774 19.9205ZM117.26 30.4587C117.26 27.8697 115.4 25.9389 112.873 25.9389C110.345 25.9389 108.485 27.8697 108.485 30.4587C108.485 33.024 110.345 34.9547 112.873 34.9547C115.384 34.9581 117.26 33.024 117.26 30.4587Z" fill="url(#paint2_linear)"/>
<path d="M133.916 20.5381H127.164V40.3519H133.916V20.5381Z" fill="url(#paint3_linear)"/>
<path d="M137.022 30.4451C137.022 24.3052 141.62 19.8901 148.011 19.8901C154.379 19.8901 159 24.3052 159 30.4451C159 36.5648 154.382 41.0001 148.011 41.0001C141.62 41.0001 137.022 36.5648 137.022 30.4451ZM148.011 34.8703C150.472 34.8703 152.238 33.0645 152.238 30.4451C152.238 27.8393 150.472 26.0199 148.011 26.0199C145.55 26.0199 143.783 27.8258 143.783 30.4451C143.783 33.0645 145.55 34.8703 148.011 34.8703Z" fill="url(#paint4_linear)"/>
<path d="M132.49 13.4024C134.217 14.8876 136.046 14.0674 136.046 14.0674C136.046 14.0674 136.046 14.0674 132.971 17.3044C131.101 19.2588 128.82 17.2707 128.82 17.2707L127.014 15.5087L130.72 11.627L132.49 13.4024Z" fill="url(#paint5_linear)"/>
<defs>
<linearGradient id="paint0_linear" x1="29.6869" y1="26.3125" x2="165.387" y2="26.3125" gradientUnits="userSpaceOnUse">
<stop offset="0.0349" stop-color="#3DACF0"/>
<stop offset="0.9779" stop-color="#4562E6"/>
</linearGradient>
<linearGradient id="paint1_linear" x1="29.6869" y1="26.3124" x2="165.387" y2="26.3124" gradientUnits="userSpaceOnUse">
<stop offset="0.0349" stop-color="#3DACF0"/>
<stop offset="0.9779" stop-color="#4562E6"/>
</linearGradient>
<linearGradient id="paint2_linear" x1="29.6869" y1="26.3127" x2="165.387" y2="26.3127" gradientUnits="userSpaceOnUse">
<stop offset="0.0349" stop-color="#3DACF0"/>
<stop offset="0.9779" stop-color="#4562E6"/>
</linearGradient>
<linearGradient id="paint3_linear" x1="29.6871" y1="26.3125" x2="165.386" y2="26.3125" gradientUnits="userSpaceOnUse">
<stop offset="0.0349" stop-color="#3DACF0"/>
<stop offset="0.9779" stop-color="#4562E6"/>
</linearGradient>
<linearGradient id="paint4_linear" x1="29.6869" y1="26.3126" x2="165.387" y2="26.3126" gradientUnits="userSpaceOnUse">
<stop offset="0.0349" stop-color="#3DACF0"/>
<stop offset="0.9779" stop-color="#4562E6"/>
</linearGradient>
<linearGradient id="paint5_linear" x1="29.6868" y1="26.3125" x2="165.387" y2="26.3125" gradientUnits="userSpaceOnUse">
<stop offset="0.0349" stop-color="#3DACF0"/>
<stop offset="0.9779" stop-color="#4562E6"/>
</linearGradient>
</defs>
</svg>
