<svg width="160" height="52" viewBox="0 0 160 52" fill="none" xmlns="http://www.w3.org/2000/svg">
<path d="M20.0625 28.4097C20.0625 26.7965 19.7253 25.2677 19.1236 23.898C19.7253 22.5277 20.0625 21.0001 20.0625 19.3875C20.0625 14.3726 16.8116 10.1688 12.4375 9.05036V9.04794C12.4375 7.67701 11.396 6.56641 10.1131 6.56641C8.83195 6.56641 7.79325 7.67701 7.79325 9.04734V9.05036C3.41967 10.1688 0.167114 14.372 0.167114 19.3875C0.167114 21.0001 0.506016 22.5283 1.10657 23.898C0.505452 25.2671 0.167678 26.7965 0.167678 28.4097C0.167678 33.4258 3.4208 37.6266 7.79607 38.7444V38.7487C7.79607 40.1178 8.83308 41.2296 10.1137 41.2296C11.3971 41.2296 12.4375 40.1184 12.4375 38.7487V38.7444C16.8111 37.626 20.0625 33.4258 20.0625 28.4097ZM10.1131 34.9782C6.71903 34.9782 3.96609 32.0362 3.96609 28.4091C3.96609 28.1928 3.97567 27.9789 3.99541 27.7692C5.19651 28.7707 6.61922 29.4836 8.16711 29.8126C8.58947 30.4785 9.30337 30.916 10.1126 30.916C10.9268 30.916 11.6385 30.4779 12.0597 29.8126C12.3151 29.4101 12.4629 28.9292 12.4629 28.4085C12.4629 27.1756 11.6311 26.1506 10.5344 25.9384C10.399 25.9125 10.2569 25.8981 10.1126 25.8981C9.97271 25.8981 9.83061 25.9125 9.69471 25.9384C8.10058 25.8239 6.67786 25.0622 5.64819 23.8974C4.73411 22.8657 4.12905 21.5201 3.99484 20.0269C3.97511 19.8159 3.96327 19.6032 3.96327 19.3869C3.96327 15.758 6.71846 12.8173 10.1126 12.8173C13.5106 12.8173 16.2619 15.758 16.2619 19.3869C16.2619 19.6032 16.2506 19.8159 16.2325 20.0269C15.0309 19.0235 13.611 18.3118 12.0625 17.9822C11.639 17.3151 10.9274 16.8776 10.1131 16.8776C9.30337 16.8776 8.59229 17.3151 8.16993 17.9822C7.91505 18.3835 7.76731 18.8656 7.76731 19.3863C7.76731 20.618 8.59962 21.6424 9.69584 21.854C9.83174 21.8811 9.97384 21.8961 10.1137 21.8961C10.258 21.8961 10.4001 21.8811 10.5355 21.854C12.1268 21.9709 13.5523 22.7332 14.5848 23.8974C15.4933 24.9279 16.0994 26.2729 16.2337 27.7692C16.254 27.9783 16.2664 28.1928 16.2664 28.4091C16.2652 32.0362 13.5112 34.9782 10.1131 34.9782Z" fill="#EFC52E"/>
<path d="M32.0705 16.0282L35.9349 15.3906L34.9892 19.5191H39.1249L38.3805 22.7677H34.2674L33.1684 27.6682C33.0697 28.0749 33.0066 28.4582 32.9812 28.8137C32.9569 29.1662 32.9958 29.473 33.1075 29.7321C33.2152 29.9888 33.4013 30.1877 33.6658 30.3311C33.9325 30.4733 34.2985 30.5438 34.7625 30.5438C35.1646 30.5438 35.5497 30.5052 35.923 30.4233C36.2997 30.3461 36.6719 30.2347 37.057 30.09L37.3305 33.126C36.8326 33.3236 36.2924 33.4899 35.7116 33.6352C35.1308 33.775 34.4406 33.8443 33.6449 33.8443C32.4962 33.8443 31.6081 33.6647 30.9748 33.2995C30.3427 32.9343 29.895 32.4366 29.6282 31.8081C29.3632 31.1783 29.2476 30.4552 29.2826 29.6381C29.3158 28.8209 29.4314 27.958 29.6282 27.0553L32.0705 16.0282Z" fill="#EFC52E"/>
<path d="M52.8564 19.5201L51.0886 27.4836C50.8523 28.493 50.7897 29.5102 50.8867 30.531C50.9876 31.5542 51.1805 32.4623 51.4619 33.2614L48.1484 33.7664C47.9646 33.3777 47.7886 32.942 47.6251 32.4623C47.1616 32.8522 46.6366 33.1819 46.053 33.4476C45.4721 33.7134 44.8254 33.8453 44.1137 33.8453C43.1275 33.8453 42.3352 33.6567 41.729 33.2747C41.1228 32.8926 40.6694 32.3882 40.3728 31.7585C40.0728 31.1264 39.9093 30.4038 39.889 29.5849C39.8625 28.769 39.9476 27.9319 40.1473 27.0811L41.8429 19.5195H45.555L43.8859 27.0298C43.7996 27.4197 43.7325 27.8186 43.6744 28.2278C43.6158 28.637 43.6107 29.0142 43.6615 29.3601C43.7105 29.7054 43.8368 29.9898 44.0477 30.2128C44.253 30.4346 44.5829 30.5448 45.0317 30.5448C45.4124 30.5448 45.7665 30.4677 46.0902 30.3189C46.4167 30.1688 46.7601 29.9085 47.1261 29.5337C47.161 29.0901 47.2112 28.6255 47.2868 28.1356C47.3657 27.6469 47.443 27.1968 47.5259 26.79L49.1437 19.5207H52.8564V19.5201Z" fill="#EFC52E"/>
<path d="M54.6004 27.9318C54.6004 26.7278 54.7831 25.59 55.1491 24.527C55.5139 23.4598 56.0384 22.5276 56.719 21.7291C57.4019 20.9295 58.2274 20.2991 59.2007 19.8375C60.1717 19.3777 61.2544 19.1445 62.4521 19.1445C63.2021 19.1445 63.8692 19.2205 64.4573 19.3723C65.0489 19.5206 65.5829 19.7206 66.0644 19.9707L64.7945 23.0585C64.4618 22.9157 64.1201 22.7897 63.7587 22.6722C63.4045 22.5589 62.9681 22.5011 62.4521 22.5011C61.2053 22.5011 60.2236 22.9506 59.5108 23.8455C58.7958 24.7404 58.44 25.9624 58.44 27.5075C58.44 28.4139 58.6221 29.1454 58.9881 29.7046C59.3569 30.2639 60.0274 30.5435 61.0068 30.5435C61.4895 30.5435 61.9548 30.4922 62.4014 30.382C62.8502 30.2753 63.25 30.1433 63.5991 29.9861L63.8726 33.151C63.4096 33.3486 62.897 33.5216 62.3399 33.6728C61.7805 33.8241 61.1072 33.9 60.3093 33.9C59.2796 33.9 58.4039 33.7397 57.6917 33.4179C56.9772 33.0997 56.3908 32.6689 55.925 32.1253C55.4604 31.5842 55.1232 30.9502 54.9145 30.2247C54.707 29.4961 54.6004 28.7344 54.6004 27.9318Z" fill="#1C3044"/>
<path d="M77.856 27.4813C77.6276 28.4919 77.5582 29.5091 77.6569 30.5299C77.755 31.5531 77.944 32.4613 78.227 33.2603L74.9147 33.7671C74.8126 33.552 74.7241 33.3489 74.6401 33.1513C74.5583 32.959 74.472 32.7373 74.3891 32.4896C73.9245 32.8976 73.4097 33.232 72.8435 33.499C72.2773 33.7671 71.6509 33.9003 70.9511 33.9003C70.1233 33.9003 69.4077 33.7448 68.8207 33.4333C68.2291 33.1241 67.7476 32.7065 67.3754 32.1817C66.9998 31.6586 66.7286 31.0463 66.5679 30.3461C66.3999 29.6459 66.3147 28.8914 66.3147 28.0954C66.3147 26.8691 66.5188 25.7151 66.9282 24.6322C67.3325 23.5487 67.8993 22.6038 68.6216 21.7951C69.344 20.9882 70.1938 20.3537 71.1755 19.8909C72.155 19.4299 73.2213 19.1973 74.3666 19.1973C74.5143 19.1973 74.7782 19.2081 75.1481 19.2244C75.526 19.2419 75.9534 19.2804 76.4338 19.3425C76.916 19.4082 77.4212 19.5082 77.9558 19.6498C78.4864 19.792 78.9905 19.9873 79.4738 20.2362L77.856 27.4813ZM75.2604 22.5797C75.0466 22.5454 74.8521 22.5188 74.6784 22.5014C74.5042 22.4815 74.2955 22.4718 74.0423 22.4718C73.4762 22.4718 72.949 22.6261 72.4595 22.9262C71.9672 23.2263 71.5415 23.6228 71.1755 24.1121C70.8118 24.6002 70.5225 25.1637 70.3139 25.8037C70.1086 26.4424 70.0043 27.1083 70.0043 27.8019C70.0043 28.6534 70.1374 29.3295 70.4013 29.8255C70.6674 30.322 71.1597 30.5709 71.8736 30.5709C72.2587 30.5709 72.5993 30.4925 72.9078 30.331C73.2129 30.1708 73.5439 29.905 73.8918 29.532C73.9251 29.0867 73.9792 28.6227 74.0564 28.1339C74.1309 27.644 74.2064 27.1951 74.2955 26.7883L75.2604 22.5797Z" fill="#1C3044"/>
<path d="M83.4872 20.1577C83.7731 20.0691 84.0714 19.9655 84.399 19.8504C84.7221 19.7359 85.087 19.6292 85.4935 19.5292C85.9029 19.434 86.358 19.3544 86.8655 19.29C87.3696 19.2291 87.96 19.1978 88.6237 19.1978C89.4205 19.1978 90.0797 19.3032 90.6053 19.5189C91.1258 19.7305 91.6051 20.051 92.0359 20.4753C92.6528 20.1029 93.2635 19.7955 93.8731 19.5557C94.4765 19.3183 95.1858 19.1978 95.9984 19.1978C96.7794 19.1978 97.4505 19.3092 98.0048 19.5292C98.5602 19.7516 99.0215 20.0709 99.3908 20.491C99.7557 20.9086 100.018 21.4063 100.186 21.9824C100.353 22.5585 100.435 23.1906 100.435 23.8866C100.435 24.206 100.415 24.5441 100.375 24.8966C100.332 25.2522 100.271 25.6083 100.186 25.9626L98.492 33.526H94.7787L96.4242 26.1235C96.471 25.8734 96.5262 25.5938 96.5871 25.2823C96.6413 24.9731 96.67 24.6646 96.67 24.3633C96.67 23.8674 96.5629 23.4377 96.3469 23.0731C96.1332 22.7091 95.7108 22.5266 95.077 22.5266C94.7279 22.5266 94.3986 22.5934 94.0823 22.726C93.7654 22.8598 93.4868 22.9972 93.2325 23.1364C93.2675 23.2804 93.2838 23.413 93.2838 23.5395V23.886C93.2838 24.2054 93.2646 24.5435 93.2223 24.896C93.1778 25.2516 93.1191 25.6077 93.0317 25.962L91.3417 33.5254H87.6251L89.2728 26.1229C89.3207 25.8728 89.3737 25.5932 89.4346 25.2817C89.4899 24.9725 89.5232 24.664 89.5232 24.3627C89.5232 23.8668 89.4138 23.4371 89.1967 23.0725C88.9807 22.7085 88.5561 22.526 87.9279 22.526C87.6578 22.526 87.4356 22.5386 87.2535 22.5663C87.0674 22.5928 86.8548 22.6332 86.6067 22.6838L84.1898 33.5254H80.4754L83.4872 20.1577Z" fill="#1C3044"/>
<path d="M110.508 19.2282C111.303 19.2282 111.99 19.3759 112.572 19.6784C113.153 19.9797 113.635 20.387 114.019 20.9029C114.399 21.4181 114.683 22.0207 114.868 22.7137C115.051 23.4067 115.14 24.1545 115.14 24.953C115.14 26.1775 114.926 27.3345 114.505 28.4288C114.081 29.5177 113.505 30.4717 112.773 31.2774C112.039 32.0843 111.176 32.7242 110.181 33.1949C109.184 33.6643 108.105 33.9005 106.938 33.9005C106.791 33.9005 106.529 33.8951 106.155 33.8854C105.781 33.8764 105.355 33.8378 104.872 33.7649C104.391 33.6944 103.877 33.589 103.341 33.4468C102.796 33.3045 102.288 33.1081 101.804 32.8604L106.115 13.498L109.982 12.8599L108.435 19.7308C108.769 19.5699 109.101 19.4476 109.432 19.3578C109.766 19.2698 110.121 19.2282 110.508 19.2282ZM107.263 30.6241C107.847 30.6241 108.396 30.4741 108.909 30.1728C109.42 29.8703 109.868 29.4647 110.242 28.9609C110.62 28.4554 110.912 27.8811 111.127 27.2411C111.344 26.6035 111.452 25.9371 111.452 25.2453C111.452 24.3926 111.318 23.7249 111.052 23.247C110.785 22.7685 110.296 22.5281 109.582 22.5281C109.349 22.5281 109.047 22.5745 108.673 22.6625C108.298 22.7505 107.964 22.9355 107.662 23.2199L106.019 30.5187C106.115 30.5368 106.205 30.5548 106.279 30.5723C106.354 30.5904 106.434 30.6018 106.518 30.6133C106.6 30.6187 106.698 30.6247 106.816 30.6247H107.263V30.6241Z" fill="#1C3044"/>
<path d="M120.078 33.527H116.386L119.503 19.5194H123.215L120.078 33.527ZM121.872 17.814C121.355 17.814 120.89 17.6495 120.473 17.3205C120.057 16.9933 119.852 16.4913 119.852 15.814C119.852 15.4421 119.919 15.0926 120.064 14.763C120.201 14.4352 120.387 14.1508 120.621 13.9109C120.857 13.6705 121.123 13.4807 121.429 13.339C121.738 13.1962 122.069 13.1245 122.42 13.1245C122.932 13.1245 123.396 13.2896 123.812 13.6168C124.226 13.9483 124.438 14.4496 124.438 15.1216C124.438 15.494 124.365 15.8477 124.224 16.1737C124.08 16.5051 123.895 16.786 123.662 17.0264C123.43 17.2662 123.161 17.4567 122.852 17.5995C122.545 17.7411 122.22 17.814 121.872 17.814Z" fill="#1C3044"/>
<path d="M127.952 30.703C128.796 30.703 129.38 30.5771 129.693 30.3174C130.01 30.0595 130.166 29.7817 130.166 29.4798C130.166 29.2845 130.138 29.1158 130.079 28.9742C130.021 28.8307 129.928 28.697 129.796 28.5728C129.661 28.4487 129.479 28.3191 129.248 28.1866C129.012 28.0522 128.713 27.8991 128.348 27.7225C127.934 27.5249 127.539 27.3182 127.174 27.0952C126.811 26.8723 126.492 26.6065 126.214 26.295C125.944 25.9858 125.729 25.6297 125.571 25.2308C125.41 24.8312 125.333 24.3558 125.333 23.8062C125.333 22.3666 125.826 21.2294 126.817 20.3978C127.804 19.5626 129.247 19.145 131.139 19.145C132.035 19.145 132.835 19.2511 133.531 19.462C134.228 19.6765 134.794 19.9073 135.224 20.1574L133.957 23.1132C133.606 22.9155 133.158 22.7299 132.609 22.554C132.061 22.3762 131.52 22.2876 130.991 22.2876C130.757 22.2876 130.528 22.3009 130.301 22.328C130.078 22.3521 129.869 22.4118 129.679 22.5015C129.489 22.5901 129.334 22.7131 129.221 22.8722C129.103 23.0349 129.045 23.2464 129.045 23.5115C129.045 23.8677 129.171 24.1352 129.428 24.3124C129.687 24.4902 130.052 24.7029 130.515 24.9524C131.163 25.2874 131.705 25.599 132.137 25.8834C132.568 26.1678 132.915 26.4697 133.168 26.7861C133.429 27.1091 133.612 27.4719 133.731 27.881C133.847 28.289 133.905 28.7687 133.905 29.3176C133.905 29.8871 133.793 30.4463 133.569 30.9965C133.342 31.5467 132.992 32.0354 132.512 32.4627C132.031 32.8869 131.411 33.2358 130.667 33.4991C129.919 33.7649 129.022 33.9005 127.976 33.9005C127.327 33.9005 126.741 33.8559 126.214 33.7655C125.693 33.6769 125.233 33.5678 124.834 33.4335C124.434 33.3003 124.098 33.1629 123.824 33.0207C123.549 32.8797 123.34 32.7646 123.19 32.6742L124.458 29.6394C124.742 29.8166 125.183 30.0384 125.782 30.3047C126.378 30.5711 127.103 30.703 127.952 30.703Z" fill="#1C3044"/>
<path d="M139.539 16.0282L143.401 15.3906L142.454 19.5191H146.592L145.846 22.7677H141.731L140.636 27.6682C140.536 28.0749 140.474 28.4582 140.449 28.8137C140.425 29.1662 140.464 29.473 140.573 29.7321C140.683 29.9888 140.87 30.1877 141.133 30.3311C141.399 30.4733 141.765 30.5438 142.232 30.5438C142.627 30.5438 143.015 30.5052 143.389 30.4233C143.764 30.3461 144.139 30.2347 144.524 30.09L144.797 33.126C144.298 33.3236 143.759 33.4899 143.177 33.6352C142.595 33.775 141.907 33.8443 141.112 33.8443C139.964 33.8443 139.074 33.6647 138.442 33.2995C137.809 32.9343 137.362 32.4366 137.095 31.8081C136.831 31.1783 136.713 30.4552 136.748 29.6381C136.78 28.8209 136.898 27.958 137.095 27.0553L139.539 16.0282Z" fill="#1C3044"/>
<path d="M158.382 27.4813C158.15 28.4919 158.081 29.5091 158.182 30.5299C158.282 31.5531 158.47 32.4613 158.751 33.2603L155.441 33.7671C155.342 33.552 155.248 33.3489 155.166 33.1513C155.085 32.959 154.999 32.7373 154.915 32.4896C154.452 32.8976 153.938 33.232 153.373 33.499C152.807 33.7671 152.174 33.9003 151.476 33.9003C150.646 33.9003 149.937 33.7448 149.344 33.4333C148.756 33.1241 148.276 32.7065 147.899 32.1817C147.525 31.6586 147.258 31.0463 147.09 30.3461C146.927 29.6459 146.843 28.8914 146.843 28.0954C146.843 26.8691 147.043 25.7151 147.449 24.6322C147.858 23.5487 148.425 22.6038 149.148 21.7951C149.87 20.9882 150.722 20.3537 151.704 19.8909C152.683 19.4299 153.744 19.1973 154.89 19.1973C155.04 19.1973 155.302 19.2081 155.676 19.2244C156.052 19.2419 156.48 19.2804 156.96 19.3425C157.44 19.4082 157.949 19.5082 158.478 19.6498C159.011 19.792 159.517 19.9873 160 20.2362L158.382 27.4813ZM155.788 22.5797C155.573 22.5454 155.378 22.5188 155.206 22.5014C155.03 22.4815 154.817 22.4718 154.566 22.4718C154.004 22.4718 153.476 22.6261 152.986 22.9262C152.492 23.2263 152.065 23.6228 151.704 24.1121C151.334 24.6002 151.051 25.1637 150.839 25.8037C150.635 26.4424 150.53 27.1083 150.53 27.8019C150.53 28.6534 150.664 29.3295 150.928 29.8255C151.194 30.322 151.684 30.5709 152.4 30.5709C152.779 30.5709 153.126 30.4925 153.432 30.331C153.74 30.1708 154.073 29.905 154.417 29.532C154.454 29.0867 154.507 28.6227 154.578 28.1339C154.656 27.644 154.733 27.1951 154.818 26.7883L155.788 22.5797Z" fill="#1C3044"/>
</svg>
