<svg width="160" height="52" viewBox="0 0 160 52" fill="none" xmlns="http://www.w3.org/2000/svg">
<path d="M64.093 16.9527H69.2709L62.4332 35.7351C61.4544 38.4163 60.1634 40.3598 58.5604 41.5798C56.9432 42.7998 54.9429 43.3389 52.5455 43.2112V38.7C53.8506 38.7284 54.872 38.4447 55.638 37.8772C56.4041 37.2956 57.0141 36.3735 57.4539 35.0967L49.765 16.9385H55.0564L59.9506 29.55L64.093 16.9527Z" fill="#202020"/>
<path d="M83.8685 16.9531H88.7059V35.7072H83.8685V33.4941C82.4215 35.3242 80.3787 36.2321 77.7542 36.2321C75.2575 36.2321 73.1154 35.2816 71.3279 33.3665C69.5405 31.4513 68.6467 29.1106 68.6467 26.3301C68.6467 23.5497 69.5405 21.209 71.3279 19.2938C73.1154 17.3787 75.2575 16.4282 77.7542 16.4282C80.3787 16.4282 82.4215 17.3361 83.8685 19.1661V16.9531V16.9531ZM74.9312 30.132C75.91 31.1251 77.1442 31.6074 78.648 31.6074C80.1517 31.6074 81.3859 31.1109 82.3789 30.132C83.3719 29.139 83.8543 27.8764 83.8543 26.3301C83.8543 24.7839 83.3578 23.5071 82.3789 22.5283C81.3859 21.5352 80.1517 21.0529 78.648 21.0529C77.1442 21.0529 75.91 21.5494 74.9312 22.5283C73.9523 23.5213 73.47 24.7839 73.47 26.3301C73.47 27.8764 73.9523 29.1532 74.9312 30.132Z" fill="#202020"/>
<path d="M101.417 16.4282C103.474 16.4282 105.162 17.1233 106.495 18.4852C107.829 19.8613 108.496 21.7622 108.496 24.188V35.7072H103.658V24.798C103.658 23.5497 103.318 22.585 102.651 21.9324C101.97 21.2657 101.076 20.9394 99.9555 20.9394C98.7071 20.9394 97.6999 21.3224 96.948 22.1027C96.1962 22.8829 95.8273 24.0462 95.8273 25.5925V35.7214H90.9899V16.9531H95.8273V19.0527C97.0048 17.3078 98.8632 16.4282 101.417 16.4282Z" fill="#202020"/>
<path d="M127.945 35.7072H122.313L115.489 27.1813V35.7072H110.652V16.9531H115.489V25.2378L121.944 16.9531H127.718L120.185 26.2167L127.945 35.7072Z" fill="#202020"/>
<path d="M129.718 35.7072V22.8971L134.556 16.9531V35.7072H129.718Z" fill="#202020"/>
<path d="M129.718 10.4844L134.556 16.4284V10.4844H129.718Z" fill="#88F298"/>
<path d="M32.77 14.7827L5.44748 42.1194C9.30611 45.978 14.3847 47.8506 19.435 47.7655V49.7374C19.435 50.4325 20.0025 50.9999 20.6976 50.9999H23.1802C23.8753 50.9999 24.4427 50.4325 24.4427 49.7374V47.0278C27.4927 46.1483 30.3725 44.5169 32.77 42.1194C40.317 34.5724 40.317 22.3297 32.77 14.7827Z" fill="url(#paint0_linear)"/>
<g filter="url(#filter0_d)">
<path d="M24.4427 3.47611V1.51843C24.4427 0.823305 23.8753 0.255859 23.1802 0.255859H20.6976C20.0025 0.255859 19.435 0.823305 19.435 1.51843V4.21379C16.385 5.09333 13.5052 6.72474 11.1077 9.1222C3.56072 16.6692 3.56072 28.8977 11.1077 36.4447L38.4303 9.1222C34.5716 5.26357 29.493 3.391 24.4427 3.47611Z" fill="url(#paint1_linear)"/>
</g>
<defs>
<filter id="filter0_d" x="3.44748" y="0.255859" width="36.9828" height="42.1888" filterUnits="userSpaceOnUse" color-interpolation-filters="sRGB">
<feFlood flood-opacity="0" result="BackgroundImageFix"/>
<feColorMatrix in="SourceAlpha" type="matrix" values="0 0 0 0 0 0 0 0 0 0 0 0 0 0 0 0 0 0 127 0"/>
<feOffset dy="4"/>
<feGaussianBlur stdDeviation="1"/>
<feColorMatrix type="matrix" values="0 0 0 0 0 0 0 0 0 0 0 0 0 0 0 0 0 0 0.12 0"/>
<feBlend mode="normal" in2="BackgroundImageFix" result="effect1_dropShadow"/>
<feBlend mode="normal" in="SourceGraphic" in2="effect1_dropShadow" result="shape"/>
</filter>
<linearGradient id="paint0_linear" x1="5.4428" y1="32.8961" x2="38.4315" y2="32.8961" gradientUnits="userSpaceOnUse">
<stop stop-color="#88F2DB"/>
<stop offset="1" stop-color="#88F298"/>
</linearGradient>
<linearGradient id="paint1_linear" x1="5.4428" y1="18.3557" x2="38.4315" y2="18.3557" gradientUnits="userSpaceOnUse">
<stop stop-color="#88F2DB"/>
<stop offset="1" stop-color="#88F298"/>
</linearGradient>
</defs>
</svg>
